<?xml version="1.0" encoding="UTF-8"?><svg xmlns="http://www.w3.org/2000/svg" viewBox="0 0 180 180"><path d="M42.75 163.97c-6.37-28.93-12.27-57.98-17.51-87.13-1.48-8.27-2.86-16.55-4.15-24.85l-1.55 2.73c19.55-3.7 39.11-7.37 58.64-11.22 8.62-1.7 17.24-3.45 25.8-5.41.85-.19 1.69-.39 2.54-.59.14-.03 1.18-.36 1.23-.29.03.03-1.24-.04-1.41-.11-.41-.16-.31-.14-.21-.08-1.29-.78.12.06-.51-.45-.35-.28-.12-.21-.07-.06.06.16.18.39.27.53-.37-.57-.1-.25.04.14.11.29.2.59.3.89.23.73.43 1.46.63 2.2 2.7 10.25 4.4 20.81 6.24 31.23 1.58 8.96 3.11 17.93 4.57 26.91 1.54 9.43 3.25 18.75 5.41 28.06 2.52 10.85 5.07 21.76 6.16 32.87.27 2.71.46 5.42.56 8.15l2.2-2.2c-10.36-.45-20.8.21-31.14.78-11.4.63-22.8 1.44-34.22 1.71-2.89.07-5.77.1-8.66.06-2.58-.03-5.22.09-7.79-.09s-2.5 3.73 0 3.91 4.73.46 7.13.5c2.51.04 5.02.02 7.53-.02 5.49-.1 10.98-.36 16.46-.65 11.41-.62 22.8-1.47 34.22-1.87 5.49-.19 10.98-.2 16.47.09 1.17.06 2.23-1.06 2.2-2.2-.3-11.49-2.42-22.83-4.91-34.02-1.23-5.56-2.6-11.08-3.79-16.65s-2.16-11.54-3.09-17.33c-1.37-8.56-2.74-17.11-4.2-25.66-1.89-11.07-3.75-22.21-6.42-33.12-.38-1.54-.76-3.09-1.28-4.59-.4-1.15-.87-2.52-1.99-3.17-1.37-.78-3.19.04-4.58.37-1.99.46-3.98.91-5.98 1.34-4.34.95-8.68 1.85-13.04 2.73-19.79 4.01-39.71 7.38-59.46 11.57-2.34.5-4.68.99-7.02 1.49-1.25.27-1.75 1.6-1.55 2.73 5.23 29.15 10.69 58.24 17.14 87.14 1.83 8.19 3.78 16.34 5.77 24.49.48 1.97 3.46 1.13 3.03-.83Z"/><path d="M18.96 51.67C36.61 37.32 56.58 22.61 75.51 10c.81 9.4 1.33 18.82 1.54 28.25.01.44 0 .92-.25 1.28-.32.45-.93.57-1.48.66-14.81 2.27-36.52 7.5-51.33 9.77"/><path d="M19.82 53.14c7.31-5.35 14.37-11.07 21.63-16.49 7.38-5.52 14.86-10.91 22.43-16.16 4.21-2.92 8.45-5.79 12.72-8.62-1.09-.62-2.17-1.25-3.26-1.87.52 6.27.93 12.54 1.2 18.82.06 1.49.12 2.98.17 4.46.03.83.05 1.65.08 2.48 0 .33.02.66.03.99 0 .35-.13 1.17.04 1.49v.34c.68-.55.81-.75.38-.61-.23-.02-.6.11-.83.15-.45.07-.9.14-1.35.22-1.18.19-2.35.39-3.53.6-10.1 1.79-20.12 4-30.18 6.02-2.71.54-5.42 1.07-8.14 1.58-2.58.48-5.23.75-7.72 1.58-2.02.67-1.71 3.73.51 3.76 2.45.04 4.85-.51 7.25-.95 2.56-.46 5.12-.95 7.67-1.46 5.48-1.08 10.95-2.22 16.42-3.34 5.17-1.05 10.34-2.09 15.53-3 1.11-.2 2.23-.39 3.35-.57 1.27-.2 2.64-.25 3.69-1.08 1.2-.95 1.35-2.3 1.32-3.73-.04-1.82-.1-3.64-.17-5.46-.27-7.44-.73-14.88-1.4-22.3-.13-1.51-1.78-2.86-3.26-1.87-15.33 10.3-30.31 21.16-44.82 32.59-4.01 3.16-8.05 6.33-11.84 9.75-1.41 1.27.49 3.83 2.06 2.67Zm62.87 84.29c-10.33-7.3-26.87-21.95-29.97-34.21-1.05-4.15-.9-9.25 2.5-11.86 3.36-2.58 8.49-1.37 11.57 1.54s4.61 7.06 6.03 11.05c-.27-4.05.26-8.16 1.56-12.01 1.14-3.38 3.27-6.88 6.74-7.72 2.93-.71 6.08.8 7.95 3.16 1.88 2.36 2.66 5.41 2.92 8.41.71 7.96-1.84 15.82-4.35 23.41-1.46 4.4-3.51 13.84-4.97 18.24"/><path d="M83.48 136.08c-8.3-5.95-16.11-13.11-22.33-21.22-2.78-3.62-5.41-7.68-6.53-12.16-1-4.01-.73-10.58 4.76-10.77 6.79-.24 9.69 7.29 11.53 12.55.7 2 4.03 1.84 3.9-.53-.16-3.03.07-6.05.8-9 .58-2.33 1.38-4.78 2.94-6.66 1.34-1.62 3.23-2.59 5.34-2.02 2.3.61 3.97 2.46 4.89 4.59 2.24 5.18 1.33 11.61.1 16.91-1.17 5.02-3.04 9.83-4.38 14.8-1.28 4.76-2.62 9.55-3.6 14.37-.39 1.92 2.45 3.45 3.38 1.43 2.07-4.5 2.88-9.6 4.15-14.37 1.55-5.84 3.81-11.47 4.94-17.43s1.7-13.7-1.81-19.24c-3.22-5.1-9.92-7.17-14.79-3.05-2.38 2.02-3.75 5.08-4.64 8.01-1.14 3.76-1.57 7.74-1.31 11.66 1.3-.18 2.6-.35 3.9-.53-2.24-6.13-5.02-12.97-11.89-14.97-2.87-.84-6.17-.6-8.62 1.21s-3.74 4.83-4 7.93c-.47 5.53 2 10.93 4.95 15.45 3.33 5.1 7.51 9.61 11.94 13.77 4.63 4.34 9.6 8.33 14.79 11.98 1.65 1.16 3.2-1.54 1.58-2.7Zm46.13-89.23c-4.36-5.67-11.09-14.61-12.75-21.56-.46-1.92-.53-4.31 1.07-5.47.84-.61 1.94-.71 2.98-.65 2.33.13 4.83 1.12 5.83 3.22 1.11 2.32.08 5.25 1.22 7.56-.44-4.59 1.66-9.33 5.35-12.09 1.09-.82 2.43-1.49 3.77-1.22 2.44.49 3.24 3.66 2.79 6.1-.61 3.35-2.53 6.29-4.19 9.27-2.6 4.68-4.64 9.67-6.06 14.84"/><path d="M130.99 46.05c-4.43-5.89-9.35-12.14-11.75-19.2-.47-1.39-1.06-3.08-.73-4.56.38-1.7 2.52-1.35 3.82-1 1.68.46 2.84 1.46 3.05 3.25.26 2.23.01 4.26.94 6.37.75 1.71 3.66.85 3.51-.95-.28-3.52.89-7.01 3.4-9.53.84-.84 2.77-2.71 4-1.62.93.82.92 2.54.73 3.63-.71 4.06-3.53 7.62-5.34 11.24-2.02 4.05-3.64 8.3-4.83 12.66-.64 2.34 2.97 3.33 3.63 1 1.17-4.12 2.67-8.12 4.6-11.94 1.79-3.55 4.2-6.87 5.33-10.72.9-3.05.79-7.19-2.13-9.16-3.39-2.29-7.37.51-9.55 3.18-2.57 3.15-3.95 7.17-3.62 11.24 1.17-.32 2.34-.63 3.51-.95-.74-1.67-.28-3.8-.58-5.57-.32-1.91-1.41-3.48-2.99-4.56-2.73-1.87-7.76-2.55-10.06.31-2.16 2.68-1.08 6.57.07 9.45 1.37 3.41 3.23 6.58 5.27 9.63 2.24 3.35 4.71 6.55 7.19 9.72 1.11 1.41 3.59-.48 2.5-1.93Zm8.11 40.41c-.87-3.14-1.44-6.33-1.69-9.58-.2-2.56-.48-5.77 1.21-7.94 1.05-1.35 3.48-2.43 4.81-.86.69.81.87 1.98.9 3.01.02.69.18 2.57-.48 3.06l2.35 2.35c1.54-2.44 4.06-5.75 7.06-6.41 2.47-.54 4.92 1.8 4.45 4.3-.54 2.87-3.59 4.89-5.77 6.48-2.98 2.17-6.16 3.93-9.26 5.9-1.75 1.11-.23 3.5 1.59 2.71 4.2-1.83 8.18-4.67 11.76-7.5 2.93-2.31 5.81-5.6 5.04-9.62-.71-3.75-4.63-6.39-8.36-5.67-4.08.79-7.38 4.75-9.48 8.08-.87 1.39.94 3.39 2.35 2.35 2.79-2.05 2.7-6.89 1.36-9.79-1.55-3.37-5.39-4.22-8.53-2.56-3.47 1.82-4.48 5.86-4.41 9.5.09 4.36 1.04 8.8 2.27 12.97.53 1.8 3.32 1.04 2.82-.78Zm10.97 20.01c.9-.16 1.77-.41 2.66-.61s1.6-.31 2.36-.39c.87-.08 1.75-.14 2.63-.13s1.82.11 2.73.09c1.77-.04 2.19-2.65.42-3.13-1.97-.53-4.23-.36-6.22-.07-1.92.27-3.98.71-5.65 1.74-.58.36-.84 1.09-.56 1.72.29.66.93.92 1.62.8Zm1.89 15.48a27 27 0 0 1 2.58.22c.17.03.33.05.5.08a25.5 25.5 0 0 1 3.29.74c.76.22 1.49.53 2.26.67s1.6-.15 1.94-.95.03-1.61-.67-2.05c-.75-.46-1.61-.71-2.45-.95-.79-.22-1.58-.41-2.39-.56-1.67-.31-3.37-.45-5.07-.43-.85 0-1.66.74-1.62 1.62s.71 1.58 1.62 1.62Zm-.92 15.27c1.01.71 2.05 1.36 3.13 1.95.54.3 1.09.57 1.64.83.38.18.77.36 1.16.51s.8.19 1.22.24c.35.04.74-.15 1-.36.27-.21.51-.51.59-.86.18-.77-.14-1.42-.76-1.87-.25-.19-.5-.33-.79-.46-.18-.08-.36-.15-.53-.22.25.11.29.12.11.05l-.42-.18c-.53-.23-1.05-.48-1.57-.74-1.07-.53-2.1-1.12-3.11-1.77-.74-.47-1.88-.18-2.29.6-.45.86-.17 1.75.6 2.29Zm-.83 18.95.99.17.5.09c.21.04.42.08.64.08h.27c.22 0 .43-.04.63-.14.2-.07.38-.18.52-.34l.25-.33c.12-.19.18-.39.19-.6.04-.14.04-.29 0-.43 0-.22-.07-.42-.19-.6l-.25-.33q-.3-.3-.72-.42c-.16-.06-.31-.12-.48-.14l-.48-.08-.98-.16c-.22-.07-.45-.08-.67-.03-.22.01-.43.08-.62.2-.2.11-.35.25-.47.43q-.225.24-.3.57c-.1.43-.08.91.17 1.29l.26.34c.21.21.46.35.74.43"/></svg>