<?xml version="1.0" encoding="UTF-8"?><svg xmlns="http://www.w3.org/2000/svg" viewBox="0 0 180 180"><path d="M109.87 121.64c-10.19-3.97-26.65-15.58-34.32-23.38-5.07-5.15-10.34-12.11-9.44-19.78.64-5.48 4.23-11.01 10.04-11.78 3.82-.51 7.6 1.21 10.75 3.41a35.2 35.2 0 0 1 12.26 15.15c-4.03-9.57 5.04-30.91 17.86-26.06 5.84 2.21 8.04 10.08 8.27 15.69.42 10.41-3.07 20.43-6.87 29.95-1.99 4.98-5.32 10.95-8.19 15.48"/><path d="M110.29 120.13c-5.85-2.33-11.3-6.07-16.45-9.65-5.39-3.75-10.66-7.75-15.39-12.31-4.84-4.67-10.25-10.91-10.18-18.05.06-6.14 4.73-12.6 11.47-10.96 4.05.98 7.61 3.8 10.51 6.69 3.03 3.02 5.4 6.56 7.08 10.49.94 2.19 4.8.6 3.89-1.64-1.75-4.28-.82-9.45.97-13.83.92-2.26 2.24-4.53 3.83-6.29 1.56-1.73 3.26-3.06 5.32-3.62 1.01-.28 1.86-.35 2.89-.23s2.36.57 3.36 1.21c2.44 1.57 3.78 4.51 4.56 7.2 2.22 7.66.54 16.13-1.72 23.58-2.83 9.34-6.72 18.33-11.86 26.62-1.31 2.12 2 4.03 3.33 1.95 2.51-3.93 4.93-7.98 6.98-12.17 2.15-4.38 3.84-9.04 5.33-13.68 2.72-8.46 4.65-18.06 2.35-26.84-.91-3.46-2.55-7.03-5.33-9.39-2.43-2.05-5.7-3.19-8.89-2.87-6.05.6-10.51 5.41-13.08 10.6-2.72 5.5-4.59 12.94-2.16 18.88 1.3-.55 2.59-1.09 3.89-1.64-3.27-7.64-9.33-14.99-17.09-18.36-4.03-1.75-8.55-2.1-12.48.1-3.3 1.84-5.56 5.12-6.75 8.64-2.87 8.44 1.54 16.56 7.06 22.75 4.77 5.34 10.56 9.79 16.38 13.91 6.66 4.71 13.71 8.96 21.33 11.93 1.89.74 2.69-2.29.83-3.03Z"/><path d="M121.64 69.47c1.92-9.63 6.4-19.94 15.61-24.6 2.45-1.24 5.15-1.87 7.83-2.4 2.54-.5 5.1-1 7.67-1.32 2.55-.32 5.14-.47 7.7-.25 2.23.2 5.08.69 6.94 2.03.73.53.62.51-.19.94-1.14.61-2.5.88-3.73 1.24-3.19.91-6.44 1.64-9.71 2.17-1 .16-1.62 1.35-1.49 2.28.16 1.07.98 1.7 2.04 1.8 1.96.17 3.92.4 5.8.99.87.27 1.7.64 2.45 1.17.41.29 1.78 1.34 1.69 1.95-.15 1.09-4.45 1.29-5.21 1.36-2.66.23-5.34.15-7.97-.3-2.64-.44-3.83 3.38-1.13 4.1 1.7.45 3.71.94 4.97 2.25 1.21 1.25.91 3.02-.19 4.25-1.37 1.54-3.72 1.76-5.64 1.41-2.58-.48-4.85-1.86-7.08-3.17l-1.65 3.9c1.49.35 3.19 1.02 4.03 2.39.71 1.16.31 2.38-.71 3.2-3.3 2.62-7.52-.37-10.12-2.55-1.55-1.3-4.24.37-2.99 2.3 2.19 3.38-3.94 4.88-6 5.33-2.21.48-1.27 3.81.93 3.37 2.67-.53 5.59-1.26 7.42-3.44 1.67-2 2.31-4.86.94-7.18-1 .77-1.99 1.54-2.99 2.3 2.33 2.12 5 4.29 8.18 4.9 2.86.55 5.87-.2 7.96-2.29s2.64-5.2 1.23-7.81-4.08-3.99-6.74-4.63c-2.32-.55-3.78 2.65-1.65 3.9 3.07 1.8 6.24 3.54 9.86 3.84 3.37.28 6.79-.92 8.8-3.72 1.81-2.52 1.99-5.97.1-8.49-1.8-2.4-4.75-3.41-7.54-4.16-.38 1.37-.75 2.73-1.13 4.1 3.76.61 7.5.66 11.26.1 2.82-.42 6.78-1.26 7.19-4.71.38-3.2-2.71-5.87-5.36-7.04-2.76-1.22-5.75-1.57-8.74-1.77l.55 4.07c3.42-.62 6.81-1.37 10.16-2.32 2.49-.7 5.78-1.43 6.8-4.17 1.14-3.06-1.5-5.29-4-6.42-2.87-1.3-5.92-1.87-9.06-1.95-3.07-.08-6.15.31-9.18.8-3.27.53-6.6 1.07-9.78 2-5.68 1.66-10.49 5.22-13.98 9.97-4.17 5.67-6.05 12.63-7.04 19.5-.27 1.84 2.48 2.7 2.86.79ZM74.32 81.25c-4.54-3.2-9.71-5.77-14.88-7.76-5.36-2.07-10.86-3.86-16.61-4.39-3.87-.35-7.71-.35-11.4 1.02-3.62 1.34-6.86 3.44-10.04 5.58s-6.44 4.33-9.33 6.86c-2.47 2.17-5.53 5.68-3.78 9.15 1.91 3.77 6.99 4.29 10.64 3.36 4.2-1.07 7.52-4.03 11.43-5.77-.9-1.16-1.8-2.33-2.69-3.49-1.41 1.44-2.81 2.89-4.13 4.41-1.12 1.3-2.37 2.61-2.88 4.29-1 3.3 1.48 6.46 4.49 7.54 3.35 1.2 6.94-.44 9.65-2.38 3.02-2.15 5.85-4.71 8.25-7.54l-3.03-3.03c-2.07 2.61-4.08 6.16-3.71 9.62.39 3.67 4 5.1 7.26 5.28 5.87.31 11.62-3.84 13.16-9.49l-3.92-1.08c-1.03 4.23-1.42 10.42 3.44 12.48 4.71 2 9.94-1.58 10.87-6.38l-3.36.44c2.89 5.85 10.82 6.83 15.3 2.27 1.57-1.6-.82-3.97-2.45-2.45-3.08 2.86-7.67 1.89-9.68-1.67-.71-1.25-3.13-1.18-3.36.44s-.58 3.16-2.03 4.17c-1.22.85-3.04.95-4.23-.01-2.34-1.89-1.18-5.77-.58-8.19s-3.23-3.61-3.92-1.08c-.96 3.5-4.29 6.14-7.91 6.4-1.19.09-4.06.06-4.33-1.49-.17-.96.37-2.23.72-3.12.43-1.09 1.03-2.17 1.75-3.1s.89-2.14 0-3.03c-.76-.76-2.28-.89-3.03 0-1.77 2.13-3.64 4.09-5.79 5.84-1.85 1.5-4.21 3.4-6.73 3.37-1.49-.02-3.49-1.39-2.53-3.02.67-1.13 1.8-2.06 2.69-3.01 1.04-1.12 2.09-2.24 3.16-3.34 1.86-1.91-.48-4.49-2.69-3.49-3.05 1.38-5.67 3.6-8.78 4.85-1.84.74-5.65 1.65-7-.49-.19-.3-.02-.42.33-.96s.73-.97 1.15-1.42c1.08-1.13 2.31-2.09 3.56-3.02 2.75-2.03 5.56-3.96 8.43-5.81 2.63-1.69 5.36-3.37 8.39-4.25s6.48-.61 9.72-.29c.55.05 1.64.24 2.52.42 1.26.26 2.52.54 3.77.86 2.54.65 5.05 1.43 7.53 2.29 5.1 1.77 10.35 3.54 14.95 6.42 1.81 1.13 3.34-1.63 1.65-2.82Z"/><path d="M41.84 80.59c-1.12 3.56 1.53 7.09 5.21 7.26 3.48.15 5.2-3.04 7.96-4.47l-2.18-2.18c-1.43 3.24 1.17 5.67 4.07 6.61 2.62.86 6.6.23 7.01-3.06.15-1.23-1.55-1.71-2.32-.96-.48.47-.85.96-1.52 1.14s-1.35.05-1.99-.15c-1-.3-2.86-1.03-2.34-2.36.54-1.37-1.23-2.42-2.35-1.8-.99.55-1.86 1.29-2.69 2.06-.76.7-1.52 1.5-2.49 1.9-2.14.89-4.2-1.08-3.73-3.27.36-1.72-2.11-2.41-2.64-.73Zm87.64-16.24c1.8 2.28 5.66 2.07 7.51-.04 2.01-2.3 1.59-6.11-.74-8.04-1.55-1.29-3.59.69-2.23 2.23 1.76 2.01 4.93 2.15 7.13.81 2.46-1.49 3.49-4.4 3.6-7.15.03-.8-.71-1.48-1.48-1.48-.85 0-1.42.68-1.48 1.48-.12 1.6-.78 3.49-2.08 4.33-.64.41-1.19.48-1.94.5-.33 0 .06.05-.24-.02-.21-.05-.43-.1-.63-.18.21.09-.29-.18-.34-.22.16.11-.24-.25-.29-.3l-2.23 2.23c.7.57.99 1.05 1.14 1.93.05.27-.01-.19 0 .09 0 .11.01.22.01.33s0 .22-.01.33c-.03.27.04-.18-.02.08-.03.15-.13.49-.15.52.02-.04-.28.47-.19.35-.12.16-.29.32-.45.45.12-.1-.03.01-.07.04-.09.06-.18.11-.27.16-.05.03-.22.1-.07.04-.1.04-.2.07-.3.1s-.21.05-.31.08c-.06.01-.24.03-.08.01-.72.07-1.41-.1-1.89-.55-.52-.49-1.37-.52-1.89 0-.56.56-.45 1.32 0 1.89Zm-64.73-6.59-.98-.86-.47-.42c-.18-.16-.36-.31-.56-.43l-.3-.17-.37-.16c-.21-.07-.42-.07-.62-.03-.14 0-.27.04-.39.11-.19.06-.36.17-.5.32l-.24.32-.16.37c-.07.21-.07.42-.03.62 0 .21.07.4.19.58.2.27.39.57.64.79l.49.43.98.86c.15.16.33.27.53.34.2.1.41.15.64.14.23 0 .44-.04.64-.14.2-.07.38-.18.53-.34.29-.31.5-.73.48-1.17s-.16-.88-.48-1.17Zm14.8-7.35s-.09-.07-.14-.1l.3.23c-.24-.18-.45-.4-.63-.63l.25.32c-.25-.33-.48-.68-.64-1.06l.17.4c-.08-.2-.16-.4-.22-.61s-.14-.4-.19-.61c-.09-.36-.4-.77-.73-.95s-.65-.24-1.01-.19c-.33.04-.68.18-.91.44-.29.32-.44.68-.46 1.12-.05.9.25 1.8.78 2.53.17.22.33.46.53.65s.42.36.65.52c.35.26.74.43 1.15.59.31.12.84.03 1.11-.15s.47-.4.59-.69.17-.64.07-.94c-.12-.37-.34-.64-.66-.86Zm13.39-2.12c-.03-1.59-.02-3.2-.32-4.77-.07-.36-.41-.78-.73-.95s-.65-.24-1.01-.19c-.8.11-1.33.76-1.38 1.56-.08 1.45.14 2.91.31 4.35.05.43.14.79.46 1.1.27.27.72.48 1.1.46.83-.04 1.58-.69 1.56-1.56Zm15.65-2.41 1.21-2.42c.18-.35.25-.73.15-1.12-.09-.34-.35-.7-.67-.87-.34-.18-.75-.27-1.12-.15-.35.11-.7.33-.87.67l-1.21 2.42c-.18.35-.25.73-.15 1.12.09.34.35.7.67.87.34.18.75.27 1.12.15.35-.11.7-.33.87-.67m11.31 4.7c2.01 0 2.01-3.12 0-3.12s-2.01 3.12 0 3.12m-60.18 72.08c2.82 11.5 16.58 20.21 28.03 15.32 2.84-1.21 5.26-3.51 5.83-6.64.53-2.93-.51-6.14-3.27-7.57s-6.14-.6-7.93 1.88c-1.55 2.15-1.71 5.17-.81 7.61 2.27 6.14 10.4 7.73 16.07 8.82 6.31 1.22 13.43 1.5 18.88-2.47 2.49-1.82 4.6-4.64 4.05-7.88-.47-2.77-2.91-5.23-5.87-4.76-3.11.49-5 3.84-4.44 6.81.6 3.21 3.53 5.43 6.61 6.04 7.2 1.44 15.33-2.41 20.19-7.58 5.29-5.64 7.59-13.48 6.38-21.09-.14-.89-1.25-1.37-2.05-1.16-.96.25-1.29 1.16-1.16 2.05 1.45 10.28-4.64 20.44-14.5 23.77-2.38.8-5.06 1.37-7.58 1.04-2.08-.27-4.87-1.72-4.78-4.2.07-1.81 2.32-3.09 3.53-1.44 1.4 1.91-.11 4.26-1.63 5.54-3.83 3.22-9.29 3.5-14.03 2.9-2.52-.32-5-.96-7.44-1.67-2.28-.66-4.65-1.47-6.54-2.96-1.56-1.23-2.63-2.86-2.6-4.9.02-1.57.79-3.27 2.55-3.41 2.09-.17 3.14 1.85 2.91 3.68-.28 2.21-2.12 3.7-4.09 4.46-9.52 3.68-20.84-3.65-23.42-12.97-.51-1.85-3.34-1.07-2.88.79Z"/></svg>