<?xml version="1.0" encoding="UTF-8"?><svg xmlns="http://www.w3.org/2000/svg" viewBox="0 0 180 180"><path d="M116.38 131.09c-5.73.9-11.55 1.24-17.34.92-5.72-.31-11.53-1.24-16.84-3.47-3.49-1.46-7.72-3.98-9.33-7.59-1.93-4.32 3.19-7.75 6.88-8.84 6.01-1.77 12.48 1.03 17.03 4.92 1.94 1.66 4.53-.89 2.81-2.81-2.58-2.9-5.25-6.07-6.04-9.96-.55-2.69-.25-5.85 1.45-8.05 2.21-2.88 6.17-3.09 9.13-1.26 3.73 2.3 4.95 7.2 5.87 11.16 1.09 4.67 1.83 9.52 3.33 14.07.58 1.77 3.25 1.49 3.28-.44.05-2.58-.55-5.1-1.14-7.59-.58-2.47-1.21-4.93-1.78-7.41-1.16-5.02-3-10.4-7.4-13.49-4.19-2.94-9.94-2.53-13.68.97-2.9 2.72-3.96 7-3.56 10.85.58 5.69 3.91 9.92 7.73 13.96l2.81-2.81c-5.06-4.08-11.36-7.57-18.09-6.93-5.84.55-12.84 4.44-13.56 10.85-.62 5.56 4.37 10.01 8.67 12.6 5.37 3.23 11.68 4.59 17.86 5.16 7.62.71 15.33-.17 22.86-1.38.96-.15 1.47-1.34 1.24-2.19-.27-1.02-1.25-1.39-2.19-1.24"/><path d="M110.09 97.22c2.19-1.38 4.29-2.88 6.36-4.42.99-.74 1.96-1.5 2.93-2.25l1.35-1.05c.63-.49.47-.61 1.08-.32 2.2 1.07 4.45 2.05 6.77 2.85 1.07.37 2.16.7 3.25.99.58.16 1.17.3 1.76.44.2.05.41.09.61.14.36.09.53.32.33-.03.49.9.56 2.4.78 3.4l.87 3.83c.27 1.18.52 2.36.8 3.54.14.57.1.09-.04.16-.46.24-.89.58-1.34.85-3.43 2.09-7.08 3.79-10.61 5.7-3.85 2.08-8.27 4.19-11.26 7.48-1.5 1.65.73 3.77 2.41 2.41 3.55-2.89 7.31-5.07 11.47-6.96 2.13-.97 4.28-1.9 6.38-2.95 1.96-.99 4.1-1.99 5.81-3.38 2.38-1.94 1.17-4.97.6-7.49-.32-1.44-.65-2.87-.97-4.31-.3-1.33-.46-2.85-1.06-4.09-1.17-2.45-4.41-2.53-6.71-3.22-2.57-.77-5.08-1.73-7.51-2.9-1.49-.71-2.96-1.31-4.55-.48-1.35.71-2.56 1.95-3.75 2.89-2.67 2.11-5.26 4.3-7.71 6.66-1.3 1.26.39 3.51 1.95 2.53Z"/><path d="M123.28 95.83c-1.33.13-2.64.86-3.28 2.04s-.5 2.78.45 3.72c.5.49 1.16.77 1.84.94 1.55.39 3.28.21 4.6-.68s2.16-2.55 1.89-4.12c-.08-.46-.25-.91-.56-1.27-.34-.4-.84-.65-1.34-.81-1.67-.55-3.6-.26-5.04.77"/><path d="M123.28 94.39c-2.48.03-4.89 1.67-5.29 4.22-.22 1.42.07 2.8.99 3.93.79.97 2.05 1.54 3.27 1.76 2.67.49 5.42-.24 7.09-2.46 1.58-2.1 1.71-5.48-.58-7.13-1.12-.81-2.71-1.11-4.07-1.01-1.43.11-3.36.6-4.06 1.99-.23.46-.27.97 0 1.43.23.39.74.76 1.22.7.28-.03.56-.05.83-.13.29-.09.55-.24.83-.36-.31.14.15-.04.26-.07.22-.07.45-.12.68-.16 0 0 .46-.06.19-.03-.23.02.07 0 .12 0 .21-.01.42-.02.63 0 .14 0 .6.09.24.01.23.05.45.09.68.16 0 0 .44.14.2.06-.2-.07.08.04.13.06.11.06.21.12.31.18-.06-.04-.22-.21 0 .01.08.09.12.22 0-.01.04.08.09.17.14.24-.15-.25-.04-.11-.02 0 .03.12.11.28.1.41.04-.37-.02-.12-.02 0v.26c0 .15.07.35.02 0 0 .06-.04.2-.05.25-.04.17-.09.33-.15.49-.11.32.02-.02.02-.05 0 .1-.13.25-.18.34s-.11.18-.17.27c-.03.05-.21.26-.06.09.18-.2-.11.11-.12.12l-.18.18c-.03.02-.18.18-.19.17 0 0 .27-.19.04-.04-.19.13-.39.25-.59.36 0 0-.42.18-.17.09a6 6 0 0 1-.73.21c-.06.01-.24.07-.28.05.15.06.26-.02.05 0-.24.02-.47.03-.71.02-.09 0-.19 0-.28-.01-.01 0-.47-.06-.19-.01s-.17-.04-.19-.04l-.27-.06c-.18-.05-.36-.1-.54-.16-.31-.1-.03-.01.03.02-.12-.06-.25-.12-.37-.2-.08-.05-.16-.1-.23-.15.29.22.06.03 0-.04l-.04-.04c-.12-.14-.11-.12.04.06-.03-.01-.13-.2-.13-.21-.02-.03-.1-.21-.11-.22.1.04.1.31.04.07-.02-.08-.05-.16-.07-.24s-.04-.16-.05-.24l.03.21c.09-.12-.11-.49 0-.63l-.03.2c0-.06.02-.12.04-.19.02-.1.06-.2.08-.3.09-.38-.12.2 0 0 .06-.09.1-.19.15-.28 0 0 .24-.36.09-.15-.14.19.08-.09.12-.13.07-.08.15-.15.23-.23.05-.04.1-.09.15-.13-.14.11-.17.13-.07.06.19-.11.36-.23.55-.34a5 5 0 0 1 .4-.2q-.225.09-.06.03c.23-.06.45-.14.69-.19.7-.15 1.12-.91 1.03-1.58s-.69-1.25-1.41-1.25Z"/><path d="M122.59 100.05c-1.03 1.47-1.94 2.89-2.69 4.52s-1.43 3.31-2.18 4.96-1.56 3.37-2.39 5.03c-.43.86-.88 1.7-1.33 2.55-.55 1.04-1.06 1.89-.8 3.11.27 1.24 1.65 1.52 2.64 1.07s1.37-1.53 1.79-2.47l1.17-2.64c.74-1.68 1.46-3.38 2.15-5.08s1.3-3.26 1.88-4.92 1.09-3.36 2.04-4.78c.95-1.43-1.31-2.71-2.28-1.33Zm7.77-11.21q.435-1.38.99-2.73c.11-.28.49-1.16.2-.5.15-.35.3-.69.45-1.04.5-1.16 1-2.32 1.49-3.48 1.53-3.62 3.08-7.24 4.62-10.86 3.58-8.42 7.14-16.85 10.69-25.29 1.02-2.43 2-4.87 2.97-7.32.38-.97-.42-2.09-1.34-2.35-1.08-.31-1.97.38-2.35 1.34.32-.81-.1.14-.21.39-.26.56-.48 1.13-.72 1.7-.54 1.31-1.09 2.62-1.64 3.93-1.59 3.8-3.18 7.6-4.77 11.39-3.44 8.2-6.86 16.41-10.25 24.63-1.21 2.92-2.9 6.17-3.37 9.3-.32 2.09 2.57 3.01 3.24.89"/><path d="M133.72 79.11c-.32-1.03-1.05-1.83-1.66-2.71-.64-.93-1.24-1.89-1.79-2.87-1.04-1.88-1.96-3.82-2.64-5.87-.65-1.95-1.16-3.98-1.43-6.02a35 35 0 0 1-.27-3.38c-.04-1.16.12-2.4-.26-3.52-.49-1.45-2.86-2.14-3.61-.47-1.01 2.25-.52 5.17-.19 7.55s.89 4.7 1.7 6.96c.8 2.22 1.77 4.43 3.02 6.44a36 36 0 0 0 2.08 2.99c.75.97 1.56 2.18 2.69 2.72 1.19.56 2.81-.37 2.36-1.82m-.2-22.81c-.66-2.16-1.73-4.25-2.58-6.34-.4-.99-.8-1.98-1.19-2.97-.14-.35-.44-.85-.43-1.24 0-.32.32-.71.46-.98 1.01-1.92 1.91-3.88 2.72-5.89.79-1.96 1.75-4.25 1.69-6.39-.04-1.63-2.11-2.12-2.98-.81-1.27 1.91-1.83 4.44-2.7 6.56-.44 1.07-.92 2.13-1.43 3.17s-1.17 2.01-1.47 3.09c-.63 2.23.92 4.51 1.82 6.45 1.01 2.18 1.93 4.54 3.25 6.56.93 1.43 3.37.56 2.84-1.2Z"/><path d="M142.91 38.93c-1.69-3.91-3.43-7.79-5.16-11.67l-.29 2.27c7.48-7.77 16.44-13.97 26.63-17.6l-2.52-1.92c.6 7.35 1.27 14.7 1.86 22.05.14 1.78.34 3.57.42 5.35.03.81-.06 1.14-.67 1.69s-1.27 1.06-1.91 1.58c-2.82 2.24-5.79 4.32-8.83 6.25-1.61 1.03-1.02 3.69 1 3.68 3.14-.02 6.27.17 9.38.59l-1.89-1.44c.28 1.79.22 3.66-.2 5.43-.37 1.58-.84 2.48-2.44 2.98-3.57 1.12-7.21 2.06-10.81 3.09-1.78.51-2.01 3.46 0 3.84 3.98.75 8.09 1.25 12 2.29l-1.21-2.97c-2.4 4.36-6.09 7.21-10.38 9.63-4.8 2.71-10.01 5.04-15.63 4.95-2.64-.04-2.65 4.07 0 4.11 6.4.09 12.41-2.5 17.92-5.53 4.84-2.66 9.8-6.22 11.79-11.6.51-1.36-.77-2.43-1.95-2.56-3.84-.43-7.68-1.44-11.48-2.16v3.84c2.32-.66 4.64-1.33 6.97-1.99 2.02-.58 4.39-.95 6.16-2.12 3.72-2.45 3.66-8.41 3.04-12.28-.15-.92-1.09-1.33-1.89-1.44-3.11-.42-6.24-.63-9.38-.61.33 1.23.66 2.45 1 3.68 3.27-2.07 6.43-4.29 9.49-6.65 1.43-1.11 3.14-2.18 3.77-3.97.63-1.77.17-3.88.02-5.7-.64-8.01-1.3-16.02-2.14-24.01-.12-1.17-1.19-2.42-2.52-1.92-10.68 3.97-20.6 10.27-28.22 18.8-.59.66-.68 1.49-.29 2.27 1.87 3.8 3.72 7.61 5.63 11.4.95 1.87 3.56.23 2.77-1.62Z"/><path d="M145.19 20.09c1.89 5.63 3.33 11.42 4.29 17.28 4.71-2.34 9.47-4.59 14.28-6.74.18-.08.38-.18.48-.35.11-.2.07-.45.02-.67-1.25-6.12-3.15-11.52-2-17.66-5.61 3.92-9.74 6.35-15.99 9.15"/><path d="M143.72 20.5c1.86 5.6 2.93 11.59 3.78 17.42.21 1.43 1.97 1.72 3.02 1.23 2.89-1.36 5.77-2.74 8.67-4.07 1.38-.63 2.76-1.26 4.14-1.88s2.96-1.17 3.11-2.95c.12-1.43-.48-3.05-.8-4.44-.34-1.49-.7-2.98-.99-4.48-.56-2.9-.83-5.88-.32-8.81.28-1.65-1.46-3.6-3.15-2.42-5.09 3.56-10.37 6.52-15.95 9.22-2.07 1-.58 4.68 1.59 3.77 5.87-2.45 11.3-5.67 16.52-9.29l-3.15-2.42c-.58 3.28-.48 6.48.05 9.76s1.54 6.23 1.97 9.39v-1.15l-.07.33.56-.96c-.27.27-.99.44-1.35.6-.65.3-1.31.59-1.96.89-1.23.57-2.45 1.15-3.67 1.74-2.44 1.17-4.88 2.36-7.28 3.62l3.02 1.23c-.55-2.91-1.25-5.8-2.04-8.66-.79-2.88-1.83-5.65-2.77-8.48-.62-1.85-3.56-1.06-2.94.81Zm-30.19 63.44c-2.85-6.57-3.55-14.01-3.68-21.1-.13-7.3.48-14.65 1.14-21.92.16-1.78-1.9-2.46-3.23-1.85-18.29 8.35-36.77 16.46-56.3 21.48-2.37.61-4.76 1.17-7.17 1.65-1.79.36-4.22.32-4.83 2.42-.48 1.63-.32 3.6-.34 5.28-.06 5.52.07 11.03.18 16.55.15 7.66.43 15.24 1.67 22.82 1.62 9.92 4.85 19.77 10 28.43 4.8 8.07 11.3 15.05 18.42 21.12 3.59 3.06 7.35 5.93 11.17 8.71 1.83 1.33 3.73 3.03 5.77 4 2.49 1.19 4.71-.41 6.8-1.68 16.12-9.8 29.57-23.53 46.57-31.96 2.01-1 4.06-1.91 6.16-2.71 1.64-.63 2.51-3.27.55-4.18-8.24-3.86-15.04-10.59-18.48-19.07-.42-1.03-1.37-1.76-2.54-1.44-.98.27-1.86 1.5-1.44 2.54 3.81 9.45 10.92 17.48 20.15 21.93.18-1.39.36-2.79.55-4.18-13.2 4.87-24.4 13.43-35.4 21.97-5.48 4.26-11 8.47-16.76 12.35-.68.46-1.37.91-2.06 1.35-.53.34-1.6 1.35-2.22 1.38-.48.03-1.22-.68-1.64-.95-.73-.48-1.45-.97-2.17-1.46-2.83-1.94-5.63-3.93-8.32-6.07-10.89-8.62-20.54-18.94-25.64-32.06-4.88-12.55-5.93-25.85-6.17-39.18-.13-7.29-.51-14.66-.05-21.95 0-.09.04-.22.03-.31-.02-.16-.14.68-.04.33.19-.66-.42.66-.52.75l-1.09.64c.82-.34 1.96-.36 2.83-.53 1.09-.22 2.17-.45 3.25-.7 2.28-.52 4.55-1.1 6.81-1.72 4.6-1.27 9.1-2.88 13.6-4.45 9.1-3.19 18-7.02 26.8-10.95 4.7-2.1 9.38-4.25 14.05-6.43l-3.23-1.85c-.62 7.58-.98 15.13-.53 22.73.43 7.44 1.59 14.98 4.87 21.75.82 1.7 3.22.21 2.5-1.46Z"/><path d="M59.6 78.66c-.83 1.49-.53 3.18.58 4.44 1.18 1.35 2.97 1.76 4.69 1.38 3.57-.79 6.44-4.14 8.07-7.22.28-.53.4-1.35 0-1.88-3.13-4.06-9.26 4.16-4.55 6.97 2.03 1.21 4.82-.22 6.7-1.13 2.17-1.05 4.87-2.42 4.42-5.22-.46.8-.91 1.61-1.37 2.41 2.27-.53 4.49-1.24 6.65-2.14 2.13-.89 4.41-1.85 6.25-3.27 1.89-1.45.33-4.33-1.9-3.25-1.95.95-3.77 2.09-5.79 2.92s-4.12 1.47-6.25 1.96c-1.11.26-1.53 1.4-1.37 2.41l.05.32v-1.04c.16-.18.06-.13-.29.16-.18.12-.35.23-.53.34-.36.22-.73.43-1.1.63-.78.42-1.59.77-2.42 1.06-.07.02-1.16.32-1.18.37-.05.13.36.24.26.28-.02 0 .17-.48.22-.56.13-.19.5-.66.72-.71h-1l-.45-.26-.29-2.25c-.82 1.84-2.05 3.47-3.66 4.7-.75.57-1.68 1.17-2.65 1.21-.51.02-1.56-.41-1.2-1.1.9-1.72-1.66-3.24-2.62-1.53Zm3.73 16.87c5.05-2.2 10.17-4.25 15.34-6.15 2.54-.94 5.08-1.86 7.64-2.75 1.28-.45 2.56-.88 3.84-1.31s2.79-.75 4.01-1.46c1.35-.79.87-3.3-.85-3.13-1.41.14-2.76.71-4.1 1.17s-2.56.88-3.84 1.33c-2.7.96-5.39 1.95-8.06 3a354 354 0 0 0-15.57 6.58c-1.86.84-.25 3.53 1.59 2.73Zm7.08 8.24c2.23-.75 4.4-1.63 6.56-2.56s4.28-1.76 6.24-2.93c.68-.41.98-1.28.66-2.01-.29-.66-1.15-1.25-1.9-.93-2.17.91-4.24 2.06-6.38 3.04-2.08.96-4.19 1.85-6.28 2.78-1.48.65-.43 3.12 1.1 2.61m-29.24-3.54a204 204 0 0 0-27.07 18.91c7.04 7.61 14.09 15.22 21.13 22.83 2.96 3.2 5.94 6.42 9.4 9.06 2.81 2.15 5.9 3.9 9.03 5.55 10.28 5.44 21.05 9.93 32.15 13.4-1.49-.08-2.9-.68-4.25-1.32-3.85-1.83-7.5-4.08-10.87-6.69-2.47-1.92-4.78-4.03-7.08-6.15-2.43-2.25-4.86-4.54-6.84-7.2-2.78-3.73-4.59-8.08-6.36-12.37-1.4-3.37-2.79-6.75-4.19-10.12-1.65-3.98-3.3-7.99-4.16-12.21s-.88-8.71.7-12.72"/><path d="M40.3 98.75c-4.84 2.81-9.65 5.59-14.28 8.75-4.64 3.17-9.14 6.53-13.52 10.05-.99.79-.74 2.37 0 3.19 4.13 4.59 8.31 9.13 12.5 13.67 4.07 4.41 8.06 8.91 12.28 13.17 8.2 8.28 19.08 13.13 29.69 17.57 5.95 2.49 12.09 5.04 18.35 6.63.16-1.22.33-2.43.49-3.65-2.54-.08-5.21-1.95-7.34-3.21-2.35-1.39-4.64-2.91-6.78-4.6s-4.17-3.54-6.18-5.4c-1.99-1.85-4-3.7-5.77-5.77-3.46-4.04-5.52-9.04-7.54-13.91-2.18-5.27-4.55-10.51-6.46-15.89-2.01-5.68-3.21-11.8-1.01-17.6.39-1.04-.44-2.25-1.44-2.53-1.15-.32-2.13.39-2.53 1.44-2.09 5.52-1.51 11.61.15 17.16 1.72 5.79 4.34 11.34 6.65 16.91 2.26 5.45 4.36 11.01 8.06 15.67 1.78 2.25 3.84 4.24 5.94 6.19s4.36 4.02 6.66 5.88c2.51 2.03 5.14 3.89 7.94 5.48 2.81 1.6 5.91 3.36 9.15 3.83 2.34.34 3.26-2.72.99-3.58-5.36-2.02-10.8-3.73-16.08-5.99s-10.3-4.69-15.26-7.38c-4.93-2.67-9.4-5.67-13.39-9.63-4.1-4.08-7.93-8.46-11.87-12.7-4.65-5.01-9.3-10.01-14-14.96v3.19c8.23-6.96 17.06-13.54 26.35-19.02 1.9-1.12.18-4.08-1.73-2.97Z"/></svg>