<?xml version="1.0" encoding="UTF-8"?><svg xmlns="http://www.w3.org/2000/svg" viewBox="0 0 180 180"><path d="M54.17 131.49c-7.64-4.58-14.94-9.74-21.45-15.83-6.36-5.95-12.12-12.97-15.35-21.14s-3.62-17.86 2.23-24.64c5.2-6.03 13.99-7.97 21.57-6.27 9.76 2.2 17.35 9.75 22.45 18.01 1.43 2.31 4.48.69 4.13-1.74C65.98 67.9 72.35 55.12 83 49.36c10.74-5.81 25.25-2.69 32.09 7.61 3.73 5.62 4.7 12.29 4.68 18.91-.02 7.89-1.56 15.68-3.87 23.2-2.33 7.57-5.48 14.87-9.18 21.87-4.06 7.67-8.82 14.96-13.45 22.3-2.02 3.21-3.83 6.94-6.67 9.54a8.2 8.2 0 0 1-2.07 1.36c.19-.09.49-.2.14-.1.59-.18.37-.05.07-.05.76 0 .27-.02.09-.02-.27 0-.39-.18 0 .02-.35-.18-.69-.37-1.02-.59-.18-.12-.35-.24-.52-.36-.11-.08-.46-.35-.17-.12-.44-.35-.87-.7-1.3-1.07-.97-.82-1.92-1.65-2.89-2.47-2.65-2.25-5.39-4.4-8.29-6.32-1.73-1.14-3.51-2.2-5.33-3.18-2.49-1.35-4.71 2.43-2.22 3.8 3.58 1.97 6.99 4.25 10.17 6.84 2.2 1.79 4.26 3.74 6.46 5.51 1.48 1.19 3.23 2.59 5.24 2.55 1.44-.03 2.73-.86 3.84-1.7 1.72-1.31 3.07-2.98 4.28-4.75 2.63-3.85 5.01-7.9 7.5-11.85 2.52-3.99 5.03-8 7.4-12.08 4.29-7.39 7.96-15.16 10.83-23.2 2.89-8.12 4.92-16.6 5.46-25.22.48-7.61-.13-15.61-3.64-22.5-6.46-12.68-22.39-18.69-35.72-13.83S62.98 61.8 62.95 75.71c0 1.8.17 3.59.44 5.37 1.38-.58 2.75-1.16 4.13-1.74-5.17-8.35-12.45-15.68-21.84-19.08-8.57-3.1-18.87-2.04-26.13 3.64-7.99 6.25-10.02 17.11-7.81 26.61 2.17 9.36 8.13 17.69 14.74 24.47 7.57 7.76 16.62 14.03 25.99 19.42 1.9 1.09 3.58-1.81 1.71-2.93Z"/><path d="M77.76 107.4c-11.78 11.82-23.64 23.58-35.65 35.17-1.55 1.5-3.11 2.98-4.67 4.46-1.45 1.37-3.28 2.67-4.3 4.4-1.09 1.84 1.02 3.6 2.76 2.76 1.54-.75 2.79-2.24 4.01-3.41 1.37-1.31 2.73-2.63 4.09-3.95 3.05-2.97 6.06-5.98 9.05-9.01 6.23-6.28 12.36-12.66 18.46-19.07 2.86-3.01 5.7-6.04 8.55-9.06 1.43-1.52-.82-3.79-2.3-2.3Z"/><path d="M39.96 147.57c.31-6.82.23-13.92-3.09-20.08-.85-1.58-2.93-.96-3.49.46-5.47 13.83-10.88 27.68-16.3 41.53-.52 1.33 1.09 2.99 2.44 2.44 8.8-3.59 17.38-7.7 25.66-12.36 2.1-1.18 4.18-2.4 6.24-3.65 1.49-.9 4.51-2.43 3.19-4.68-.56-.96-1.73-1.13-2.72-1.39-1.07-.28-2.15-.57-3.22-.85l-4.26-1.11c-1.8-.46-4.37-1.61-5.32.73-.25.62.03 1.54.52 1.97.67.59 1.64.77 2.47 1.02 1.27.37 2.55.74 3.83 1.1s2.62.75 3.94 1.1c.44.12.87.23 1.32.33.14.03.29.07.43.1.19.04 1.15.19.11.02.02 0 .05.01.07.02 2.41.69 3.44-3.06 1.03-3.75-.28-.08 1.18.44-.18-.06-.11-.04-.23-.07-.35-.11a26 26 0 0 0-1.25-.39c-1.24-.37-2.5-.71-3.74-1.07s-2.53-.72-3.79-1.09c-.44-.13-.88-.26-1.31-.39-.13-.04-.25-.09-.38-.12-.56-.13.55.34.65.43.17.66.35 1.31.52 1.97l-1.41 1.41c-.14.02-1.41-.13-.79.05.16.05.33.08.5.12.68.16 1.36.34 2.04.52 2.96.76 5.91 1.55 8.87 2.33l-.9-.52.11.09c-.2-.48-.4-.96-.59-1.43l-.02.14.28-1.02c.08-.12.2-.04-.13.06s-.68.43-.99.62c-.66.41-1.33.81-1.99 1.21q-1.995 1.2-4.02 2.37a211.5 211.5 0 0 1-25.49 12.48l2.44 2.44c5.4-13.85 10.8-27.7 16.16-41.57-1.16.15-2.33.3-3.49.46 3.04 5.54 3 12.01 3.15 18.16.05 2.09 3.14 2.08 3.23 0Zm81.82-86.76c.06-.09.13-.18.2-.27-.19.27-.14.17.02-.02.26-.3.51-.6.77-.9.71-.81 1.44-1.6 2.18-2.39 2.11-2.26 4.25-4.49 6.4-6.72 5-5.19 9.97-10.39 14.87-15.67 1.96-2.11 3.98-4.19 5.74-6.47 1.37-1.77-1.62-4.06-3.1-2.4-8.52 9.57-17.42 18.8-25.91 28.4-1.35 1.53-2.87 3.07-3.97 4.8-1.14 1.78 1.64 3.35 2.81 1.64Zm-46.63 44.06c.43.17-.28-.15.13.05.1.05.21.1.31.15.22.12.44.24.65.38.11.08.23.15.34.24.04.03.33.27.15.11s.1.09.14.12l.3.27c.18.17.35.36.52.54.08.09.15.17.22.26.3.35-.21-.31.05.07.29.42.57.84.82 1.29.11.21.22.42.32.63.08.17.15.37.04.08.05.13.1.26.15.4.18.49.32.99.43 1.5.05.23.09.47.13.7.08.48-.03-.41 0 .07l.03.35c.05.68.01 1.65.42 2.2.33.45.68.74 1.24.81.49.07 1.09-.06 1.43-.47.45-.54.57-1 .62-1.7.02-.29.02-.56 0-.85q-.09-1.065-.33-2.1c-.28-1.23-.76-2.44-1.38-3.53-1.28-2.25-3.37-4.02-5.89-4.67-.81-.21-1.77.27-1.96 1.11-.21.91.28 1.64 1.11 1.96Z"/><path d="M128.97 50.62c-.88-2.57-1.78-5.14-2.76-7.67a249 249 0 0 0-2.32-5.79c-.24-.57-.72-1.32-.8-1.92-.04-.31-.17.27.14-.13.2-.26.37-.53.56-.8.42-.6.84-1.19 1.26-1.79.78-1.13 1.56-2.27 2.34-3.4 1.61-2.34 3.17-4.69 4.7-7.08l-2.09.85c.36.12.62.92.76 1.24.34.79.66 1.59.99 2.38.66 1.57 1.32 3.26 2.3 4.67.9 1.29 2.66.46 2.44-1.03-.33-2.25-1.32-4.47-2.11-6.58-.7-1.87-1.38-3.52-3.39-4.25-.83-.3-1.62.22-2.09.85-1.8 2.41-3.54 4.85-5.25 7.31-.88 1.26-1.76 2.52-2.63 3.79-.78 1.14-1.97 2.41-1.97 3.87 0 1.29.85 2.6 1.35 3.75.6 1.39 1.19 2.78 1.76 4.18 1.16 2.82 2.31 5.64 3.4 8.49.8 2.09 4.17 1.25 3.42-.94Zm7.69-35.77c.68 2.06 1.24 4.17 1.69 6.3.21.97.38 1.96.49 2.94.13 1.13.02 2.43.37 3.51.47 1.47 2.76 1.64 3.15 0 .28-1.19.02-2.55-.14-3.75s-.34-2.34-.59-3.49c-.5-2.3-1.32-4.51-2.36-6.62-.71-1.45-3.12-.44-2.61 1.1Z"/><path d="M145.02 10.4c1.05 2.84 1.87 5.79 2.42 8.77.27 1.48.44 2.97.53 4.47s-.25 3.29.5 4.57c.8 1.37 2.35 1.42 3.74 1.65 1.6.26 3.2.53 4.8.79s3.2.53 4.8.79c.8.13 1.6.25 2.4.4.26.05.6.2.86.19.3 0 .05.39-.02-.09v-1.1c.21-.14.16-.09-.14.16-.22.19-.44.38-.66.58-.44.39-.86.79-1.29 1.19-.84.81-1.66 1.65-2.45 2.51-1.49 1.64-2.88 3.4-4.13 5.23-.54.78-.99 2.01-1.7 2.63-.57.5-1.74.42-2.46.5-2.52.27-5.07.44-7.6.55-1.77.08-2.39 2.34-.9 3.3 2.04 1.31 4.09 2.6 6.1 3.95l-.36-2.83c-1.55 1.48-3.08 2.98-4.6 4.49-.67.66-1.31 1.38-2.02 2-.57.5-1.04.35-1.75.19-.32-.07-.65-.19-.97-.25-.53-.1.59.13.47.32.27-.44-3.56-1.49-3.71-1.53-3.1-.81-6.23-1.75-9.39-2.28-2.54-.43-3.67 3.24-1.08 3.93 2.99.8 6.07 1.2 9.08 1.95.65.16 1.31.33 1.96.52.19.06.38.13.57.18.37.1.24.14-.07-.04.43.26-.27-.32-.12-.12.13.18.33.31.52.42.69.41 1.63.55 2.4.69 1.15.21 2.28.25 3.35-.29.93-.47 1.64-1.27 2.37-2 1.86-1.87 3.72-3.74 5.54-5.64.81-.85.64-2.21-.36-2.83-2.06-1.26-4.09-2.59-6.13-3.9l-.9 3.3c2.36-.29 4.75-.52 7.13-.68 2.05-.14 4.35.19 5.92-1.44 1.35-1.39 2.31-3.2 3.53-4.71 1.38-1.7 2.83-3.35 4.39-4.89 1.4-1.39 3.92-2.88 3.43-5.18-.4-1.89-2.28-2.64-3.99-2.93-2.4-.4-4.8-.77-7.21-1.15l-3.36-.54c-.64-.1-1.28-.2-1.92-.31-.38-.06-.99-.05-1.29-.27l.71.71c-.17-.28 0-1.42-.03-1.81-.04-.76-.09-1.52-.18-2.28-.17-1.53-.42-3.06-.75-4.56-.66-2.98-1.76-5.81-3.19-8.49-.8-1.5-3.39-.47-2.78 1.17ZM37.91 43.84a35.6 35.6 0 0 0-3.94-3.92c-.78-.66-1.59-1.29-2.42-1.88s-1.7-1.16-2.71-1.52c-1.59-.55-2.86 1.71-1.64 2.82.74.68 1.58 1.18 2.4 1.74.38.26.75.52 1.12.8.1.07.19.15.29.22.21.16-.23-.18-.02-.02l.57.45c1.4 1.14 2.71 2.4 3.91 3.75.6.68 1.84.66 2.44 0 .67-.73.63-1.71 0-2.44m17.69-7.22c-.29-1.78-.66-3.54-1.05-5.3l-.57-2.58c-.19-.89-.34-1.81-.62-2.68s-1.25-1.55-2.19-1.25c-1 .32-1.41 1.2-1.25 2.19.29 1.76.87 3.5 1.32 5.23.45 1.74.91 3.48 1.45 5.19.24.78 1.05 1.27 1.85 1.05.85-.23 1.19-1.05 1.05-1.85Zm17.94-1.51c.27-1.66.55-3.32.88-4.97.16-.81.33-1.62.51-2.42.09-.4.17-.81.26-1.21.12-.51.29-1.03.27-1.55-.03-.69-.48-1.4-1.19-1.56-.66-.15-1.52.08-1.83.74-.38.81-.44 1.75-.59 2.63-.14.85-.28 1.7-.42 2.54-.26 1.66-.55 3.33-.81 4.99-.12.78.2 1.66 1.05 1.85.72.17 1.72-.22 1.85-1.05Zm14.94 1.18h.35c.22 0 .42-.04.61-.14.2-.06.36-.17.51-.33q.225-.21.33-.51c.1-.19.14-.39.14-.61l-.06-.42c-.07-.27-.21-.5-.41-.7l-.32-.25c-.25-.14-.51-.21-.8-.22h-.35c-.22 0-.42.04-.61.14-.2.06-.36.17-.51.33q-.225.21-.33.51c-.1.19-.14.39-.14.61l.06.42c.07.27.21.5.41.7l.32.25c.25.14.51.21.8.22m-66.12 17.3c2.2 0 2.21-3.42 0-3.42s-2.21 3.42 0 3.42m63.48 103.17c19.19-9.04 38.97-18.52 52.81-34.6 2.63-3.05 5.06-6.4 6.2-10.27s.8-8.34-1.69-11.51c-2.17-2.75-5.69-4.17-9.17-4.55-3.48-.37-7 .18-10.46.73-.78.12-1.63.29-2.13.9-.38.46-.48 1.09-.57 1.69-2.95 19.36-13.58 36.72-25.85 51.99"/><path d="M86.8 158.39c10.61-4.57 21.08-9.65 30.89-15.78 9.65-6.03 19.2-13.52 25.79-22.91 3.29-4.69 5.36-10.63 3.71-16.33-1.69-5.84-7.02-9.08-12.81-9.75-3.27-.38-6.54.07-9.77.57-1.33.21-2.77.31-3.93 1.06-1.37.87-1.77 2.24-2 3.74-.92 5.86-2.55 11.58-4.73 17.1-4.83 12.22-12.3 23.32-20.48 33.52-.73.91-.89 2.17 0 3.06.76.76 2.33.92 3.06 0 6.97-8.7 13.4-17.89 18.29-27.93 2.43-4.98 4.5-10.16 6.02-15.5q1.14-3.975 1.86-8.04c.11-.61.19-1.22.3-1.83.1-.56-.11-.47.45-.56 1.45-.24 2.9-.48 4.36-.64 4.79-.51 11.2-.33 14.05 4.32 2.71 4.41.95 9.85-1.62 13.86-2.83 4.4-6.69 8.24-10.56 11.72s-8.22 6.74-12.67 9.65c-10.23 6.68-21.25 11.84-32.1 17.4-.92.47-1.16 1.73-.68 2.59.56.98 1.65 1.08 2.59.68ZM30.42 83.12v-.28c0-.22-.06-.42-.11-.63l-.14-.32a1 1 0 0 0-.35-.38.64.64 0 0 0-.3-.17c-.16-.08-.33-.12-.52-.12l-.36.05-.32.14c-.16.08-.28.2-.38.35-.12.13-.2.28-.24.46l-.03.13-.02.07v.04l-.05.38v.3c0 .19.03.38.12.54.06.18.15.33.29.46.13.14.28.24.46.29q.255.135.54.12l.38-.05c.24-.07.45-.19.62-.36l.22-.29c.13-.22.19-.46.19-.71Zm4.39-3.83c1.83 0 1.83-2.84 0-2.84s-1.83 2.84 0 2.84m1.38 10c1.88 0 1.88-2.92 0-2.92s-1.88 2.92 0 2.92m6.09-5.6c1.8 0 1.8-2.8 0-2.8s-1.8 2.8 0 2.8m4.98 8.09c1.88 0 1.88-2.92 0-2.92s-1.88 2.92 0 2.92m42.6-1.08h.28c.21 0 .4-.04.57-.13.18-.06.35-.16.48-.31.15-.14.25-.3.31-.48.09-.18.14-.37.13-.57l-.05-.4c-.07-.25-.2-.47-.38-.66l-.3-.23c-.23-.13-.48-.2-.75-.2h-.28c-.21 0-.4.04-.57.13-.18.06-.35.16-.48.31-.15.14-.25.3-.31.48-.09.18-.14.37-.13.57l.05.4c.07.25.2.47.38.66l.3.23c.23.13.48.2.75.2m9.63-5.8.42.11.21.06c.07.02.15.03.22.04.17.05.34.06.5.02.17 0 .33-.06.47-.15l.26-.2a.93.93 0 0 0 .26-.41c.06-.1.09-.21.09-.32a.94.94 0 0 0-.02-.5l-.13-.3q-.165-.285-.45-.45l-.1-.05c-.13-.07-.26-.12-.4-.17-.07-.03-.13-.05-.2-.08l-.42-.17a.96.96 0 0 0-.53-.02c-.18 0-.34.06-.5.16-.16.08-.28.2-.37.34q-.18.195-.24.45l-.05.36c0 .24.06.47.18.67l.21.27c.17.17.36.28.59.34m.61 9.56c2.13 0 2.13-3.31 0-3.31s-2.13 3.31 0 3.31m-9.13-13.92c2.01 0 2.01-3.12 0-3.12s-2.01 3.12 0 3.12m12.45-3.19.58.26c.17.08.33.16.51.2l.15.03.31.06.39.05c.2 0 .39-.03.56-.13.12-.03.23-.1.32-.19.16-.1.28-.24.37-.41l.15-.35.05-.39c0-.2-.03-.39-.13-.56-.06-.18-.16-.34-.3-.47-.24-.22-.48-.48-.76-.64l-.55-.31c-.19-.12-.39-.18-.61-.19-.22-.05-.44-.04-.65.03-.21.05-.4.15-.56.29-.18.12-.32.27-.42.46l-.17.39q-.12.435 0 .87l.17.39c.15.25.34.44.59.59Zm4.7 9.56c2.02 0 2.02-3.14 0-3.14s-2.02 3.14 0 3.14M96.78 71.79c1.79 0 1.79-2.78 0-2.78s-1.79 2.78 0 2.78"/></svg>