<?xml version="1.0" encoding="UTF-8"?><svg xmlns="http://www.w3.org/2000/svg" viewBox="0 0 180 180"><path d="M62.45 72.44c-4.73-1.16-9.29-3.16-13-6.37-2.81-2.43-5.26-5.77-6.51-8.97-1.38-3.52-1.85-6.58-1.61-10.27.1-1.55.34-2.89.86-4.68.63-2.16 1.24-3.47 2.49-5.49 1.64-2.65 3.54-4.91 6.22-6.57 2.96-1.84 6.41-2.34 9.54-3.82 1.59-.75.41-2.98-1.13-2.68-1.79.35-3.62.5-5.37 1.02-1.55.46-3.07 1.1-4.48 1.9-2.66 1.51-4.92 3.6-6.97 5.85-3.24 3.55-5.09 8.24-5.69 12.96-1.08 8.46 2.08 17.21 8.49 22.88 4.58 4.05 10.31 6.33 16.28 7.45 2.08.39 2.99-2.69.88-3.21"/><path d="M51.06 26.62c-.16-3.08-.47-6.59 1.14-9.37 1.18-2.05 3.35-3.37 5.67-3.72s4.72.29 6.61 1.66c2.18 1.57 3.16 3.88 4.77 5.92 1.28 1.63 4.05-.14 3.43-2-.54-1.63-1.68-3.14-2.75-4.47-1.01-1.26-2.2-2.36-3.55-3.26-2.86-1.91-6.43-2.52-9.78-1.89-3.3.62-6.31 2.74-7.9 5.72-1.96 3.69-1.6 7.89-.88 11.86.33 1.82 3.33 1.41 3.24-.44Z"/><path d="M66.09 23.27c-.74.64-.76.84-.06.62.32-.04.63-.1.95-.16.47-.08.94-.17 1.41-.25 1.08-.18 2.16-.33 3.24-.47 2.29-.29 4.59-.48 6.89-.55 4.5-.13 9.01.08 13.46.8 1.16.19 2.35-.3 2.69-1.53.29-1.04-.36-2.5-1.53-2.69-5.55-.9-11.16-1.24-16.76-.77-2.72.23-5.44.6-8.11 1.18-2 .43-6.15.85-5.46 3.82.37 1.6 2.93 1.64 3.28 0"/><path d="M92.36 20.78c1.15-4.56 5.11-8.62 10.02-8.6 2.4.01 4.9 1.05 5.86 3.39.48 1.18.55 2.5.51 3.77-.04 1.47-.56 3.27.22 4.61.56.97 1.84 1.06 2.63.34 1.1-1 1.16-2.93 1.25-4.32.09-1.47.02-2.97-.31-4.42-.64-2.8-2.52-5.2-5.14-6.4-5.07-2.32-11.04-.72-14.84 3.2-2.09 2.16-3.39 4.97-3.55 7.97-.1 1.93 2.88 2.3 3.35.45Z"/><path d="M106.53 24.05c7.68 3.63 12.86 11.84 13.54 20.23s-2.86 15.87-9.47 20.58c-1.74 1.24-3.65 2.3-5.67 3.02-2.24.8-4.5.98-6.8 1.48-.96.21-1.57 1.26-1.43 2.19.16 1.06.94 1.59 1.96 1.73 2.25.3 4.78-.33 6.92-1.01s4.39-1.7 6.37-2.95c3.87-2.45 7.18-5.83 9.43-9.83 4.8-8.52 4.22-19.3-.69-27.63-2.93-4.97-7.35-9.02-12.88-10.85-1.77-.59-3.01 2.24-1.29 3.06ZM60.34 72c-3.98-.5-8.42.52-12.21 1.72-4.04 1.29-8.14 3.03-11.55 5.59-4.11 3.08-7.02 7.48-9.86 11.68-3.16 4.67-6.31 9.35-9.27 14.16-2.88 4.68-6 9.54-7.91 14.72-.93 2.53-1.3 5.4-.45 8.01.75 2.32 2.32 4.27 4.26 5.72 4.24 3.16 9.64 3.38 14.7 2.74 2.49-.32 4.92-.85 7.18-1.97 2.21-1.1 3.94-2.83 5.34-4.84 3.01-4.31 5.25-9.12 7.79-13.71 1.39-2.51 2.29-5.17 3.89-7.56 1.46-2.19 3.1-4.27 4.83-6.25 1.36-1.56-.81-3.8-2.3-2.3s-2.91 3.26-4.1 5.06-2.28 3.68-3.68 5.35c-1.53 1.83-2.57 3.97-3.68 6.07-.97 1.84-1.91 3.68-2.87 5.52-1.99 3.82-3.46 7.94-7.77 9.69-4.15 1.69-9.59 1.98-13.82.44-3.95-1.44-6.39-5.3-5.25-9.44.66-2.41 1.95-4.61 3.13-6.79s2.53-4.5 3.87-6.71c2.68-4.42 5.52-8.74 8.38-13.05 2.7-4.06 5.27-8.38 8.83-11.76 2.92-2.78 6.81-4.61 10.55-5.98 4.05-1.48 8.12-2.42 12.37-3.04.77-.11 1.21-1.03 1.12-1.71-.11-.83-.75-1.26-1.53-1.35Zm49.19 14.69c7.35 9.34 9.15 21.57 10.63 33.01.12.91.59 1.92 1.61 2.12 4.47.86 8.95 1.69 13.42 2.52 2.27.42 4.55.91 6.85 1.2s4.13-.21 6.09-1.23c2.74-1.42 6.52-3.63 9.49-1.42 2.17 1.61 2.28 4.79 2.17 7.24-.15 3.3-.84 6.7-1.83 9.85-.5 1.6-1.16 3.13-2.09 4.54-.46.7-.98 1.33-1.58 1.91-.11.11-.63.55-.24.26-.2.15-.41.28-.63.41-.17.1-.35.18-.53.27.39-.18-.22.08-.33.12-.5.17-1.01.3-1.53.41-1.12.23-1.97.3-3.26.34-2.8.09-5.6-.13-8.37-.46-3.06-.36-6.11-.88-9.14-1.42-2.57-.46-5.22-1.21-7.84-1.08-2.29.11-2.67 3.18-.53 3.93 2.25.79 4.67 1.07 7.02 1.49 3.11.56 6.23 1.07 9.37 1.47 5.36.68 11.82 1.5 16.89-.89 2.98-1.41 4.96-4.59 6.2-7.51 1.53-3.6 2.28-7.52 2.76-11.39.42-3.39.38-7.06-1.25-10.15-1.97-3.73-6.08-5.2-10.1-4.61-2.32.34-4.37 1.33-6.41 2.44-.98.54-1.94 1.02-3.09 1.01-1.24-.01-2.49-.35-3.71-.57-5.54-1.01-11.1-1.97-16.65-2.91l1.53 1.53c-1.85-12.12-4.04-25.3-12.9-34.47-1.33-1.37-3.16.62-2.04 2.04Z"/><path d="M103.07 72.87c4.16.67 8.75.86 12.49 3s6.13 5.7 8.29 9.12c5.02 7.95 8.36 16.74 11.24 25.65.66 2.05 1.68 4.43 1.96 6.47.2 1.49 0 2.59-1.24 3.38-1.56.99-1.06 3.83 1 3.7 4.85-.31 5.28-6.05 4.16-9.68-1.56-5.09-3.21-10.16-5.14-15.13s-4.1-9.79-6.78-14.36c-2.53-4.29-5.53-8.6-9.54-11.62-4.52-3.4-10.51-4.01-15.99-3.77-1.75.08-2.36 2.93-.44 3.24Zm-19.19 53.42c4.89-1.99 10.37-1.57 15.08.73 4.88 2.38 8.75 6.27 11.79 10.71 1.55 2.27 2.95 4.64 4.26 7.06 1.34 2.49 2.64 4.68 5.38 5.78.76.3 2.18.45 2.68 1.16.47.67.11 1.63-.24 2.26-1.25 2.25-3.69 4.19-5.71 5.73a37.5 37.5 0 0 1-7.07 4.24c-2.23 1.03-4.69 1.94-7.18 1.95-2.29 0-3.93-1.02-5.11-2.95s-1.94-4.08-3.29-5.9c-3.6-4.86-10.03-5.02-15.46-6.26-3.13-.72-6.24-1.49-9.33-2.35-2.75-.77-5.72-1.43-8.09-3.11-4.74-3.35-6.25-10.21-7.45-15.51-.78-3.41-1.27-6.87-1.44-10.36s.19-7.22.21-10.83c.01-2.12-3.2-2.6-3.73-.5-.87 3.46-.95 7.08-.88 10.63s.37 7 .93 10.47c.97 6.06 2.68 12.58 6.68 17.4 4.23 5.1 11.47 6.38 17.58 7.9 3.4.85 6.84 1.52 10.29 2.13 2.52.44 5.2.86 6.82 3.05 1.47 2 2.19 4.45 3.63 6.48 1.78 2.51 4.24 4.03 7.32 4.38 2.93.33 5.91-.47 8.61-1.55 2.87-1.16 5.61-2.59 8.15-4.37 2.52-1.76 4.94-3.79 6.95-6.12 2.11-2.44 3.65-5.79 1.97-8.92-.72-1.34-1.92-2.16-3.29-2.71-1.09-.44-2.37-.61-3.18-1.53-.83-.94-1.33-2.19-1.93-3.28-.79-1.45-1.61-2.88-2.5-4.27-3.54-5.59-8.25-11.12-14.33-14.02-6.07-2.9-13.28-3.71-19.39-.5-1.61.85-.48 3.71 1.26 3Zm10.81-82.38c-1.52-.57-3.17-.73-4.78-.57s-3.64.52-4.72 1.91c-.73.95-.76 2.25-.14 3.26s1.62 1.46 2.72 1.61c1.59.21 3.29.04 4.87-.16.98-.12 2.04-.18 2.88-.75 1.24-.84 1.65-2.38.97-3.72-.46-.9-1.77-1.2-2.61-.68-.1.06-.3.22-.39.3-.66.59-.67 1.58-.3 2.31-.2-.39-.22-.76-.01-1.15-.1.17-.07.12.11-.14q.345-.255.09-.09c.44-.22.14-.07 0-.03-.16.04-.32.06-.48.09-.22.03-.21.03.04 0-.1.01-.21.03-.31.04-.16.02-.31.04-.47.05-.36.04-.73.07-1.09.09-.78.05-1.57.08-2.35.07-.09 0-.5.04-.56-.02l.23.04a1.3 1.3 0 0 1-.27-.06c-.2-.06-.18-.05.07.05-.17-.1-.14-.07.09.1q-.21-.21.06.12c-.08-.14-.08-.13-.01.02.06.16.06.16.02.01.06.19.07.37.02.56-.14.29-.16.34-.06.17-.2.24-.22.29-.08.15-.36.33-.16.13-.02.04.07-.04.13-.07.2-.1-.28.11-.33.14-.14.06.68-.21 1.35-.43 2.05-.56.17-.03.34-.07.5-.08-.49.04.16-.01.25-.02.34-.03.68-.04 1.03-.04.72 0 1.46.05 2.17.15.76.1 1.44-.67 1.53-1.35.11-.81-.38-1.43-1.11-1.71Zm-.4 67.04c-3.67-1.62-6.99-3.84-10.02-6.46-2.69-2.32-6.21-5.18-6.36-9.04-.06-1.58.37-3.27 2.19-3.26 1.58 0 3.25.65 4.63 1.38 2.91 1.56 5.26 4.13 6.39 7.25.65 1.8 2.88 1.7 3.57 0s.69-3.54.93-5.36c.22-1.67.88-2.95 2.13-4.08 1.12-1.01 2.66-2 4.15-2.31 1.59-.34 2.26.69 2.48 2.15.54 3.58-.82 7.4-2.54 10.47-1.92 3.44-4.54 6.41-7.13 9.36-1.57 1.79 1.04 4.43 2.63 2.63 5.05-5.72 10.31-11.98 10.82-19.95.2-3.15-.5-7.24-4.03-8.26-3.21-.92-6.88 1.31-9.13 3.43-1.39 1.3-2.41 2.98-2.81 4.84-.44 2.03-.28 4.14-1.08 6.09h3.57c-1.19-3.31-3.26-6.1-6.08-8.21-2.67-1.99-6.53-3.7-9.92-3.07-4.16.77-5.17 5.73-4.2 9.25 1.05 3.8 4.07 6.7 7.02 9.13 3.5 2.88 7.33 5.25 11.54 6.94 1.67.67 2.89-2.19 1.23-2.93Z"/><path d="M75.21 54.79c-.42 2.15 1.04 3.83 2.91 4.71 2.28 1.07 4.89 1.94 7.44 1.67 2.06-.22 4.07-1.14 5.37-2.8 1.68-2.16 1.14-4.6 1.5-7.11l-3.32-.45c.26 2.1-.22 4.27.46 6.32.64 1.94 2.16 3.28 4.18 3.63 3.65.62 7.82-1.48 9.19-4.98.7-1.79-1.98-2.66-2.94-1.24-1.27 1.86-3.31 3.61-5.77 2.91-1.05-.3-1.38-1.33-1.5-2.32-.19-1.59-.03-3.17-.29-4.76-.14-.83-1.1-1.31-1.86-1.21-.89.12-1.38.81-1.47 1.66-.16 1.55.23 3.33-.35 4.8-.49 1.22-1.69 1.92-2.92 2.2-1.53.35-3.16-.02-4.62-.5-.89-.29-3.34-.9-3.18-2.14.21-1.59-2.5-1.95-2.81-.38Zm-9.27-15.02c-.51 1.59-.34 3.39.44 4.86s2.18 2.53 3.78 3.1c3.12 1.12 7.15.35 8.83-2.74.5-.91.74-1.89.85-2.91.04-.43.05-.87 0-1.3-.05-.56-.09-1.26-.44-1.73s-.78-.76-1.39-.67c-.52.08-1.04.46-1.16 1-.09.39-.08.68-.02 1.08.03.18.03.21.01.08l.03.32c.02.38.02.76-.02 1.14.02-.2-.07.34-.08.4-.05.21-.11.41-.18.62-.07.17-.08.2-.03.08-.03.07-.07.14-.11.22-.09.17-.18.32-.29.48-.11.15-.12.17-.05.07-.07.08-.14.16-.22.24-.04.04-.46.4-.27.25-.12.09-.25.17-.38.24-.05.03-.56.27-.3.17-.35.14-.72.23-1.09.3-.11.02-.1.02.04 0l-.3.03c-.2.01-.41.02-.61.01s-.41-.02-.61-.04c.3.03-.13-.02-.19-.04-.4-.08-.79-.18-1.18-.31-.09-.03-.19-.07-.28-.1.14.06.13.06-.03-.02-.13-.07-.27-.13-.4-.21-.05-.03-.5-.36-.3-.19-.15-.13-.3-.27-.43-.41-.03-.03-.29-.35-.14-.15-.12-.16-.23-.33-.32-.51s-.19-.36-.27-.54c.11.24-.09-.28-.11-.34-.19-.64-.2-1.11-.05-1.74.45-1.77-2.17-2.48-2.73-.75Zm33.61 0c-.51 1.59-.34 3.39.44 4.86s2.18 2.53 3.78 3.1c3.12 1.12 7.15.35 8.83-2.74.5-.91.74-1.89.85-2.91.04-.43.05-.87 0-1.3-.05-.56-.09-1.26-.44-1.73s-.78-.76-1.39-.67c-.52.08-1.04.46-1.16 1-.09.39-.08.68-.02 1.08.03.18.03.21.01.08l.03.32c.02.38.02.76-.02 1.14.02-.2-.07.34-.08.4-.05.21-.11.41-.18.62-.07.17-.08.2-.03.08-.03.07-.07.14-.11.22-.09.17-.18.32-.29.48-.11.15-.12.17-.05.07-.07.08-.14.16-.22.24-.04.04-.46.4-.27.25-.12.09-.25.17-.38.24-.05.03-.56.27-.3.17-.35.14-.72.23-1.09.3-.11.02-.1.02.04 0l-.3.03c-.2.01-.41.02-.61.01s-.41-.02-.61-.04c.3.03-.13-.02-.19-.04-.4-.08-.79-.18-1.18-.31-.09-.03-.19-.07-.28-.1.14.06.13.06-.03-.02-.13-.07-.27-.13-.4-.21-.05-.03-.5-.36-.3-.19-.15-.13-.3-.27-.43-.41-.03-.03-.29-.35-.14-.15-.12-.16-.23-.33-.32-.51s-.19-.36-.27-.54c.11.24-.09-.28-.11-.34-.19-.64-.2-1.11-.05-1.74.45-1.77-2.17-2.48-2.73-.75ZM53.12 141.92c-5.97.56-11.99 1.13-17.72 2.87-2.31.7-4.78 1.79-5.77 3.99-1.03 2.28-.04 5.07 1.74 6.83s4.18 2.72 6.53 3.57c33.24 12.05 69.75 13 104.67 7.46 4.94-.78 9.91-1.71 14.47-3.74s8.74-5.29 11-9.75c.75-1.49 1.29-3.2.87-4.81-.77-2.99-4.23-4.25-7.22-5.05-.98 3.98-4.43 7-8.26 8.45s-8.04 1.52-12.13 1.33c-4.28-.2-8.55-.68-12.77-1.43-4.89 11.79-18.27 19.43-30.91 17.63-1.55-.22-3.12-.58-4.42-1.46-2.83-1.91-3.66-5.68-5.82-8.33-2.17-2.66-5.58-4.03-8.96-4.67s-6.85-.66-10.24-1.22c-4.54-.75-8.91-2.46-12.75-4.99-1.66-1.09-3.34-2.56-3.55-4.53"/><path d="M53.12 140.23c-6.73.34-14.07.63-20.37 3.24-2.93 1.22-5.38 3.39-5.68 6.72-.29 3.13 1.51 6.09 3.92 7.94 2.6 2.01 5.86 3 8.93 4.06 3.25 1.12 6.53 2.13 9.85 3.04 6.62 1.83 13.34 3.25 20.12 4.32 13.74 2.15 27.67 2.86 41.56 2.34 6.9-.26 13.8-.82 20.66-1.64s13.79-1.59 20.4-3.46c6.54-1.85 12.95-5.32 16.64-11.23 1.81-2.89 3-6.65.97-9.75-1.73-2.65-4.93-3.79-7.84-4.59-1.1-.3-2.32.37-2.62 1.49-1.36 5.09-6.66 7.54-11.5 8.1-6.25.73-12.89-.17-19.04-1.26-.84-.15-2.04.08-2.43.99-4.15 9.8-14.15 16.71-24.83 16.92-2.56.05-5.99.03-8.03-1.74-2.01-1.75-2.75-4.58-4.25-6.71-3.96-5.64-10.85-6.51-17.2-7.1-3.76-.35-7.44-1.03-10.93-2.53a31.6 31.6 0 0 1-4.92-2.67c-1.21-.81-2.32-1.72-2.55-3.23-.18-1.16-1.64-1.81-2.68-1.52-1.24.34-1.7 1.51-1.52 2.68.54 3.48 3.94 5.61 6.77 7.17 3.18 1.75 6.65 3.04 10.21 3.72 6.13 1.17 14.99-.05 19.3 5.54 1.84 2.38 2.65 5.43 4.9 7.52 2.53 2.36 6.16 2.85 9.48 2.97 5.96.21 11.73-1.52 16.91-4.39 5.99-3.32 10.62-8.69 13.26-14.97l-2.64 1.5c7.16 1.25 14.87 2.28 22.1 1.11 6.06-.98 12.03-4.74 13.69-10.96-.87.5-1.75.99-2.62 1.49 1.82.5 4.44 1.11 5.46 2.9 1.16 2.03-.79 4.86-2.01 6.43-3.36 4.31-8.51 6.71-13.66 8.11-5.82 1.58-11.92 2.32-17.9 3.05-6.25.76-12.52 1.31-18.81 1.61-24.77 1.2-49.83-1.4-73.35-9.52-2.77-.96-6.2-1.83-8.21-4.12-1.78-2.03-1.61-4.54.77-5.9 2.76-1.59 6.33-2.16 9.42-2.73 3.56-.66 7.15-1.12 10.73-1.61 1.88-.26 1.44-3.41-.45-3.31Z"/></svg>