<?xml version="1.0" encoding="UTF-8"?><svg xmlns="http://www.w3.org/2000/svg" viewBox="0 0 180 180"><path d="M133.8 24.14c-15.99-.12-31.88 1.11-47.63 3.95-7.68 1.38-15.29 3.18-22.8 5.28-3.76 1.05-7.51 2.15-11.21 3.4-3.26 1.1-6.58 2.54-8.85 5.22s-3.42 6.22-4.14 9.71-1.17 7.14-1.35 10.75c-.35 7.11.34 14.25 2.02 21.16 1.66 6.8 4.24 13.52 7.78 19.56 1.68 2.87 3.73 5.56 6.53 7.43 2.81 1.87 6.13 2.61 9.42 3.04 15.53 2.02 31.47-.09 46.84-2.39l-2.92-1.66c1.26 7.1 1.74 14.33.39 21.46-.26 1.36 1.19 2.87 2.54 1.95 4.46-3.01 8.42-6.59 11.7-10.88 1.62-2.11 3.05-4.35 4.27-6.72.56-1.09 1.07-2.21 1.55-3.34.52-1.23.96-2.6 1.8-3.66 1.55-1.97 4.77-1.85 7.02-2.18 3.11-.46 6.21-1.02 9.32-1.55s6.3-1.42 9.39-2.29c2.75-.77 5.56-1.53 8.13-2.8 2.43-1.2 4.63-3.02 5.93-5.44s1.74-5.35 1.9-8.14c.35-6.26.33-12.56.46-18.82.13-5.92-.01-11.81-.18-17.72-.12-4.02-.24-8.06-1.05-12.01-.88-4.29-2.77-8.48-6.47-11.03-2.23-1.53-5.14-1.97-7.77-2.25-3.2-.34-6.5.09-9.71.27-1.72.1-1.75 2.74 0 2.7 2.7-.05 5.32 0 8.01.3 2.4.27 4.64.71 6.74 1.97 2.98 1.78 4.4 4.95 5.18 8.21.85 3.56.98 7.23 1.08 10.87.14 5.24.3 10.46.22 15.7-.1 6.3-.44 12.59-.8 18.88-.14 2.5-.24 5.07-1.12 7.45-.79 2.15-2.31 3.62-4.31 4.67-2.27 1.19-4.82 1.84-7.27 2.55-2.87.82-5.77 1.5-8.66 2.24-2.97.76-5.92 1.48-8.94 2.04-2.59.48-5.51.62-7.86 1.93-2.55 1.43-3.55 4.14-4.58 6.71s-2.33 5.01-3.83 7.32c-3.09 4.74-7.15 8.93-11.9 12.01.85.65 1.69 1.3 2.54 1.95 1.63-7.77 2.26-15.79.85-23.64-.24-1.36-1.75-1.83-2.92-1.66-13.03 1.98-26.34 3.82-39.56 3.54-6.21-.13-12.65-.72-16.69-6.03-1.84-2.42-3.13-5.29-4.35-8.06-1.36-3.08-2.46-6.29-3.35-9.54a78 78 0 0 1-2.78-19.85c-.03-3.21.14-6.43.56-9.62.42-3.16.93-6.61 2.29-9.52 1.29-2.76 3.45-4.45 6.24-5.58 3.34-1.36 6.88-2.32 10.33-3.34 7.18-2.11 14.45-3.92 21.78-5.42 16.49-3.36 33.32-5.45 50.15-5.8 2.14-.04 2.15-3.31 0-3.33Z"/><path d="M108.89 89.43c-4.55-3.07-12.54-8.67-16.98-11.9s-8.44-7.47-9.92-12.75c-.83-2.96-.73-6.41 1.22-8.79 2.58-3.13 7.51-3.27 11.19-1.57 5.1 2.36 8.4 7.34 11.42 12.08-.21-3.6.14-7.29 1.63-10.58 1.49-3.28 4.21-6.11 7.66-7.16s7.57-.05 9.76 2.81c.79 1.04 1.31 2.27 1.66 3.53 1.82 6.48-.68 13.48-4.49 19.02-3.82 5.54-8.9 10.09-13.15 15.31"/><path d="M109.7 88.04c-3.63-2.53-7.21-5.12-10.79-7.72s-7.37-5.03-10.41-8.28c-2.96-3.17-5.97-7.94-4.89-12.49 1.04-4.4 6-5.03 9.65-3.54 4.89 2 8.36 7.05 11.08 11.35.86 1.36 3.26.91 3.18-.86-.22-4.64.44-9.68 3.75-13.21 2.63-2.81 6.81-4.19 10.33-2.13 3.84 2.25 4.03 7.99 3.24 11.86-.95 4.66-3.37 8.83-6.31 12.51-3.48 4.35-7.51 8.2-11.04 12.51-.67.82-.8 1.98 0 2.78.7.7 2.11.83 2.78 0 7.15-8.69 16.93-16.34 18.58-28.21.72-5.15-.3-11.54-5.09-14.48-4.35-2.68-9.82-1.73-13.64 1.39-5 4.08-6.36 10.83-6.02 16.98 1.06-.29 2.12-.57 3.18-.86-3.07-4.76-6.04-9.8-11.22-12.53-4.3-2.27-10.46-2.63-14.01 1.26-4.08 4.47-2.57 11.32.29 16 2.82 4.6 7.09 7.73 11.44 10.78 4.71 3.3 9.48 6.53 14.29 9.68 1.75 1.15 3.3-1.61 1.62-2.78Zm-71.37-9.47c-5.46 1.41-10.87 3.25-15.67 6.21-8.95 5.51-13.92 15.79-12.36 26.23 1.76 11.75 11.58 20.27 22.48 23.7 7.76 2.45 17.64 2.56 25.7 1.36 1.59 8.62-3.12 17.99-9.65 23.84 6.13-.15 12.15-2.89 16.29-7.42 4.14-4.52 6.34-10.77 5.95-16.88 6.8-1.26 14.1-2.78 18.77-7.88 3.72-4.07 5.09-9.7 6.32-15.07-8.33 1.24-16.77 1.77-25.19 1.6-6.89-.14-14.22-.92-19.6-5.22-3.1-2.47-5.27-5.9-7.13-9.4-3.19-6-5.63-12.41-7.24-19.02"/><path d="M37.91 77.04c-7.82 1.77-15.88 4.42-21.7 10.21-5.07 5.04-8.07 11.93-8.32 19.07-.5 14.44 11.06 25.83 24.06 30.08 8.5 2.78 17.75 2.67 26.53 1.61l-1.87-1.43c1.23 8.29-3.21 16.47-9.2 21.9-1.28 1.16-.29 3.49 1.42 3.43 6.6-.22 13.06-3 17.58-7.86s7.03-11.71 6.64-18.45l-1.45 1.91c6.28-1.19 12.77-2.56 17.85-6.69 5.35-4.35 7.15-11.21 8.66-17.63.39-1.64-.98-2.7-2.49-2.49-5.35.74-10.75 1.19-16.15 1.36-4.99.16-10.08.21-15.04-.4-4.16-.51-8.53-1.71-11.82-4.44-3.52-2.92-5.76-7.05-7.76-11.08-2.55-5.13-4.48-10.51-5.86-16.06-.64-2.59-4.63-1.49-3.99 1.1a87.7 87.7 0 0 0 5.38 15.49c2.06 4.54 4.46 9.2 8.06 12.72 7.44 7.29 18.9 7.25 28.61 7.02 6.59-.16 13.15-.78 19.66-1.79l-2.49-2.49c-1.29 5.75-2.75 12.02-7.57 15.89-4.49 3.61-10.58 4.68-16.09 5.69-.81.15-1.5 1.1-1.45 1.91.29 5.68-1.62 11.42-5.53 15.61-3.8 4.08-9.16 6.49-14.73 6.68l1.42 3.43c6.96-6.32 12-16.21 10.1-25.78-.22-1.1-1.42-1.52-2.39-1.36-7.08 1.21-14.77 1.11-21.78-.5-6.03-1.38-11.75-4.25-16.24-8.55-9.12-8.74-10.45-23.45-2.26-33.3 5.28-6.35 13.36-9.46 21.07-11.75 1.96-.58 1.15-3.51-.84-3.06ZM23.8 43.84c-2.28-1.01-4.48-2.23-6.63-3.5-.82-.49-2.03-.21-2.49.65-.5.94-.18 1.9.65 2.49 1.04.74 2.1 1.42 3.24 2.01 1.23.65 2.5 1.22 3.79 1.76.4.17 1.09.04 1.44-.19s.6-.51.76-.89c.33-.77.09-1.96-.76-2.33m16.96-17.13c-1.46-2.49-2.85-5.02-4.12-7.61-.41-.83-1.65-1.12-2.41-.63-.85.55-1.06 1.52-.63 2.41 1.26 2.6 2.72 5.1 4.41 7.45.49.67 1.41 1.07 2.18.57.73-.47 1.02-1.41.57-2.18Zm22.59-6.96c.03-1.47.06-2.94.1-4.41l.05-2.16.02-1.08c0-.17.01-.33 0-.5 0-.32-.08-.62-.24-.89-.3-.41-.36-.48-.18-.22-.73-.99-1.95-.99-2.68 0 .18-.26.12-.18-.18.22q-.195.3-.21.66c-.03.25-.03.48-.03.73l.02 1 .05 2.25.1 4.41c.02.83.72 1.63 1.59 1.59s1.57-.7 1.59-1.59Zm27.25-4.24.24-.71c.07-.24.09-.48.03-.71-.01-.24-.08-.46-.21-.67-.11-.21-.27-.38-.46-.5a1.4 1.4 0 0 0-.61-.32l-.48-.06q-.48 0-.9.24l-.36.28c-.22.22-.38.49-.46.79l-.24.71c-.07.24-.09.48-.03.71.01.24.08.46.21.67.11.21.27.38.46.5.17.16.38.26.61.32l.48.06q.48 0 .9-.24l.36-.28c.22-.22.38-.49.46-.79m-4.07 154.42c7.49.89 15.69 1.14 22.24-3.24 2.92-1.95 5.54-4.81 6.45-8.29s-.41-6.94-3.05-9.34c-2.72-2.49-6.39-4.07-10-4.72-3.23-.57-6.96-.7-9.87 1.09-3.04 1.87-3.91 5.4-2.47 8.6s4.62 5.69 7.57 7.53c12.26 7.66 28.71 5.73 38.77-4.68 4.53-4.69 8.41-12.51 3.91-18.52-2.02-2.7-5.31-4.49-8.67-4.74s-6.55 2.3-6.22 5.9c.34 3.67 3.37 5.8 6.62 6.89 3.63 1.22 7.83 1.87 11.56.67 6.76-2.17 11.01-9.01 13.13-15.41.6-1.83 1.02-3.7 1.29-5.61.13-.91-.22-1.8-1.18-2.08-.79-.23-1.95.28-2.08 1.18-.79 5.79-3.1 11.79-7.4 15.88-2 1.9-4.51 3.25-7.31 3.39-2.87.14-6.31-.62-8.82-2.06-.98-.57-1.87-1.34-2.16-2.48-.26-1.01-.02-2.06 1.06-2.4 2.18-.68 5.05.79 6.56 2.28 4.15 4.07 1.07 10.29-2.14 13.87-7.61 8.5-19.87 11.41-30.46 7.17a27 27 0 0 1-7.35-4.42c-1.62-1.38-4.56-4.03-3.47-6.48.84-1.89 3.56-2.22 5.35-2.21 3.02.03 6.06.84 8.7 2.29 2.45 1.35 5.1 3.58 4.74 6.68-.34 2.93-2.69 5.45-5.05 7.02-5.98 3.96-13.46 3.54-20.27 2.78-.93-.1-1.72.87-1.73 1.73-.01 1.02.8 1.62 1.73 1.73Z"/></svg>