<?xml version="1.0" encoding="UTF-8"?><svg xmlns="http://www.w3.org/2000/svg" viewBox="0 0 180 180"><path d="M91.82 88.89C81.03 80.49 68.88 73.8 56.7 67.66c-1.46-.74-2.92-1.46-4.39-2.18-1.11-.55-2.4-.98-2.96-2.19a3.03 3.03 0 0 1-.26-1.54c.03-.26.1-.49.17-.74.13-.49-.07.12-.02 0 .11-.29.25-.56.37-.84 1.43-3.22 2.85-6.44 4.28-9.65 1.15-2.58 2.28-5.17 3.44-7.75.43-.96.86-2.19 1.71-2.88 1.28-1.03 3.47-1.22 5.01-1.63 4.05-1.07 8.11-2.14 12.16-3.22s7.95-2.1 11.92-3.15c2.07-.55 4.13-1.09 6.2-1.64 1.73-.46 3.64-1.21 5.45-1.09 1.59.1 2.76 1.22 3.92 2.2l4.91 4.16c3.15 2.67 6.31 5.31 9.44 8 .33.28 1.02.87 1.02 1.05.01.73-.84 1.81-1.16 2.44-.98 1.92-1.95 3.84-2.93 5.76-1.88 3.69-3.77 7.37-5.63 11.08-3.78 7.56-7.55 15.12-11.28 22.71-.91 1.86-1.77 3.75-2.67 5.62-.99 2.04 1.99 3.84 3.08 1.8 4.21-7.88 8.43-15.76 12.56-23.68 2.06-3.97 4.11-7.94 6.15-11.92l3.06-5.97c1-1.96 2.2-3.92 2.98-5.98 1.69-4.45-3.25-7.22-6.12-9.64-3.41-2.87-6.81-5.74-10.22-8.61-1.48-1.25-2.95-2.5-4.82-3.13-2-.67-4.17-.33-6.16.16-4.28 1.05-8.52 2.26-12.78 3.4-4.29 1.14-8.58 2.28-12.87 3.43-2.22.59-4.45 1.18-6.67 1.78-2.01.54-4.17.91-6.04 1.84-3.28 1.62-4.53 6.06-5.93 9.23-1.68 3.8-3.35 7.59-5.03 11.39-.38.86-.76 1.71-1.13 2.57-1.31 3.02-.77 6.6 1.85 8.77 1.33 1.1 3.04 1.68 4.58 2.41 1.63.77 3.26 1.56 4.88 2.35q5.1 2.505 10.11 5.19c6.48 3.47 12.89 7.1 18.98 11.22 1.32.9 2.63 1.82 3.92 2.77 1.53 1.14 3.57-1.48 2.05-2.66Z"/><path d="M48.42 64.08c9.4-2.71 18.92-5 28.42-7.32 9.68-2.37 19.39-4.66 29.09-6.92 5.3-1.24 10.63-2.37 15.9-3.7 2.23-.56 1.28-3.89-.94-3.42-9.57 2.01-19.07 4.42-28.57 6.71s-19.34 4.83-28.94 7.51c-5.24 1.46-10.46 2.99-15.69 4.5-1.7.49-.98 3.14.73 2.65Z"/><path d="M57.28 40.64c5.5 5.24 11.09 10.36 16.7 15.49.81.74 2.56.58 2.75-.72.51-3.67.84-7.37 1.17-11.06.31-3.47.55-6.94 1.73-10.25l-2.55 1.04c6.04 4.03 11.44 8.94 16.12 14.49.69.82 2.26.6 2.73-.35 1.5-3.08 2.13-6.48 2.93-9.79.87-3.61 1.75-7.23 2.62-10.84.53-2.2-2.86-3.14-3.39-.93-.83 3.45-1.65 6.91-2.48 10.36-.75 3.13-1.24 6.54-2.68 9.44l2.73-.35c-4.86-5.8-10.54-10.83-16.83-15.03-.99-.66-2.2.05-2.55 1.04-1.19 3.36-1.49 6.92-1.84 10.45-.37 3.77-.76 7.56-.94 11.35l2.8-1.16c-5.69-5.05-11.37-10.09-17.16-15.02-1.27-1.08-3.09.67-1.86 1.86Z"/><path d="M73.14 57.62c2.58 5.63 5.24 11.21 8.09 16.72 2.83 5.47 5.58 11.09 8.87 16.3 1.13 1.79 3.76.23 2.82-1.65-2.76-5.53-5.95-10.86-8.81-16.33-2.86-5.48-5.71-10.97-8.47-16.5-.84-1.69-3.28-.21-2.51 1.47Zm20.97-7.6c.06 7.23.5 14.46.79 21.68.29 7.23.58 14.46.71 21.69.04 2.13 3.37 2.13 3.31 0-.19-7.23-.34-14.47-.63-21.69s-.55-14.49-1.32-21.68c-.19-1.79-2.87-1.88-2.86 0m-49.24-11.7c-1.15-.19-2.3-.43-3.42-.75s-2.21-.79-3.34-1.08c-.82-.21-1.66.2-1.99.98-.3.72-.07 1.75.69 2.11 1.17.55 2.44.86 3.7 1.14 1.16.26 2.33.49 3.51.66.44.06.82.07 1.22-.16.33-.19.64-.57.73-.94.17-.76-.23-1.8-1.1-1.94Zm9.92-14.24c-.77-.9-1.58-1.76-2.45-2.56-.95-.89-1.93-1.74-3.04-2.41-.71-.43-1.65-.21-2.14.43s-.49 1.62.13 2.17c.87.77 1.79 1.49 2.65 2.28s1.68 1.62 2.45 2.5c.59.67 1.81.65 2.4 0 .66-.72.62-1.68 0-2.4Zm18.09-4.89c-.03-.38-.09-.6-.25-.94-.06-.12-.12-.23-.17-.35-.12-.23-.23-.46-.35-.69-.24-.44-.47-.88-.69-1.33-.45-.91-.85-1.84-1.31-2.74-.36-.71-1.31-.95-2-.66s-1.16 1.12-.93 1.89c.33 1.09.81 2.13 1.36 3.13.25.45.5.9.77 1.34.14.22.28.43.44.64.27.36.52.74.92.97.46.26 1.03.27 1.49 0 .42-.24.78-.77.73-1.27Zm18.51-5.9c.09-1.1.17-2.19.26-3.29.03-.39-.2-.86-.47-1.13s-.73-.49-1.13-.47-.84.15-1.13.47-.44.69-.47 1.13c-.08 1.1-.15 2.19-.23 3.29-.03.39.2.85.46 1.12s.73.48 1.12.46.84-.15 1.12-.46.43-.68.46-1.12Zm18.78 7.47c.71-.78 1.41-1.56 2.12-2.34.28-.31.47-.7.47-1.13 0-.39-.17-.86-.47-1.13s-.71-.49-1.13-.47-.85.15-1.13.47l-2.11 2.35c-.28.32-.47.69-.47 1.13 0 .39.17.86.47 1.13s.7.49 1.13.47.84-.15 1.13-.47Z"/><path d="M80.61 82.17c-17.09 7.54-26.34 26.77-26.74 44.75-.19 8.78 1.72 17.75 6.39 25.25 4.26 6.84 10.62 12.16 18.01 15.34 18.5 7.95 40.7 3.63 56.35-8.47 15.32-11.83 25.96-31.61 20.91-51.21-4.76-18.48-22.55-31.22-40.86-33.87-2.38-.34-4.66-.51-7.06-.32-2.54.2-2.49 3.64 0 3.91 4.37.47 8.7.97 12.94 2.19s8.22 2.95 11.96 5.21c7.22 4.34 13.28 10.59 16.81 18.29 7.79 16.94.16 36.08-12.52 48.3-13.49 13.01-33.51 19.13-51.77 13.88-7.02-2.02-13.42-5.87-18.17-11.46-5.03-5.91-7.76-13.53-8.48-21.2-1.54-16.43 4.9-34.49 18.62-44.29 1.71-1.22 3.51-2.3 5.37-3.27 2.05-1.06.25-3.93-1.77-3.04Z"/><path d="M95.35 92.88c-13.17 8.08-22.27 23.03-22.05 38.64.11 7.68 2.34 15.47 6.82 21.75 4.58 6.44 11.28 11.23 18.89 13.42 8.86 2.56 19.53 1.78 27.07-3.92.97-.73.46-2.74-.92-2.18-7.22 2.92-14.87 4.67-22.63 3.02-6.95-1.48-13.33-5.41-17.84-10.89-9.04-10.97-9.32-27.1-2.97-39.4 3.69-7.16 9.23-13.07 15.57-17.97 1.43-1.1-.41-3.4-1.91-2.48Zm10.29-1.48c7.71-2.26 16.14-4.11 24.19-2.75 3.19.54 6.29 1.57 9.11 3.17 1.4.79 2.8 1.57 4.07 2.55 1.4 1.08 2.46 2.38 3.53 3.78.96 1.25 2.86.22 2.15-1.25-.81-1.68-2.04-3.08-3.24-4.49-1.11-1.31-2.48-2.59-3.94-3.49-3.12-1.94-6.69-3.19-10.3-3.8-8.99-1.52-17.79.92-26.27 3.7-1.63.54-.96 3.08.71 2.59Z"/><path d="M121.95 87.03c9.84.78 13.94 9.84 13.98 18.7.11 25.8-22.28 48.11-46.6 53.27 7.98 4.3 17.52 5.64 26.38 3.71s16.97-7.12 22.44-14.35c2.23-2.95 4.03-6.21 5.96-9.37.94-1.54 1.92-3.07 2.66-4.72 1.54-3.44 4.6-8.02 4.77-11.78.17-3.88.06-4.64-.28-8.51-.14-1.63.66-5.42.03-6.93-.84-2.01-3.78-7.76-5.05-9.53-1.87-2.62-5.37-1.72-7.2-4.36s-4.46-5.02-7.65-5.39"/><path d="M121.58 88.36c2.99.41 5.67 1.58 7.81 3.73 1.96 1.96 3.17 4.53 3.88 7.18 1.61 6.04.75 12.74-.97 18.67-3.65 12.6-12.41 23.37-23.25 30.57-6.13 4.07-12.99 7.18-20.21 8.73-1.52.33-1.79 2.62-.44 3.34 8.81 4.69 19.24 6.08 28.94 3.64 8.9-2.24 16.88-7.61 22.4-14.92 1.63-2.16 3.02-4.47 4.41-6.79 1.36-2.27 2.88-4.5 4.03-6.89 1.84-3.82 4.47-7.7 5.09-11.96.58-3.98-.41-7.91-.06-11.86.15-1.7.46-3.58-.1-5.25-.5-1.47-1.31-2.9-2.01-4.29-.88-1.74-1.77-3.5-2.82-5.15-1.22-1.93-2.86-2.88-4.99-3.59-.81-.27-1.68-.5-2.32-1.11-.85-.81-1.44-1.92-2.26-2.78-1.82-1.9-4.15-3.42-6.79-3.8-1.06-.16-2.14.26-2.45 1.39-.26.93.32 2.3 1.39 2.45 2.03.28 3.66 1.28 5.07 2.74s2.24 3.14 4.11 4.01c1.38.65 3.29.8 4.4 1.92.92.93 1.53 2.36 2.15 3.5.81 1.48 1.59 2.99 2.33 4.51.65 1.35.81 1.84.72 3.44-.09 1.72-.31 3.37-.15 5.08.15 1.73.29 3.45.27 5.18-.02 2.05-.18 3.85-.93 5.77-.75 1.93-1.78 3.74-2.72 5.58-2.14 4.17-4.45 8.21-6.95 12.18-4.6 7.33-11.17 13.11-19.39 16.03-9.65 3.43-20.48 2.57-29.51-2.22-.15 1.11-.29 2.23-.44 3.34 14-3.02 26.82-10.99 35.81-22.16 4.49-5.58 8.08-11.91 10.15-18.79 1.97-6.56 2.86-14 1.19-20.72-.85-3.4-2.44-6.71-4.91-9.22-2.69-2.73-6.31-4.05-10.09-4.22-1.52-.07-1.93 2.5-.37 2.72ZM94.98 170c-20.71-1.04-41.1-7.96-58.16-19.75-4.18-2.89-8.32-6.25-10.37-10.9s-1.34-10.87 2.84-13.76c1.46-1.01 3.2-1.54 4.93-1.93a38.9 38.9 0 0 1 20 .78c-1.71 5.45-1.05 11.43.88 16.8s5.07 10.22 8.38 14.88c2.64 3.71 5.85 7.61 10.34 8.33"/><path d="M94.98 168.39c-15.14-1.11-30.25-5.28-43.81-12.12-3.37-1.7-6.65-3.56-9.82-5.59s-6.09-3.97-8.7-6.46c-2.32-2.21-4.31-4.85-4.97-8.04-.54-2.58-.17-5.69 1.54-7.78 1.16-1.42 2.83-2.12 4.55-2.58 2.08-.56 4.23-.9 6.38-1.05 4.6-.32 9.16.23 13.58 1.51l-1.34-2.37c-2.54 8.83.1 17.85 4.54 25.59 2.08 3.62 4.46 7.15 7.08 10.4 2.39 2.96 5.45 5.68 9.35 6.26.96.14 1.91-.24 2.2-1.25.26-.89-.31-2-1.25-2.2-3.36-.73-5.81-3.16-7.87-5.79-2.3-2.93-4.39-6.11-6.24-9.34-3.88-6.78-6.55-14.91-4.11-22.65.32-1.02-.38-2.06-1.34-2.37a39.8 39.8 0 0 0-13.22-1.84c-4.14.13-8.86.63-12.55 2.67-6.62 3.66-6.96 12.65-3.54 18.61 1.99 3.47 5.01 6.18 8.17 8.56 3.24 2.43 6.71 4.6 10.24 6.61 7.32 4.16 15.16 7.6 23.24 9.98 9.08 2.67 18.44 4.15 27.9 4.44 2.09.06 2.05-3.07 0-3.22Z"/></svg>