<?xml version="1.0" encoding="UTF-8"?><svg xmlns="http://www.w3.org/2000/svg" viewBox="0 0 180 180"><path d="M60.74 119.48c2.78-4.36 6.96-10.41 12.74-10.58 2.89-.09 5.41 1.44 7.83 2.83 2.74 1.58 5.48 2.98 8.69 3.22-.18-1.35-.36-2.69-.55-4.04-5.49.74-7.1 6.7-7.78 11.28-.75 5.06-2.64 9.57-6.1 13.39-6.24 6.88-15.65 10.16-24.82 9.87-9.66-.3-18.88-4.74-26.04-11.07-1.81-1.6-3.42-3.36-5.08-5.11-1.63-1.71-3.6-3.16-6.04-3.27-2.31-.1-4.57 1.17-5.33 3.41-.45 1.31-.23 2.65-.06 3.98.13 1.05.1 2.05.02 3.1-.18 2.24-.3 4.79 1.66 6.32 2.5 1.95 5.91.37 8.49-.62 5.54-2.13 10.87-5.06 15.1-9.28 1.27-1.26-.4-3.59-1.96-2.54-4.06 2.72-8.18 5.39-12.69 7.33-1.03.44-2.08.84-3.14 1.21-.7.24-2.52 1.18-3.24.79-.78-.43-.18-3.12-.13-3.86.07-1.05-.01-2.05-.15-3.09-.1-.77-.45-2.01.32-2.52 1.51-1 3.4.93 4.32 1.88 3.11 3.25 6.23 6.32 9.92 8.93 7.39 5.2 16.31 8.48 25.4 8.45s17.62-3.02 24.2-8.95c3.83-3.45 6.83-7.94 8.32-12.89.8-2.66.87-5.46 1.59-8.14.48-1.79 1.65-4.32 3.78-4.58 2.6-.32 2.69-3.88 0-4.11-3.12-.27-5.85-2.31-8.54-3.71-3-1.57-6.1-2.55-9.51-1.96-6.48 1.13-10.64 7.62-13.74 12.83-.97 1.63 1.52 3.07 2.54 1.48Z"/><path d="M71.14 112.82c-.42 1.03-.84 2.13-.72 3.26.13 1.24.67 2.43 1.78 3.09 1.95 1.17 4.34.02 5.53-1.68.35-.5.61-1.11.75-1.71.09-.39.15-.84.09-1.24-.01-.1-.02-.21-.06-.3-.05-.14.03.24 0 0s-.06-.46-.11-.68c-.12-.55-.72-.89-1.25-.82-.58.08-.95.55-.99 1.12 0 .07.01.22-.03.28l.02-.13-.02.09s.09-.22.05-.09c-.06.17-.14.32-.19.49-.03.12-.06.24-.1.36-.06.2-.12.39-.19.59-.09.24.11-.21-.01.02-.06.11-.11.23-.18.34-.04.06-.08.12-.12.19l-.06.09c-.09.14.19-.23.08-.11s-.23.26-.36.37c-.04.04-.25.2-.06.06s-.06.04-.1.06c-.15.09-.3.17-.45.25-.21.11.29-.1.07-.03-.07.02-.14.05-.21.07l-.24.06c-.28.08.27-.01.06 0-.08 0-.16.01-.24 0-.06 0-.31-.03-.05 0s-.02 0-.08-.02-.32-.12-.09-.02-.03-.02-.08-.05c-.03-.02-.06-.05-.09-.06-.11-.04.12.09.13.1-.05-.06-.12-.11-.18-.16 0 0-.08-.11-.11-.12.04.02.17.25.07.09-.04-.07-.09-.14-.12-.21-.01-.02-.05-.12-.07-.15 0 0 .1.27.06.14-.05-.19-.1-.37-.14-.55-.03-.15.02.17.02.16 0-.05-.01-.11-.01-.16v-.35c0-.12.02-.23.03-.35 0-.07.01-.13.02-.2.02-.19-.05.24 0 .06.12-.51.25-1.01.41-1.51.21-.63-.24-1.41-.88-1.56-.73-.17-1.29.23-1.56.88Z"/><path d="M77.27 114.43c1.31 0 1.31-2.03 0-2.03s-1.31 2.03 0 2.03M58.56 126.1c2.63-5.37 1.68-11.55-1.33-16.57-3.08-5.14-8.04-8.87-13.13-11.84-5.52-3.22-11.4-6.01-17.57-7.74-1.45-.41-2.93-.76-4.41-1.03-1.75-.32-3.55-.66-5.23.12-2.66 1.24-3.55 4.57-2.72 7.23.91 2.89 3.39 4.96 5.84 6.55 3.09 2.01 6.36 3.78 9.53 5.65l1.02-3.76c-3.63-.19-7.06-1.62-10.73-.89-3.15.63-5.96 3.26-6.01 6.61-.05 3.6 3.11 5.5 6.2 6.31 3.78.99 7.75 1.33 11.64 1.09l-.54-4.02c-2.74.8-5.67.96-7.97 2.83-2.14 1.74-3.21 4.66-1.78 7.2 1.41 2.52 4.43 3.4 7.14 3.27 3.25-.16 6.5-.76 9.73-1.09-.17-1.29-.35-2.59-.52-3.88-2.26.56-4.72 1.44-5.91 3.61-1.25 2.28-.53 5.03 1.2 6.84 1.91 2 4.76 2.39 7.37 1.94 2.91-.5 5.4-2.17 8.1-3.25 2.03-.81 1.3-3.94-.93-3.36-1.92.5-3.66 1.39-5.51 2.08-1.62.6-3.64 1.2-5.31.45-.89-.4-1.88-1.55-1.44-2.58.51-1.2 2.39-1.6 3.48-1.92 2.5-.74 1.4-4.17-1.05-3.81-2.37.35-4.75.67-7.13.97-1.64.2-4.1.68-5.41-.66-1.04-1.07.07-2.4 1.06-3.01 1.73-1.07 4.06-1.13 5.98-1.69 2.14-.63 1.83-4.17-.54-4.02-2.92.18-5.86.05-8.73-.52-1.4-.28-5.12-.72-5.02-2.79.1-2.08 2.54-2.78 4.24-2.8 2.84-.04 5.59.95 8.42 1.11 2.05.11 2.67-2.78 1.02-3.76-2.49-1.47-4.98-2.95-7.47-4.42-1.84-1.09-3.9-2.21-5.21-3.96-.67-.89-1.62-3.34.04-3.76 1.02-.26 2.61.31 3.6.52 1.4.3 2.79.67 4.16 1.09 5.09 1.55 9.92 3.84 14.55 6.46 4.25 2.41 8.51 5.21 11.49 9.16 3.15 4.18 4.71 9.81 3.15 14.91-.48 1.56 1.93 2.63 2.67 1.13Z"/><path d="M65.45 109.51c.5-3.07-.24-6.25-1.63-9.03s-3.42-5.19-5.59-7.42c-.75-.77-1.53-1.53-2.36-2.22-1.63-1.37-3.45-2.48-5.27-3.6-1.35-.83-2.78-1.68-4.36-1.71-.59-.01-1.2.11-1.67.45-.78.58-1.01 1.69-.8 2.64s.77 1.78 1.34 2.57c1.81 2.54 3.75 4.98 5.82 7.31-.79-.35-1.57-.69-2.36-1.04-1.04-.46-2.29-.91-3.26-.31-.37.23-.66.73-.41 1.09.07.1.16.17.26.24 3.02 2.2 5.91 4.62 8.32 7.47s4.36 6.15 5.33 9.76a57 57 0 0 1 3.9-4.49c.56-.58 1.16-1.16 1.92-1.4"/><path d="M66.97 109.93c1.22-7.73-3.3-14.45-8.67-19.56-1.39-1.33-2.94-2.48-4.55-3.54-1.62-1.06-3.27-2.2-5.1-2.88-1.62-.6-3.62-.73-5.11.27s-2.05 2.92-1.67 4.6c.44 1.93 2.06 3.55 3.2 5.1 1.38 1.88 2.89 3.65 4.3 5.5l2.46-2.46c-2.24-1.18-5.59-3.31-7.96-1.22-1.12.99-1.51 2.76-.4 3.93 1.02 1.08 2.49 1.88 3.64 2.84 4.38 3.66 8.23 8.15 9.78 13.74.36 1.31 2.35 2.08 3.31.87.81-1.02 1.64-2.01 2.51-2.97.66-.73 1.5-2.05 2.44-2.43.98-.4 1.67-1.3 1.37-2.41-.26-.94-1.42-1.75-2.41-1.37-2.84 1.1-4.88 4.05-6.7 6.38 1.1.29 2.2.58 3.31.87-1.08-3.76-2.98-7.13-5.44-10.15-1.26-1.55-2.67-2.98-4.16-4.31-1.53-1.37-3.3-2.49-4.8-3.89l.51.88-.09-.29v1.07c-.14.61-.66.26.21.47.38.09.74.25 1.1.4.79.31 1.6.6 2.4.89 1.74.62 2.97-1.8 1.75-3.01-1.43-1.41-2.71-3.02-3.97-4.58-.91-1.13-2.56-2.8-2.61-4.35-.04-1.5 2.04-.39 2.82.03 1.64.9 3.26 1.9 4.79 2.97 2.89 2.02 5.59 4.82 7.59 7.73 2.14 3.1 3.52 6.67 3.03 10.47-.22 1.76 2.84 2.19 3.12.42ZM48.15 148.5c-.57 1.18-.7 2.57-.77 3.87-.06 1.2 0 2.42.25 3.6.44 2.14 1.71 4.55 3.92 5.22 1.37.41 2.75-1.26 1.92-2.5-.29-.43-.59-.84-.91-1.25l-.19-.25c.14.19.15.2.02.03-.12-.18-.23-.35-.34-.53s-.2-.37-.29-.56c-.18-.37.09.31-.04-.12-.13-.41-.26-.81-.36-1.22q-.075-.33-.12-.66c.05.34-.03-.4-.04-.47q-.045-.69-.03-1.38c.02-1.12.17-2.28-.07-3.39-.29-1.3-2.34-1.63-2.94-.38Zm9.05-1.81c-.57 1.18-.7 2.57-.77 3.87-.06 1.2 0 2.42.25 3.6.44 2.14 1.71 4.55 3.92 5.22 1.37.41 2.75-1.26 1.92-2.5-.29-.43-.59-.84-.91-1.25l-.19-.25c.14.19.15.2.02.03-.12-.18-.23-.35-.34-.53s-.2-.37-.29-.56c-.18-.37.09.31-.04-.12-.13-.41-.26-.81-.36-1.22q-.075-.33-.12-.66c.05.34-.03-.4-.04-.47q-.045-.69-.03-1.38c.02-1.12.17-2.28-.07-3.39-.29-1.3-2.34-1.63-2.94-.38ZM121.8 118c-3.11-5.21-7.26-11.7-13.74-12.83-3.41-.59-6.51.4-9.51 1.96-2.69 1.41-5.43 3.44-8.54 3.71-2.68.23-2.6 3.79 0 4.11 1.78.22 3.01 2.2 3.52 3.73.81 2.39.88 4.95 1.43 7.41 1 4.48 3.33 8.62 6.34 12.05 5.88 6.71 14.51 10.42 23.29 11.22s18.13-1.75 25.84-6.42c3.88-2.35 7.47-5.23 10.63-8.48 1.35-1.39 2.68-3.45 4.53-4.2.56-.23 1.41-.36 1.95 0 .72.48.45 1.57.35 2.3-.16 1.23-.25 2.39-.16 3.63.07.94.26 1.96.12 2.89-.11.8-.45.75-1.24.57-1.33-.31-2.64-.83-3.91-1.31-5.09-1.96-9.7-4.92-14.21-7.94-1.55-1.04-3.24 1.26-1.96 2.54 3.76 3.75 8.39 6.47 13.26 8.53 2.29.97 5.05 2.35 7.58 2.32 2.58-.03 4.21-1.97 4.47-4.4.21-1.99-.3-3.96-.05-5.96.33-2.54.26-5.2-2.23-6.64-4.82-2.78-8.66 2.1-11.64 5.13-6.75 6.84-15.57 11.99-25.19 13.29-8.98 1.21-18.81-1.12-25.74-7.1-4.2-3.62-7.3-8.41-8.34-13.9-.55-2.87-.68-5.82-2.01-8.48-1.18-2.36-3.39-4.43-6.08-4.79-.18 1.35-.36 2.69-.55 4.04 3.21-.25 5.95-1.64 8.69-3.22 2.42-1.39 4.94-2.92 7.83-2.83 5.79.18 9.96 6.22 12.74 10.58 1.01 1.59 3.51.15 2.54-1.48Z"/><path d="M106.42 113.49c.14.43.29.86.38 1.31 0 .05.02.1.03.15 0 .04.02.2 0 .02v.07c0 .05 0 .1.01.15.02.22.03.43.02.65v.12c0 .15.03-.17.02-.16-.03.09-.03.19-.06.28-.02.08-.04.16-.07.24-.01.04-.04.08-.04.12.01-.1.13-.27.02-.07l-.12.21c-.16.25.16-.15 0 0l-.17.17c-.03.03-.15.12.02 0 .18-.15 0 0-.04.02-.04.03-.13.1-.19.1-.03 0 .32-.1.17-.08-.03 0-.07.02-.1.03-.08.02-.16.03-.23.05-.14.05.23-.05.2-.03-.01.01-.12 0-.14 0h-.34c-.03-.02.34.08.2.02s-.33-.08-.48-.13c-.28-.09.23.12.03.02-.07-.03-.13-.06-.2-.1-.15-.08-.29-.19-.44-.28-.01 0 .24.2.13.1a.6.6 0 0 0-.09-.07c-.07-.06-.13-.12-.19-.18-.05-.05-.1-.11-.15-.16-.2-.23.15.24-.01-.01-.12-.18-.22-.36-.32-.55-.02-.03-.08-.18 0 0 .08.19 0-.02-.02-.06l-.12-.36c-.07-.23-.12-.46-.19-.68-.04-.12-.11-.23-.15-.35-.06-.16.1.29.03 0 0 0 .02.22.01.08 0-.08-.01-.16-.02-.24-.04-.57-.4-1.04-.99-1.12-.53-.07-1.13.26-1.25.82-.03.12-.05.24-.06.37-.02.14-.03.28-.05.41 0-.04.06-.26 0-.05-.1.33-.07.66-.03.99.09.68.31 1.33.65 1.93.47.85 1.26 1.59 2.15 1.99 1.02.46 2.13.59 3.18.15 1.08-.45 1.84-1.48 2.07-2.62.14-.72.14-1.43-.02-2.14-.14-.61-.38-1.19-.61-1.77-.13-.32-.27-.58-.58-.76-.27-.16-.67-.23-.98-.13-.62.2-1.11.88-.88 1.56Z"/><path d="M102.73 114.43c1.31 0 1.31-2.03 0-2.03s-1.31 2.03 0 2.03m21.38 10.54c-1.39-4.52-.3-9.45 2.14-13.41 2.59-4.2 6.7-7.21 10.87-9.71 4.5-2.7 9.26-5.07 14.23-6.78 2.57-.88 5.21-1.59 7.89-2.06.74-.13 1.86-.47 2.42.18.51.59.33 1.69.06 2.34-.84 2.02-3.05 3.36-4.85 4.44-2.81 1.69-5.64 3.34-8.45 5-1.66.98-1.03 3.87 1.02 3.76 2.77-.15 5.45-1.1 8.22-1.11 1.76 0 4.31.63 4.44 2.8.11 2-3.43 2.46-4.79 2.74-2.95.61-5.96.76-8.96.57-2.35-.15-2.71 3.38-.54 4.02 1.92.56 4.25.62 5.98 1.69.99.61 2.1 1.94 1.06 3.01-1.31 1.34-3.77.86-5.41.66-2.38-.3-4.76-.62-7.13-.97-2.45-.36-3.55 3.07-1.05 3.81 1.08.32 2.91.71 3.45 1.86.49 1.05-.48 2.23-1.41 2.64-1.6.72-3.54.19-5.1-.37-1.93-.7-3.73-1.64-5.72-2.16-2.22-.58-2.96 2.55-.93 3.36 2.63 1.05 5.06 2.68 7.89 3.22 2.67.51 5.63.15 7.58-1.9 1.7-1.78 2.41-4.41 1.27-6.68s-3.67-3.19-5.98-3.77c-.17 1.29-.35 2.59-.52 3.88 3.16.32 6.33.86 9.5 1.07 2.78.18 5.91-.65 7.37-3.25 1.38-2.47.42-5.34-1.64-7.08-2.33-1.97-5.3-2.13-8.11-2.95l-.54 4.02c3.89.24 7.86-.1 11.64-1.09 3.06-.8 6.28-2.72 6.2-6.31-.08-3.37-2.84-5.97-6.01-6.61-3.67-.75-7.1.7-10.73.89l1.02 3.76c2.97-1.75 5.98-3.45 8.92-5.26 2.18-1.34 4.4-2.99 5.71-5.24 1.35-2.33 1.5-5.45-.28-7.61-2.24-2.7-5.97-1.69-8.92-1.01-6.3 1.44-12.3 4.1-17.95 7.21-5.3 2.92-10.42 6.39-14.05 11.32-3.84 5.24-5.38 12.25-2.44 18.25.73 1.49 3.15.45 2.67-1.13Z"/><path d="M114.55 109.51c-.5-3.07.24-6.25 1.63-9.03s3.42-5.19 5.59-7.42c.75-.77 1.53-1.53 2.36-2.22 1.63-1.37 3.45-2.48 5.27-3.6 1.35-.83 2.78-1.68 4.36-1.71.59-.01 1.2.11 1.67.45.78.58 1.01 1.69.8 2.64s-.77 1.78-1.34 2.57a87 87 0 0 1-5.82 7.31c.79-.35 1.57-.69 2.36-1.04 1.04-.46 2.29-.91 3.26-.31.37.23.66.73.41 1.09-.07.1-.16.17-.26.24-3.02 2.2-5.91 4.62-8.32 7.47-2.42 2.85-4.36 6.15-5.33 9.76a57 57 0 0 0-3.9-4.49c-.56-.58-1.16-1.16-1.92-1.4"/><path d="M116.14 109.51c-.48-3.73.83-7.24 2.91-10.29 2.02-2.97 4.77-5.84 7.71-7.9 1.53-1.07 3.15-2.08 4.79-2.97.73-.4 2.69-1.45 2.82-.2.16 1.54-1.72 3.41-2.6 4.51-1.26 1.57-2.54 3.17-3.97 4.58-1.22 1.2.01 3.63 1.75 3.01.8-.29 1.61-.58 2.4-.89.36-.14.72-.31 1.1-.4l.38-.09c.38.06.32-.07-.16-.38v-1.07l-.09.29.51-.88c-1.5 1.39-3.27 2.52-4.8 3.89s-2.9 2.76-4.16 4.31c-2.46 3.03-4.37 6.39-5.44 10.15 1.1-.29 2.2-.58 3.31-.87-1.82-2.33-3.86-5.29-6.7-6.38-.99-.38-2.15.42-2.41 1.37-.31 1.12.39 2.01 1.37 2.41.93.38 1.79 1.72 2.44 2.43.87.96 1.7 1.95 2.51 2.97.96 1.21 2.94.44 3.31-.87 1.55-5.6 5.41-10.08 9.78-13.74 1.12-.93 2.47-1.71 3.51-2.72 1.15-1.12.96-2.87-.15-3.93-2.35-2.26-5.81-.09-8.08 1.11l2.46 2.46c1.22-1.6 2.55-3.13 3.75-4.75 1.08-1.45 2.42-2.91 3.24-4.53.75-1.48.89-3.25 0-4.71-1.02-1.68-2.99-2.14-4.82-1.85s-3.44 1.29-5 2.26c-1.69 1.06-3.35 2.16-4.89 3.45-2.81 2.35-5.36 5.3-7.26 8.42-2.25 3.7-3.3 7.91-2.62 12.22.28 1.75 3.34 1.35 3.12-.42Zm12.76 39.37c-.25 1.11-.1 2.26-.07 3.39 0 .46 0 .92-.03 1.38 0 .07-.09.81-.04.47q-.045.33-.12.66c-.09.42-.22.82-.36 1.22-.16.49.18-.34-.04.12-.09.19-.18.38-.29.56s-.22.35-.34.53c-.13.18-.12.17.02-.03-.07.08-.13.16-.19.25-.32.41-.62.82-.91 1.25-.83 1.24.54 2.92 1.92 2.5 2.21-.67 3.48-3.07 3.92-5.22.23-1.15.31-2.33.25-3.5-.06-1.33-.19-2.76-.78-3.97-.6-1.24-2.65-.92-2.94.38Zm-9.04-1.81c-.25 1.11-.1 2.26-.07 3.39 0 .46 0 .92-.03 1.38 0 .07-.09.81-.04.47q-.045.33-.12.66c-.09.42-.22.82-.36 1.22-.16.49.18-.34-.04.12-.09.19-.18.38-.29.56s-.22.35-.34.53c-.13.18-.12.17.02-.03-.07.08-.13.16-.19.25-.32.41-.62.82-.91 1.25-.83 1.24.54 2.92 1.92 2.5 2.21-.67 3.48-3.07 3.92-5.22.23-1.15.31-2.33.25-3.5-.06-1.33-.19-2.76-.78-3.97s-2.65-.92-2.94.38ZM92.57 97.91c-3.02-2.72-5.76-5.78-8.52-8.76-2.58-2.77-5.11-5.61-7.52-8.53-4.51-5.46-8.66-11.51-11.1-18.21-1.26-3.47-2.3-7.25-1.99-10.97.24-2.88 1.71-6.07 4.59-7.14 6.78-2.52 12.46 5.04 15.81 9.75 2.18 3.07 3.97 6.43 5.34 9.93.67 1.71 1.5 3.68 1.23 5.55-.17 1.22-1.07 2.75-2.48 2.67-2.49-.15-3.01-4.36-3.08-6.17-.12-3.24.42-6.44 1.49-9.49 2.1-5.99 6.76-11.95 12.88-14.19 2.96-1.08 6.22-1.24 8.89.64 2.62 1.85 4.01 5.07 4.41 8.17.9 6.99-1.74 14.54-4.77 20.73-3.2 6.56-7.25 12.61-11.58 18.47-1.09 1.47-2.18 2.94-3.22 4.45-1.14 1.64 1.47 3.67 2.79 2.15 5.53-6.37 10.79-13.33 14.88-20.73 2.01-3.63 3.66-7.52 4.82-11.5 1.22-4.17 2.06-8.71 1.66-13.06-.39-4.12-1.92-8.22-5.04-11.06s-7.03-3.75-11.07-3.04c-7.78 1.37-14.06 8.27-17.12 15.22-1.58 3.59-2.49 7.41-2.62 11.34-.11 3.39.31 7.25 2.76 9.83 2.75 2.89 7 2.04 9.03-1.21 2.42-3.88.35-8.84-1.23-12.63-1.65-3.96-3.69-7.89-6.22-11.36-2.47-3.38-5.4-6.6-9.31-8.3-3.81-1.66-8.55-1.87-12.09.6-3.54 2.48-5.27 6.62-5.44 10.84s1.09 8.74 2.68 12.7c1.6 3.96 3.66 7.67 6.11 11.17 5.01 7.18 11.13 13.75 17.65 19.58 1.76 1.57 3.57 3.07 5.33 4.63 1.41 1.25 3.49-.81 2.08-2.08ZM46.39 44.24c-.7-.28-1.41-.57-2.11-.85-.35-.14-.69-.28-1.04-.4-.08-.03-.16-.05-.23-.08-.23-.08-.46-.09-.7-.13-.18-.02-.36-.05-.54-.07l-.43.06c-.21.05-.39.15-.54.29-.26.2-.5.5-.57.83-.06.28-.06.57 0 .85.1.42.4.72.74.96.16.11.31.23.47.33s.34.17.52.25c.46.2.92.38 1.39.56.71.27 1.41.55 2.12.82.4.16 1.01.03 1.37-.18s.72-.64.82-1.06c.1-.45.08-.96-.18-1.37l-.28-.36a1.8 1.8 0 0 0-.78-.46Zm14.63-13.82q-.075-.24 0 .12 0-.42-.21-.78c-.06-.13-.12-.25-.19-.37-.14-.24-.3-.47-.44-.71-.29-.48-.57-.96-.87-1.44-.58-.96-1.09-1.96-1.71-2.89-.49-.73-1.51-1.11-2.3-.6-.36.23-.67.58-.77 1-.11.47-.02.85.17 1.29.44 1.03 1.07 1.98 1.67 2.91.3.47.63.93.96 1.38.17.23.34.45.51.67.15.19.28.39.46.56.12.12.25.22.39.31.51.23.49.21-.04-.08.48.38 1.15.59 1.72.22.5-.32.87-1 .65-1.61Zm21.15-3.3c.04-1.13.05-2.27.01-3.4-.02-.57-.05-1.13-.1-1.7-.06-.66-.08-1.33-.33-1.95-.29-.68-.82-1.16-1.61-1.05s-1.22.7-1.27 1.44c-.05.66.12 1.31.22 1.96l.06.39c.06.43-.04-.32.02.12.03.28.07.57.1.85.11 1.11.16 2.22.14 3.34-.01.73.65 1.42 1.39 1.39.78-.03 1.36-.61 1.39-1.39Zm20.27.68c.17-.79.42-1.56.73-2.3l-.16.38c.43-1.02 1.02-1.95 1.58-2.9.38-.65.2-1.5-.39-1.96s-1.47-.44-1.99.12c-.75.8-1.31 1.74-1.75 2.74s-.8 2.03-1.02 3.1c-.08.41-.06.83.16 1.2.19.32.56.63.93.71.79.18 1.72-.24 1.91-1.09m19.71 6.93s.03-.08.05-.12l-.16.38c.08-.19.19-.37.31-.53l-.25.32c.17-.21.37-.39.58-.56l-.32.24c.12-.09.26-.18.4-.25.18-.1.32-.23.43-.39.13-.15.23-.32.27-.52l.05-.4c0-.21-.04-.41-.13-.59a.8.8 0 0 0-.2-.34c-.11-.17-.25-.3-.43-.39l-.36-.15q-.405-.105-.81 0c-.58.18-1.12.47-1.54.91-.06.06-.12.13-.17.2-.13.17-.27.33-.38.51-.16.26-.28.55-.38.83q-.105.315-.03.63c0 .21.07.41.19.59.1.18.23.33.41.44.15.14.33.23.54.28l.42.06c.28 0 .55-.07.8-.22l.32-.25c.2-.2.33-.43.41-.7Zm7.05 16.07c.88.06 1.67-.19 2.47-.53.27-.12.53-.28.76-.46.16-.12.32-.24.47-.36s.27-.3.36-.46c.08-.13.15-.27.22-.41l.15-.35c.06-.2.07-.39.03-.59-.04-.31-.17-.63-.41-.85-.5-.46-1.2-.56-1.8-.23-.14.08-.28.14-.42.21l.39-.16s-.05.02-.08.03c-.28.08-.53.22-.73.43l-.15.12.34-.26c-.38.29-.8.54-1.24.73l.39-.16c-.19.08-.38.14-.57.2s-.37.14-.57.19c-.72.19-1.17.91-1.07 1.64.04.31.17.64.41.86.3.28.64.41 1.06.44Z"/></svg>