<?xml version="1.0" encoding="UTF-8"?><svg xmlns="http://www.w3.org/2000/svg" viewBox="0 0 180 180"><path d="M9.59 133.1c6.93 2.72 13.55 6.05 21.01 7.08 7.13.98 14.5.43 21.52 2.22 3 .77 5.88 1.98 8.33 3.9 2.15 1.69 4.02 3.72 6.09 5.51 4.31 3.75 9.93 6.55 15.65 4.24 5.25-2.12 9.03-7.52 8.8-13.25-.14-3.62-1.17-7.21-3.19-10.24-3.91-5.85-10.41-9.21-16.6-12.15s-12.7-5.48-17.13-10.09c-1.07-1.11-1.68-1.89-2.47-3.4-.18-.34-.35-.68-.5-1.03.12.29-.16-.45-.21-.6-.28-.83-.49-1.67-.63-2.54-.61-3.69.4-8.45 2.29-12.13 2.14-4.15 5.83-8.84 10.72-9.72 2.05-.37 4.05.29 5.63 1.61 1.7 1.42 2.45 3.12 3.16 5.36 1.48 4.66 2.04 10.37 6.12 13.62 2.34 1.87 5.45 2.55 8.18 1.04 1.93-1.07 3.11-3.01 3.61-5.12.98-4.17.15-8.74-.91-12.81-1.24-4.81-2.63-9.81-5.35-14.02-2.49-3.86-6.15-6.75-10.68-7.81-6.12-1.43-12.67.03-18.34 2.42-3.16 1.34-6.14 3.03-8.98 4.95.74 1.26 1.47 2.52 2.21 3.77 8.42-5.71 17.38-11.43 27.62-12.95 3.83-.57 7.88-1.02 11.3-3 3.02-1.75 5.14-4.96 5.36-8.48.35-5.83-5.94-7.39-10.54-7.55-5.58-.19-11.28.77-16.68 2.11-9.49 2.36-17.53 8.44-26 13.06-2.64 1.44-.29 5.46 2.36 4.03 4.61-2.5 9.15-5.1 13.78-7.57 3.98-2.13 8.06-4.36 12.31-5.92 5.03-1.86 11.14-3.09 14.94-7.18 2.1-2.25 2.78-5.21 1.56-8.09-1.26-2.96-4.36-4.16-7.35-4.56-3.29-.44-6.59-.12-9.86.33-3.49.49-6.96 1.17-10.33 2.22-10.26 3.19-19.57 8.98-27.47 16.2-2.24 2.05 1.09 5.36 3.33 3.33 3.05-2.77 6.56-4.93 9.91-7.3a81 81 0 0 0 4.19-3.16c.39-.31-.36.27-.02.02.12-.09.23-.18.35-.27.37-.28.74-.56 1.1-.84 3.55-2.73 7.41-5.62 9.82-9.47 1.1-1.76 1.78-3.93.94-5.94-.95-2.28-3.41-3.35-5.69-3.82-8.68-1.79-16.38 3.58-23.03 8.41-7.32 5.32-14.23 11.11-19.83 18.27-.79 1.01-.98 2.37 0 3.35.82.82 2.56 1.01 3.35 0 4.46-5.7 9.77-10.61 15.5-15.01 2.96-2.28 5.98-4.54 9.14-6.55 3.04-1.94 6.48-3.79 10.13-4.12 1.59-.15 3.18-.03 4.71.45.63.2.37.09.9.37.17.09.61.38.21.1.09.06.48.49.27.22s.1.17.14.26c-.13-.31-.17-.31-.05-.02.15.36-.03-.45-.02-.06.01.58.11-.22 0 .12-.06.21-.36 1.05-.13.54-.18.4-.4.78-.63 1.15-.13.2-.26.39-.4.59-.23.32-.08.11-.15.2-.33.41-.68.8-1.03 1.19-.7.76-1.45 1.47-2.21 2.17s-1.61 1.41-2.44 2.08c-.35.28-.69.56-1.04.84-.19.15-.39.3-.58.45-.21.17.05-.04.07-.06-.1.08-.2.16-.31.24-1.98 1.52-3.94 3.07-5.98 4.49-3.58 2.49-7.27 4.84-10.52 7.77l3.33 3.33c6.31-5.73 13.62-10.59 21.59-13.68 3.7-1.44 7.52-2.48 11.43-3.15 2.62-.45 4.85-.78 7.63-.82 1.34-.02 2.69.03 3.8.26.49.1 1.34.34 1.6.46.35.15.86.51 1 .65.2.2.37.46.46.73.08.25.15.51.2.77.07.37-.01-.34 0 .02v.51c0 .13-.09.41 0-.02-.02.09-.03.2-.07.29-.05.12-.07.25-.12.37-.12.33.16-.32 0 0-.37.71-.32.61-.73 1.04-1.41 1.49-3.92 2.68-5.92 3.47-2.25.89-4.57 1.57-6.84 2.39-4.44 1.61-8.71 3.86-12.88 6.07-4.84 2.56-9.59 5.28-14.41 7.88.79 1.34 1.57 2.69 2.36 4.03 4.78-2.59 9.29-5.66 14.04-8.3 2.83-1.57 5.74-3.09 8.86-4.01 4.78-1.41 9.53-2.28 14.26-2.54 1.26-.07 2.53-.09 3.79 0 .3.02.61.05.91.08.16.02.33.03.49.06-.08-.01-.42-.07 0 0 .54.09 1.07.19 1.59.34.24.07.48.15.72.23.1.03.2.07.3.11.29.11-.36-.17-.09-.03.2.1.4.21.6.32.08.05.16.11.25.16.41.24-.33-.32 0 0 .13.12.26.25.39.38.41.37-.07-.26.1.14.07.17.27.75.1.13.06.22.12.44.18.67-.11-.48 0-.11-.01.15 0 .21-.01.43-.03.64.05-.58-.06.22-.1.38-.08.32-.18.64-.3.95-.13.35-.44 1.07-.87 1.62-.37.47-.9.93-1.41 1.26-2.94 1.91-6.75 2.26-10.14 2.75-10.86 1.58-20.32 7.43-29.23 13.53-2.31 1.58-.13 5.36 2.21 3.77 5.47-3.72 11.71-6.93 18.42-7.41 4.23-.31 8.59.4 11.79 3.37 3.25 3.01 4.99 7.32 6.34 11.44 1.29 3.94 2.48 8.24 2.38 12.42-.04 1.71-.32 3.81-1.59 5.05-1.76 1.73-4.13.65-5.6-.91-1.45-1.54-1.96-3.66-2.53-5.64-.68-2.37-1.25-4.77-2.02-7.11s-1.91-4.3-3.88-5.86-4.31-2.5-6.83-2.48c-5.03.03-9.44 3.49-12.41 7.27-5.27 6.72-8.03 16.57-4.06 24.58 2.9 5.85 8.98 9.35 14.62 12.14 3.12 1.54 6.3 2.94 9.41 4.51 2.78 1.4 5.99 3.18 8.14 4.93 2.55 2.07 4.37 4.08 5.65 7.04-.1-.23.2.52.25.66.14.4.27.8.38 1.2.2.74.4 1.79.46 2.28.24 2.18.07 4.26-1 6.22-1.18 2.17-3.14 4.04-5.52 4.81s-4.97.34-7.19-.89c-4.59-2.54-7.65-7.13-12.06-9.96-5.76-3.7-12.86-4.38-19.54-4.6-3.63-.12-7.27-.15-10.89-.57-3.54-.41-6.98-1.39-10.33-2.57-3.32-1.17-6.57-2.52-9.9-3.68-1.89-.66-2.61 2.25-.81 2.95Z"/><path d="M169.59 130.14c-6.82 2.38-13.43 5.54-20.7 6.3-6.96.73-14.01.17-20.9 1.6-3.31.69-6.59 1.86-9.4 3.75-2.21 1.49-4.13 3.36-6.05 5.19-3.49 3.33-7.81 7.16-13.01 5.38-2.42-.83-4.37-2.81-5.51-5.05-.99-1.94-1.09-4.03-.81-6.15.35-2.7 1.68-5.7 3.38-7.74 4.14-4.96 10.36-7.68 16.28-10.46 5.84-2.74 12.25-5.5 16.58-10.47 5.14-5.91 5.58-14.09 2.73-21.21-2-5-5.39-9.81-10.1-12.58-4.4-2.59-9.54-2.55-13.55.77-3.82 3.16-4.43 8.58-5.73 13.07-.59 2.04-1.15 4.08-2.71 5.61s-3.92 2.28-5.49.47c-2.41-2.77-1.43-7.83-.73-11.08.94-4.41 2.28-8.9 4.44-12.88 1.92-3.54 4.69-6.5 8.67-7.62 5.4-1.52 11.41-.19 16.44 1.97 3.06 1.32 5.94 3.02 8.69 4.89 2.33 1.59 4.51-2.19 2.21-3.77-4.33-2.96-8.75-5.82-13.42-8.23-4.21-2.17-8.71-4.11-13.4-4.93-3.51-.61-7.14-.85-10.51-2.09-1.31-.48-2.64-1.24-3.47-2.3-.23-.29-.42-.63-.59-.96-.08-.15-.15-.31-.22-.47.12.29-.01-.05-.03-.09-.11-.29-.2-.57-.29-.87-.04-.15-.07-.3-.11-.46-.02-.07-.09-.57-.05-.23.04.29-.01-.4-.02-.52-.01-.21.12-.76-.01-.15.04-.18.1-.36.13-.54.08-.44-.18.32-.05.09.05-.08.14-.2.16-.29 0-.04.28-.43.05-.11-.19.27-.02.03.04-.04.15-.14.29-.29.44-.43.22-.2-.34.17.13-.08.22-.11.43-.24.65-.36.34-.18-.03 0-.09.03.12-.05.25-.1.38-.14.21-.07.42-.14.64-.2.55-.16 1.11-.27 1.68-.36.09-.01.42-.06 0 0 .13-.02.26-.03.39-.05.3-.03.6-.06.9-.08q1.005-.075 2.01-.06c5.1.03 9.77.89 14.82 2.23 8.87 2.36 16.26 8.36 24.22 12.68.79-1.34 1.57-2.69 2.36-4.03-8.46-4.57-16.75-9.51-25.62-13.28-4.57-1.94-9.44-2.74-13.44-5.64-.59-.43-1.28-1.15-1.68-1.85-.21-.37-.06-.09-.02.01-.05-.12-.09-.25-.13-.37s-.07-.25-.09-.38c0 .03.03.4.01.12 0-.12 0-.8-.02-.62-.02.15.11-.49.17-.67.14-.45 0-.11.22-.49.05-.09.11-.18.17-.26-.23.32-.02.04.04-.02.26-.28.49-.45 1.14-.75-.32.15.35-.12.44-.15.32-.1.64-.18.97-.26.75-.16 1.02-.19 1.78-.24 1.43-.1 2.87-.05 4.3.06s2.49.24 3.76.44c3.44.53 6.84 1.27 10.15 2.36 9.14 3.01 17.49 8.31 24.58 14.76l3.33-3.33c-2.87-2.59-6.09-4.73-9.27-6.91-2.14-1.47-4.19-3.04-6.26-4.61l-.9-.69c-.07-.05-.49-.37-.3-.23.15.11-.4-.31-.5-.39-.78-.61-1.55-1.24-2.3-1.88-1.58-1.35-3.12-2.77-4.45-4.38-.28-.34.09.14-.16-.2-.14-.19-.28-.39-.41-.59-.24-.37-.45-.75-.65-1.15-.06-.11.08.36-.02-.08-.04-.15-.08-.32-.13-.46-.13-.38-.11.14 0-.05.02-.04 0-.17 0-.22 0-.18-.15.33-.03.2.04-.04.28-.81-.04-.04.04-.1.13-.31.22-.38-.36.27-.12.08.05 0 .03-.01.27-.22.03-.04-.27.21.16-.1.22-.13.58-.29.33-.21.87-.38.67-.21 1.36-.39 2.06-.47 7.35-.93 14.2 4.82 19.7 8.89 6.6 4.88 12.77 10.29 17.84 16.77.79 1.01 2.52.83 3.35 0 1-1 .79-2.34 0-3.35-4.98-6.37-10.99-11.68-17.45-16.52-6.39-4.79-13.72-10.67-22.15-10.54-2.7.04-6.14.64-8.04 2.76-1.59 1.77-1.53 4.08-.61 6.15 1.76 3.96 5.72 6.99 9.04 9.59.88.69 1.76 1.36 2.65 2.04.25.19.47.37.07.05a81 81 0 0 0 2.93 2.27c3.77 2.77 7.84 5.15 11.32 8.3 2.24 2.03 5.57-1.28 3.33-3.33-7.04-6.43-15.14-11.65-24.07-15.03-3.84-1.45-7.8-2.45-11.85-3.11-3.03-.5-6.12-.91-9.21-.83s-6.52.57-8.66 2.88c-2.05 2.22-2.41 5.65-.94 8.27 1.4 2.48 4.06 4.1 6.56 5.28 2.61 1.23 5.35 2.14 8.09 3.06 4.17 1.4 8.12 3.45 12.01 5.48 5.27 2.75 10.42 5.73 15.64 8.56 2.64 1.43 5-2.59 2.36-4.03-5.04-2.74-9.87-5.87-14.93-8.58-3.04-1.63-6.19-3.14-9.52-4.07-5.26-1.47-10.83-2.44-16.29-2.54-4.36-.08-11.25.42-12.35 5.77-.62 3.02.83 6.54 2.99 8.62 2.84 2.73 6.91 3.63 10.68 4.23 2.04.32 4.1.54 6.11 1 2.79.63 5.51 1.65 8.1 2.83 5.73 2.61 11.06 6.01 16.26 9.54.74-1.26 1.47-2.52 2.21-3.77-9.22-6.22-23.8-12.08-33.82-4.24-3.66 2.86-5.83 7.13-7.37 11.43-1.56 4.36-2.85 8.99-3.32 13.61-.42 4.11-.15 9.6 4.08 11.71 2.84 1.41 5.93.59 8.25-1.39 1.97-1.67 3-3.88 3.75-6.29 1.35-4.3 1.89-9.89 5.48-12.67 3.85-2.97 8.43-.89 11.54 2.11 3.66 3.53 6.21 8.53 6.84 13.45.12.94.17 1.9.16 2.85-.01.84-.09 1.75-.18 2.25-.14.76-.32 1.51-.57 2.24-.05.15-.37.97-.25.69-.17.41-.37.81-.58 1.2-1.38 2.54-3.6 4.6-5.9 6.19-2.82 1.94-5.9 3.47-8.98 4.94-6.27 2.99-12.99 5.7-18.08 10.58-5.69 5.45-8.83 15.02-3.97 22.01 3.43 4.93 9.48 7.4 15.27 5.29 5.32-1.95 8.66-6.53 13-9.89 5.35-4.14 12.32-4.81 18.83-5.19 3.73-.22 7.45-.36 11.16-.89s7.27-1.57 10.76-2.92c3.37-1.3 6.65-2.8 10.02-4.12 1.8-.71 1.08-3.61-.81-2.95Z"/><path d="M88.76 134.34c-2.56-5.69-8.39-9.05-13.87-12.03-4.51-2.46-9.02-4.92-13.54-7.38-2.31-1.26-4.66-2.55-6.44-4.48-4.73-5.12-4.17-13.24-1.8-19.8 1.61-4.46 4.73-9.22 9.47-9.47 3.33-.18 6.4 2.08 8.21 4.88 1.81 2.81 2.61 6.12 3.52 9.33.42 1.48.89 2.99 1.79 4.23 2.69 3.69 8.47 3.76 12.41 1.46.9-.53 1.11-3.02 2.09-2.67.49.17 1.68 2.42 2.07 2.76 2.82 2.49 7.6 2.27 10.18-.46 3.7-3.92 2.21-10.59 5.11-15.14 2.11-3.3 6.57-4.86 10.28-3.61 4.57 1.55 7.03 6.38 8.99 10.79 1.03 2.31 2.08 4.74 1.86 7.26-.21 2.49-1.64 4.7-3.12 6.72-7.49 10.2-12.24 11.35-23.68 16.75-2.76 1.31-11.09 9.75-12.7 12.35"/><path d="M89.96 134.01c-2.61-7.86-11.02-11.75-17.75-15.49-4.22-2.34-8.57-4.54-12.66-7.1-3.21-2.01-5.24-4.79-5.86-8.56-.58-3.53.08-7.23 1.17-10.59 1-3.08 2.6-6.53 5.51-8.23 2.98-1.75 6.46.06 8.33 2.6 2.65 3.59 2.91 8.2 4.64 12.19s5.5 5.97 9.67 5.87c2.03-.05 4.02-.56 5.85-1.46.85-.42 1.52-.93 2-1.76.17-.29.28-.61.42-.91.05-.1.18-.32.21-.44.07-.33.15-.09-.13.05l-1.04.28-.93-.43.13.14c-.06-.23.14.21.18.27.23.34.44.69.67 1.03.51.78 1.04 1.37 1.81 1.92 1.67 1.18 3.84 1.72 5.88 1.6 4.66-.26 7.85-3.57 9.07-7.92 1.01-3.63.62-8.49 3.44-11.34 2.86-2.89 7.26-2.59 10.08.15 1.49 1.45 2.55 3.27 3.48 5.11 1.05 2.07 2.14 4.26 2.7 6.52 1.12 4.56-2.86 8.78-5.68 11.92-2.26 2.52-4.81 4.64-7.74 6.34-3.21 1.85-6.64 3.3-10.01 4.82-1.69.77-3.14 1.51-4.6 2.65-1.46 1.15-2.84 2.4-4.19 3.68-2.47 2.35-5.12 4.85-6.96 7.75-1.59 2.51 2.4 4.83 3.98 2.33.1-.17.22-.32.33-.48.32-.45-.21.26.02-.03.08-.11.17-.21.25-.31.43-.52.87-1.03 1.31-1.54 1.13-1.28 2.3-2.52 3.51-3.73 1.98-1.99 4.08-4.26 6.28-5.44 6.27-3.37 12.95-5.52 18.29-10.43 3.04-2.8 5.94-6.25 7.96-9.85 1.25-2.22 1.92-4.65 1.59-7.2-.32-2.51-1.4-4.83-2.45-7.11-1.75-3.82-3.98-7.83-7.76-9.98-3.69-2.1-8.46-1.85-11.91.65-3.71 2.69-4.6 6.85-5.3 11.12-.56 3.41-1.39 7.59-5.49 8.14-.81.11-1.65.03-2.43-.2-.36-.11-.68-.24-1.01-.43-.19-.11-.88-.69-.62-.38-1.01-1.17-1.49-2.97-3.18-3.37-.97-.23-1.89.16-2.54.87-.42.47-1.08 1.51-1.17 2.15-.06.42-.08.05.2-.1-.19.1-.38.21-.58.31-.34.17-.68.31-1.04.42-.88.29-1.78.48-2.71.52-1.58.06-3.23-.24-4.5-1.23-1.77-1.39-2.19-3.92-2.76-5.96-1.3-4.63-2.95-9.3-6.96-12.28-3.72-2.78-8.56-2.65-12.18.21-3.26 2.58-5.15 6.63-6.32 10.54-1.23 4.14-1.72 8.63-.79 12.88 1.01 4.61 3.93 8.08 7.9 10.51 4.69 2.88 9.72 5.27 14.56 7.87 3.93 2.1 8.07 4.08 11.44 7.05 1.59 1.4 3.02 3.02 4.12 4.82.71 1.16 2.73.42 2.27-.96ZM71.88 20.14c-.11-.49-.25-.98-.41-1.46-.2-.59-.42-1.2-.76-1.73-.21-.34-.57-.66-.98-.75l-.43-.06c-.22 0-.43.04-.63.14-.31.13-.62.36-.78.67-.19.37-.32.85-.16 1.26.12.32.24.63.39.94.09.19.18.39.26.59l-.17-.39c.23.54.42 1.09.58 1.66.11.39.39.75.74.96s.85.29 1.23.16.76-.37.96-.74c.21-.39.26-.8.16-1.23Zm14.69-.35c.4-.52.35-1.31.37-1.94l.05-1.46c.03-.96.03-1.92-.07-2.87-.05-.44-.15-.82-.47-1.14-.28-.28-.74-.49-1.14-.47s-.85.16-1.14.47c-.31.33-.43.69-.47 1.14-.1.96-.1 1.91-.07 2.87l.05 1.41c.02.64-.04 1.46.37 1.99.33.43.7.73 1.27.73s.95-.3 1.27-.73Zm14.48-1.85c.2-.63.43-1.25.68-1.85l-.16.38c.41-.98.91-1.91 1.4-2.85.38-.72.21-1.73-.56-2.14s-1.65-.17-2.14.56-.87 1.51-1.22 2.31c-.39.9-.75 1.81-1.03 2.75-.24.79.29 1.75 1.1 1.93.86.2 1.66-.26 1.93-1.1Zm14.14 2.69.55-.41c.19-.11.35-.25.47-.43q.225-.24.3-.57c.07-.22.08-.44.03-.67-.01-.22-.08-.43-.2-.62l-.26-.34c-.21-.21-.45-.35-.74-.43l-.44-.06c-.3 0-.58.08-.84.23l-.55.41c-.19.11-.35.25-.47.43q-.225.24-.3.57c-.07.22-.08.44-.03.67.01.22.08.43.2.62l.26.34c.21.21.45.35.74.43l.44.06c.3 0 .58-.08.84-.23M43.72 151.74c-.58.52-1.12 1.08-1.61 1.69-.31.39-.61.78-.89 1.19s-.44.91-.61 1.38c-.12.32-.04.83.15 1.11.17.27.4.47.69.59s.64.17.94.07l.35-.15c.22-.13.39-.3.52-.52.04-.05.08-.1.11-.15l-.23.3c.12-.16.25-.32.38-.47.2-.24.36-.5.53-.77.22-.34.45-.67.7-.99l-.24.31c.41-.53.85-1.03 1.33-1.49.56-.55.59-1.57 0-2.11-.28-.26-.66-.45-1.06-.44s-.75.16-1.06.44Zm17.54 8.65c-.41.83-.76 1.71-1 2.61s-.44 1.87-.35 2.8c.04.39.14.74.42 1.02.25.25.66.44 1.02.42s.76-.14 1.02-.42l.23-.29c.13-.23.2-.47.2-.73v-.09c0 .13-.02.26-.04.39.05-.39.11-.77.13-1.16.02-.28.05-.57.08-.85l-.05.39c.07-.51.17-1.01.31-1.51.06-.23.13-.47.21-.69.04-.12.08-.24.13-.36.04-.09.22-.53.05-.15.15-.35.24-.67.14-1.05-.09-.32-.33-.66-.63-.82-.62-.33-1.53-.19-1.87.49m21.57 2.09c0 1.23-.08 2.47-.24 3.69l.06-.41c-.06.47-.16.94-.19 1.42-.03.36.19.85.45 1.09s.54.38.89.43c.74.1 1.51-.36 1.7-1.11.12-.49.16-1.01.21-1.51.04-.4.08-.8.1-1.2.05-.8.06-1.6.04-2.4s-.68-1.54-1.51-1.51-1.51.66-1.51 1.51m23.75-.4c-.17.73-.1 1.51-.04 2.25.03.31.06.63.1.94.04.28.07.55.12.83s.15.51.3.74c.33.5.86.78 1.46.7.55-.07 1.09-.49 1.22-1.05.05-.2.1-.39.1-.6 0-.18-.05-.37-.08-.55-.03-.16-.05-.32-.07-.48l.06.41c-.06-.47-.11-.95-.14-1.42-.01-.23-.02-.46-.02-.7 0-.36-.03-.71-.1-1.06l-.15-.36a1 1 0 0 0-.39-.42c-.25-.2-.58-.34-.91-.32-.65.03-1.29.44-1.45 1.11Zm18.17-5.13c.1.81.25 1.58.56 2.33.17.42.35.83.58 1.23s.51.77.8 1.13c.23.29.77.49 1.13.47s.68-.12.97-.34c.26-.2.5-.5.57-.83.09-.4.09-.89-.16-1.23-.36-.49-.67-1.01-.91-1.57l.16.39c-.25-.6-.42-1.22-.51-1.87l.06.43s-.01-.08-.01-.12c0-.22-.04-.43-.14-.62-.07-.2-.18-.37-.33-.52-.28-.28-.74-.49-1.14-.47s-.85.16-1.14.47c-.27.29-.52.73-.47 1.14Zm18.24-4.73.71.57.35.28s.06.05.09.07l.02.02.32.25h.02c.13.06.25.12.38.17.07.03.14.05.21.08l.4.05.4-.05.36-.15c.17-.09.31-.22.42-.38.09-.09.16-.2.19-.33.07-.12.1-.24.1-.38.04-.13.04-.26 0-.4 0-.2-.07-.38-.18-.55-.04-.06-.07-.12-.11-.17-.09-.14-.18-.28-.31-.39l-.08-.07-.35-.28-.7-.57q-.21-.225-.51-.33c-.19-.1-.39-.14-.61-.14s-.42.04-.61.14q-.3.09-.51.33l-.25.32c-.14.25-.22.51-.22.8l.06.42c.08.27.21.5.41.7Z"/></svg>