<?xml version="1.0" encoding="UTF-8"?><svg xmlns="http://www.w3.org/2000/svg" viewBox="0 0 180 180"><path d="M50.91 39.12c11.32 5.53 22.76 10.84 34.36 15.75a931 931 0 0 0 26.12 10.57c3.11 1.21 6.38 3.12 9.67 1.47 3.31-1.66 6.46-3.78 9.65-5.66l9.72-5.73c-1.09-.63-2.19-1.26-3.28-1.88-.67 29.18.49 58.39 3.48 87.43.19 1.8.38 3.61.58 5.41.15 1.39.74 3.43.2 4.78-.46 1.15-2.1 1.93-3.06 2.61-1.6 1.14-3.21 2.28-4.81 3.42l-8.82 6.27c-1.34.95-2.67 1.91-4.01 2.85-.64.45-1.32 1.01-2.08 1.25s-1.52.04-2.29-.19c-6.34-1.91-12.32-5.07-18.08-8.27s-11.91-6.85-17.92-10.18c-14.08-7.8-28.44-15.05-42.99-21.93.34.84.68 1.68 1.03 2.52 1.21-6 2.41-12.01 3.61-18.01s2.18-11.68 3.8-17.39c.82-2.86 1.9-5.65 2.58-8.55s.89-5.76.89-8.66c0-6.08-.38-12.18-.61-18.25-.27-6.97-.43-13.97-1.19-20.91-.24-2.25-3.49-2.35-3.58 0-.43 12.15.56 24.37.9 36.52.08 2.9.12 5.87-.4 8.74s-1.49 5.43-2.34 8.12c-1.75 5.55-2.77 11.31-3.92 17l-4.05 20.2c-.18.9.1 2.08 1.03 2.52 13.38 6.32 26.62 12.96 39.62 20.05 6.36 3.47 12.62 7.11 18.92 10.69 6.11 3.47 12.34 6.75 18.95 9.16 1.58.58 3.22 1.24 4.91 1.35 1.89.11 3.56-.68 5.08-1.72 3.02-2.08 5.98-4.25 8.96-6.38s6.01-4.28 9.01-6.42c1.29-.92 2.78-1.78 3.82-2.99 1.21-1.41 1.63-3.15 1.54-4.98-.18-3.69-.79-7.4-1.16-11.08a718 718 0 0 1-2.52-34.03c-.84-16.96-1.1-33.96-.74-50.93.03-1.66-1.88-2.71-3.28-1.88l-16.68 9.87c-1 .59-2.42 1.86-3.64 1.68-1.5-.22-3.09-1.09-4.5-1.63-2.94-1.11-5.87-2.24-8.8-3.37-11.07-4.3-22.08-8.8-32.98-13.52-6.39-2.77-12.75-5.59-19.09-8.48-1.89-.86-3.55 1.89-1.65 2.82Z"/><path d="M117.26 65.47c0 6.45-.08 12.89 0 19.34.09 6.95.14 13.9.09 20.85-.05 6.9.1 13.81-.15 20.7-.25 6.86-.55 13.72-.79 20.58-.27 7.65.35 15.47 1.36 23.05.42 3.17 4.87 2.63 4.37-.59-.52-3.38-1.02-6.75-1.28-10.16-.26-3.44-.37-6.88-.48-10.32-.24-6.85-.04-13.74.04-20.59.07-6.74.57-13.47.63-20.21a498 498 0 0 0-.24-20.82c-.23-7.27-.28-14.56-.62-21.83-.09-1.88-2.94-1.9-2.94 0Zm-44.65-9.15c-.42-6.85-2.13-13.54-3.43-20.26-.65-3.34-1.16-6.69-1.35-10.08-.17-3.09-.21-6.47.66-9.47.28-.97.75-1.98 1.73-2.43 1.19-.55 2.67-.29 3.78.3 2.62 1.38 4.32 4.34 5.73 6.83 3.21 5.69 4.98 12.07 6.03 18.48.65 3.94 1.01 7.92 1.29 11.9.28 3.86.71 7.75.22 11.61-.28 2.24 3.18 2.51 3.81.52 1.14-3.64.34-7.92.08-11.65-.28-4.02-.65-8.04-1.25-12.03-1.08-7.25-3.04-14.47-6.66-20.89-1.71-3.03-3.79-6.26-6.84-8.09-2.69-1.63-6.39-1.93-9.02 0-2.95 2.16-3.37 6.14-3.62 9.51-.28 3.66.02 7.31.56 10.93 1.25 8.51 3.91 16.74 5.07 25.27.25 1.82 3.32 1.39 3.21-.43Z"/><path d="M51.54 37.39c1.1.13 2.16-.36 3.16-.83 3.19-1.52 6.38-3.05 9.56-4.57 1.02 3.65 1.98 7.31 2.9 10.98-1.12.01-2.12-.64-3.07-1.23-2.45-1.49-5.1-2.65-7.86-3.43"/><path d="M51.54 38.8c1.2.12 2.32-.26 3.4-.73s2.24-1 3.37-1.5c2.28-1.02 4.55-2.08 6.84-3.08l-2.58-1.05c.82 3.69 1.91 7.33 2.83 11l1.76-2.31c-.79-.03-1.5-.58-2.15-.97-.83-.5-1.68-.97-2.56-1.4-1.85-.9-3.77-1.64-5.74-2.21-2.25-.64-3.2 2.85-.96 3.5 1.95.56 3.82 1.29 5.61 2.23s3.6 2.42 5.8 2.5c1.22.04 2.04-1.2 1.76-2.31-.91-3.66-1.76-7.39-2.96-10.96-.37-1.11-1.54-1.59-2.58-1.05-2.02 1.05-4.08 2.05-6.11 3.09-1.02.52-2.03 1.04-3.05 1.56-.86.44-1.69.91-2.67.86-.76-.04-1.41.68-1.41 1.41 0 .83.65 1.34 1.41 1.41Zm24.56 8.64c-1.06-3.9-1.64-8.72-2.7-12.63-.58-2.12-1.16-4.33-.74-6.49a53.4 53.4 0 0 1 11.07 4.91c.35.2.7.42.95.73.27.34.41.76.53 1.18a59 59 0 0 1 2.43 16.23c-1.27-.36-2.47-.95-3.52-1.74"/><path d="M77.34 47.1c-.57-2.98-.94-5.99-1.5-8.97-.26-1.41-.59-2.8-.96-4.18-.44-1.68-.9-3.43-.61-5.17l-2.06 1.17c2.32.76 4.58 1.66 6.77 2.72 1.07.52 2.12 1.07 3.15 1.66.36.21.9.4 1.17.73s.35.99.46 1.39a58 58 0 0 1 2.1 14.93l2.24-1.71c-1.14-.35-2.13-.88-3.09-1.58-.79-.58-1.99-.13-2.45.64-.53.89-.14 1.89.64 2.45 1.2.86 2.54 1.48 3.95 1.9 1.1.33 2.26-.58 2.24-1.71-.08-5.65-.75-11.64-2.61-17-.85-2.45-3.52-3.44-5.7-4.5a56 56 0 0 0-8-3.15c-.79-.25-1.92.29-2.06 1.17-.55 3.58.72 6.89 1.47 10.34.7 3.22 1.28 6.43 2.35 9.55.54 1.57 2.78.94 2.47-.68Zm18.27 9.1c.94-6.65 0-10.25-.98-18.73 10.68 4.46 18.25 8.06 29.31 11.46 3.79 1.17 10 2.96 13.79 4.12-6.19 3.37-11.01 6-17.21 9.37-.62.34-1.27.69-1.97.76-1.11.12-2.16-.45-3.14-.99-5.86-3.22-12.01-5.94-18.34-8.1"/><path d="M97.03 56.59c.47-2.97.64-5.9.4-8.91-.27-3.41-.82-6.79-1.07-10.21-.87.5-1.73.99-2.6 1.49 7.3 3.42 14.75 6.64 22.33 9.39 6.94 2.51 14.07 4.46 21.11 6.63l-.48-3.64c-3.19 1.73-6.38 3.47-9.57 5.2-1.57.85-3.15 1.71-4.72 2.56-.83.45-1.67.91-2.5 1.36-.66.36-1.3.84-2.07.65s-1.55-.75-2.24-1.12q-1.23-.66-2.49-1.29c-1.67-.84-3.36-1.64-5.06-2.4-3.43-1.53-6.91-2.93-10.49-4.07-2.41-.77-3.35 2.9-1.03 3.75 3.71 1.36 7.39 2.8 10.97 4.48 1.76.83 3.5 1.7 5.21 2.62s3.42 2.13 5.4 2.14c1.94.01 3.66-1.19 5.3-2.09s3.31-1.81 4.97-2.71c3.44-1.88 6.89-3.76 10.33-5.64 1.55-.85 1.11-3.16-.48-3.64-6.99-2.14-14.06-3.97-20.94-6.44-7.52-2.7-14.74-6.12-22.23-8.88-1.37-.5-2.31.96-2.12 2.12.97 6.06 1.88 12.12 1.18 18.27-.19 1.63 2.63 2.03 2.89.39Z"/><path d="M97.95 43.56c-.66-2.57-1.03-5.21-1.6-7.81-.59-2.7-1.08-5.41-1.55-8.13-.43-2.53-.85-5.07-1.19-7.62-.27-2.07-.89-5 .55-6.78s4.21-1.4 6.04-.44c1.98 1.04 3.62 2.67 4.84 4.54 2.88 4.41 3.57 9.66 3.89 14.82.21 3.31.38 6.62.58 9.93.1 1.64.2 3.29.32 4.93.13 1.8.1 3.69.58 5.45s3.45 1.98 3.75 0c.5-3.35-.07-7-.27-10.37-.2-3.39-.36-6.78-.65-10.17-.51-5.98-1.56-12.27-5.17-17.24-3.15-4.32-8.86-8.32-14.35-5.87-6.06 2.71-4.24 10.38-3.46 15.53.51 3.37 1.13 6.72 1.88 10.05.39 1.73.8 3.45 1.27 5.15s1.16 3.21 1.7 4.82c.6 1.78 3.31 1.07 2.83-.78Zm-29.2 74.26c-4.71-7.6-8.6-15.79-10.25-24.64-.63-3.38-1.22-8.4 1.82-10.88 2.2-1.8 5.04-.1 6.77 1.6 3.15 3.09 3.82 7.42 3.94 11.67.07 2.32 3.59 2.96 4.16.56 1.07-4.53 2.85-9.89 7.54-11.84 1.84-.76 4.1-.95 5.83.18 1.45.95 2.24 2.5 2.49 4.18.55 3.65-.89 7.59-2.61 10.75-2.46 4.55-5.96 8.35-9.36 12.2-4.19 4.75-7.85 9.64-10.68 15.33-1.1 2.22 2.06 4.12 3.35 1.96 1.67-2.81 3.26-5.61 5.34-8.14 1.89-2.29 3.87-4.51 5.87-6.71 3.86-4.24 7.77-8.71 10.21-13.95 1.96-4.2 3.4-9.39 1.93-13.97-1.76-5.46-7.39-8.12-12.81-6.48-6.85 2.08-9.66 8.96-11.17 15.35 1.39.19 2.77.38 4.16.56-.14-4.94-.83-9.76-4.06-13.67-2.51-3.04-6.48-5.51-10.55-4.64-4.98 1.07-7.05 6.51-7.08 11.06-.03 5.31 1.57 10.55 3.48 15.45 2.2 5.63 5.29 10.82 8.7 15.79 1.25 1.82 4.19.17 3-1.75Z"/><path d="M70.93 128.4c8.32-3.48 17.74-2.3 26.72-3.13 2.53-.23 5.1-.65 7.36-1.8 2.26-1.16 4.21-3.16 4.76-5.64.13-.6.18-1.22.04-1.82-.47-2.05-2.84-2.99-4.91-3.38-3.11-.59-6.51-.66-9.27.9 1.03-2.39 1.86-4.97 1.6-7.56-.25-2.59-1.81-5.2-4.28-6.02-2.08 3.34-4.18 6.7-6.84 9.6-2.4 2.61-5.22 4.81-7.69 7.35a38.1 38.1 0 0 0-7.02 10.04"/><path d="M71.35 129.94c8.7-2.97 17.99-1.55 26.97-2.54 4.41-.48 8.93-1.69 11.76-5.37 1.32-1.71 2.23-3.97 1.88-6.16-.31-1.93-1.65-3.42-3.36-4.29-4.16-2.1-9.91-2.09-13.96.21l2.91 2.24c1.22-3.12 2.24-6.5 1.46-9.87a8.8 8.8 0 0 0-5.49-6.27c-.88-.33-1.91.23-2.37.96-1.59 2.52-3.21 5.09-5.08 7.41s-3.97 4.22-6.1 6.18c-4.2 3.87-7.78 8.29-10.17 13.51-.98 2.14 2.09 4.03 3.21 1.88 1.29-2.46 2.79-4.88 4.58-7.02 1.82-2.18 3.95-4.06 6.05-5.94 2.18-1.95 4.23-3.96 6.03-6.27 1.89-2.43 3.48-5.02 5.09-7.63l-2.37.96c1.58.58 2.44 2.28 2.76 3.84.47 2.28-.29 4.66-1.24 6.72-.82 1.8.86 3.64 2.71 2.71 2.71-1.36 6.92-1.19 9.68.02 1.29.57 1.67 1.33 1.17 2.7-.46 1.28-1.49 2.37-2.63 3.09-3.08 1.96-7 2.08-10.54 2.28-3.87.21-7.75.2-11.61.54-4.4.39-8.59 1.26-12.59 3.17-1.62.78-.48 3.5 1.23 2.91Z"/></svg>