<?xml version="1.0" encoding="UTF-8"?><svg xmlns="http://www.w3.org/2000/svg" viewBox="0 0 180 180"><path d="M150.33 25.22c-24.96-2.42-49.91-4.9-74.86-7.29-7.05-.68-14.09-1.36-21.14-2-1.24-.11-2.32 1.15-2.31 2.31.28 26.29-10.45 51.65-26.61 72.05-4.62 5.83-9.68 11.3-15.1 16.38-1.22 1.14-.67 3.49 1.02 3.85 29.79 6.32 59.57 12.7 89.36 19.06 1.79.38 3.58.76 5.37 1.15 1.9.41 3.92 1.05 5.88 1.02 3.59-.06 5.6-2.97 7.55-5.56 3.92-5.2 7.47-10.62 10.76-16.24 6.5-11.11 12.09-22.75 16.21-34.96 4.65-13.77 7.84-28.13 9.08-42.62.17-2.02-2.96-2-3.14 0-1.12 12.5-3.38 25.04-7.32 36.97-3.95 11.96-8.96 23.55-15.3 34.44-3.14 5.38-6.71 10.5-10.44 15.48-1.76 2.36-3.52 4.89-5.61 6.97-1.09 1.08-2.08 1.01-3.52.72-1.87-.39-3.74-.8-5.61-1.2-14.4-3.08-28.81-6.15-43.21-9.23-16.27-3.48-32.55-6.95-48.82-10.45l1.02 3.85c9.93-9.26 18.66-19.86 25.69-31.48 6.99-11.57 12.32-24.26 15.13-37.5 1.58-7.46 2.36-15.09 2.26-22.71l-2.31 2.31c24.94 2.21 49.91 4.2 74.86 6.22 7.05.57 14.09 1.15 21.14 1.73 2.11.17 2.08-3.08 0-3.28Z"/><path d="M52.95 43.1c6.25.99 12.6 1.51 18.9 2.11 6.34.61 12.68 1.23 19.03 1.84a2515 2515 0 0 1 59.2 6.42c1.09.13 2.02-1.02 2.02-2.02 0-1.2-.93-1.89-2.02-2.02-25.11-3.06-50.28-5.82-75.5-7.77-7.06-.54-14.18-1.2-21.26-1.18-1.44 0-1.87 2.37-.35 2.61Zm14.51 20.48c1.01-.27 2.02-.53 3.03-.82.77-.22 1.9-.75 2.69-.71l-.99-.27.27.15-.72-.72.15.32-.28-1.02c.1 2.93-2.25 5.58-3.62 7.99-1.64 2.91-3.06 5.94-4.42 9s-2.64 6.16-4.02 9.21c-.66 1.46-1.34 2.9-2.05 4.33-.14.28-.49.7-.52 1.02-.3.47-.13.39.52-.23l-.49-.03c-.91-.21-2.02-.11-2.95-.16-2.59-.14-3.24 4.14-.62 4.6 1.93.34 3.86.68 5.79 1.01s3.95.85 5.92.93c2.61.11 2.95-3.68.6-4.42-1.76-.56-3.7-.73-5.52-1.06s-3.69-.66-5.54-.98c-.21 1.53-.41 3.06-.62 4.6 2.47.14 5.29.83 6.83-1.64 1.16-1.87 2.01-4.01 2.91-6.01 1.91-4.24 3.62-8.56 5.58-12.77 1-2.13 2.06-4.24 3.24-6.28 1.06-1.84 2.23-3.7 2.8-5.77.53-1.91.77-5.09-1.73-5.67-1.17-.27-2.43.42-3.5.81-1.22.44-2.42.9-3.63 1.36-1.97.75-1.23 3.79.89 3.22Zm32.53-1.21c-5.04 6.04-10.42 11.78-14.93 18.26-.7 1.01-.18 2.54.82 3.12 2.95 1.71 6.39 2.2 9.72 2.66s7.08 1.54 10.54.98c1.27-.2 1.98-1.79 1.67-2.94-.37-1.34-1.66-1.89-2.94-1.67-.22.03-.44.08-.65.13-2.23.52-2.05 3.73 0 4.34.42.13.85.17 1.29.22v-4.78c-2.97.1-5.86-.51-8.78-.91-2.78-.38-6.14-.68-8.53-1.99.27 1.04.55 2.08.82 3.12 4.21-6.41 9.28-12.21 13.74-18.43 1.15-1.61-1.48-3.66-2.76-2.13Z"/><path d="M111.34 66.71c-1.2 6.35-4.12 12.15-6.86 17.94-2.95 6.23-5.93 12.46-8.71 18.76-.48 1.09-.32 2.37.79 3.02.97.57 2.5.28 3.02-.79 3.13-6.41 6.09-12.93 9.02-19.44 2.77-6.15 5.48-12.24 6.18-19.03.2-1.95-3.07-2.4-3.44-.47Z"/><path d="M26.8 112.95a68.8 68.8 0 0 1-14.29 11.06 920 920 0 0 0 94.76 26.3c1.3.29 2.63.57 3.94.35 2.26-.39 3.98-2.19 5.41-3.98 4.3-5.41 7.47-11.62 10.51-17.82 12.81-26.09 24.08-53.66 25.78-82.67.13-2.16 1.04-9.62 1.04-13 .42 19.25-6.62 44.53-14.26 62.22-1.79 4.15-3.81 6.45-5.9 10.45-4.25 8.16-9.46 17.55-15.89 24.13-.95.97-1.96 1.95-3.25 2.38-.81.27-.78-1.78-1.63-1.76-29.35.75-50.32-12.74-79.37-17.01"/><path d="M25.5 111.66c-4.28 4.08-9.01 7.46-14.13 10.42-1.75 1.01-1.24 3.49.54 4.1 15.51 5.32 31.21 10.11 47.01 14.49s31.71 8.41 47.76 11.78c1.86.39 3.79.73 5.67.19 1.7-.49 3.18-1.57 4.41-2.83 2.54-2.59 4.58-5.81 6.43-8.91 3.96-6.61 7.2-13.68 10.44-20.66 6.5-14.02 12.38-28.54 16.11-43.56 3.26-13.11 4.82-26.57 5.87-40.03.09-1.16.17-2.31.18-3.47h-3.67c.24 13.8-2.78 27.64-6.74 40.79-1.95 6.47-4.2 12.85-6.84 19.07-1.42 3.34-3.31 6.31-5.17 9.41s-3.41 6.36-5.19 9.49c-2.01 3.54-4.15 7.02-6.54 10.32a53 53 0 0 1-3.59 4.45c-.68.75-1.38 1.49-2.11 2.19-.54.52-1.25 1.27-2.04 1.38h1.17c.89.25.93.95.82.51-.06-.23-.2-.51-.31-.73-.26-.5-.64-.96-1.13-1.26-1.19-.74-3.01-.39-4.36-.42-2.9-.05-5.8-.22-8.68-.51-5.49-.55-10.91-1.63-16.26-2.98-10.58-2.66-20.86-6.36-31.36-9.31-6.42-1.8-12.92-3.3-19.52-4.29-1.27-.19-2.55.32-2.92 1.66-.31 1.12.38 2.73 1.66 2.92 26.03 3.87 50.18 17.07 76.86 17 .22 0 2.69-.03 2.69-.05 0 .18-.85-1.29-.8-.55.01.15.2.46.27.6.74 1.39 2.07 2 3.57 1.43 3.03-1.13 5.33-4.41 7.27-6.86 4.17-5.27 7.6-11.06 10.76-16.97 1.53-2.86 3.03-5.7 4.74-8.45 1.76-2.83 3.13-5.75 4.38-8.84 2.33-5.76 4.37-11.65 6.16-17.6 4.08-13.65 7.17-28.1 6.86-42.42-.05-2.35-3.66-2.37-3.67 0-.02 4.94-.75 9.9-1.07 14.83-.24 3.63-.53 7.27-1.09 10.87-.58 3.72-1.48 7.43-2.34 11.09-3.46 14.65-8.94 28.78-15.11 42.49-3.06 6.79-6.24 13.54-9.66 20.16-1.73 3.33-3.57 6.61-5.69 9.71-.95 1.38-1.93 2.76-3.06 4-.89.98-1.94 1.99-3.31 2.2-1.69.25-3.65-.52-5.27-.89-2.05-.47-4.09-.94-6.14-1.43-3.93-.93-7.86-1.87-11.78-2.83-7.69-1.88-15.35-3.87-22.99-5.95-17.3-4.72-34.45-9.96-51.48-15.57l.54 4.1c5.32-3.16 10.2-7.21 14.45-11.71 1.62-1.71-.88-4.21-2.59-2.59ZM77.98 28.3c-2.52-.39-4.45-2.27-5.33-4.62s-1.07-4.79-.19-7.03c.09-.23.03-.07 0-.02.06-.14.13-.28.2-.41q.18-.36.39-.69c.21-.33.28-.44.44-.65-.14.18.28-.32.37-.42.78-.83 1.19-1.14 2.27-1.68.04-.02.46-.2.23-.11-.2.08.13-.05.14-.05.24-.08.48-.16.73-.22s.5-.12.75-.15c-.35.05.38-.01.52-.02.3 0 .61 0 .91.04-.32-.03.24.04.33.06.56.12 1.23.34 1.56.5 1.17.57 2.11 1.28 2.74 2.34.66 1.11.83 2.21.59 3.33-.58 2.78 3.48 3.95 4.28 1.18 2.15-7.45-6.48-13.46-13.17-11.45-2.91.87-5.4 3.01-6.72 5.75-1.51 3.14-1.58 6.63-.5 9.92 1.34 4.09 4.5 7.53 9 7.73 1.85.08 2.34-3.01.45-3.3Z"/><path d="M76.36 33.9c1.36-.39 2.46-1.24 3.3-2.36.38-.51.65-1.09.86-1.69.08-.25.15-.51.19-.77.04-.25.09-.5.09-.75s-.05-.5-.09-.74c-.05-.29-.29-.57-.51-.74-.24-.19-.55-.32-.86-.31-.25.01-.49.08-.72.19-.27.14-.61.54-.65.85l-.15 1.04.05-.39q-.09.615-.33 1.2l.15-.35c-.18.42-.42.82-.7 1.19l.23-.29c-.26.33-.56.62-.89.88l.29-.22c-.32.24-.66.44-1.02.59l.34-.14c-.1.04-.21.08-.31.11-.69.23-1.22.97-.98 1.72s.97 1.2 1.72.98Zm52.26-1.58c-2.52-.39-4.45-2.27-5.33-4.62s-1.07-4.79-.19-7.03c.09-.23.03-.07 0-.02.06-.14.13-.28.2-.41q.18-.36.39-.69c.21-.33.28-.44.44-.65-.14.18.28-.32.37-.42.78-.83 1.19-1.14 2.27-1.68.04-.02.46-.2.23-.11-.2.08.13-.05.14-.05.24-.08.48-.16.73-.22s.5-.12.75-.15c-.35.05.38-.01.52-.02.3 0 .61 0 .91.04-.32-.03.24.04.33.06.56.12 1.23.34 1.56.5 1.17.57 2.11 1.28 2.74 2.34.66 1.11.83 2.21.59 3.33-.58 2.78 3.48 3.95 4.28 1.18 2.15-7.45-6.48-13.46-13.17-11.45-2.91.87-5.4 3.01-6.72 5.75-1.51 3.14-1.58 6.63-.5 9.92 1.34 4.09 4.5 7.53 9 7.73 1.85.08 2.34-3.01.45-3.3Z"/><path d="M127 37.92c1.36-.39 2.46-1.24 3.3-2.36.38-.51.65-1.09.86-1.69.08-.25.15-.51.19-.77.04-.25.09-.5.09-.75s-.05-.5-.09-.74c-.05-.29-.29-.57-.51-.74-.24-.19-.55-.32-.86-.31-.25.01-.49.08-.72.19-.27.14-.61.54-.65.85l-.15 1.04.05-.39q-.09.615-.33 1.2l.15-.35c-.18.42-.42.82-.7 1.19l.23-.29c-.26.33-.56.62-.89.88l.29-.22c-.32.24-.66.44-1.02.59l.34-.14c-.1.04-.21.08-.31.11-.69.23-1.22.97-.98 1.72s.97 1.2 1.72.98Zm30.4-9.07c1.32.47 2.65.95 3.97 1.42 1.26.45 2.88.77 4.01 1.5.72.46.74 1.26.72 2.05-.03 1.29-.15 2.59-.23 3.88-.37 5.52-.81 11.03-1.39 16.53a362 362 0 0 1-4.82 32.07c-2.1 10.7-4.68 21.3-7.72 31.77-3.04 10.45-6.64 20.69-10.28 30.95-1.25 3.52-2.78 6.88-4.34 10.27-.87 1.89-1.76 3.77-2.61 5.67-.35.79-.7 1.59-1.05 2.38l-.48 1.14c-.06.14-.37.93-.25.64-.39.9-.26 1.92.64 2.46.75.45 2.08.25 2.46-.64 2.6-6.04 5.44-11.97 7.97-18.04 4.29-10.31 8.05-20.79 11.24-31.5 6.46-21.69 10.87-43.96 13.27-66.46.68-6.35 1.19-12.71 1.49-19.09.13-2.62.02-5.46-2.49-6.96-1.23-.74-2.71-1.07-4.06-1.49-1.73-.54-3.46-1.09-5.19-1.63-2.01-.63-2.8 2.43-.86 3.12Z"/><path d="M25.87 142.67c26.89 10.98 54.53 20.14 83.07 25.75 7.95 1.56 15.95 2.84 24 3.68 1.13.12 2.1-1.05 2.1-2.1 0-1.25-.97-1.96-2.1-2.1-28.63-3.47-56.57-11.22-83.81-20.49-7.49-2.55-14.97-5.14-22.38-7.93-.84-.32-1.81.35-2.04 1.16-.27.95.33 1.7 1.16 2.04Zm133.94-113.7c-.14 18.62-2.62 36.99-7.31 55.01-4.5 17.27-10.78 34.02-17.22 50.65-3.07 7.93-6.03 15.89-10.15 23.36-1.04 1.89 1.63 3.37 2.85 1.66 2.04-2.86 3.46-6.19 4.88-9.39 1.58-3.55 2.93-7.19 4.33-10.82 3.31-8.55 6.55-17.13 9.58-25.78 5.99-17.1 11.01-34.64 13.68-52.59 1.58-10.63 2.4-21.35 2.17-32.1-.04-1.81-2.8-1.81-2.81 0"/></svg>