<?xml version="1.0" encoding="UTF-8"?><svg xmlns="http://www.w3.org/2000/svg" viewBox="0 0 180 180"><path d="M32.89 60.24c-6.5 12.03-11.54 24.95-15.8 37.93-2.16 6.59-4.15 13.25-5.71 20.01-1.45 6.26-3.01 13.24-1.22 19.58 1.03 3.64 3.38 6.7 6.83 8.34 4.16 1.98 8.87 3.02 13.27 4.33 9.31 2.77 18.67 5.38 28.06 7.83 18.7 4.88 37.58 9.07 56.61 12.51 7.88 1.43 16.41 2.59 23.99-.72 7.7-3.36 11.36-11.08 14.27-18.46 3.54-8.97 6.79-18.06 9.79-27.23 1.48-4.52 2.9-9.06 4.25-13.63 1.2-4.06 2.54-8.14 3.1-12.35.49-3.65.4-7.55-1.46-10.83s-5.43-5.32-9.2-5.9c-6.03-.93-12.48.29-18.44 1.25-12.9 2.07-25.59 5.24-38.11 8.95-13.88 4.11-27.57 8.89-40.95 14.43-11.89 4.93-23.63 10.4-34.45 17.41-2.1 1.36-4.13 2.83-6.14 4.32-.83.62-1.23 1.64-.68 2.6.46.82 1.78 1.29 2.6.68 9.13-6.79 19.68-11.81 29.99-16.53 12.46-5.7 25.3-10.57 38.3-14.88 12.71-4.21 25.63-7.88 38.71-10.77 5.38-1.19 10.88-2.24 16.3-2.95 2.83-.37 5.69-.73 8.54-.76 3.28-.04 6.96.41 9.19 3.1 2.04 2.46 2.05 6.02 1.64 9.02-.55 4.02-1.89 7.95-3.04 11.83-2.63 8.89-5.51 17.72-8.64 26.44-1.55 4.33-3.17 8.63-4.85 12.91-1.4 3.58-2.82 7.17-4.9 10.43-1.94 3.04-4.54 5.61-7.89 7.03-3.47 1.47-7.33 1.73-11.05 1.57s-7.74-.86-11.58-1.57c-4.62-.85-9.22-1.75-13.82-2.68-9.12-1.85-18.21-3.87-27.27-6.02s-18.08-4.44-27.05-6.91a802 802 0 0 1-13.54-3.88c-4.24-1.26-8.67-2.32-12.78-3.97-3.21-1.29-5.04-3.74-5.75-7.07-.68-3.18-.36-6.61.15-9.79.95-5.91 2.48-11.74 4.14-17.49 3.83-13.3 8.45-26.47 13.94-39.18 1.07-2.47 2.21-4.91 3.46-7.29.97-1.86-1.82-3.5-2.82-1.65Z"/><path d="M110.32 147.66c-1.85-3.49-4.61-6.38-6.59-9.78-2.11-3.63-3.08-8.21-2.58-12.39.32-2.72 1.81-4.81 4.2-5.52 2-.59 4.19-.31 5.84 1.34 1.21 1.21 1.68 2.9 2.01 4.54.49 2.44.33 4.97-.35 7.36 1.35.18 2.71.37 4.06.55.16-3.4 3.82-6.25 6.27-8.17 2.24-1.75 6.26-3.68 8.2-.5 1.64 2.7.51 5.86-1.31 8.15-2.46 3.09-5.95 5.37-9.31 7.38-4.17 2.49-8.63 4.49-12.74 7.07-2.58 1.62-.34 5.21 2.34 4.01 2.44-1.09 4.77-2.44 7.12-3.7 2.26-1.21 4.5-2.45 6.67-3.81 4.08-2.56 8.39-5.64 10.9-9.86 2.22-3.76 2.59-8.62-.13-12.24-3.29-4.37-9.15-3.81-13.24-.9-4.11 2.93-8.79 7.16-8.9 12.57-.05 2.32 3.47 2.81 4.06.55 1.17-4.53 1.14-10.37-1.62-14.38-1.94-2.82-5.26-4.51-8.69-4.49-3.51.02-6.86 2.04-8.45 5.18-2.29 4.51-1.54 10.6.16 15.2 1.96 5.28 6.45 8.75 9.26 13.51 1.07 1.81 3.81.21 2.82-1.65Zm41.36-93.93L139 35.44c-2.91-4.19-6.12-8.63-10.93-10.33-5.74-2.03-12.01.4-17.61 2.81-23.06 9.9-48.52 20.71-71.58 30.62 13.1 13.32 26.05 28.68 36.38 44.25 25.19-11.22 51.77-18.91 79.32-20.23 4.74-.23 11.3 1.56 13.2 5.91-1.13-12.87-8.73-24.13-16.09-34.74Zm-13.84 14.06c-13.91 16.1-41.97 20.1-58.72 5.89-4.99-4.23-10.23-10.9-10.76-17.61l1.43.16c5.38-1.37 10.29-4.17 15.6-5.78s11.54-1.86 15.96 1.5c.91.69 1.73 1.53 2.78 1.99 2.09.92 4.49.15 6.71-.39 5.19-1.27 11.05-1.05 15.4 2.06 4.2 3.01 6.56 8.37 11.29 10.45.28.13.6.26.73.55.18.4-.12.85-.4 1.18Z"/><path d="M153.41 52.72c-2.72-3.93-5.45-7.86-8.17-11.79-2.48-3.57-4.86-7.25-7.56-10.67-2.34-2.96-5.15-5.58-8.72-6.95-4.07-1.56-8.6-1.01-12.67.24-4.29 1.32-8.39 3.3-12.5 5.07-4.14 1.78-8.29 3.55-12.43 5.32L66.01 44.77c-9.38 4-18.75 8.01-28.12 12.03-1.22.52-1.21 2.32-.4 3.14C50.76 73.45 63.06 88 73.55 103.78c.65.97 1.7 1.18 2.74.72 24.01-10.68 49.68-18.23 76-19.83 4.62-.28 11.48-.15 13.77 4.8.82 1.77 3.91.93 3.73-1.01-1.26-13.48-8.85-24.91-16.36-35.75-1.46-2.1-4.93-.1-3.45 2.02 7.04 10.15 14.63 21.07 15.82 33.73l3.73-1.01c-2.22-4.78-8.21-6.62-13.07-6.89-3.04-.17-6.18.22-9.21.49-3.54.31-7.06.74-10.58 1.24-13.79 1.98-27.34 5.46-40.48 10.04-7.42 2.59-14.72 5.52-21.9 8.72.91.24 1.82.48 2.74.72-10.68-16.06-23.19-30.9-36.69-44.65l-.4 3.14c16.08-6.9 32.17-13.76 48.26-20.63 7.97-3.4 15.92-6.86 23.9-10.23 3.69-1.56 7.66-3.13 11.73-3.04 3.77.08 6.8 1.99 9.31 4.68 3.06 3.28 5.43 7.23 7.98 10.9 2.96 4.27 5.92 8.54 8.88 12.8 1.46 2.1 4.93.1 3.45-2.02Z"/><path d="M136.43 66.38c-13.12 15.05-39 19.33-55.12 6.53-5.08-4.04-10.33-10.1-10.96-16.83l-2 2c.56.06 1.13.18 1.7.12 1.44-.13 2.99-.83 4.33-1.33 2.67-.99 5.27-2.18 7.93-3.22 4.65-1.81 9.87-3.26 14.8-1.68 1.04.34 2.02.84 2.91 1.48 1.03.74 1.92 1.67 3.09 2.22 2.7 1.26 5.51.46 8.25-.19 4.7-1.12 10.21-1.04 14.16 2.09 2.04 1.62 3.61 3.77 5.33 5.71.87.98 1.79 1.91 2.82 2.73 1.07.84 2.26 1.35 3.37 2.09l-.72-.72.03.07v-1.06h.06c-.66.84-.83 1.99 0 2.82.69.69 2.16.86 2.83 0 .91-1.17 1.47-2.49.53-3.84-.76-1.11-2.35-1.47-3.4-2.28-1.96-1.5-3.47-3.55-5.08-5.4-1.7-1.94-3.6-3.76-5.94-4.92-2.53-1.26-5.31-1.85-8.12-1.93-2.96-.08-5.77.55-8.63 1.21-1.23.29-2.63.6-3.82 0s-2.2-1.75-3.38-2.47c-4.68-2.89-10.67-2.67-15.8-1.27-3.29.9-6.41 2.34-9.56 3.63-1.66.68-3.34 1.34-5.06 1.88-.59.18-1.08.38-1.57.38-.35 0-.71-.08-1.06-.12-1.01-.11-2.09 1.01-2 2 .65 6.95 4.93 13.07 9.91 17.73 4.22 3.95 9.27 6.87 14.78 8.61 10.86 3.43 22.89 2.27 33.23-2.3 5.68-2.51 10.89-6.22 14.98-10.91 1.69-1.93-1.13-4.77-2.83-2.83Z"/><path d="M68.04 57.64c7.14 5.91 17.15 3.46 24.94 7.82 2.19 1.23 4.32 2.66 6.8 3.22 2.15.49 4.28.21 6.4-.28 2.3-.52 4.46-.98 6.83-.89 2.45.09 4.87.47 7.28.89 5.47.95 11.02 1.96 16.53.74 2.44-.54 1.41-4.35-1.03-3.75-9.23 2.28-18.62-2.44-27.92-.78-1.97.35-3.9.94-5.92.89-2.37-.06-4.39-1.16-6.39-2.33-1.96-1.14-3.91-2.23-6.06-2.97-2.03-.7-4.14-1.04-6.26-1.29-4.61-.54-9.56-.72-13.5-3.49-1.29-.91-2.94 1.19-1.7 2.21ZM44.48 45.89c-5.22-3.62-14.93-12.32-18.95-17.24-2.64-3.23-4.71-7.83-2.63-11.45 1.62-2.83 5.45-3.91 8.56-2.93s5.48 3.64 6.78 6.63c-.93-5.19 3.61-10.5 8.87-10.87 1.34-.09 2.74.09 3.92.75 2.86 1.6 3.6 5.38 3.47 8.65-.35 9.52-5.25 18.21-10.02 26.46"/><path d="M45.3 44.47c-5.32-3.79-10.17-8.38-14.68-13.09-2.2-2.3-4.62-4.74-5.84-7.73-1.29-3.16-.66-6.68 3.03-7.54 4.02-.94 7.16 2.5 8.64 5.82.41.93 1.73 1.22 2.58.84 1.01-.44 1.35-1.38 1.19-2.43-.4-2.66 1.25-5.41 3.38-6.88s5.72-2.25 7.51.13c1.77 2.35 1.42 6.05 1.06 8.76-.51 3.8-1.76 7.52-3.25 11.04-1.7 4.02-3.83 7.81-5.99 11.59-1.14 1.99 1.92 3.78 3.08 1.8 4.74-8.13 9.64-16.47 10.48-26.05.33-3.75-.13-8.26-3.17-10.88-3.29-2.84-8.4-2.35-11.83-.02-3.84 2.61-5.98 6.99-5.24 11.61 1.26-.53 2.51-1.06 3.77-1.59-1.87-4.1-5.56-7.6-10.22-7.96-4.34-.34-8.87 2.4-9.65 6.88s1.85 8.95 4.81 12.25c2.61 2.91 5.54 5.55 8.47 8.11 3.28 2.86 6.62 5.71 10.21 8.17 1.75 1.2 3.36-1.62 1.66-2.83m31.18-20.88-1.28-1.3c-.15-.17-.34-.28-.55-.35q-.3-.165-.66-.15c-.24 0-.46.04-.66.15-.21.07-.4.19-.55.35l-.27.35c-.15.27-.23.55-.23.86l.06.45c.08.29.23.54.44.75.43.43.87.85 1.3 1.28.15.17.34.28.55.35.2.11.42.15.65.15s.45-.04.65-.15c.21-.07.39-.19.55-.35l.27-.34c.15-.26.23-.55.23-.86l-.06-.45a1.7 1.7 0 0 0-.44-.75Zm15.5-6.74c-.08-.14-.15-.29-.22-.44l.17.39c-.14-.34-.24-.7-.29-1.07l.06.44c-.04-.28-.05-.57-.03-.86 0-.23-.04-.45-.15-.65-.07-.21-.18-.39-.35-.54-.15-.16-.33-.28-.54-.35-.2-.11-.42-.15-.65-.15-.44.02-.89.16-1.19.49s-.48.73-.49 1.19c-.01.55.06 1.13.21 1.66s.37 1.05.67 1.51c.23.35.56.63.97.75.22.07.43.08.65.03.22 0 .42-.07.6-.19.35-.22.65-.56.75-.97s.06-.86-.16-1.25Zm19.38-1.73a20 20 0 0 1-.16-2.3c0-.38 0-.77.02-1.15.02-.5.06-1.04-.13-1.51-.11-.27-.22-.53-.43-.74-.26-.26-.6-.41-.96-.46-.66-.09-1.33.22-1.67.8-.52.89-.42 2.07-.35 3.07.06.92.18 1.84.35 2.75.07.38.45.84.78 1.02s.7.25 1.09.2c.36-.05.73-.19.98-.47.28-.31.55-.77.5-1.2Zm19.4.88c.44-.57.89-1.13 1.33-1.7l.64-.83c.18-.24.38-.47.55-.72.22-.34.33-.74.3-1.15-.03-.46-.19-.83-.56-1.12s-.78-.35-1.24-.25c-.38.08-.73.26-.99.55-.2.22-.38.47-.55.71l-.65.87-1.29 1.73c-.22.29-.27.87-.16 1.21s.29.6.56.82.61.35.95.34c.39-.02.86-.14 1.11-.46m15.53 9.37v-.02c-.07.11-.15.21-.23.32.15-.19.32-.36.52-.51l-.32.25c.16-.12.32-.22.5-.31.08-.04.17-.08.25-.12l.06-.03c.27-.14.42-.35.59-.6l.07-.1c.14-.24.21-.49.21-.76 0-.21-.04-.4-.13-.58a1.1 1.1 0 0 0-.31-.49c-.19-.19-.41-.32-.67-.39l-.1-.03c-.02 0-.03 0-.05-.01-.21-.07-.43-.08-.64-.03-.08 0-.16.01-.24.04-.04.01-.07.02-.11.04-.16.06-.33.12-.48.2-.21.11-.39.25-.58.39s-.36.28-.52.45c-.2.22-.38.45-.54.7-.12.18-.18.38-.19.59q-.075.315.03.63c.05.21.14.38.28.54.11.17.26.31.44.41l.38.16q.42.12.84 0l.38-.16q.36-.21.57-.57Z"/></svg>