<?xml version="1.0" encoding="UTF-8"?><svg xmlns="http://www.w3.org/2000/svg" viewBox="0 0 180 180"><path d="M57.03 79.59c-.04 1.07-.16 2.18-.08 3.24.07 1.01.81 1.91 1.9 1.9 6.69-.12 13.33-.66 19.94-1.72 2.61-.42 5.33-1.02 7.99-.67 1.06.14 2.08.49 2.98 1.07 1.38.89 2.6 1.9 4.36 1.48 1.15-.27 2.03-1.17 2.56-2.19.46-.89.51-1.66 1.55-1.91 3.17-.76 6.52-1.06 9.75-1.57s6.54-1.04 9.82-1.56c3.01-.48 6.27-.68 9.05-2.03s4.7-4.25 4.19-7.35c-.1-.6-.29-1.2-.59-1.73-.04-.06-.56-.83-.58-.82-.06.6-.01.75.16.43.12-.18.25-.35.38-.52 1.1-1.5 2.22-2.99 3.33-4.48l-2.39.97c2.19.38 4.39.76 6.58 1.15 1.06.18 2.11.37 3.17.55.41.07.89.24 1.31.23l.16.04c.33.12.26 0-.23-.38 0 0 .01.34 0 .37-1.02 3.26.87 7.06 3.92 8.39.25.11 1.57.49 1.59.52.26.42-.54 1.23-.79 1.47-1.24 1.22-2.54 2.22-3.26 3.86-.61 1.4-.81 2.89-1.26 4.34-.37 1.21-.97 1.99-2.34 1.69-1.93-.42-3.44-2.06-5.02-3.12-1.92-1.29-3.91-1.91-6.21-1.51-.89.15-1.39 1.09-1.45 1.9-.23 3.11.23 6.21 1.29 9.13.31-.77.62-1.53.93-2.3-4.41 1.99-9.01 3.01-13.78 3.6-2.01.25-3.75.91-5.05 2.51-.96 1.18-1.5 2.87-2.63 3.89-1 .9-2.46-.23-3.49-.76-1.97-1.03-3.86-1.63-6.11-1.39-.94.1-3.68.85-4.26-.39-.28-.61.35-1.97.47-2.6.19-1.02.27-1.98-.06-2.98-.43-1.31-2.02-1.78-3.05-.8-2.02 1.92-4.11 3.72-6.03 5.73-.79.82-1.53 1.97-2.7 2.22-1.46.31-3.03.34-4.52.51-5.95.65-11.9 1.29-17.83 2.01l2 2c.04-3.03-.33-6.15-.83-9.14-.1-.6-.76-1.25-1.35-1.35-2.44-.42-4.88-.29-7.29.27l2.4 2.4.57-3.26c.31-1.71-1.28-2.97-2.86-2.2-2.89 1.4-5.77 2.84-8.64 4.27l3.04 1.74c-.34-5.2-.99-10.37-1.9-15.5-.32.78-.63 1.55-.95 2.33 3.76-2.61 7.34-5.47 11.05-8.16 1.71-1.24.13-4.1-1.69-2.89-3.79 2.53-7.71 4.88-11.44 7.49-.81.57-1.12 1.36-.95 2.33.87 4.77 1.48 9.57 1.84 14.41.12 1.56 1.62 2.47 3.04 1.74 2.86-1.46 5.73-2.91 8.57-4.4l-2.86-2.2c-.19 1.09-.38 2.17-.58 3.26-.26 1.47.86 2.75 2.4 2.4 1.92-.44 3.79-.43 5.74-.22l-1.87-1.42c.59 2.73.69 5.33.57 8.11-.04 1 .96 2.12 2 2 6.44-.69 12.87-1.47 19.3-2.24 1.47-.18 3.1-.19 4.52-.63s2.36-1.42 3.32-2.47c2.07-2.24 4.2-4.56 6.52-6.56l-3.05-.8c.4 1.35-.86 2.96-1.02 4.33-.23 1.93.72 3.79 2.43 4.74s3.62.85 5.49.65c.88-.1 1.79-.23 2.65 0 .73.19 1.4.57 2.07.91 1.51.77 3.11 1.48 4.85 1.32s3.23-1.13 4.3-2.56c.8-1.07 1.29-2.34 2.09-3.41.94-1.26 2.56-1.13 4-1.32 4.74-.63 9.27-1.99 13.62-3.98.75-.34 1.22-1.52.93-2.3-.96-2.61-1.38-5.27-1.28-8.05l-1.45 1.9c1.86-.39 3.76 1.62 5.09 2.63 1.67 1.27 3.68 2.36 5.84 2.32 1.96-.03 3.73-1.14 4.7-2.83.88-1.52 1.05-3.28 1.56-4.94.55-1.8 2.07-2.56 3.22-3.93 1.31-1.57 2.03-3.9.92-5.78-.55-.94-1.46-1.49-2.46-1.87-.76-.28-1.47-.47-2-1.14-1.12-1.42-.29-2.94-.42-4.54-.24-2.97-2.82-3.41-5.24-3.84-2.92-.52-5.84-1.05-8.76-1.57-1.03-.19-1.78.16-2.39.97-.93 1.24-1.86 2.48-2.8 3.72-.9 1.19-1.96 2.42-1.58 4.03.21.89 1.07 1.51 1.14 2.39s-.63 1.76-1.32 2.24c-2.14 1.48-5.4 1.53-7.88 1.92-3.27.52-6.54 1.04-9.81 1.57s-6.38 1.01-9.57 1.53c-1.3.21-2.59.51-3.6 1.41-.84.75-1.19 1.71-1.69 2.68l-.13.24c-.19.26-.19.3-.02.11l.12-.12c.5.03.6-.02.28-.17-.22-.39-1.24-.9-1.6-1.12-1.12-.66-2.4-1.1-3.68-1.31-2.67-.44-5.32-.12-7.97.32-7 1.15-14.01 2.11-21.11 2.46l1.9 1.9c-.11-1.23-.43-2.44-.67-3.66-.35-1.76-2.98-1.28-3.04.41Z"/><path d="M56.57 93.65c3.09 21.86 7.25 43.56 11 65.31.77 4.47 1.28 9.23 5.79 11.49 3.75 1.89 8.14 1.79 12.23 1.59 10.75-.54 21.47-2.59 32.08-4.32 6.08-.99 12.16-2.03 18.23-3.1 2.42-.43 4.97-.69 7.17-1.86.97-.51 1.86-1.26 2.46-2.18.33-.5.57-1.07.72-1.65.05-.2.08-.41.12-.61l.07-.31c.12-.41.11-.4-.04.03l-1 .58-.18-.03q.345.075.69.12c.43.05.78.05 1.22-.04.5-.11.95-.33 1.37-.61 1.22-.83 1.9-2.29 1.92-3.75.01-1.28-.52-2.54-.85-3.76s-.67-2.56-1.02-3.84c-1.32-4.82-2.54-9.68-3.7-14.54-2.41-10.1-4.55-20.27-6.68-30.43-1.38-6.58-2.75-13.17-4.14-19.75-.54-2.57-4.47-1.48-3.93 1.08 3 14.41 5.88 28.84 9.06 43.21 1.4 6.33 2.89 12.63 4.38 18.94.36 1.54.73 3.08 1.14 4.61.2.77.4 1.54.61 2.31.11.39.23.78.34 1.18.04.12.17 1.06.23 1.11-.13-.11.56-.16.57-.2.02-.08-1.22-.17-1.38-.16-.98.06-1.88.58-2.42 1.41-.62.94-.43 2.36-1.3 3.06s-2.13.9-3.16 1.1c-2.04.4-4.1.73-6.14 1.09q-6.075 1.065-12.15 2.07c-8.07 1.34-16.14 2.68-24.25 3.78-3.81.52-7.64.91-11.48 1.15-2.74.18-5.79.4-8.38-.71-3.2-1.37-3.34-4.65-3.88-7.69l-2.19-12.24c-3.21-18.11-6.22-36.28-10.02-54.28-.43-2.06-3.37-1.13-3.09.85Z"/><path d="M110.68 149.93c-8.67-3.29-16.74-8.86-22.83-15.84-2.84-3.26-5.83-7.6-5.18-12.16.61-4.26 4.38-6.1 8.39-5.48 5.22.8 9.04 4.63 11.67 8.97 1.2 1.98 3.76.92 4.01-1.09.57-4.44 2.91-8.94 6.44-11.75 1.57-1.25 3.65-2.27 5.69-1.81 1.44.33 2.68 1.26 3.56 2.44 1.86 2.49 2.57 6.01 2.16 9.06-.26 1.93-1.27 3.89-2.21 5.67-1.27 2.41-2.57 4.81-3.97 7.15-2.88 4.83-7.13 9.21-8.23 14.87-.45 2.32 2.98 3.33 3.59.99.69-2.65 2.47-4.87 4.04-7.06 1.77-2.47 3.45-4.98 4.97-7.61s3.09-5.41 4.41-8.22c1.05-2.23 1.75-4.47 1.83-6.95.13-4.13-1.2-8.6-4.09-11.64-3.64-3.83-9.15-3.97-13.41-1.04-5.25 3.62-8.3 9.67-9.09 15.88l4.01-1.09c-2.93-4.83-7.1-9.03-12.67-10.58-5.09-1.42-11.3-.38-13.99 4.66-5.59 10.47 5.88 21.71 13.62 27.24a63 63 0 0 0 16.43 8.4c1.94.65 2.69-2.32.83-3.03Z"/><path d="M77.47 101.4c1.44 2.71 2.65 5.55 3.63 8.46.36 1.09.7 2.23.58 3.37-.12 1.13-.68 2.16-1.12 3.21-3.17 7.56.12 16.59 5.84 22.46s13.45 9.27 20.97 12.52c1.42.62 3.13 1.21 4.43.37.64-.41 1.03-1.09 1.41-1.75 3.89-6.81 7.79-13.62 11.68-20.43.94-1.65 1.89-3.3 2.48-5.1 1.74-5.26-.07-11.61-4.57-14.82s-11.42-2.69-15.08 1.46c-1.77 2.01-2.72 4.59-3.62 7.12-2.71-2.47-5.68-4.74-9.11-6.04s-7.37-1.56-10.71-.05c-1.16-2.65-2.33-5.29-3.49-7.94-.13-.29-.26-.61-.16-.92.1-.28.37-.46.62-.62 3.15-1.94 6.31-3.89 9.46-5.83 1.42 2.54 4.33 4.17 7.24 4.06 1.61-.06 3.2-.6 4.79-.38 2.97.42 5.89 3.4 8.48 1.89 1.7-1 1.94-3.35 3.14-4.92 2.61-3.42 8.16-1.77 12.08-3.54 1.52-.69 3.09-1.95 4.67-1.4.99.35 1.61 1.32 2.02 2.29 1.26 2.97 1.21 6.31 1.51 9.52.71 7.68 3.48 15 5.39 22.47.98 3.84 1.73 7.74 2.49 11.63.86 4.46 1.73 8.93 2.59 13.39.17.87.31 1.85-.19 2.57-.38.53-1.03.8-1.49 1.27-.64.65-.84 1.61-1.4 2.33-.48.61-1.18.99-1.88 1.32-9.39 4.49-20.37 3.03-30.73 4.01-9.02.86-17.84 3.63-26.89 3.65-2.71 0-5.56-.28-7.8-1.81-3.41-2.32-4.49-6.77-5.32-10.82-1.61-7.94-1.14-20.22-2.75-28.15-1.53-7.52-.76-7.79-2.28-15.3-.23-1.12-1.46-4.12-.57-4.85.47-.39-2.19-1.75-1.59-1.82l17.43-1.98"/><path d="M76.04 102.23c1.26 2.55 2.35 5.18 3.22 7.89.36 1.13.75 2.24.42 3.43-.35 1.3-1.11 2.49-1.53 3.78-1.41 4.35-.89 9.27.75 13.47 3.76 9.68 12.46 15.47 21.51 19.71 2.34 1.1 4.71 2.24 7.14 3.15s5.12.67 6.78-1.63c1.64-2.27 2.87-4.92 4.26-7.35 1.5-2.62 3-5.25 4.51-7.87 1.47-2.56 2.98-5.1 4.39-7.69 1.21-2.22 2.14-4.49 2.45-7.01.53-4.43-.94-9.09-3.99-12.36-3.41-3.65-8.77-4.98-13.56-3.76-2.33.59-4.57 1.85-6.18 3.66-2.06 2.3-3.15 5.19-4.19 8.05l3.59-.95c-6.12-5.56-14.16-9.98-22.44-6.44l2.97.78c-.61-1.4-1.23-2.79-1.84-4.19l-.87-1.98c-.19-.43-.68-1.17-.64-1.58l-.3 1.1c-.29.49.47-.23.67-.35.41-.25.82-.51 1.23-.76.82-.51 1.65-1.01 2.47-1.52 1.65-1.01 3.29-2.03 4.94-3.04l-2.96-.78c2.11 3.55 6.1 5.55 10.2 5.03 1-.13 2.03-.38 3.05-.33.86.05 1.67.38 2.45.74 1.68.77 3.41 1.69 5.31 1.61 2.07-.09 3.73-1.37 4.7-3.14.69-1.25 1-2.89 2.26-3.72 1.16-.77 2.75-.85 4.1-.97 1.73-.16 3.53-.26 5.19-.79.93-.3 1.8-.74 2.66-1.2.46-.24 1.29-.76 1.69-.57.63.3.94 1.68 1.1 2.25.31 1.08.49 2.19.6 3.31.45 4.68.9 9.22 2.05 13.79 1.18 4.66 2.69 9.23 3.86 13.9 1.16 4.64 2.02 9.34 2.93 14.03.46 2.39.93 4.78 1.39 7.17.23 1.17.52 2.35.68 3.54.11.84-.24.72-.94 1.33-.81.71-1.1 1.62-1.68 2.49-.5.75-1.53 1.09-2.34 1.43-1.94.82-4 1.38-6.07 1.78-8.71 1.72-17.74.74-26.53 1.98-4.73.66-9.4 1.69-14.12 2.42-2.39.37-4.8.63-7.21.72-2.05.08-4.15.11-6.14-.45-3.71-1.05-5.1-4.56-5.95-7.99s-1.27-7.03-1.52-10.61c-.29-3.99-.43-8-.75-11.99-.31-3.9-1.06-7.68-1.66-11.54-.45-2.85-.59-5.73-1.05-8.57-.27-1.69-.61-3.33-1.08-4.97-.07-.24-.38-1.67-.33-1.66-.11-.01-.57 1.25.07.14.3-.52.38-1.21.22-1.79-.17-.64-.62-1.16-1.11-1.58-.31-.26-.65-.49-.97-.75-.26-.21.02-.05.14.2l.22 1.7.02-.04-1.54 1.54c1.02-.33 2.67-.31 3.84-.44 1.45-.16 2.91-.33 4.36-.49l8.72-.99c1.19-.13 2.21-.92 2.21-2.21 0-1.09-1.02-2.35-2.21-2.21l-14.53 1.65c-1.86.21-5.97.14-5.13 3.2.21.76.76 1.22 1.35 1.67.06.05.69.48.4.3.1.08.2.17.3.26-.15-.25-.19-.29-.1-.11l-.3-1.12v.09c.1-.37.2-.74.3-1.12.45-.66-.11.11-.17.2-.13.21-.24.47-.31.68-.12.35-.17.73-.18 1.1-.03.84.16 1.71.37 2.51.43 1.69.85 3.33 1.14 5.05.48 2.9.63 5.85 1.08 8.76.59 3.79 1.31 7.48 1.59 11.31.3 4.06.45 8.13.76 12.18.3 3.82.76 7.64 1.75 11.35 1.01 3.8 2.85 7.69 6.5 9.58 4.01 2.07 8.92 1.75 13.27 1.31 4.95-.5 9.81-1.52 14.7-2.38 4.63-.81 9.25-1.24 13.94-1.38s9.02-.17 13.49-.75c2.25-.29 4.47-.7 6.64-1.35 2.04-.61 4.33-1.35 6.06-2.62.85-.62 1.43-1.4 1.9-2.34.16-.31.29-.7.53-.96.33-.37.85-.58 1.21-.95 1.79-1.83 1.04-4.37.61-6.58-1.88-9.74-3.56-19.51-6.33-29.05-1.33-4.6-2.73-9.22-3.46-13.97-.68-4.44-.14-9.41-2.38-13.48-1.1-2.01-3.11-3.17-5.41-2.73-1.88.36-3.38 1.67-5.25 2.08-3.3.73-6.99.16-9.87 2.28-1.59 1.17-2.26 2.76-3.09 4.48-.23.47-.49 1.14-1 1.38-.6.28-1.46-.13-2.02-.36-1.75-.72-3.36-1.68-5.28-1.88-2.07-.22-4.14.71-6.2.26a6.05 6.05 0 0 1-3.96-2.88c-.59-.99-1.96-1.39-2.96-.78-1.78 1.1-3.57 2.2-5.35 3.29l-2.88 1.77c-.8.49-1.73.94-2.32 1.69-1.4 1.77-.05 3.83.71 5.56.87 1.98 1.74 3.97 2.62 5.95.51 1.16 2 1.2 2.97.78 6.24-2.68 12.76 1.73 17.21 5.73 1.26 1.13 3.04.61 3.59-.95 1.33-3.73 2.92-7.48 7.02-8.72 3.3-1 7.02-.3 9.51 2.14s3.71 6.31 3.17 9.83c-.34 2.22-1.42 4.19-2.52 6.12-1.28 2.26-2.58 4.51-3.86 6.77-2.63 4.61-5.26 9.23-7.9 13.84-.41.71-.65 1.45-1.58 1.37-1.01-.09-2.05-.68-2.97-1.08-2.11-.92-4.22-1.85-6.3-2.86-7.63-3.72-15.31-8.83-18.29-17.2-1.54-4.34-1.47-8.63.3-12.88.51-1.22.9-2.45.81-3.79-.1-1.42-.59-2.76-1.08-4.08-.99-2.67-2.19-5.24-3.57-7.72-1.04-1.88-3.8-.22-2.86 1.67ZM61.18 79.86c-1.95-6.53-3.8-12.97-4.97-19.7l-.53 2.02 3.53-3.97c1.05-1.18.63-2.99-.92-3.48-1.22-.38-2.96-.88-3.72-2.02-.37-.57-.18-1.19-.08-1.82.16-1.02.29-2.02.21-3.06-.16-2.12-.77-4.16-1.33-6.2-.6-2.17-1.19-4.35-1.79-6.52l-2.02 2.65c3.39-.02 7.24-.85 10.03-2.87 2.7-1.95 4.03-5.27 2.48-8.38-.24.9-.47 1.81-.71 2.71 1.28-.59 2.91-.2 4.27-.33 1.46-.14 2.95-.57 4.05-1.6s1.57-2.44 1.44-3.9-.88-2.76-.88-4.19l-2.06 2.06c1.94.09 3.78.3 5.71.05 2.08-.27 7.57-1.87 8.42 1.1.54 1.89 3.62 2.11 4.05 0 .26-1.29 1.26-2.09 2.5-2.44.19-.05 1.07-.19.71-.15.47-.06.94-.1 1.41-.15 2.52-.23 5.06-.33 7.59-.39 2.97-.06 5.94.09 8.91-.06 2.11-.11 4.21-.3 6.31-.56 1.08-.13 2.15-.28 3.23-.44.79-.12 2.09-.57 2.82-.28l-.95-.56c.69.55.89 2.34 1.13 3.2.37 1.35.7 2.71.99 4.07.62 2.85 1.07 5.74 1.43 8.64.18 1.39.34 2.79.49 4.18.16 1.39.43 2.85.33 4.25-.19 2.46-2 4.49-3.53 6.28s.38 4.52 2.6 3.37c-.15.08-.07-.16.16.08.13.13.24.2.35.35.41.57.39 1.47.41 2.14.05 1.96.08 3.9.27 5.86.4 4.02 1.15 7.99 1.91 11.95.52 2.68 4.61 1.55 4.1-1.13-.96-5-1.91-10.02-1.99-15.12-.03-2.34.03-4.82-1.62-6.69-1.48-1.66-3.79-2.14-5.76-1.13.87 1.12 1.73 2.25 2.6 3.37 1.83-2.12 3.71-4.36 4.47-7.12.79-2.89.08-6.09-.25-9-.71-6.21-1.5-12.64-3.72-18.53-.48-1.27-1.23-2.4-2.63-2.76-1.56-.4-3.43.25-4.99.48-3.18.47-6.39.77-9.61.87-4.17.14-8.33-.04-12.5.21-1.83.11-3.76.15-5.55.59-2.65.65-5.12 2.75-5.65 5.5h4.05c-.59-2.02-2.1-3.44-4.04-4.19-2.14-.83-4.44-.5-6.65-.19-1.28.18-2.42.43-3.68.44s-2.54-.15-3.81-.2c-1.1-.05-2.07.98-2.06 2.06.01 1.22.36 2.32.71 3.48.23.77.52 1.51-.33 1.93-.92.45-2.07.31-3.06.33-1.46.02-2.77.24-4.09.86-1.01.48-1.16 1.83-.71 2.71.85 1.67-1.14 3.16-2.42 3.77-2.06.99-4.42 1.28-6.68 1.29-1.36 0-2.38 1.33-2.02 2.65.68 2.48 1.37 4.96 2.05 7.45.64 2.33 1.15 4.4.75 6.81-.76 4.68 2.88 7.02 6.84 8.26-.31-1.16-.61-2.32-.92-3.48l-2.57 2.89c-.85.96-1.71 1.71-1.5 3.11.34 2.25.88 4.5 1.46 6.7 1.19 4.46 2.66 8.94 4.73 13.07.78 1.55 3.27.47 2.78-1.17Zm-6.84-65.58v-.25c-.07.25-.14.5-.2.74l.04-.06-.55.55c.31-.23.53-.43.68-.79.1-.24.13-.48.14-.74v-.55l-.07-1.05c-.05-.72-.13-1.43-.22-2.14-.06-.46-.15-.84-.49-1.18-.29-.29-.76-.51-1.18-.49s-.88.16-1.18.49-.52.74-.49 1.18c.05.72.1 1.43.18 2.14l.12 1.05c.09.77.15 1.68.96 2.07l-.31-.24.05.05-.38-.65.04.25c.06.32.38.72.67.87s.6.22.93.17c.7-.09 1.27-.7 1.26-1.43Zm-10.96 4.83c-.85-1.16-1.79-2.22-2.89-3.14-.58-.48-1.18-.94-1.81-1.35s-1.37-.86-2.13-1c-.65-.12-1.39.07-1.72.7-.3.56-.29 1.41.24 1.85.33.28.67.5 1.05.71.28.16.57.32.85.48.55.32 1.07.68 1.58 1.05.16.12-.31-.25-.05-.04l.15.12c.13.1.25.21.37.31a15 15 0 0 1 2.02 2.11c.21.27.73.45 1.06.44s.64-.11.91-.32c.54-.42.83-1.33.39-1.94Zm-6.41 9.15c-1.19 0-2.37-.04-3.56-.09l-1.78-.08c-.74-.03-1.67-.21-2.31.23-1.02.7-1.02 2.03 0 2.74.64.45 1.56.26 2.31.23l1.78-.08c1.19-.05 2.37-.09 3.56-.09.75 0 1.46-.66 1.43-1.43s-.63-1.43-1.43-1.43m1.72 18.78c-2.13-.13-4.6.17-6.24 1.64-.5.45-.61 1.36-.25 1.92q.225.345.57.57c.3.19.88.3 1.22.16.4-.16.79-.35 1.19-.52l-.4.17c.46-.19.89-.42 1.35-.62l-.39.16c.73-.31 1.5-.52 2.28-.63l-.39.05c.35-.04.7-.04 1.06-.03.76.03 1.48-.69 1.45-1.45-.04-.82-.64-1.4-1.45-1.45Z"/><path d="M56.04 57.84c4.93.02 9.81-.28 14.73-.63s9.66-.7 14.48-1.3c.79-.1 1.55-.32 1.91.55.37.91.38 2.08.51 3.04.32 2.42.72 4.84 1.1 7.25.78 4.86 1.79 9.69 2.75 14.53.48 2.41 4.14 1.39 3.68-1.01-1.56-8.07-3.25-16.07-5.23-24.05-.36-1.45-.93-2.75-2.32-3.47-1.57-.82-3.88-.48-5.58-.41-4.09.17-8.19.6-12.27.93-4.74.39-9.45.85-14.15 1.59-1.73.27-1.27 2.99.4 2.99Z"/><path d="M88.71 55.91c6.27-.96 12.57-1.72 18.84-2.7 3.09-.48 6.18-.97 9.27-1.45 1.78-.28 7.62-.26 6.46-3.53-.31-.86-.93-1.29-1.82-1.38-.57-.06-1.12.2-1.51.6s-.67 1.13-.45 1.69l.04.09c.38.94 1.46 1.64 2.44.99l.07-.05h-1.76l-.61-.8.19-1.45c.32-.51.88-.44.09-.44-.31 0-.66.11-.97.16l-2.19.37c-1.38.23-2.76.46-4.13.69-2.76.46-5.51.91-8.27 1.38-5.5.93-10.97 2.05-16.48 2.98-1.88.32-1.07 3.13.79 2.85"/><path d="M82.5 21.36c1.23 10.25 2.22 20.63 4.82 30.65.32 1.25 2.34 1.02 2.29-.31-.43-10.34-2.48-20.55-4.28-30.72-.28-1.58-3.02-1.23-2.82.38Z"/><path d="M84.27 22.45c-1.47 2.22.95 4.02 2.99 4.16 2.86.2 5.79.06 8.66-.03 5.72-.17 11.68-.37 17.28-1.59 1.38-.3 1.09-2.55-.33-2.47-4.44.24-8.86.88-13.3 1.11-2.18.12-4.37.19-6.56.21-1.13.01-2.27.02-3.4 0-.43 0-2.89-.29-3.03-.06.89-1.47-1.36-2.76-2.29-1.34Z"/><path d="M114.82 25.27c1.47 0 1.47-2.28 0-2.28s-1.47 2.28 0 2.28m.19 11.46c.22 2.04.37 4.08.56 6.12.09 1.02.2 2.04.31 3.06s.09 2.22.38 3.23c.48 1.65 2.89 1.3 2.96-.4.04-1.04-.27-2.19-.42-3.22s-.29-2.03-.45-3.04c-.32-2.02-.66-4.04-.94-6.07-.19-1.35-2.54-1.04-2.39.32Zm-44.25-10.1c-.51.4-.59.54-.25.42l.16-.03c.31-.06.63-.09.94-.13l1.64-.21c1.17-.14 2.34-.27 3.51-.38 2.34-.22 4.7-.29 7.05-.31 1.96-.01 1.95-3.12 0-3.03-2.82.13-5.64.37-8.45.67-1.43.15-2.86.35-4.29.57-1.19.18-2.55.34-2.92 1.71-.46 1.69 2.14 2.4 2.62.72ZM56.42 37.31c.96 6 1.95 12 2.96 17.99.26 1.55 2.89 1.21 2.76-.37-.24-3.03-.93-6.05-1.48-9.03-.57-3.09-1.2-6.17-1.83-9.25-.33-1.6-2.66-.9-2.41.66m5.54 24.35c.57 3.28 1.13 6.58 2.16 9.75.51 1.57 1.13 3.1 1.72 4.64s1.04 3.11 1.56 4.68c.56 1.69 2.9.98 2.62-.72-.53-3.22-2.21-6.24-3.21-9.33s-1.68-6.44-2.32-9.71c-.32-1.66-2.8-.94-2.52.69Zm54.38-7.59c.26 3.32.58 6.64.98 9.95.2 1.62.42 3.24.67 4.85s.39 3.42.88 5.02c.42 1.37 2.67 1.19 2.59-.35s-.5-3.24-.75-4.83-.5-3.23-.73-4.85c-.48-3.25-.87-6.51-1.21-9.78-.16-1.54-2.56-1.58-2.44 0Zm-.88-23.56c1.88 0 1.88-2.92 0-2.92s-1.88 2.92 0 2.92"/></svg>