<?xml version="1.0" encoding="UTF-8"?><svg xmlns="http://www.w3.org/2000/svg" viewBox="0 0 180 180"><path d="M94.48 167.72c-8.88-6.25-17.64-12.86-25.65-20.2-8-7.33-15.35-15.54-20.21-25.32-4.34-8.73-6.69-19.83-2.76-29.15 1.86-4.43 5.41-8.4 9.85-10.33 3.79-1.65 7.9-1.49 11.78-.26 4.91 1.55 9.26 4.68 12.89 8.27s6.73 7.87 8.81 12.59c.81 1.84 3.97 1.35 4.33-.57 1.71-8.89 4.89-18.53 12.02-24.57s18.57-5.78 25.6.57c8.13 7.34 9.81 19.48 6.79 29.59-3.48 11.6-12.07 21.18-20.61 29.42-9.42 9.1-20.17 17.98-24.5 30.8-.74 2.2 2.89 3.8 3.81 1.61 4.88-11.54 14.41-19.72 23.26-28.2 9.29-8.9 18.45-19.12 22.46-31.59 3.68-11.43 1.94-25.06-6.66-33.9-7.71-7.92-20.59-9.86-30.13-4.08s-14.47 18.22-16.6 29.08l4.33-.57c-3.98-9.14-11.83-17.57-20.96-21.69-4.59-2.07-9.57-3.07-14.57-2.11-5.37 1.03-9.98 4.5-13.23 8.79-6.91 9.11-6.43 22.08-2.69 32.37 3.97 10.92 11.37 20.29 19.66 28.27 9.54 9.17 20.55 16.43 31.37 23.96 1.71 1.19 3.32-1.6 1.63-2.79Z"/><path d="M37.69 93.15c-1.89-6.84-3.17-14.04-1.91-21.03S41.2 58.35 47.7 55.49c-1.83 4.69 1.55 10.52 6.46 11.65s10.28-2.24 11.81-7.03c3.03-9.48-7.21-19.94-3.13-29.01 1.78-3.97 5.83-6.33 8.88-9.44s5.04-8.42 2.09-11.63c4.6-.1 7.88 4.78 8.34 9.36s-.95 9.13-1.08 13.73c-.12 3.97.73 7.97 2.46 11.55 1.79 3.71 4.66 7.07 8.5 8.57s8.69.74 11.29-2.45 1.98-8.75-1.66-10.68c10.18-1.83 21.05 6.19 22.29 16.46.23 1.93.19 3.95 1.04 5.69 1.35 2.75 5.05 4.06 7.83 2.78s4.19-4.94 2.97-7.76c6.83 4.81 6.94 16.54.2 21.48.99-2.53-1.93-4.8-4.45-5.82-9.61-3.91-21.74-4.78-29.39 2.24-5.52 5.07-7.38 12.99-11.98 18.9-7.03-8.04-16.39-14.89-27.05-15.54-10.66-.64-22.18 6.93-22.87 17.59"/><path d="M39.2 92.74c-1.76-7.23-3.08-14.93-1.05-22.26 1.57-5.66 5.15-10.75 10.59-13.21l-3.02-2.32c-2.1 5.78 1.92 12.83 7.91 14.11 6.18 1.33 12.68-2.89 14.3-8.94s-1.18-12.03-2.94-17.69c-.81-2.61-1.57-5.43-1.15-8.18.48-3.13 2.57-5.37 4.85-7.38 2.72-2.41 5.66-4.62 7.22-8.01s1.78-7.19-.78-10.16l-1.32 3.2c2.19 0 3.88 1.44 4.98 3.25 1.41 2.31 1.67 4.89 1.52 7.55-.19 3.33-.97 6.6-1.13 9.94-.15 3.11.26 6.28 1.2 9.25 1.63 5.16 4.92 10.36 9.98 12.71 4.65 2.16 10.85 1.65 14.28-2.49s2.71-10.93-2.01-13.7l-.47 3.57c7.11-1.2 14.49 2.99 17.95 9.13.87 1.55 1.51 3.18 1.86 4.93.42 2.1.31 4.29 1.12 6.31 1.45 3.62 5.63 5.69 9.4 4.6 4.09-1.18 6.56-6.2 5.03-10.16l-2.66 2.04c5.57 4.1 5.71 14.1.15 18.27l2.8 2.15c1.57-4.76-3.9-7.54-7.5-8.83-4.08-1.47-8.4-2.38-12.75-2.48s-8.55.66-12.35 2.6c-4.04 2.06-7.03 5.46-9.32 9.31-2.59 4.35-4.42 9.13-7.52 13.17l3.24-.42c-6.25-7.1-14.26-13.44-23.69-15.5-8.51-1.86-17.62.36-23.91 6.53-3.42 3.36-5.51 7.69-5.88 12.47-.2 2.68 3.97 2.66 4.17 0 .53-7.03 6.58-12.4 12.96-14.46 7.77-2.51 15.85-.12 22.5 4.19 4.1 2.65 7.69 6.02 10.92 9.68.97 1.1 2.49.56 3.24-.42 4.64-6.06 6.41-14.53 12.63-19.33 5.79-4.46 13.81-4.51 20.61-2.88 1.98.47 4 1.05 5.86 1.89 1.23.55 3.65 1.8 3.1 3.46-.49 1.48 1.45 3.16 2.8 2.15 7.91-5.96 7.87-18.89-.24-24.68-1.23-.87-3.24.6-2.66 2.04 1.17 2.89-.64 6.5-4.09 6.04-1.44-.19-2.84-1.08-3.44-2.43-.81-1.82-.57-4.04-.87-5.97-1.07-6.95-6.3-12.9-12.66-15.67-3.78-1.64-7.78-2.19-11.85-1.5-1.68.28-1.85 2.81-.47 3.57 3.28 1.8 2.93 6.69.17 8.79-3.64 2.77-8.72 1.39-11.82-1.49-3.73-3.47-5.72-8.75-6.03-13.76-.36-5.84 1.92-11.61.82-17.44-.92-4.88-4.69-9.7-10-9.72-1.71 0-2.35 2.01-1.32 3.2 1.67 1.93.74 4.81-.4 6.76-1.44 2.45-3.8 4.15-5.9 5.99s-4.19 4.06-5.28 6.8c-.95 2.38-1.05 4.95-.71 7.47.73 5.28 3.32 10.07 4.24 15.31.41 2.32.36 4.92-.78 7.04s-3.16 3.77-5.5 4.41c-5.25 1.45-10.36-3.94-8.49-9.1.68-1.86-1.55-2.98-3.02-2.32-6.23 2.82-10.41 8.9-12.19 15.37-2.21 8.04-.68 16.67 1.71 24.48.59 1.92 3.49 1.13 3.01-.83Z"/><path d="M36.75 66.8c-3.11 6.73-5.07 20.2-9.78 21.53-5.73 1.61-7.88-5.42-7.97-9.79-3.19 4.7-5.88 9.86-6.88 15.45s-.15 11.68 3.19 16.27c4.95 6.81 14.02 9.02 20.68 14.17 2.61 2.02 4.24 4.99 2.2 8.11-3.85 5.89-12.02 3.36-16.19-.58-.71 2.61 2.59 8.34 4.1 10.59 6.34 9.47 16.85 15.26 27.57 18.23 6.71 1.86 13.45 3.65 20.2 5.37s13.17 3.21 19.8 3.84c-6.82-4.78-13.14-8.54-19.97-13.3-4.17-2.91-8.36-5.83-11.91-9.48-2.6-2.68-4.82-5.7-7.02-8.72-3.33-4.55-6.65-9.1-9.98-13.65-2.42-3.31-3.11-5.4-4.56-9.23-3.18-8.38-2.62-19.84 3.89-26"/><path d="M35.7 66.19c-2.59 4.7-3.61 10.07-5.58 15.03-.67 1.7-1.58 3.96-2.98 5.05-.11.09-.64.34-.57.31-.51.16-1.09.23-1.62.16-.87-.13-1.59-.7-2.12-1.39-1.44-1.87-1.93-4.52-2-6.82-.05-1.88-2.41-2.42-3.42-.93-3.66 5.42-6.63 11.42-7.37 17.98-.67 6.03.81 12.28 4.75 16.96 3.54 4.21 8.63 6.62 13.37 9.19 3.37 1.82 12.37 5.98 7.65 10.73-3.46 3.48-9.43.9-12.43-1.91-1.03-.96-2.93-.63-3.27.86-.51 2.22.33 4.47 1.2 6.49s1.88 3.85 3.07 5.62c3.11 4.65 7.22 8.53 11.87 11.63s9.98 5.46 15.4 7.07c6.39 1.9 12.9 3.48 19.35 5.14 7.47 1.92 14.97 3.74 22.66 4.53 2.08.21 2.36-2.61.97-3.58-6.14-4.32-12.55-8.25-18.75-12.5S64.3 147.6 59.8 141.94c-2.4-3.01-4.6-6.17-6.87-9.27s-4.72-6.29-6.95-9.52c-1.65-2.38-2.7-4.97-3.72-7.67-.93-2.47-1.61-5.04-1.85-7.68-.53-5.97.62-12.52 5.08-16.84 1.8-1.75-.95-4.5-2.75-2.75-9.09 8.81-7.09 23.31-2.06 33.63 1.58 3.25 3.97 6.08 6.1 8.99 2.47 3.38 4.93 6.77 7.41 10.14 2.3 3.12 4.68 6.2 7.5 8.87s5.76 4.82 8.82 6.98c7.27 5.13 14.88 9.74 22.19 14.81l.97-3.58c-6.37-.61-12.63-2.08-18.82-3.64s-12.54-3.27-18.78-5.01c-10.02-2.81-19.67-7.22-26.43-15.42-1.47-1.79-2.72-3.76-3.81-5.8-.54-1.02-1.06-2.06-1.44-3.15-.28-.81-.62-1.97-.49-2.56l-3.27.86c3.59 3.3 9.15 5.7 14.04 4.16 2.53-.8 4.7-2.68 5.75-5.12 1.33-3.09.13-6.29-2.2-8.51-4.21-4.02-10.08-6.04-14.96-9.06-2.38-1.47-4.66-3.21-6.34-5.48-1.89-2.55-2.96-5.69-3.24-8.84-.68-7.69 2.73-14.8 6.92-21.02l-3.42-.93c.15 5.23 2.82 12.8 9.38 11.72 2.56-.42 4.17-2.39 5.29-4.6 1.38-2.72 2.24-5.7 3.09-8.62.96-3.3 1.81-6.68 3-9.91.47-1.3-1.56-2.12-2.21-.93Z"/><path d="M136.34 57.22c4.65 3.53 7.69 9.74 8.67 15.49.85 4.95.08 10.05.7 15.03s3.24 10.3 8.05 11.72c.97.29 2.01.4 3.01.18 2.34-.5 3.99-2.74 4.52-5.07s.17-4.76-.19-7.13c4.32 3.55 7 9.01 7.16 14.59s-2.19 11.2-6.29 14.99c-8.38 7.75-22.41 7.41-29.81 16.1-1.14 1.34-2.11 2.99-1.97 4.74.21 2.6 2.88 4.44 5.48 4.65s5.12-.81 7.53-1.8c-5.8 7.46-15.18 10.99-24.03 14.3s-19.51 7.16-24.87 14.94c5.82-11.84 14.51-19.95 26.52-30.44 4.33-3.78 14.99-15.04 18.02-19.93 2.09-3.38 3.92-4.73 5.06-8.54.88-2.93 1.71-5.91 1.8-8.97.07-2.32-.29-4.62-.79-6.89a58.2 58.2 0 0 0-8.82-20.39"/><path d="M135.23 58.33c3.37 2.81 5.68 6.65 7.04 10.79 1.6 4.88 1.27 9.82 1.38 14.88.09 4.33.8 8.81 3.33 12.44 2.3 3.29 6.61 6.22 10.79 4.82 5.82-1.94 5.93-8.78 5.26-13.8l-3.29 1.36c4.59 3.94 7.17 10.07 6.3 16.13s-4.63 10.75-9.81 13.64c-4.7 2.63-9.98 3.96-14.93 6.04s-11 5.35-12.79 10.74c-1.13 3.39.7 6.78 3.81 8.3 3.77 1.83 7.79.54 11.44-.94l-2.02-3.47c-9.91 12.18-27.22 13.35-39.96 21.26-3.59 2.23-6.79 4.96-9.19 8.46l3.42 2c3.36-6.94 8.17-12.97 13.58-18.43s11.07-9.87 16.33-15.1c4.59-4.56 9.07-9.32 13-14.46.8-1.05 1.5-2.15 2.24-3.24.99-1.47 2.14-2.83 3.05-4.35 1.11-1.85 1.73-3.92 2.3-5.99.62-2.23 1.1-4.52 1.22-6.84.28-5.12-1.23-10.48-2.96-15.25s-4.04-9.32-6.9-13.52c-1.48-2.17-5.04-.12-3.55 2.07 2.44 3.6 4.53 7.45 6.1 11.51s2.89 8.35 3.2 12.65c.16 2.29-.1 4.52-.63 6.74-.46 1.95-.93 4.04-1.85 5.83-.8 1.54-1.9 2.89-2.9 4.3-.81 1.14-1.51 2.34-2.34 3.46-3.62 4.93-7.96 9.42-12.26 13.76-5.03 5.06-10.62 9.51-15.7 14.52-6.12 6.02-11.44 12.67-15.34 20.35-1.17 2.3 1.95 4.06 3.42 2 4.14-5.78 11.15-9 17.56-11.55 7.17-2.86 14.7-5.08 21.4-8.99 3.88-2.27 7.3-5.08 10.04-8.65 1.06-1.38-.72-3.73-2.35-3.05-2.65 1.1-6.12 2.73-8.88 1.1s-1.16-4.25.51-6.01c3.51-3.68 8.44-5.49 13.12-7.17 4.95-1.77 10.09-3.48 14.32-6.71 4.96-3.79 8.02-9.49 8.56-15.7.59-6.86-2.53-13.81-7.82-18.15-1.53-1.25-3.56-.07-3.23 1.88.38 2.21.85 4.64.12 6.83-.55 1.63-1.84 3.13-3.66 3.16-3.48.04-6.04-3.36-7.15-6.29-1.51-3.96-1.28-8.22-1.3-12.39-.02-4.38-.49-8.69-2.16-12.76s-4.26-7.96-7.96-10.64c-1.42-1.03-3.26 1.32-1.89 2.45ZM23.18 73.79c2.04 0 2.04-3.17 0-3.17s-2.04 3.17 0 3.17m1.39-7.66c1.84 0 1.84-2.86 0-2.86s-1.84 2.86 0 2.86m3.33 4.21c1.89 0 1.89-2.94 0-2.94s-1.89 2.94 0 2.94m105.01-24.79v-.28c.02-.2-.03-.39-.12-.57-.06-.18-.16-.34-.3-.47-.13-.14-.29-.24-.47-.3-.18-.09-.36-.13-.57-.13l-.39.05c-.25.07-.46.2-.65.38l-.23.3c-.13.23-.2.48-.2.74v.28c0 .2.04.39.13.56.06.18.16.34.3.47.13.14.29.24.47.3.17.09.36.13.56.13l.39-.05c.25-.07.46-.19.64-.38l.23-.3c.13-.23.2-.47.2-.74Zm6.1-2.28.29.27c.13.14.29.24.47.3.18.09.36.13.57.13.2 0 .39-.03.57-.13.18-.06.34-.16.47-.3l.23-.3c.13-.23.2-.48.2-.74l-.05-.39c-.07-.25-.2-.46-.38-.65l-.27-.29a1.1 1.1 0 0 0-.48-.31c-.18-.09-.37-.14-.57-.13-.2 0-.4.03-.57.13-.18.06-.34.16-.48.31l-.23.3c-.13.23-.2.48-.2.75l.05.39c.07.25.2.47.38.66m.21 6.82c1.91 0 1.91-2.97 0-2.97s-1.91 2.97 0 2.97m8.89-.81c1.94 0 1.94-3.02 0-3.02s-1.94 3.02 0 3.02m-1.67 5.98c1.78 0 1.78-2.77 0-2.77s-1.78 2.77 0 2.77"/><path d="M89.73 113.3c-6.49-.11-11.74 5-13.28 11.07-.85 3.36-.51 6.93 1.13 10 1.78 3.33 5.05 5 8.6 5.86 6.85 1.66 14.14.3 18.41-5.65 3.46-4.82 4.5-12.88-.35-17.22-1.46-1.3-3.27-2.15-5.2-2.45-1.77-.28-4.33-.55-5.68.89-.76.81-.8 1.86-.94 2.9-.13.97-.26 1.95-.42 2.92-.33 2.08-.49 4.19-.72 6.28l1.64-1.64c-4.68.46-9.25 1.9-13.66 3.5-2.33.84-1.35 4.57 1.03 3.75 4.17-1.44 8.18-3.51 12.62-3.97.96-.1 1.54-.68 1.64-1.64.3-2.78 1.13-5.47 1.48-8.25.05-.41.1-.82.13-1.23-.02.28-1.03.08-.01.16.62.05 1.24-.05 1.86.04 1.2.16 2.42.59 3.34 1.39 3.33 2.9 2.27 8.73.37 12.11-2.68 4.76-8.06 6.08-13.17 5.01-2.57-.54-4.92-1.67-6.45-3.89a9.7 9.7 0 0 1-1.6-6.73c.61-4.65 4.37-9.63 9.23-10.25 1.83-.23 1.96-2.92 0-2.95Z"/><path d="M90.98 129.51c1.87.98 3.61 2.21 5.32 3.44.89.64 1.78 1.3 2.66 1.94.43.31.85.62 1.28.93.46.33.94.76 1.5.87.68.13 1.33-.04 1.77-.6.4-.51.5-1.3.13-1.87s-.97-.92-1.53-1.31c-.43-.3-.85-.61-1.28-.91l-2.73-1.98c-1.74-1.24-3.5-2.49-5.41-3.47-.79-.41-1.89-.23-2.34.61-.42.79-.23 1.9.61 2.34Z"/></svg>