<?xml version="1.0" encoding="UTF-8"?><svg xmlns="http://www.w3.org/2000/svg" viewBox="0 0 180 180"><path d="M73.7 150.53c-9.21-8.41-19.43-15.71-29.37-23.23-9.37-7.09-18.92-14.2-25.55-24.1-3.25-4.85-5.87-10.38-6.46-16.25-.26-2.59-.25-5.28.42-7.81.47-1.75 1.33-3.52 2.4-4.81 4.95-5.98 14.12-6.63 21.36-5.04 5.03 1.1 9.54 3.46 13.4 6.93 5.2 4.67 8.26 10.84 9.91 17.56l3.42-.94c-1.84-6.08-3.83-12.34-4-18.74-.12-4.64 1.58-9.14 4.44-12.77 5.45-6.92 15.75-11.56 24.05-6.89 8.71 4.9 11.02 15.81 11.26 25 .34 12.51-2.94 24.99-6.95 36.74-4.58 13.45-10.99 26.15-17.67 38.66-1.11 2.07 2.03 3.92 3.16 1.85 6.49-11.91 12.74-24.04 17.35-36.82 4.5-12.48 8.15-25.92 8.03-39.28-.09-10.6-2.65-22.51-12.04-28.79-8.92-5.97-20.52-2.65-27.78 4.38-4.3 4.17-7.21 9.76-7.65 15.77-.55 7.4 2.1 14.92 4.37 21.84.71 2.16 4.02 1.28 3.42-.94-3.01-11.22-10.86-22.49-22.07-26.57-8.1-2.94-18.64-3.09-25.89 2.12-9.64 6.93-8.47 20.13-4.14 29.85 5.27 11.81 15.27 20.56 25.4 28.16 11.65 8.74 23.94 16.76 34.87 26.43 1.56 1.38 3.85-.88 2.3-2.3Z"/><path d="M124.43 152.23c-1.29-4.56-3.73-8.76-6.32-12.69-3.14-4.77-6.71-9.24-10.37-13.61-7.15-8.55-15.05-16.66-21.22-25.97-2.85-4.3-5.13-9.05-6.76-13.94-1.78-5.34-2.88-11.21-1.57-16.79 1.37-5.84 5.44-10.57 10.67-13.4 4.44-2.41 9.5-2.73 14.26-1.09 9.95 3.43 16.85 13.97 18.52 24.01.21 1.25.29 2.51.32 3.78.05 2.78 3.97 2.67 4.24 0 .94-9.53 8.23-18.11 17.3-20.99 4.82-1.53 10.43-1.57 15 .8 5.02 2.6 7.49 7.69 8.63 13.01 2.35 10.99-.83 21.97-7.33 30.92-5.54 7.63-12.87 13.78-19.61 20.29-7.46 7.21-15.01 15.35-17.92 25.57-.7 2.47 2.95 3.4 3.8 1.05 6.94-19.2 26.32-29.25 37.73-45.33 7.03-9.91 10.02-22.24 7.25-34.19-1.36-5.86-4.4-11.5-9.75-14.58-5.05-2.91-11.26-3.41-16.88-2.15-11.97 2.68-21.26 13.49-22.46 25.61h4.24c-.22-11.65-6.86-23.5-16.89-29.53-4.82-2.89-10.42-4.18-15.98-3.2-6.3 1.1-12.07 5.31-15.72 10.46-7.65 10.81-3.55 25.08 1.85 35.88 2.28 4.56 5.35 8.64 8.56 12.58 3.81 4.69 7.87 9.18 11.86 13.72 4.11 4.67 8.2 9.36 12.03 14.26 3.24 4.15 6.4 8.57 8.45 13.45.4.95.74 1.93 1.02 2.92.57 1.96 3.62 1.13 3.06-.84Z"/><path d="M94.94 54.67c3.1 2.44 4.99 6.16 5.94 9.99s1.05 7.81 1.15 11.75c.25 10.3.44 20.91-3.27 30.51-.85 2.19-1.88 4.72-.72 6.76.48.85 1.28 1.46 2.04 2.07 10.53 8.38 18.44 19.99 22.39 32.86 6.09-9.92 12.27-19.96 20.59-28.1 1.69-1.65 3.45-3.22 5.14-4.86 4.61-4.49 8.66-9.57 12-15.07 2.54-4.19 4.7-8.67 5.69-13.47s.76-9.95-1.31-14.39c-3.35-7.19-11.69-11.7-19.54-10.57-6.09.88-11.46 4.79-15.06 9.78s-5.58 10.97-6.78 17l-2.76-18.03c-.26-1.68-1.07-.22-1.8-1.76-1.12-2.37-2.69-7.29-4.88-8.73-4.71-3.1-10.1-5.15-15.67-5.98"/><path d="M93.85 55.76c5.34 4.65 6.01 12.12 6.15 18.76.15 7.24.37 14.63-.69 21.81a49.5 49.5 0 0 1-2.73 10.43c-1.22 3.21-1.92 6.67.73 9.4 1.13 1.16 2.53 2.09 3.75 3.16a74 74 0 0 1 3.52 3.33c2.23 2.27 4.31 4.7 6.18 7.27a68.6 68.6 0 0 1 9.75 19.24c.53 1.64 2.78 2.01 3.7.48 5.53-9.23 11.36-18.52 18.88-26.28 3.84-3.96 8.08-7.48 11.67-11.69 3.54-4.15 6.72-8.67 9.26-13.5 4.79-9.1 7.15-21.04.44-29.87-5.66-7.45-15.86-10.7-24.63-7.13-11.18 4.55-16.61 15.96-18.86 27.16h4.48c-.77-5.04-1.55-10.07-2.32-15.11-.31-2.04-.27-4.93-2.79-5.47-.83-.14-.82-.11.03.1.3.23.36.2.18-.08-.02-.21-.25-.56-.32-.73-.35-.83-.69-1.67-1.05-2.51-.71-1.64-1.5-3.24-2.63-4.64-1.22-1.5-3.09-2.44-4.77-3.33a41 41 0 0 0-13.06-4.32c-1.22-.18-2.46.31-2.82 1.6-.3 1.09.37 2.62 1.6 2.82 2.86.45 5.66 1.18 8.36 2.23 1.3.5 2.55 1.1 3.78 1.76 1 .53 2.5 1.33 3.09 1.89 1.31 1.25 2.04 3.33 2.74 5 .41.98.74 2.04 1.28 2.95.34.58.79 1.06 1.38 1.39.26.14.53.24.82.31l.62.08c-.2 0-.39-.05-.57-.13l-.83-.83c-.03-.2-.03-.19.02.04.03.14.06.28.07.42.07.4.12.81.19 1.22.12.81.25 1.62.37 2.44.24 1.54.47 3.09.71 4.63.48 3.17.97 6.34 1.45 9.51.35 2.27 4.05 2.16 4.48 0 1.8-8.91 5.46-18.24 13.78-22.94 7.07-4 15.89-2.5 21.2 3.68 6.49 7.55 3.74 18.63-.51 26.51-2.35 4.36-5.19 8.47-8.39 12.25s-7.23 7.28-10.85 10.96c-8.02 8.16-13.91 17.96-19.96 27.59l3.7.48c-3.8-12.72-11.42-24.27-21.6-32.79-.96-.8-2.62-1.67-3.07-2.9-.56-1.52.51-3.51 1.04-4.91 1.28-3.39 2.13-6.91 2.64-10.49 1.06-7.45.84-14.98.54-22.48-.31-7.85-1.56-16.13-8.24-21.18-1.39-1.05-3.18 1.27-1.87 2.42Z"/><path d="M78.94 69.45c3.09-1.22 6.3-2.21 9.47-3.21 1.56-.49 3.13-.96 4.71-1.4 1.63-.45 3.33-.75 4.92-1.31 1.88-.66 1.1-3.2-.81-2.92-1.66.24-3.32.82-4.93 1.28s-3.14.93-4.7 1.44c-3.19 1.04-6.26 2.32-9.36 3.57-.67.27-1.12.88-.92 1.62.17.63.96 1.18 1.62.92Zm-1.18 12.02c4.4-1.24 8.68-2.92 13.02-4.37s8.8-2.6 13.11-4.11c1.99-.7 1.21-3.61-.87-3.16-4.51.96-8.99 2.67-13.34 4.19-4.36 1.52-8.78 3-13 4.89-1.47.66-.42 2.99 1.08 2.57Zm1.79 11.75c7.31-2.96 14.68-5.75 22.13-8.33 1.98-.68 1.14-3.84-.87-3.16-7.6 2.57-15.09 5.48-22.41 8.76-1.52.68-.42 3.36 1.15 2.73m8.5 9.82c2-1.46 4.12-2.75 6.35-3.83 1.06-.52 2.15-.98 3.26-1.39 1.21-.45 2.49-.74 3.67-1.25.69-.3.9-1.29.63-1.91-.33-.75-1.03-1-1.81-.89-1.19.17-2.41.71-3.53 1.15-1.24.48-2.47 1.01-3.66 1.6a41.4 41.4 0 0 0-6.43 3.93c-.65.49-.98 1.3-.54 2.06.38.65 1.4 1.02 2.06.54ZM45.52 44.66c-.32-.48-.64-.97-.96-1.45a1.3 1.3 0 0 0-.43-.47 1.2 1.2 0 0 0-.57-.3c-.22-.07-.45-.08-.67-.03-.22.01-.43.08-.62.2l-.34.26c-.21.21-.35.46-.43.74l-.06.45c0 .3.08.59.23.85l.97 1.44c.11.19.25.35.43.47q.24.225.57.3c.22.07.44.08.67.03.22-.01.43-.08.62-.2l.34-.26c.21-.21.35-.45.43-.74l.06-.44c0-.3-.08-.58-.23-.84Zm19.34-11.63-.51-1.96c-.08-.32-.16-.65-.25-.96-.13-.44-.34-.83-.56-1.22-.3-.53-1.02-.85-1.61-.66s-1.05.73-1.05 1.38c0 .45.02.88.12 1.31.08.33.18.66.28 1 .18.65.37 1.3.55 1.95.11.38.38.74.73.94s.84.28 1.22.16c.82-.27 1.32-1.08 1.1-1.94Zm24.75-2.98c-.11-.97-.13-1.95-.06-2.92.04-.48.1-.95.15-1.43s.05-.98.11-1.46c.04-.33-.19-.8-.42-1.02s-.51-.35-.83-.4c-.75-.1-1.32.35-1.59 1.04-.18.47-.38.97-.47 1.47-.11.6-.17 1.2-.19 1.81-.04 1.12.06 2.23.23 3.34.05.35.42.78.72.94.32.17.64.23 1 .19.7-.09 1.45-.77 1.36-1.54Zm24.44 6.28c.93-.9 1.84-1.83 2.87-2.62l-.31.24c.06-.04.11-.09.17-.13.18-.1.32-.23.43-.39.13-.15.23-.32.27-.52.1-.36.06-.85-.15-1.17s-.52-.61-.91-.7-.84-.08-1.17.15c-.67.46-1.34.94-1.94 1.5-.25.24-.49.48-.73.73-.32.35-.61.72-.88 1.11-.2.29-.26.82-.15 1.15s.27.57.53.78c.59.45 1.42.41 1.96-.12Zm15.64 13.22c.16-.16.33-.32.48-.48s.3-.34.45-.52c.15-.14.26-.3.32-.5.1-.18.14-.38.13-.59 0-.21-.04-.41-.13-.59-.06-.19-.17-.36-.32-.5l-.31-.24q-.36-.21-.78-.21l-.41.05c-.26.07-.49.21-.68.4-.17.15-.35.3-.51.45s-.32.32-.48.48q-.225.21-.33.51c-.1.19-.14.39-.14.61s.04.42.14.61q.09.3.33.51l.32.25c.25.14.51.22.8.22l.42-.06c.27-.08.5-.21.7-.41Z"/></svg>