<?xml version="1.0" encoding="UTF-8"?><svg xmlns="http://www.w3.org/2000/svg" viewBox="0 0 180 180"><path d="M54.05 107.9c-6.81 7.85-13.11 16.12-19.57 24.25-3.18 4-6.38 7.99-9.73 11.84-2.17 2.5-4.4 4.94-6.32 7.65-1.84 2.59-3.57 5.68-3.64 8.94-.09 3.84 2.65 6.48 6.02 7.8 2.31.91 4.85.84 7.02-.39 1.79-1.01 3.03-2.68 4.36-4.19 1.77-2.01 3.62-3.92 5.26-6.05 1.54-2 2.96-4.09 4.36-6.19 6.06-9.1 12.52-17.94 18.88-26.84.77-1.07 1.53-2.15 2.3-3.22.64-.89 1.25-2.16 2.11-2.86.65-.52 1.41.12 2.18.48 1.26.58 2.54 1.12 3.83 1.65 4.71 1.91 9.63 3.32 14.63 4.23 9.34 1.7 19.09 1.73 28.31-.65 7.72-2 15.06-5.63 21.4-10.46 12.99-9.9 22.24-24.8 22.6-41.41.37-16.68-8.18-31.83-20.35-42.74-12.41-11.13-28.32-18.46-44.79-20.93-16.57-2.48-34.17-.26-48.48 8.89-7.53 4.82-13.91 11.36-18.13 19.29-4.19 7.88-6.29 17.1-5.93 26.02.33 8.14 2.9 15.9 7.24 22.78 4.46 7.06 10.44 13.52 16.75 18.98 3.09 2.67 6.44 5.2 10.35 6.54 2.73.93 3.9-3.38 1.19-4.31-3.49-1.19-6.53-3.76-9.23-6.19-2.9-2.62-5.64-5.45-8.27-8.34-5.21-5.72-9.72-12.27-11.96-19.75-4.68-15.57.54-33.5 12.02-44.79C49.9 16.67 66.13 11.86 81.91 12.17c15.64.3 31.34 5.23 44.4 13.84 12.69 8.36 23.42 20.73 26.63 35.9 3.16 14.97-2.36 30.48-12.6 41.52-10.62 11.46-25.47 18.15-41.1 18.28-9.55.08-18.94-2.02-27.78-5.58-2.18-.88-4.62-2.58-7.07-1.99-2.25.54-3.49 2.84-4.72 4.58l-9.1 12.94c-3.01 4.28-6.11 8.52-9.08 12.83-2.81 4.06-5.33 8.39-8.53 12.16-1.53 1.8-3.18 3.49-4.72 5.29-1.09 1.27-2.35 2.89-4.2 2.8-1.45-.07-3.24-.96-4.09-2.02-.64-.79-.77-1.59-.66-2.57.3-2.6 2.3-5.41 3.98-7.62 1.93-2.54 4.11-4.89 6.15-7.34 6.38-7.69 12.22-15.8 18.28-23.74 2.86-3.75 5.78-7.46 8.85-11.04 1.48-1.72-1.01-4.24-2.51-2.51Z"/><path d="M40.37 37.74c-4.45 3.55-6.34 9.1-7.05 14.56-.73 5.65-.14 11.49 1.37 16.98 2.95 10.71 9.57 20.2 17.79 27.57 15.51 13.91 37.52 21.28 58.17 16.69 18.27-4.06 32.58-20.52 35.77-38.71 1.67-9.54.33-19.72-4.9-28-5.87-9.29-15.46-15.76-25.34-20.17-11.72-5.23-24.95-8.44-37.82-8.52-11.72-.07-23.23 3.05-32.1 10.99-1.93 1.73-3.55 4-5.11 6.07-1.19 1.59 1.54 3.72 2.77 2.14 1.66-2.11 3.6-3.73 5.64-5.46 1.86-1.58 3.87-2.98 5.99-4.18 4.49-2.56 9.47-4.17 14.59-4.83 12.1-1.54 24.52.54 36.04 4.29 10.08 3.28 20.17 8.3 27.56 16.07 6.44 6.77 9.69 15.55 9.47 24.87-.39 16.81-11.77 33.19-27.34 39.53-8.56 3.49-18.44 3.9-27.48 2.35-9.64-1.65-18.79-5.54-26.8-11.14C45.18 87.37 31.76 66.37 38.43 45.8c.76-2.35 2.01-4.48 3.8-6.19 1.26-1.2-.57-2.9-1.87-1.87Z"/><path d="M93.21 96.98c-9.53-5.93-26.55-19.77-31.13-30.01-2.15-4.81-2.96-11.05.66-14.87 3.47-3.66 9.69-3.35 13.97-.67s7.09 7.12 9.75 11.41c-.24-4.04-.46-8.21.88-12.04 1.24-3.53 3.86-6.6 7.27-8.15s7.56-1.49 10.8.37c18.02 10.34-2.23 35.13-7.67 46.7-1.16 2.47-2.33 4.95-3.79 7.26"/><path d="M94.05 95.54c-4.33-2.7-8.26-5.93-12.14-9.23-4.33-3.68-8.45-7.62-12.17-11.93-3.26-3.77-6.12-7.92-7.06-12.91-.46-2.47-.34-5.4 1.28-7.45 1.48-1.87 3.85-2.54 6.15-2.47 7.06.23 11.24 6.99 14.55 12.34 1.03 1.66 3.99 1.09 3.86-1.05-.23-3.96-.55-8.17.97-11.93 1.2-2.98 3.69-5.64 6.77-6.69 5.41-1.84 11.58 1.42 13.54 6.48 1.69 4.37.5 9.3-1.11 13.68-1.88 5.13-4.65 9.92-7.39 14.63-1.36 2.34-2.76 4.66-4.06 7.03-1.78 3.26-3.16 6.71-5.13 9.87-1.44 2.32 2.22 4.45 3.66 2.14 1.93-3.09 3.29-6.47 5.02-9.66 1.26-2.32 2.62-4.59 3.95-6.86 3.11-5.32 6.17-10.74 8.22-16.57 1.84-5.25 2.79-11.18.45-16.43-2.85-6.39-10.27-10.24-17.09-8.64-4.28 1-7.96 4.13-9.97 8-2.41 4.65-2.28 9.89-1.97 14.97 1.29-.35 2.58-.7 3.86-1.05-3.59-5.79-7.8-12.23-14.81-14.07-6.53-1.71-13.73 1.31-15.11 8.38-1.19 6.1 1.37 12.22 4.91 17.08 3.71 5.09 8.28 9.48 13.06 13.55 5.04 4.29 10.45 8.18 16.06 11.68 1.82 1.14 3.49-1.74 1.68-2.87Zm-61.47 43.43c.29-.02.58 0 .87.02.18.02.65.08.84.11.42.07 1.14.21 1.66.35.28.08.56.16.83.26.14.05.27.1.41.15.07.03.37.15.16.06.56.25 1.1.54 1.61.86.25.16.49.32.72.49.07.05.31.25.13.09l.34.28a11.2 11.2 0 0 1 1.59 1.6c.06.08.24.31.09.11.17.23.34.47.49.72.46.72.73 1.41 1.48 1.9.49.32 1.19.29 1.69 0 .55-.32.76-.84.83-1.44.1-.86-.44-1.68-.9-2.37-.42-.63-.9-1.24-1.41-1.8-.94-1.03-2.07-1.91-3.29-2.59s-2.54-1.2-3.91-1.49c-.71-.15-1.43-.25-2.15-.27s-1.49.13-2.09.21c-.74.09-1.38.57-1.38 1.38 0 .71.63 1.42 1.38 1.38Zm-6.04 6.99c.29-.02.58 0 .87.02.18.02.65.08.84.11.42.07 1.14.21 1.66.35.28.08.56.16.83.26.14.05.27.1.41.15.07.03.37.15.16.06.56.25 1.1.54 1.61.86.25.16.49.32.72.49.07.05.31.25.13.09l.34.28a11.2 11.2 0 0 1 1.59 1.6c.06.08.24.31.09.11.17.23.34.47.49.72.46.72.73 1.41 1.48 1.9.49.32 1.19.29 1.69 0 .55-.32.76-.84.83-1.44.1-.86-.44-1.68-.9-2.37-.42-.63-.9-1.24-1.41-1.8-.94-1.03-2.07-1.91-3.29-2.59-1.21-.68-2.54-1.2-3.91-1.49-.71-.15-1.43-.25-2.15-.27s-1.49.13-2.09.21c-.74.09-1.38.57-1.38 1.38 0 .71.63 1.42 1.38 1.38Zm-6.04 6.99c.29-.02.58 0 .87.02.18.02.65.08.84.11.42.07 1.14.21 1.66.35.28.08.56.16.83.26.14.05.27.1.41.15.07.03.37.15.16.06.56.25 1.1.54 1.61.86.25.16.49.32.72.49.07.05.31.25.13.09l.34.28a11.2 11.2 0 0 1 1.59 1.6c.06.08.24.31.09.11.17.23.34.47.49.72.46.72.73 1.41 1.48 1.9.49.32 1.19.29 1.69 0 .55-.32.76-.84.83-1.44.1-.86-.44-1.68-.9-2.37-.42-.63-.9-1.24-1.41-1.8-.94-1.03-2.07-1.91-3.29-2.59s-2.54-1.2-3.91-1.49c-.71-.15-1.43-.25-2.15-.27s-1.49.13-2.09.21c-.74.09-1.38.57-1.38 1.38 0 .71.63 1.42 1.38 1.38ZM68.03 38.22l-.18-1.06q-.075-.3-.27-.51-.165-.24-.42-.39c-.17-.11-.36-.17-.56-.18-.2-.04-.4-.04-.6.03l-.36.15q-.345.195-.54.54l-.15.36c-.07.27-.07.53 0 .8.08.35.16.7.24 1.04.05.19.13.36.26.5.1.16.24.29.41.38.17.11.35.17.55.18.2.04.39.04.59-.03l.35-.15c.22-.13.4-.31.53-.53l.15-.35c.07-.26.07-.52 0-.79ZM79.9 34.2l.02-.75c0-.25.02-.5-.05-.75-.03-.12-.07-.23-.1-.35l-.14-.33q-.135-.24-.36-.39a.65.65 0 0 0-.31-.18 1 1 0 0 0-.54-.12l-.37.05-.33.14q-.24.135-.39.36c-.12.14-.21.29-.25.48-.03.12-.07.23-.1.35-.07.25-.05.5-.05.75l.02.75c0 .2.03.4.13.57.06.18.16.34.31.48.13.14.29.25.48.31.18.09.37.14.57.13l.39-.05c.25-.07.47-.2.66-.38l.23-.3c.13-.23.2-.48.2-.75Zm11.13.28c1.99 0 1.99-3.09 0-3.09s-1.99 3.09 0 3.09"/><path d="M26.74 168.31c2.21 2.06 5.74 2.1 8.5.89 2.76-1.22 4.92-3.46 6.95-5.69 11.43-12.58 21.17-26.58 31.83-39.81.45-.55.94-1.14 1.62-1.34.73-.21 1.49.06 2.21.32 7.32 2.63 15.04 3.93 22.73 5.09 9.41 1.42 18.97 2.65 28.43 1.66s18.97-4.42 25.69-11.15c6.73-6.74 10.18-17.13 7.15-26.16-.96-2.87-3.88-8.04-6.5-9.56.17 3.81-2.56 11.23-4.63 14.43-8.9 13.75-20.24 24.1-36.38 26.87-4.77.82-9.63.83-14.47.77-10.74-.14-21.67-.71-31.77-4.36-1-.36-2.05-.76-3.1-.57-1.43.27-2.41 1.54-3.25 2.72l-32.37 45.3"/><path d="M25.51 169.54c2.24 2.07 5.19 2.65 8.14 2.11 3.1-.57 5.71-2.53 7.91-4.69 4.99-4.92 9.4-10.55 13.74-16.04 4.36-5.5 8.54-11.14 12.89-16.64 2.22-2.81 4.46-5.61 6.73-8.38.26-.32.94-1.42 1.31-1.5.4-.09 1.51.53 1.94.69 1.79.65 3.61 1.2 5.45 1.68 7.04 1.85 14.29 2.91 21.49 3.9s14.94 1.71 22.44 1.08c12.38-1.05 25.17-5.91 32.39-16.54 3.67-5.41 5.58-12.15 4.87-18.69-.34-3.14-1.27-6.06-2.76-8.84-1.38-2.57-3.15-5.3-5.68-6.87-1.28-.79-3.05.23-3.01 1.73.05 2-.5 3.98-1.09 5.88-.65 2.11-1.46 4.19-2.5 6.14-2.13 4-5.15 7.73-8.16 11.1-6.24 6.98-13.97 12.5-23.05 15.07-5.79 1.63-11.73 1.85-17.71 1.81-6.01-.04-12.04-.21-18.01-.98-3-.39-5.97-1.01-8.89-1.78-1.33-.35-2.65-.74-3.95-1.18-1.63-.55-3.22-1.29-4.98-1.11-2.89.29-4.5 2.86-6.04 5.01l-5.76 8.1c-8.55 12.01-17.1 24.02-25.64 36.05-.65.92-.16 2.33.75 2.86 1.05.62 2.2.17 2.86-.75 7.74-10.76 15.47-21.54 23.2-32.31l5.8-8.08c.92-1.28 1.84-2.56 2.75-3.84.56-.79 1.31-2.28 2.3-2.64s2.83.67 3.8.98c1.53.5 3.07.94 4.63 1.3 3.01.7 6.08 1.15 9.15 1.53 6.13.75 12.32.93 18.49 1 5.99.07 12-.21 17.81-1.77 9.36-2.5 17.59-7.97 24.17-15.01 3.65-3.91 7.28-8.35 9.83-13.07 1.2-2.22 2.14-4.62 2.9-7.03.73-2.33 1.38-4.84 1.3-7.29-1 .58-2.01 1.15-3.01 1.73 1.92 1.18 3.22 3.49 4.26 5.42 1.14 2.1 1.92 4.34 2.23 6.72.68 5.28-.91 10.7-3.61 15.21-6.02 10.05-17.97 14.73-29.19 15.7-7.04.61-14.12 0-21.11-.9-6.79-.88-13.62-1.88-20.28-3.48q-2.31-.555-4.59-1.23c-1.63-.48-3.29-1.2-4.96-1.48-3.63-.61-5.6 3.27-7.47 5.71-4.08 5.31-8.05 10.7-12.15 15.99-4.59 5.91-9.23 11.78-14.15 17.41-2.21 2.52-4.42 5.36-7.25 7.21-2.3 1.5-5.74 2.46-8.1.51-1.7-1.4-4.14.92-2.46 2.46Z"/></svg>