<?xml version="1.0" encoding="UTF-8"?><svg xmlns="http://www.w3.org/2000/svg" viewBox="0 0 180 180"><path d="M85.87 131.37c-1.92-9.79-6.66-18.51-12.24-26.67-5.95-8.71-11.77-17.37-15.36-27.37-6.22-17.34-7.99-38.87 4.67-53.92 2.65-3.15 5.8-5.79 9.45-7.69 3.97-2.06 8.44-3.06 12.87-3.41 9.26-.73 18.94 1.55 26.07 7.73 15.76 13.65 13.93 37.63 8.5 55.69C116.59 86.5 111 96.11 105 105.55c-5.76 9.08-11.65 18.13-15.65 28.16-.97 2.43-1.71 4.89-2.24 7.44-.48 2.3 2.74 3.18 3.51.97 1.83-5.26 3.92-10.39 6.54-15.31s5.54-9.5 8.5-14.15c6.15-9.66 12.42-19.28 16.49-30.05 7.25-19.24 10.12-44.34-3.64-61.44-6.39-7.94-16.09-12.34-26.13-13.2-9.64-.83-19.67 1.35-27.36 7.38-6.98 5.47-11.63 13.52-14.04 21.96-2.83 9.91-2.21 20.17-.06 30.16 2.48 11.47 7.36 22.09 13.92 31.77 5.53 8.15 12.08 15.93 15.61 25.24.95 2.52 1.7 5.11 2.27 7.74.44 2.05 3.53 1.18 3.13-.86Zm.37 23.72c-9.41-.06-19.23-.03-27.64 4.2-.74.37-1.51.82-1.92 1.54-.8 1.42.11 3.23 1.31 4.34 2.61 2.42 6.34 3.13 9.86 3.58 8.56 1.1 17.13 1.2 25.73 1.25 8.67.05 20.16-1.06 25.64-2.75 3.57-1.1 7.27-4.95 3.34-8.39-1.42-1.25-3.33-1.76-5.17-2.19-17.42-4.08-35.79-4-53.18.21-1.25.3-2.53.65-3.52 1.45"/><path d="M86.24 153.36c-6.25-.32-12.65-.34-18.83.77-3.02.54-5.96 1.4-8.76 2.66-2.74 1.23-5.2 3.22-4.32 6.58.73 2.79 3.32 4.69 5.83 5.78 2.83 1.22 5.87 1.61 8.91 1.97 6.84.8 13.74.99 20.63 1.06 5.87.06 11.68-.15 17.51-.81 2.72-.3 5.44-.66 8.12-1.16 2.18-.4 4.49-.83 6.46-1.9 2.19-1.18 4.16-3.23 4.41-5.8.28-2.85-1.9-5.28-4.31-6.48-2.75-1.38-6.01-1.9-9-2.5-3.34-.66-6.73-1.12-10.12-1.46-7.42-.75-14.9-.79-22.32-.06-3.78.37-7.55.9-11.28 1.62-3.36.64-7.19 1.07-9.95 3.23-1.85 1.45.6 4.65 2.53 3.28.93-.66 1.94-.93 3.04-1.2 1.52-.37 3.06-.7 4.6-1.01 2.81-.55 5.65-1.01 8.5-1.33 5.84-.66 11.75-.88 17.62-.67 5.78.2 11.5.9 17.18 1.92 2.14.38 12.77 1.87 8.62 5.95-1.35 1.33-3.21 1.76-5 2.16-2.03.45-4.09.79-6.16 1.03-5 .58-10.01.8-15.04.83-5.85.04-11.71-.06-17.55-.4-3-.17-5.99-.42-8.97-.79-2.31-.28-4.77-.61-6.89-1.63-1.03-.5-2.2-1.17-2.79-2.19-.55-.95-.06-1.12.83-1.57 2.64-1.35 5.51-2.25 8.39-2.88 5.97-1.3 12.05-1.29 18.12-1.52 2.23-.09 2.22-3.34 0-3.45ZM39.66 75.8c-1.23-.88-2.73-1.28-4.2-1.56-.8-.15-1.61-.27-2.42-.37-.86-.1-1.64-.07-2.5.04-.74.1-1.35 1.03-1.32 1.73s.53 1.59 1.32 1.73 1.61.21 2.43.25c.35.02.7.05 1.04.08.15.01.3.03.45.05.05 0 .61.07.35.04s.3.04.35.05c.15.02.3.05.45.07.53.07.63.09.3.04.1.01.2.03.3.04.15.02.3.05.45.07.79.13 1.54.22 2.33.21.57 0 1.16-.41 1.29-.98.14-.62-.11-1.15-.61-1.51Zm3.35 18.18c-1.65-.19-3.44.16-5.04.58-.75.2-1.49.44-2.21.73-.47.19-.94.39-1.4.6s-.95.41-1.27.81c-.43.54-.63 1.14-.34 1.81.23.55.87 1.09 1.51 1.02.43-.05.76-.12 1.14-.32.18-.09.36-.2.55-.29.32-.16.65-.32.98-.46.18-.08.19-.08.02-.01.1-.04.19-.08.29-.12.19-.08.39-.15.58-.22.34-.12.69-.23 1.03-.33.74-.21 1.5-.38 2.27-.51.08-.01.47-.07.18-.03.2-.03.39-.05.59-.08q-.27.03.03 0c.5-.05.99-.11 1.49-.19.75-.12 1.18-.99 1.09-1.67-.11-.8-.73-1.23-1.5-1.32Zm8.25 15.03c-1.75-.32-3.45-.15-5.09.54-1.65.7-3.39 1.91-4.07 3.62-.26.66.17 1.58.77 1.9.69.36 1.46.26 2.04-.26.48-.44.85-1 1.34-1.44l.2-.17c.2-.17-.06.08-.09.07.04.01.34-.24.39-.28.28-.19.58-.35.88-.5.06-.03.13-.06.19-.09.27-.13-.24.09-.05.02.15-.05.3-.11.45-.16.3-.1.62-.18.93-.25.16-.04.37-.04.52-.1-.07.03-.31.03-.1.01.09 0 .18-.02.27-.02.34-.03.67-.02 1.01 0 .73.05 1.35-.59 1.44-1.27s-.33-1.48-1.05-1.61Zm11.2 12.69s-.08.03-.13.04c-.07.02-.13.05-.2.08s-.14.05-.2.09l-.33.26-.26.33s-.01.02-.02.03l-.03.07-.13.26-.15.36q-.09.3-.03.6c0 .14.03.26.1.38.06.19.16.35.31.49l.31.24.36.15q.3.09.6.03c.2 0 .39-.07.56-.18l.26-.13.06-.03s.02-.01.03-.02a.7.7 0 0 0 .17-.13c.18-.12.32-.27.42-.46.06-.14.11-.27.17-.4.02-.04.03-.09.05-.13.07-.28.07-.56 0-.83a1.5 1.5 0 0 0-.4-.69c-.2-.19-.43-.33-.69-.4-.28-.07-.56-.07-.83 0ZM35.57 59.51c2.13 0 2.13-3.31 0-3.31s-2.13 3.31 0 3.31m100.85 12.33c7.27 3.3 11.9 11.37 10.58 19.33-.66 3.98-2.59 8.06-5.76 10.65-2.1 1.72-6.55 3.58-8.53.72-.97-1.4-.69-3.45.51-4.62 1.28-1.26 3.22-1.55 4.85-.84 3.28 1.41 4.87 5.52 5.21 8.83.7 6.83-2.93 14-8.97 17.32-1.36.75-4.36 2.27-5.77.97-.29-.27-.73-1.11-.23-1.35.76-.36 1.44.84 1.53 1.37.39 2.19-1.03 4.73-2.29 6.42-1.4 1.87-3.26 3.24-5.27 4.4-1.33.76-.42 3.18 1.08 2.56 2.56-1.07 4.73-2.79 6.46-4.96 1.72-2.16 3.39-4.99 3.44-7.82.05-2.68-1.78-5.22-4.59-5.37s-4.58 2.54-3.81 5.13c1.86 6.26 9.98 3.02 13.5.39 3.98-2.97 6.84-7.33 8.06-12.15s.83-10.36-1.89-14.65c-1.39-2.19-3.36-4.06-5.88-4.86-2.7-.86-5.74-.16-7.85 1.71-4.28 3.8-2.56 11.35 3.17 12.49 5.42 1.08 10.38-2.76 13.2-7.01 3.49-5.27 4.56-12.17 2.62-18.2-1.87-5.82-6.24-10.6-11.83-13.06-1.77-.78-3.33 1.82-1.54 2.63Zm-46.78 3.37c-1.05-3.73-10.66-12.41-13.6-16.82-1.86-2.8-3.44-5.91-3.65-9.27s1.23-6.97 4.18-8.58c3.3-1.81 7.7-.58 10.24 2.2 2.54 2.77 3.46 6.73 3.32 10.49-.1-3.62.89-7.39 3.34-10.06s6.51-3.98 9.87-2.63c4.54 1.82 6.27 7.74 4.92 12.44s-4.97 8.37-8.64 11.6-7.6 6.37-9.99 10.63"/><path d="M91.22 74.77c-.83-2.85-3.23-5.31-5.12-7.5-2.38-2.76-4.92-5.4-7.22-8.22-2.46-3.02-4.73-7.01-4.55-11.02s3.32-7.28 7.46-6.14c4.92 1.36 6.48 6.77 6.36 11.33h3.96c-.06-3.84 1.12-8.1 4.63-10.17 2.86-1.68 6.53-1.4 8.49 1.46 4.83 7.05-2.32 14.52-7.32 18.92-3.65 3.21-7.64 6.4-9.95 10.78-1.17 2.22 2.04 4.11 3.37 1.97 5.27-8.45 16.32-12.81 18.95-23.01 1.05-4.07.21-8.75-2.59-11.95-3.13-3.56-8.2-3.98-12.3-1.95-5.15 2.55-7.32 8.49-7.22 13.94.04 2.55 3.89 2.55 3.96 0 .13-5.21-1.58-10.87-6.21-13.78s-10.27-2.16-13.39 2.2-2.26 10.22.15 14.8c1.98 3.77 4.91 6.85 7.81 9.92 1.63 1.72 3.27 3.44 4.81 5.24.61.71 1.21 1.43 1.75 2.2.42.6.89 1.36 1.03 1.82.64 2 3.76 1.17 3.16-.87Z"/></svg>