<?xml version="1.0" encoding="UTF-8"?><svg xmlns="http://www.w3.org/2000/svg" viewBox="0 0 180 180"><path d="M48.66 91.11c-4.03-2.35-7.09-5.7-9.26-9.82-2.38-4.53-3.19-9.38-2.91-14.47.31-5.56 1.71-11.11 3.17-16.46s3.2-10.31 5.66-15.11c1.01-1.97 2.1-4.63 4.09-5.81 2.05-1.22 4.89-.66 7.13-.42 5.18.55 10.35 1.32 15.39 2.66 4.93 1.31 9.7 3.18 14 5.94 1.97 1.26 3.56 2.72 3.84 5.16.28 2.5-.26 5.19-.61 7.65-1.5 10.6-3.31 21.95-8.94 31.25-2.31 3.82-5.36 7.3-9.08 9.81-1.83 1.24-3.81 2.31-5.9 3.02s-4.3.99-6.42 1.63-4.15 1.69-5.46 3.56c-1.53 2.18-1.98 5.15-2.7 7.66-1.66 5.79-3.34 11.59-4.97 17.39-.74 2.62-2.15 5.64-.47 8.16.91 1.36 2.17 2.45 3.44 3.45 1.39 1.1 2.82 2.16 4.15 3.33.62.54 1.23 1.1 1.76 1.73.16.19.22.28.39.52.23.33.25.21.25.55 0-.56-.05-.06-.04-.05l-.05.18c.38-.18.42-.26.11-.23-.08-.05-1.12-.11-.79-.07-.65-.09-1.29-.2-1.94-.32-1.68-.31-3.34-.7-4.99-1.11-3.82-.93-7.6-1.99-11.35-3.17-1.79-.56-3.58-1.12-5.35-1.73-.7-.24-1.39-.49-2.08-.75s-1.21-.47-1.6-.65c-.23-.11-.59-.38-.83-.4-.44-.03-.08.39.07.39.04 0 .26-.29.3-.32.52-.52 1.05-.75 1.65-.95 1.77-.6 3.63-.92 5.45-1.3 1.66-.35 3.27-.77 4.8-1.51 2.18-1.05.28-4.3-1.9-3.25-1.24.6-3.63.82-5.25 1.11-1.99.35-4.07.67-5.91 1.57-1.97.96-4.03 3.3-3.32 5.64.64 2.1 3 2.82 4.84 3.54 7.41 2.91 15.37 4.88 23.18 6.39 1.52.29 3.06.61 4.61.74 2.69.21 4.74-2.1 4.09-4.78-.41-1.66-1.74-3-2.96-4.12-1.42-1.3-2.97-2.44-4.48-3.63-1.03-.81-3.27-2.27-3.25-3.69 0-.72.44-1.66.63-2.34.22-.8.45-1.59.67-2.39.45-1.59.89-3.18 1.33-4.77.85-3.11 1.71-6.21 2.56-9.32.42-1.51.83-3.03 1.25-4.54.37-1.36.65-2.82 1.27-4.09 1.06-2.2 3.46-2.78 5.65-3.24 2.41-.51 4.75-.98 7.04-1.94 4.68-1.96 8.73-5.27 11.91-9.2 7.34-9.08 9.91-20.68 11.81-31.94.49-2.92 1.07-5.84 1.49-8.77.42-2.89.59-5.81-.65-8.54-1.21-2.65-3.72-4.36-6.14-5.81s-5-2.65-7.63-3.67c-5.3-2.06-10.88-3.26-16.49-4.08-2.81-.41-5.65-.78-8.48-1.01s-5.65-.01-7.94 1.67-3.74 4.43-5.04 6.96c-1.36 2.65-2.54 5.4-3.58 8.19-2.1 5.64-3.64 11.51-4.76 17.41-1.14 5.99-1.73 12.21-.04 18.16 1.39 4.92 4.15 9.36 7.91 12.82 1.83 1.68 3.82 3.19 6 4.4 1.87 1.04 3.53-1.79 1.68-2.87Z"/><path d="M52.06 32.65c4.87 3.28 10.09 5.83 15.74 7.45 2.78.79 5.61 1.37 8.47 1.74s5.95.75 8.82.3c.73-.11 1.16-.98 1.07-1.64-.11-.79-.72-1.2-1.47-1.29-2.72-.33-5.48-.2-8.21-.56s-5.41-.92-8.05-1.66C63.16 35.5 58 33.33 53.35 30.44c-1.41-.88-2.65 1.3-1.29 2.21m65.17 87c4.44-2.46 8.34-6.14 11-10.47 2.88-4.69 4.11-10.27 3.97-15.73-.16-6.13-1.58-12.28-3.18-18.18-1.59-5.86-3.65-11.62-6.47-17.01-1.29-2.46-2.67-5.04-4.99-6.67s-5.25-1.76-7.98-1.53c-5.7.48-11.43 1.29-16.99 2.65s-10.94 3.34-15.78 6.32c-2.4 1.47-4.74 3.19-5.89 5.85-1.14 2.64-.94 5.49-.54 8.27.86 5.99 1.92 12.04 3.25 17.94s3.06 11.33 5.85 16.48c2.4 4.45 5.64 8.51 9.63 11.63 2.08 1.62 4.28 2.95 6.72 3.95s4.72 1.37 7.16 1.92c2.09.47 4.29 1.08 5.29 3.17.61 1.27.89 2.74 1.27 4.09.44 1.59.87 3.19 1.31 4.78.87 3.19 1.75 6.37 2.62 9.56.39 1.43.8 2.86 1.2 4.3.22.8.45 1.59.67 2.39s.69 1.74.63 2.52c-.1 1.34-2.38 2.82-3.37 3.59-1.55 1.22-3.14 2.39-4.58 3.74-1.16 1.09-2.41 2.4-2.77 4-.62 2.79 1.56 4.95 4.29 4.68 3.48-.34 6.95-1.2 10.33-2.02 4.17-1 8.34-2.08 12.43-3.39 1.66-.54 3.32-1.1 4.94-1.74 1.81-.71 4.1-1.43 4.73-3.5.74-2.43-1.47-4.82-3.53-5.74-1.85-.83-3.87-1.15-5.86-1.5-1.57-.28-3.89-.5-5.09-1.08-2.17-1.05-4.09 2.2-1.9 3.25 3.28 1.58 6.98 1.65 10.39 2.85.44.16.95.38 1.4.78-.13-.11.36.4.39.4.25.06.42-.31.21-.39-.1-.03-.83.4-1.01.49-.38.17-.03.02-.54.23-.29.11-.57.23-.86.34-.81.31-1.63.6-2.46.88-6.98 2.39-14.17 4.57-21.42 5.92-.64.12-1.29.24-1.94.32.36-.05-.5.03-.59.06h-.39c.26.3.35.34.28.14-.07-.16-.05-.35-.06-.04.01-.34.03-.24.25-.55.15-.21.24-.35.39-.52.56-.66 1.22-1.25 1.87-1.82 2.53-2.2 5.96-4.04 7.69-7.01 1.46-2.52-.1-5.77-.82-8.31-.8-2.86-1.62-5.72-2.44-8.58s-1.64-5.72-2.46-8.57c-.7-2.44-1.14-5.32-2.64-7.42-2.78-3.92-7.92-3.81-12.05-5.25s-8.02-4.32-11.03-7.66c-6.88-7.64-9.52-18.02-11.32-27.89-.51-2.81-1-5.64-1.4-8.47-.35-2.5-.92-5.24-.59-7.76.32-2.48 2.01-3.9 4-5.17a43 43 0 0 1 6.9-3.55c4.8-1.93 9.86-3.13 14.95-3.97 2.51-.41 5.04-.72 7.57-.99 2.18-.23 4.91-.75 6.91.44 1.98 1.18 3.08 3.85 4.09 5.81 1.25 2.45 2.33 4.97 3.27 7.55 1.87 5.14 3.25 10.46 4.37 15.81 1.13 5.43 1.88 11.18.58 16.65-1.02 4.31-3.23 8.44-6.25 11.69-1.55 1.66-3.35 3.02-5.31 4.16-1.85 1.08-.2 3.91 1.68 2.87Z"/><path d="M110.86 56.11c-4.66 2.89-9.81 5.06-15.08 6.55-2.57.73-5.19 1.27-7.84 1.63-2.8.38-5.63.25-8.42.59-.75.09-1.36.5-1.47 1.29-.09.66.33 1.52 1.07 1.64 2.8.43 5.8.08 8.6-.27 2.94-.37 5.84-.95 8.68-1.77 5.65-1.62 10.87-4.17 15.74-7.45 1.36-.91.12-3.09-1.29-2.21Zm-69.33 63.67c1.58-4.21 3.05-8.42 4.24-12.75s2.3-8.91 3.45-13.36c.57-2.23-2.89-3.19-3.45-.95-1.12 4.46-2.27 8.92-3.35 13.39-1.05 4.34-2.01 8.75-3.54 12.95-.61 1.67 2.04 2.37 2.65.73Zm83.88 25.81c-2.94-9.15-4.99-18.59-8.11-27.69-.7-2.04-3.91-1.19-3.25.9 2.87 9.18 5.26 18.52 8.41 27.61.64 1.84 3.56 1.08 2.95-.81ZM106.76 36.66c-.43-4.11-1.76-8.03-2.37-12.1-.53-3.52-.4-7.44 1.96-10.32 1.68-2.07 4.59-3.12 6.99-1.57 2.85 1.84 1.61 6.56.83 9.22-.63 2.13 2.54 3.52 3.62 1.53 1.42-2.64 3.86-4.49 6.76-5.24 2.38-.62 6.74-.64 7.77 2.19 1.1 3.01-1.58 5.82-3.84 7.35-3.27 2.22-6.87 4-10.25 6.04-4.16 2.51-8.29 5.09-12.19 7.99-1.91 1.42-.21 4.59 1.92 3.28 4.34-2.68 8.58-5.5 12.95-8.12 2.16-1.3 4.35-2.56 6.54-3.81 1.95-1.1 3.9-2.25 5.54-3.79 2.98-2.8 4.65-7.34 2.68-11.19-1.95-3.82-6.96-4.66-10.81-4.09-4.39.66-8.41 3.45-10.49 7.38l3.62 1.53c.96-3.34 1.74-7.73-.05-10.93-1.45-2.6-4.53-4.02-7.44-3.93-3.27.1-6.12 2.07-7.86 4.77-1.96 3.05-2.36 6.82-1.94 10.35.54 4.58 2.33 8.9 2.93 13.46.11.85.64 1.56 1.57 1.57.78 0 1.66-.73 1.57-1.57Zm-30.91 82.52-1.85 1.2c-.3.2-.61.39-.91.59-.4.27-.76.6-1.13.91-.28.23-.47.74-.45 1.09s.12.66.33.94c.2.26.48.48.8.55.42.1.8.03 1.19-.16.32-.16.67-.3.97-.49s.6-.4.91-.59l1.81-1.19c.36-.24.64-.57.76-.99.11-.4.06-.92-.17-1.28s-.57-.66-.99-.76-.9-.08-1.28.17Zm5.93 10.92a38 38 0 0 0-2.81 4.27c-.4.71-.19 1.73.56 2.13s1.71.2 2.13-.56c.82-1.49 1.74-2.93 2.76-4.3.22-.3.25-.83.15-1.17s-.37-.74-.7-.91c-.35-.19-.78-.28-1.17-.15l-.36.15c-.23.14-.41.32-.55.55Zm11.9 5.51c-.47 1.01-.89 2.05-1.22 3.11-.15.47-.28.95-.39 1.43-.05.23-.11.47-.15.7-.07.4-.06.74-.03 1.14.05.64.42 1.29 1.1 1.44.26.06.53.06.79 0 .31-.07.76-.38.89-.69s.3-.61.4-.92c.07-.23.1-.47.15-.7.11-.48.23-.96.38-1.44a24 24 0 0 1 .72-2.03c.05-.11.03-.06-.07.15.03-.06.05-.13.08-.19.06-.13.11-.25.17-.37.19-.41.29-.81.16-1.26-.1-.38-.4-.79-.75-.98-.72-.38-1.85-.24-2.23.59Zm43.4-68.35c5.6-.25 10.78 2.87 13.88 7.45 3.03 4.48 4.61 11.77.62 16.22-1.61 1.79-4.3 2.85-6.69 2.33-1.03-.22-2.64-.92-2.8-2.12-.15-1.12 1.02-2.11 2.01-2.31 3.1-.64 5.9 2.66 7.06 5.13 1.36 2.89 1.25 6.06.12 9-1.3 3.37-3.5 6.67-5.76 9.47-2.3 2.85-4.95 4.91-8.14 6.69-1.48.83-.49 3.35 1.17 2.78 3.85-1.32 7.02-4.37 9.5-7.5 2.57-3.24 5.01-6.88 6.45-10.78 1.42-3.84 1.19-8.02-.7-11.66-1.81-3.48-5.58-6.84-9.75-6.45-3.72.34-6.77 4.46-4.75 7.98 1.92 3.35 6.56 4.26 10.02 3.2 8.22-2.52 9.88-12.54 7.03-19.65-3.08-7.68-10.8-13.53-19.28-12.95-2.03.14-2.06 3.28 0 3.19ZM35.23 66.03c1.48-4.45 6.82-6.84 11.43-5.97s8.39 4.37 10.73 8.43c.71 1.24 1.32 2.55 2.23 3.66 1.58 1.94 4.05 3.14 6.56 3.18 1.46.02 3.13-.26 4.21.72.51.47.78 1.14 1.01 1.8 1.07 3.13 1.51 6.47 1.31 9.77-.04.67-.11 1.35-.4 1.95-.34.7-.94 1.23-1.57 1.68-2.7 1.94-6.13 2.7-9.45 2.57s-6.56-1.12-9.63-2.39c-1.54-.64-3.06-1.36-4.48-2.24-7.96-4.89-12.41-14.92-10.69-24.1"/><path d="M36.66 66.43c1.07-2.67 3.83-4.19 6.56-4.6 3-.45 5.99.74 8.27 2.65 1.29 1.08 2.4 2.36 3.34 3.75 1 1.49 1.7 3.17 2.76 4.62 2.15 2.96 5.5 4.6 9.15 4.54.61-.01 1.45-.18 2.03.07s.69 1.02.86 1.58c.57 1.84.94 3.73 1.05 5.65.09 1.57.44 3.75-.95 4.83s-3.14 1.67-4.84 1.99c-3.71.69-7.49-.28-10.96-1.55s-6.51-2.85-9.06-5.33c-4.93-4.79-7.53-12.2-6.6-19.05.14-1-.24-1.98-1.3-2.29-.93-.27-2.07.32-2.29 1.3-1.71 7.74.6 15.68 5.73 21.67 2.77 3.25 6.33 5.47 10.23 7.11 4.27 1.8 8.89 2.99 13.56 2.4 3.84-.49 9.62-2.41 10.4-6.82.41-2.31.21-4.75-.12-7.06-.3-2.08-.72-4.56-1.87-6.36-1.23-1.95-3.34-2.32-5.49-2.29-1.82.03-3.53-.31-4.98-1.49-1.63-1.32-2.36-3.39-3.47-5.11-1.09-1.7-2.41-3.29-3.95-4.6-3.42-2.92-7.72-4.59-12.23-3.79-3.96.7-7.46 3.52-8.68 7.38-.59 1.85 2.16 2.51 2.85.79Zm42.12 25.29c6.17-3.61 13.49-1.63 19.39 1.54 3.09 1.66 6.08 3.48 9.51 4.35s7.05.96 10.55.31c3.17-.58 6.52-1.88 8.83-4.19s4.03-5.53 3.45-8.73c-1.14-6.32-9.25-8.32-14.65-7.75-3.74.4-7.17 1.78-10.2 3.99-2.97 2.18-5.44 4.87-8.07 7.43-1.73 1.69.86 4.24 2.64 2.64 4.07-3.67 8.04-8.16 13.53-9.59 2.85-.74 6.03-.77 8.81.31 1.69.65 3.79 2.01 3.97 3.99.22 2.43-2.17 4.92-4.11 6-2.47 1.37-5.48 1.96-8.28 2.03-3.04.08-5.99-.55-8.78-1.74s-5.58-2.87-8.5-4.05c-6.29-2.54-13.74-3.05-19.62.81-1.63 1.07-.17 3.63 1.54 2.63Zm16.03 15.32c1.85 0 1.85-2.88 0-2.88s-1.85 2.88 0 2.88m5.57-4.12.18.41c.09.17.21.3.37.41.14.13.3.21.49.26l.38.05c.2 0 .38-.03.56-.12.12-.03.23-.1.32-.19.16-.1.28-.24.37-.41l.15-.35c.07-.26.07-.51 0-.77l-.11-.44c-.07-.25-.2-.47-.38-.66l-.3-.23c-.23-.13-.48-.2-.75-.2-.2 0-.4.03-.57.13-.18.06-.34.16-.48.31-.14.13-.25.29-.31.48-.09.18-.14.37-.13.57 0 .27.07.52.2.75Zm2.56 8.32c2.12 0 2.12-3.3 0-3.3s-2.12 3.3 0 3.3"/><path d="M100.69 91.4c5.7 3.83 13.26 4.76 19.72 2.42 1.9-.69 3.75-1.68 5.02-3.25s1.85-3.81 1.07-5.67c-.62-1.48-2.02-2.54-3.54-3.03s-3.17-.48-4.76-.28c-3.71.47-7.28 1.96-10.21 4.27-1.9 1.49-3.56 3.33-5.72 4.41"/><path d="M100.02 92.54c3.59 2.61 7.81 4.1 12.25 4.27s9.13-.74 12.61-3.3 5.29-7.57 2.16-11.17-8.68-3.13-12.81-1.88c-2.4.73-4.72 1.84-6.75 3.33s-4.03 3.34-6.18 4.85c-.77.55-1.15 1.44-.77 2.35.34.8 1.34 1.42 2.22 1.09 3.52-1.32 5.86-4.68 9.15-6.47 2.91-1.58 7.02-2.92 10.32-1.97 1.37.4 2.63 1.39 2.76 2.89.14 1.67-.96 3.18-2.25 4.11-2.75 2.01-6.54 2.72-9.88 2.72-4.01 0-8.07-1.06-11.53-3.11-1.49-.88-2.68 1.3-1.33 2.28Z"/></svg>