<?xml version="1.0" encoding="UTF-8"?><svg xmlns="http://www.w3.org/2000/svg" viewBox="0 0 180 180"><path d="M35.02 126.05c-3.06-3.82-7.07-9.96-10.14-13.78-2-2.49-4.01-5.01-5.22-7.86s-1.53-6.13-.11-8.88 4.84-4.74 8.2-4.18c3.86.65 6.22 4.14 7.67 7.4 1.09 2.44 1.96 4.97 2.34 7.56.97-4.05 2.04-8.28 5.06-11.41s8.64-4.67 12.44-2.23c3.14 2.02 3.94 6.05 2.91 9.34-1.03 3.3-3.52 6.04-5.94 8.68-5.37 5.86-10.28 9.9-16.27 15.26"/><path d="M36.42 125.23c-2.3-3.01-4.37-6.19-6.51-9.32-2.27-3.32-5.03-6.31-7.12-9.73-1.86-3.04-3.47-7.56-.86-10.69 2.21-2.65 6.02-2.96 8.55-.62 3.15 2.92 4.73 7.87 5.38 11.98.31 1.98 3.4 1.81 3.83 0 .94-3.9 1.94-8.18 5.03-11 2.4-2.18 6.65-3.34 9.54-1.44 3.17 2.09 2.65 6.39 1.02 9.25-2.24 3.94-5.88 7.28-9.11 10.4-3.75 3.63-7.72 7.01-11.61 10.48-1.92 1.71.91 4.52 2.82 2.82 4.05-3.62 8.19-7.13 12.08-10.93 3.78-3.69 8.18-7.75 10.22-12.72 1.74-4.24 1-9.48-2.81-12.35-3.83-2.87-9.34-2.21-13.18.3-4.83 3.16-6.54 8.8-7.82 14.12h3.83c-.72-4.58-2.61-9.65-5.8-13.11-3.11-3.37-7.87-4.36-11.96-2.18-4.41 2.34-5.97 7.34-4.94 12.02 1.1 4.98 4.77 8.71 7.75 12.64s5.91 8.17 9.13 12.04c1.17 1.4 3.68-.5 2.55-1.97Z"/><path d="M38.58 89.97c-2.17-4.8-6.34-7.76-11.63-7.93-4.51-.15-9.19 1.55-12.65 4.42-4.96 4.1-6.79 11.13-5.39 17.28.78 3.41 2.59 6.52 4.58 9.35 2.25 3.19 4.69 6.26 7.01 9.4s4.56 6.28 6.97 9.32c1.8 2.27 4.23 4.79 7.38 4.64s5.29-1.46 7.61-3.27c2.28-1.77 4.3-3.72 6.26-5.83 4.33-4.67 9.45-8.57 13.35-13.63 3.75-4.85 6.98-11.22 6.1-17.53-.75-5.38-4.67-9.4-9.49-11.55-2.91-1.3-6.26-2.07-9.46-1.95-3.47.13-6.74 1.37-9.7 3.12-1.36.81-2.56 1.86-3.31 3.27-.93 1.76 1.48 3.08 2.62 1.53.78-1.07 2.12-1.71 3.27-2.3 1.38-.71 2.8-1.31 4.32-1.68 2.79-.69 5.79-.55 8.58.08 4.45 1 8.53 3.74 9.77 8.33 1.38 5.06-1.09 10.61-3.83 14.76-3.12 4.74-7.49 8.25-11.42 12.27-1.9 1.95-3.9 3.8-5.92 5.62-1.65 1.48-3.42 3.04-5.34 4.17-.92.54-1.95.8-3 .91-1.23.13-2.14-.34-3.05-1.16-2.22-2-3.92-4.69-5.7-7.07-2.13-2.85-4.24-5.72-6.41-8.55-1.97-2.57-4-5.11-5.6-7.93-2.86-5.03-3.51-11.12-.27-16.16 2.31-3.59 6.54-5.73 10.71-6.2 4.69-.53 9.01 1.39 11.14 5.7.84 1.68 3.25.21 2.5-1.46Zm59.56 39.65c-3.06-3.82-7.07-9.96-10.14-13.78-2-2.49-4.01-5.01-5.22-7.86s-1.53-6.13-.11-8.88 4.84-4.74 8.2-4.18c3.86.65 6.22 4.14 7.67 7.4 1.09 2.44 1.96 4.97 2.34 7.56.97-4.05 2.04-8.28 5.06-11.41s8.64-4.67 12.44-2.23c3.14 2.02 3.94 6.05 2.91 9.34s-3.52 6.04-5.94 8.68c-5.37 5.86-10.28 9.9-16.27 15.26"/><path d="M99.55 128.8c-2.3-3.01-4.37-6.19-6.51-9.32-2.27-3.32-5.03-6.31-7.12-9.73-1.86-3.04-3.47-7.56-.86-10.69 2.21-2.65 6.02-2.96 8.55-.62 3.15 2.92 4.73 7.87 5.38 11.98.31 1.98 3.4 1.81 3.83 0 .94-3.9 1.94-8.18 5.03-11 2.4-2.18 6.65-3.34 9.54-1.44 3.17 2.09 2.65 6.39 1.02 9.25-2.24 3.94-5.88 7.28-9.11 10.4-3.75 3.63-7.72 7.01-11.61 10.48-1.92 1.71.91 4.52 2.82 2.82 4.05-3.62 8.19-7.13 12.08-10.93 3.78-3.69 8.18-7.75 10.22-12.72 1.74-4.24 1-9.48-2.81-12.35s-9.34-2.21-13.18.3c-4.83 3.16-6.54 8.8-7.82 14.12h3.83c-.72-4.58-2.61-9.65-5.8-13.11s-7.87-4.36-11.96-2.18c-4.41 2.34-5.97 7.34-4.94 12.02 1.1 4.98 4.77 8.71 7.75 12.64 3.04 4.01 5.91 8.17 9.13 12.04 1.17 1.4 3.68-.5 2.55-1.97Z"/><path d="M101.71 93.54c-2.17-4.8-6.34-7.76-11.63-7.93-4.51-.15-9.19 1.55-12.65 4.42-4.96 4.1-6.79 11.13-5.39 17.28.78 3.41 2.59 6.52 4.58 9.35 2.25 3.19 4.69 6.26 7.01 9.4s4.56 6.28 6.97 9.32c1.8 2.27 4.23 4.79 7.38 4.64 3.04-.14 5.29-1.46 7.61-3.27 2.28-1.77 4.3-3.72 6.26-5.83 4.33-4.67 9.45-8.57 13.35-13.63 3.75-4.85 6.98-11.22 6.1-17.53-.75-5.38-4.67-9.4-9.49-11.55-2.91-1.3-6.26-2.07-9.46-1.95-3.47.13-6.74 1.37-9.7 3.12-1.36.81-2.56 1.86-3.31 3.27-.93 1.76 1.48 3.08 2.62 1.53.78-1.07 2.12-1.71 3.27-2.3 1.38-.71 2.8-1.31 4.32-1.68 2.79-.69 5.79-.55 8.58.08 4.45 1 8.53 3.74 9.77 8.33 1.38 5.06-1.09 10.61-3.83 14.76-3.12 4.74-7.49 8.25-11.42 12.27-1.9 1.95-3.9 3.8-5.92 5.62-1.65 1.48-3.42 3.04-5.34 4.17-.92.54-1.95.8-3 .91-1.23.13-2.14-.34-3.05-1.16-2.22-2-3.92-4.69-5.7-7.07-2.13-2.85-4.24-5.72-6.41-8.55-1.97-2.57-4-5.11-5.6-7.93-2.86-5.03-3.51-11.12-.27-16.16 2.31-3.59 6.54-5.73 10.71-6.2 4.69-.53 9.01 1.39 11.14 5.7.84 1.68 3.25.21 2.5-1.46Z"/><path d="M64.36 109.33c.67-.46 1.47-.93 2.08-1.16.38-.14.77-.25 1.16-.35.22-.06.45-.12.67-.17.11-.02.23-.05.34-.07.19-.03.23-.04.12-.02-.11.01-.07.01.11-.01l.34-.03c.23-.01.45-.02.68 0q.255 0 .51.03c.11 0 .22.02.34.03-.18-.02-.16-.02.04.01.39.09.76.19 1.14.31.19.07.21.08.06.02.1.05.2.09.3.15.2.1.39.22.58.34.76.48 1.92.18 2.34-.61.45-.85.19-1.82-.61-2.34-1.88-1.22-4.14-1.54-6.32-1.21-2.12.32-3.99 1.47-5.66 2.77-.58.45-.53 1.43-.12 1.95s1.3.81 1.91.38Zm-4.6 7.04c2.51-1.21 5.38-1.91 8.16-2.06 1.33-.07 2.68-.04 4.01.15 1.5.21 2.88.73 4.33 1.09 1.78.44 3.09-2.23 1.3-3.08-2.9-1.39-6.62-1.71-9.79-1.47-3.38.26-6.51 1.24-9.47 2.88-1.65.91-.2 3.29 1.46 2.5Zm69.65-22.12c6.47-5.11 12.67-10.61 19.57-15.16 3.39-2.24 6.98-4.26 10.68-5.94.84-.38 1.69-.75 2.56-1.06s1.35-.21 2.11.36c1.13.84 1.93 2.09 2.44 3.39 1.15 2.95 1.31 6.54.74 9.63-.3 1.64-.85 3.46-2.12 4.62-.2.19-.44.4-.7.51-.28.11-.73.03-.28.26.26.14.04.01 0-.18-.05-.3-.13-.59-.16-.89-.14-1.45-.07-2.93-.16-4.39-.07-1.06-.24-2.1-.34-3.15-.09-.91-.27-1.76-.96-2.41-1.47-1.38-3.72-.84-5.31-.02-1.69.87-3.31 1.92-4.89 2.98-7.8 5.25-14.63 11.77-22.22 17.31-.82.6-1.2 1.61-.67 2.55.46.81 1.74 1.27 2.55.67 7.34-5.4 13.94-11.77 21.4-17 1.7-1.19 3.48-2.54 5.38-3.4.32-.15.97-.16 1.21-.36h.12c.26.03.19-.08-.22-.33-.06.06.04.63.04.73.05 1.25.05 2.49.11 3.75.12 2.76-.37 7.16 3.27 7.8 4.29.76 7-4.33 7.73-7.79.78-3.68.73-7.85-.45-11.45-1.05-3.21-3.76-7.41-7.58-7.51-2.17-.05-4.53 1.35-6.44 2.26s-3.89 1.98-5.74 3.14c-8.61 5.36-16.38 12.11-23.98 18.78-1.62 1.42.7 3.6 2.32 2.32ZM23.8 85.39c8.28-6.47 15.63-14.08 24.08-20.35 2.15-1.6 4.38-3.1 6.68-4.47 1.82-1.08 4.53-3.12 6.77-2.39 1.76.57 2.59 2.69 3.05 4.32.69 2.46 1.07 5.23.86 7.78-.09 1.18-.43 2.47-1.46 3.17-.79.54-1.65.55-2.19-.29-.6-.92-.64-2.19-.76-3.24-.16-1.48-.41-2.93-1.19-4.22-.3-.5-.87-.87-1.48-.85-2.9.13-5.19 1.98-7.45 3.63-2.05 1.5-4.03 3.08-5.99 4.69-4.19 3.44-8.34 6.92-12.79 10.03-1.92 1.34-.08 4.52 1.85 3.16 4.28-3.02 8.31-6.34 12.32-9.69 1.79-1.49 3.58-2.98 5.44-4.39.98-.75 1.98-1.48 2.99-2.19 1.08-.76 2.27-1.67 3.63-1.8-.49-.28-.98-.56-1.48-.85.85 1.24.75 2.61.84 4.04s.38 2.92 1.22 4.12c1.72 2.47 5.09 2.56 7.4.87 2.61-1.9 3.08-5.26 2.91-8.28-.17-3.01-.6-6.15-1.86-8.92-1.06-2.35-2.97-4.42-5.61-4.85-3.29-.54-6.39 1.42-9.08 3.07-5.38 3.3-10.27 7.34-14.98 11.52-5.32 4.72-10.45 9.66-16.01 14.11-1.62 1.3.67 3.53 2.28 2.28Zm1.24-28.09a66 66 0 0 0-3.86-3.62c-.65-.56-1.31-1.1-1.97-1.64-.35-.29-.7-.57-1.06-.85-.43-.34-.86-.75-1.35-1.01-.57-.3-1.33-.38-1.89 0-.41.28-.73.63-.86 1.12-.16.63 0 1.37.48 1.83.7.64 1.58 1.13 2.36 1.68.35.25.69.5 1.03.76.12.09.26.2.06.04.08.06.16.12.24.19l.54.42c1.36 1.09 2.68 2.23 3.95 3.42.63.59 1.72.67 2.34 0s.65-1.68 0-2.34Zm17.55-16.31c-.51-1.18-1.02-2.36-1.54-3.54l-.75-1.74c-.27-.61-.58-1.15-.98-1.69-.46-.62-1.16-.95-1.92-.63s-1.04 1.05-.89 1.82.39 1.44.7 2.14c.27.6.53 1.19.8 1.79.53 1.19 1.07 2.39 1.6 3.58.37.82 1.63 1.08 2.35.62.37-.24.69-.59.79-1.03.11-.48.02-.88-.17-1.32Zm23.3-5.36-.36-3.49-.18-1.75c-.07-.68-.09-1.39-.33-2.04-.28-.76-.93-1.26-1.77-1.15s-1.31.77-1.4 1.58c-.07.69.09 1.38.18 2.06l.24 1.74.48 3.47c.05.35.43.79.73.95.32.17.65.24 1.02.19.72-.1 1.46-.78 1.38-1.57Zm22.79 2.9c.02-.22.05-.44.08-.66-.04.28.04-.23.04-.23.06-.38.13-.76.2-1.14.15-.76.34-1.51.56-2.25.44-1.49 1.01-2.92 1.47-4.4.24-.78-.23-1.62-.95-1.93s-1.61-.03-2.04.67c-1.76 2.91-2.34 6.6-2.5 9.95-.04.82.75 1.61 1.57 1.57.93-.04 1.47-.69 1.57-1.57Zm19.12 9.03 2.16-2.7c.78-.98 1.64-1.93 2.24-3.03.38-.69.22-1.54-.4-2.03s-1.47-.4-2.06.12c-.85.75-1.51 1.69-2.21 2.57s-1.41 1.78-2.11 2.67c-.29.37-.49.71-.49 1.19 0 .41.18.91.49 1.19s.74.51 1.19.49c.42-.02.92-.15 1.19-.49Zm-79.76 85.35c-2.9-.07-5.82.6-8.39 1.93-1.91.98-3.84 2.83-3.4 4.93.39 1.85 2.39 2.82 4.17 3.47 22.45 8.22 46.96 8.53 70.85 7.62 16-.61 32.12-1.75 47.54-6.06 5.24-1.46 10.53-3.38 14.58-7.01 1.47-1.32 2.79-3.58 1.55-5.11-.59-.73-1.58-.99-2.5-1.19-11.45-2.44-23.31-1.78-35-1.1-1.62.09-3.32.21-4.68 1.1-1 .65-1.72 1.65-2.49 2.57-2.74 3.27-6.57 5.74-10.8 6.27s-8.8-1.06-11.34-4.49c-1.3-1.76-2.16-4.02-4.1-5.04-1-.52-2.15-.63-3.28-.72a732 732 0 0 0-26.51-1.76c-1.7-.08-3.42-.15-5.07.27-5.37 1.4-8.94 7.85-14.49 7.57-3.18-.16-5.99-2.61-9.16-2.4"/><path d="M28.04 131.32c-4.5-.21-11 1-13.29 5.43-1.11 2.14-.63 4.59 1.09 6.25 1.65 1.6 4.07 2.28 6.19 3.01 10.37 3.56 21.23 5.49 32.13 6.48 10.88.99 21.83.98 32.74.64 11.32-.35 22.65-.93 33.88-2.5 5.49-.77 10.93-1.8 16.3-3.19 4.97-1.29 10.03-2.82 14.37-5.62 1.94-1.25 4.04-2.77 5.18-4.84s1.15-4.81-.97-6.35c-1.98-1.44-5.05-1.59-7.4-1.92-2.87-.41-5.76-.69-8.65-.83-5.7-.28-11.41-.09-17.1.2-2.65.14-5.42.09-8.04.6-2.7.53-4.18 2.26-5.9 4.23-2.88 3.29-6.98 5.7-11.46 5.43-2-.12-4.07-.83-5.66-2.07-1.67-1.3-2.48-3.2-3.72-4.86-1.7-2.26-3.77-3.15-6.54-3.44-2.91-.31-5.84-.51-8.76-.72-5.72-.42-11.45-.78-17.19-1.07-2.65-.13-5.36-.29-7.87.72-2.03.81-3.75 2.08-5.46 3.42-1.47 1.15-2.96 2.45-4.69 3.19-1.74.74-3.34.43-5.06-.22-2.17-.82-4.23-1.8-6.61-1.72-2.87.1-2.88 4.57 0 4.47 2.12-.08 4.02 1.08 5.97 1.75s4.09.86 6.11.28c3.64-1.04 6.2-3.94 9.28-5.94 1.73-1.12 3.41-1.63 5.49-1.62 2.75 0 5.5.24 8.24.39 5.4.3 10.8.67 16.2 1.09 1.31.1 2.62.19 3.92.3 1 .08 2.06.16 2.87.83 1.49 1.24 2.21 3.35 3.48 4.81 2.78 3.2 7.27 4.83 11.46 4.6 4.5-.25 8.67-2.43 11.85-5.55 1.36-1.34 2.45-3.53 4.35-4.13 1.02-.32 2.1-.34 3.16-.4 1.44-.09 2.89-.17 4.33-.25 5.29-.28 10.6-.48 15.9-.3 2.72.09 5.43.28 8.13.62 1.25.15 2.49.35 3.73.58.63.12 1.26.23 1.89.37.35.08 1.01.12 1.29.38 1.03.94-1.84 3.07-2.45 3.53-1.8 1.34-3.83 2.41-5.91 3.26-4.63 1.88-9.56 3.05-14.43 4.08-10.22 2.16-20.63 3.14-31.05 3.7-10.37.56-20.78.88-31.16.64-10.07-.24-20.15-1.04-30.04-3.01-5.01-1-9.96-2.29-14.81-3.93-1.35-.46-4.24-1-4.97-2.45-.77-1.52 1.79-2.88 2.81-3.43 2.11-1.13 4.46-1.65 6.85-1.7 2.05-.05 2.04-3.08 0-3.17Z"/></svg>