<?xml version="1.0" encoding="UTF-8"?><svg xmlns="http://www.w3.org/2000/svg" viewBox="0 0 180 180"><path d="M78.97 95.41c-5.5-6.17-10.31-13.6-12.36-21.68-1.43-5.61-1.44-11.99 1.99-16.52 5.52-7.29 16.89-7.98 24.47-3.73 6.64 3.73 9.14 11.08 11.22 18.2.77 2.63 4.81 1.53 4.12-1.13-.79-3.02 2.47-6.58 4.43-8.66 2.7-2.86 5.73-5.29 9.3-6.99 3.76-1.79 8.24-2.79 12.39-2.06s7.74 3.04 10.39 6.3c5.62 6.91 5.78 16.27 3.04 24.39-3.03 8.95-9.06 16.68-14.64 24.16-3.75 5.03-7.67 9.94-11.65 14.79-4.01 4.88-8.21 9.62-12.15 14.56-.7.88-.86 2.1 0 2.96.78.78 2.19.83 2.96 0 8.27-8.89 16.12-18.34 23.46-28.01 6.34-8.35 13.06-16.98 16.51-27.01 3.3-9.59 2.71-20.47-3.73-28.63-2.96-3.75-7.17-6.67-11.86-7.73s-10.06-.42-14.67 1.44c-4.79 1.94-8.9 5-12.4 8.78-3.07 3.32-6.77 7.99-5.5 12.83 1.37-.38 2.74-.76 4.12-1.13-2.19-7.44-4.9-15.08-11.52-19.68-4.5-3.12-10.26-4.53-15.7-4.15-5.35.37-10.71 2.37-14.49 6.28-4.65 4.83-5.7 11.44-4.77 17.88 1.48 10.29 7.83 19.39 14.73 26.85 1.44 1.55 3.7-.75 2.31-2.31"/><path d="M46.19 110.98c12.11-4.56 24.23-9.09 36.29-13.8 1.49-.58 2.97-1.18 4.47-1.74 1.35-.5 2.84-1.07 4.31-.88 2.26.3 4.05 2.36 4.86 4.37 1.07 2.66 1.12 5.56.93 8.38-.07 1.1.05 2.42-.96 3.09-1.22.8-2.64 1.36-3.9 2.1-1.45.85-2.88 1.77-4.4 2.5-.4.2-1.09.59-1.55.5.44.09.1.19.11-.13 0-.29-.19-.7-.26-.99-.55-2.6-.53-5.29-1.17-7.88-.25-1.02-1.51-1.82-2.54-1.44-5.55 2.05-11.03 4.26-16.5 6.52-3.3 1.36-6.59 2.74-9.87 4.13-1.64.69-3.27 1.39-4.91 2.09-1.31.56-2.78.97-4 1.7-1.42.84-2.27 2.23-2.43 3.85-.17 1.64.37 3.24.62 4.84.41 2.65.36 5.47-.22 8.08-.61 2.71-1.77 5.23-3.79 7.17-1.87 1.8-4.26 3-6.72 3.77-2.6.8-5.79 1.49-8.49.89-2.53-.57-3.79-2.65-4.53-4.97-.95-3-1.35-6.19-1.91-9.27-.65-3.62-1.29-7.24-1.84-10.87-.55-3.57-1.04-7.14-1.65-10.7-.59-3.43-1.17-7.04-.66-10.51.72-4.83 4.13-8.37 8.41-10.4 2.35-1.11 5.01-1.76 7.6-1.94 2.37-.16 4.79-.06 6.52 1.69 2.11 2.14 2.75 5.31 3.26 8.16.62 3.45.68 6.95 1.5 10.37.52 2.15 4.13 1.75 3.93-.53-.56-6.38-.1-13.72-3.83-19.28-1.54-2.3-3.71-4.05-6.44-4.68-2.89-.67-5.99-.33-8.86.31-5.37 1.2-10.5 4.11-13.68 8.68-4.11 5.92-3.02 13.34-1.86 20.01 1.34 7.67 2.33 15.39 3.66 23.06 1.06 6.09 2.25 13.94 9.57 15.33 3.18.6 6.65.1 9.74-.76 3.03-.84 5.9-2.21 8.34-4.18 5.12-4.12 7.05-10.97 6.63-17.34-.11-1.75-.42-3.45-.78-5.16-.12-.54-.35-1.3.03-1.76.32-.38 1.29-.57 1.72-.76 4.01-1.66 7.97-3.48 11.96-5.19 6.79-2.91 13.61-5.79 20.54-8.37-.85-.48-1.69-.96-2.54-1.44.67 2.67.62 5.46 1.25 8.14.36 1.53 1.08 3.01 2.64 3.59 1.73.64 3.45-.02 5.01-.79s2.94-1.66 4.39-2.52c1.37-.81 2.9-1.41 4.23-2.27 3.14-2.03 3.01-6.52 2.86-9.85-.27-6.17-3.77-13.94-11.09-13.57-1.84.09-3.55.71-5.24 1.39-1.95.77-3.89 1.56-5.83 2.34-3.38 1.35-6.76 2.69-10.13 4.06-7.92 3.22-15.78 6.59-23.67 9.86-1.81.75-1.08 3.73.83 3.01Z"/><path d="M89.2 104.46c.21 3.4.23 6.89.98 10.22.18.79 1.09 1.26 1.85 1.05s1.26-1.06 1.05-1.85c-.84-3.06-.99-6.27-1.33-9.42-.07-.68-.53-1.27-1.27-1.27-.66 0-1.32.58-1.27 1.27Zm-63.97-2.35c1.02-.76 2.11-1.35 3.34-1.69a9 9 0 0 1 1.86-.33c.72-.04 1.14-.14 1.4.5.46 1.12.43 2.65.57 3.85.18 1.49.36 2.98.56 4.47.78 5.9 1.72 11.77 2.54 17.66.2 1.43.39 2.86.56 4.29.16 1.34.56 2.89-.19 4.11-.46.75-1.21 1.4-2.01 1.78-.56.27-2.03.84-2.66.53-.37-.19-.3-.47-.36-1.03-.07-.65-.08-1.31-.14-1.97-.14-1.4-.38-2.79-.59-4.18-.44-2.91-.91-5.81-1.37-8.71-.54-3.39-1.1-6.78-1.56-10.17-.22-1.63-.41-3.26-.62-4.89-.07-.56-.79-3.8-.36-4.07 1.67-1.08.2-3.62-1.56-2.67-1.32.71-1.71 2.11-1.66 3.52.06 1.86.38 3.75.63 5.59.51 3.72 1.09 7.42 1.68 11.13.58 3.63 1.18 7.26 1.73 10.9.25 1.62.49 3.23.6 4.87.1 1.52.23 3.28 1.6 4.23 2.08 1.43 5.54.29 7.4-1.04 1.14-.82 2.11-1.84 2.61-3.17.64-1.69.31-3.48.09-5.22-.91-7.34-2.13-14.63-3.08-21.96-.27-2.03-.47-4.06-.78-6.08-.24-1.58-.34-3.72-1.84-4.68-1.38-.88-3.69-.45-5.19-.09-1.8.43-3.37 1.3-4.8 2.45-1.16.93.39 2.97 1.6 2.07m67.57 18.74c1.7 2.03 3.25 4.3 4.74 6.49 1.52 2.22 3.16 4.36 4.75 6.53.78 1.06 1.55 2.14 2.31 3.21.69.98 1.35 2.01 2.29 2.77 1.03.84 2.26 1.25 3.59 1.03 1.22-.21 2.46-1.03 2.73-2.31.39-1.87-1.71-3.09-3.15-1.83-.05.05-.38.3-.29.27.08-.04.06-.08.17-.09-.23.01-.2.03-.4-.08-.71-.43-1.21-1.41-1.68-2.07-1.33-1.85-2.68-3.69-4.06-5.5-1.38-1.8-2.86-3.5-4.34-5.21-1.52-1.76-3.19-3.41-4.68-5.19-1.16-1.39-3.15.61-1.99 1.99ZM68.12 53.33c4.68-5.51 14.54-8.82 21.6-10.4 3.03-.68 6.12-1.3 9.21-1 2.76.26 5.39 1.24 7.94 2.34 1.45.63 2.89 1.3 4.21 2.16 2.71 1.77 4.88 4.35 6.15 7.33a62 62 0 0 0-10.39 8.89c-1.81-4.66-3.88-9.52-7.88-12.52-4.33-3.24-10.16-3.68-15.54-3.14"/><path d="M69.03 54.24c2.06-2.3 4.84-3.83 7.61-5.13a57.4 57.4 0 0 1 9.08-3.32c3.38-.93 6.91-1.79 10.43-1.97 3.99-.2 7.73 1.15 11.28 2.85 3.66 1.75 6.42 4.33 8.08 8.07l.71-2.73a65.4 65.4 0 0 0-10.79 9.21l3.33.88c-2.05-5.24-4.37-10.58-9.12-13.94-4.67-3.3-10.73-3.68-16.23-3.12-1.04.11-1.93.81-1.93 1.93 0 .97.89 2.02 1.93 1.93 4.7-.41 9.85-.22 13.89 2.48 3.99 2.65 5.94 7.49 7.61 11.78.51 1.32 2.21 2.07 3.33.88 3.02-3.21 6.34-6.09 9.98-8.58.96-.66 1.18-1.68.71-2.73a18.7 18.7 0 0 0-7.6-8.49c-3.69-2.17-8.14-3.88-12.42-4.28-4.11-.38-8.35.75-12.28 1.85-3.47.97-6.89 2.17-10.15 3.71-3.51 1.65-6.77 3.92-9.29 6.9-1.06 1.25.7 3.07 1.82 1.82Z"/><path d="M115.23 55.64c6.05-6.56 13.35-13.12 22.26-13.56 10.66-.52 20.81 5.37 26.02 14.63 3.38 6.01 3.57 13.02 1.7 19.55-5.02 17.53-18.78 31.17-31.38 43.59-5.13 5.07-11.37 8.09-22.84 18.66 5-4.62 9.08-7.81 13.34-13.12 3.36-4.19 6.24-8.78 9.96-12.65 2.22-2.31 4.72-4.35 6.96-6.64 7.4-7.58 11.69-17.71 14.2-28 2.39-9.82.14-19.87-8.8-25.76-5.83-3.84-13.27-4.95-20.11-3.55"/><path d="M116.34 56.75c3.72-3.96 7.94-7.78 12.78-10.31 4.52-2.35 9.52-2.98 14.51-1.98 9.84 1.99 18.82 9.88 20.5 20.03.93 5.61-.56 11.23-2.62 16.41-2 5.03-4.8 9.75-7.94 14.15-6.21 8.72-13.9 16.51-21.64 23.88-2.68 2.55-5.66 4.62-8.62 6.83-4.76 3.56-9.35 7.33-13.74 11.34l2.82 2.82c3.26-2.99 6.66-5.84 9.74-9.02 3.21-3.32 5.89-7.06 8.65-10.76 2.86-3.85 6.08-7.14 9.59-10.39 3.24-3 6.07-6.33 8.48-10.04 2.35-3.62 4.2-7.53 5.72-11.56 1.46-3.88 2.77-7.95 3.43-12.05 1.25-7.74-.3-15.42-5.4-21.5-6.36-7.57-17.3-9.81-26.64-7.98-2.82.55-1.63 4.87 1.19 4.31 7.47-1.48 15.83.25 21.38 5.69 4.89 4.79 6.47 11.71 5.41 18.36-.61 3.83-1.81 7.64-3.13 11.27-1.37 3.77-3.08 7.44-5.17 10.87s-4.78 6.63-7.79 9.45c-3.25 3.04-6.34 6.03-9.06 9.56-2.98 3.86-5.7 7.91-9.06 11.46-3.19 3.36-6.75 6.34-10.15 9.49-1.89 1.75.94 4.56 2.82 2.82 4.05-3.74 8.27-7.26 12.68-10.58 2.97-2.23 6.04-4.37 8.81-6.85 3.95-3.53 7.63-7.44 11.27-11.28 4-4.23 7.82-8.63 11.25-13.33 3.4-4.67 6.33-9.65 8.56-14.98 2.33-5.57 3.93-11.59 3.24-17.67-1.28-11.36-10.27-20.7-21.04-23.9-6.01-1.79-12.47-1.66-18.2.96-5.95 2.73-10.51 7.47-14.85 12.24-1.36 1.49.83 3.7 2.22 2.22Z"/><path d="M103.6 84.28c-.21-.66.59-1.17 1.25-1.38 2.24-.7 4.82-1.01 6.85.18 2.47 1.45 3.32 4.8 2.57 7.56s-2.77 5-4.97 6.83c4.17 3.11 7.66 7.13 10.14 11.69-6.16 2.02-12.81 1.59-19.28 1.13-.14-5.02 2.5-10.03 6.71-12.76-2.81-1.22-5.57-2.89-7.2-5.48s-1.82-6.29.25-8.54c1.34-1.46 3.35-2.09 5.3-2.38 2.28-.34 4.74-.26 6.7.94 1.96 1.21 3.19 3.8 2.26 5.91"/><path d="M105.13 84.28q-.36.465.15.21c.26-.06.51-.12.77-.19.37-.08.74-.17 1.12-.22.87-.11 1.79-.12 2.63.13 1.59.46 2.46 1.75 2.77 3.32.69 3.57-2.11 6.5-4.62 8.59-1.04.87-.5 2.32.39 3 3.9 2.96 7.07 6.76 9.41 11.04l1.17-2.88c-6.08 1.91-12.49 1.46-18.75 1.03l1.99 1.99c-.07-4.36 2.04-8.66 5.71-11.08 1.09-.72 1.42-2.71 0-3.35-2.43-1.09-5.02-2.47-6.48-4.8-1.12-1.79-1.54-4.43-.07-6.15 2.49-2.92 12.68-3.09 11.1 2.59-.55 1.96 2.41 3.32 3.36 1.41 1.9-3.8-.77-7.84-4.41-9.26-3.55-1.38-8.69-.74-11.75 1.54-3.13 2.33-3.89 6.59-2.49 10.12 1.53 3.88 5.09 6.28 8.78 7.89v-3.35c-4.81 3.24-7.79 8.6-7.72 14.43.01 1.13.9 1.91 1.99 1.99 6.62.48 13.38.84 19.8-1.23 1.22-.39 1.81-1.74 1.17-2.88-2.71-4.87-6.42-9.01-10.87-12.35l.39 3c4.16-3.52 7.78-9.43 4.5-14.77-1.53-2.5-4.31-3.7-7.19-3.48-2.39.18-6.3.97-5.84 4.12.25 1.69 3.17 1.31 3.01-.41ZM73.94 30.14a38 38 0 0 0-3.27-2.93c-.65-.52-1.31-1.02-1.99-1.49-.6-.42-1.22-.91-1.89-1.19-.46-.2-.87-.32-1.37-.18-.41.11-.86.43-1.06.82-.22.41-.33.91-.18 1.37s.42.77.82 1.06c.56.41 1.22.71 1.81 1.08s1.22.78 1.8 1.2c.29.2.57.41.85.62.16.12.06.02-.04-.03.07.03.14.11.2.15l.44.35c.56.46 1.09.95 1.62 1.45.61.58 1.68.65 2.28 0s.63-1.64 0-2.28Zm24.18-7.21c-.46-2.02-.9-4.04-1.34-6.05-.21-.97-.43-1.94-.65-2.91-.25-1.11-.35-2.52-1.16-3.37-.88-.91-2.38-.43-2.73.72s.27 2.5.54 3.58c.24.96.49 1.93.74 2.89.51 2 1.03 4 1.53 6 .21.83 1.14 1.34 1.96 1.11.86-.24 1.3-1.12 1.11-1.96Zm22.42-2.53c-.11-.91-.16-1.83-.12-2.75q.03-.645.09-1.29l.06-.55c-.04.34.06-.36.07-.42.15-.85.36-1.68.63-2.5.32-.95.81-1.87.83-2.88.02-.66-.43-1.27-1.02-1.52-.65-.28-1.29-.09-1.82.34-.87.72-1.26 2.02-1.59 3.07q-.405 1.32-.6 2.7c-.3 2.1-.23 4.17.16 6.25.16.82 1.08 1.31 1.84 1.2s1.56-.82 1.46-1.65Zm22.7 3.05c.36-.65.74-1.29 1.16-1.91.2-.3.41-.6.62-.89.09-.13.18-.26.28-.38-.24.28-.08.1-.03.03.08-.11.17-.21.25-.32.93-1.14 1.92-2.21 3.02-3.18.27-.24.54-.47.82-.7.69-.56 1.04-1.61.52-2.42a1.846 1.846 0 0 0-2.56-.56c-.39.25-.74.59-1.09.9a25 25 0 0 0-3.25 3.5c-1.01 1.32-1.9 2.74-2.63 4.24-.38.78-.24 1.84.6 2.28.78.41 1.83.22 2.28-.6Zm20.48 9.74 1.88-.73.94-.37c.56-.22 1.08-.4 1.47-.88.18-.22.34-.44.41-.71.1-.35.06-.72-.08-1.05-.11-.26-.27-.47-.5-.64q-.15-.15-.36-.21c-.19-.1-.4-.15-.62-.14-.78-.1-1.54.34-2.24.63l-1.84.75c-.23.05-.42.16-.59.31-.19.12-.34.28-.45.49-.22.37-.31.92-.17 1.34s.4.82.8 1.04.91.34 1.34.17ZM67.97 154.96c2.84 6.88 10.05 11.95 17.66 10.56 7.07-1.29 13.22-9.25 10.74-16.47-1.26-3.65-4.66-6.67-8.72-5.64-3.79.96-6.17 4.68-6.69 8.36-1.18 8.42 5.88 14.58 12.92 17.6 7.63 3.28 16.88 3.7 23.71-1.61 2.9-2.25 5.19-5.39 6.14-8.96.94-3.54.6-7.77-2.01-10.55-2.33-2.49-6.81-3-9.18-.27s-2.09 6.58-1.3 9.73c.85 3.38 2.65 6.56 5.75 8.33 2.97 1.69 6.52 2.23 9.9 2.17 6.05-.1 12.32-1.83 17.61-4.75 5.3-2.93 10.15-7.35 12.08-13.23.46-1.41.67-2.87.68-4.36.02-2.38-3.39-2.27-3.62 0-1.02 9.78-11.2 15.84-19.8 18.23-4.59 1.28-10.15 1.8-14.48-.62-2.38-1.33-3.79-3.29-4.58-5.88-.64-2.08-1.31-5.47.26-7.33.61-.73 1.63-.86 2.51-.68 1.42.29 2.34 1.47 2.79 2.78.95 2.73.25 5.87-1.16 8.31-3.19 5.54-9.48 7.91-15.65 7.38-3.36-.29-6.69-1.41-9.67-2.97-2.76-1.44-5.49-3.32-7.27-5.93-1.52-2.24-2.28-4.94-1.62-7.62.54-2.16 2.78-5.48 5.43-4.27s3.09 5.09 2.34 7.6c-.89 3.01-3.31 5.56-6.2 6.74-6.38 2.6-13.24-2.07-15.75-7.87-.7-1.61-3.53-.44-2.86 1.2Z"/></svg>