<?xml version="1.0" encoding="UTF-8"?><svg xmlns="http://www.w3.org/2000/svg" viewBox="0 0 180 180"><path d="M60.94 81.3c-8.72-.61-17.2-3.32-24.66-7.89C28.92 68.9 21.9 62.25 18.45 54.2c-3.03-7.06-2.97-15.91 2.97-21.43 4.55-4.24 11.48-5.54 17.49-4.48.94.16 1.87.38 2.79.65.48.14.96.29 1.44.46.14.05 1.19.48.83.31 1.53.72 2.91 1.77 4.24 2.8 3.14 2.42 6.09 5.4 9.6 7.28 2.56 1.37 4.84-2.51 2.28-3.9-2.36-1.28-3.67-3.29-3.67-5.98 0-2.88 1.21-5.65 2.72-8.05 3.35-5.34 8.96-8.93 15.16-9.49 4.39-.4 8.21.3 11.71 2.71.18.12.35.25.53.38.02.02.05.04.31.25.39.33.76.66 1.12 1.02.34.33.66.67.97 1.03.17.19.33.39.5.58.21.26.24.3.26.32.6.81 1.15 1.66 1.64 2.54q.36.645.69 1.32c.12.24.24.49.35.73.06.13.33.76.24.53 3.39 8.15 3.58 17.7 1.99 26.08-.41 2.13-.94 4.25-1.63 6.3-.79 2.35-1.51 3.94-2.87 6.27-3.76 6.48-9.16 11.42-15.29 15.6-5.73 3.91-12.05 7.84-15.5 14.08-.97 1.75-1.67 3.84-1.16 5.84.44 1.71 1.65 3.11 3.09 4.07 3.08 2.04 7.04.91 8.98-2.11.96-1.49 1.2-3.12.92-4.84-1.16.68-2.32 1.35-3.48 2.03 2.07 2.22 5.1 3.37 8.11 2.86 2.8-.48 5.17-2.63 6.05-5.31.94-2.86-.28-5.93-2.29-8.01-2.21-2.29-5.34-3.32-8.3-4.24-2.78-.86-4 3.57-1.2 4.35 1.95.54 4.08 1.05 5.72 2.3 1.16.88 2.28 2.34 2.08 3.88-.18 1.42-1.45 2.61-2.82 2.88-1.68.33-3.28-.46-4.41-1.66-1.55-1.63-3.81.11-3.48 2.03.45 2.6-3.25 3.92-4.4 1.45-.72-1.54.37-3.16 1.2-4.42.89-1.36 1.96-2.57 3.12-3.71 5.06-4.95 11.57-8.11 16.92-12.72 5.39-4.64 9.83-10.53 12.53-17.13 1.7-4.15 2.63-8.57 3.16-13.01 1.08-9.11.25-19.15-4.17-27.34-2.02-3.74-4.99-7.08-8.76-9.12-4.36-2.35-9.31-2.82-14.15-2.15-6.93.96-12.92 5.01-16.83 10.76-3.42 5.03-5.75 12.51-1.67 17.85 1.01 1.32 2.29 2.35 3.75 3.13l2.28-3.9c-3.18-1.7-5.87-4.37-8.7-6.57-1.48-1.15-2.99-2.35-4.65-3.24s-3.4-1.42-5.17-1.83c-7.21-1.69-15.45-.71-21.48 3.81-7.27 5.44-9.48 14.66-7.35 23.27 2.45 9.86 9.84 17.92 17.97 23.63 8.84 6.21 19.45 9.53 30.22 9.98 2.35.1 2.31-3.46 0-3.62Zm67.42.77c-9.32-4.07-17.04-12.81-17.74-22.96-.21-3.03.24-6.22 1.96-8.72 2.92-4.24 9.16-5.46 13.82-3.28 4.66 2.19 7.63 7.2 8.14 12.32 3.51-5.84 10.85-9.39 17.45-7.69s11.42 9.09 9.58 15.65c-1.11 3.95-4.21 7.05-7.6 9.37a36.86 36.86 0 0 1-15.95 6.14c-6.29.83-13.56.37-17.88 5.02-.92.99-1.67 2.33-1.35 3.64.38 1.57 2.23 2.45 3.83 2.21s2.95-1.33 4.03-2.54c-.52 2.02 2.07 4.03 3.9 3.03 1.69-3.65 1.06-8.26-1.56-11.31"/><path d="M129.26 80.54c-7.47-3.35-14-9.93-15.99-18.03-.96-3.9-1.13-9 1.99-12.02 2.56-2.47 6.75-2.95 9.97-1.61 4.14 1.73 6.86 6.22 7.36 10.55.21 1.85 2.56 2.77 3.65.99 3.19-5.21 9.86-8.56 15.9-6.61 5.49 1.78 9.22 8.44 7.12 13.94-1.18 3.1-3.83 5.51-6.51 7.34-3.19 2.17-6.69 3.8-10.41 4.83-6.67 1.84-14.25.62-20.47 4.01-3.3 1.8-7.27 6.26-4.16 9.98s7.75 1.59 10.35-1.27l-3.31-1.93c-.38 2.13.55 4.18 2.5 5.21.95.5 2.07.72 3.12.49 1.36-.3 1.92-1.06 2.39-2.31 1.59-4.28.49-9.09-2.35-12.56-1.63-1.99-4.46.85-2.83 2.83 1.98 2.41 2.51 6.03 1.26 8.9l.71-.71c-.31.14-1.05-.46-.98-.79.34-1.82-1.86-3.48-3.31-1.93-.86.92-2.14 2.23-3.54 1.88-1.65-.42-.42-1.92.33-2.66 2.22-2.17 5.45-2.87 8.43-3.27 3.55-.48 7.14-.57 10.66-1.3 3.83-.79 7.56-2.19 10.97-4.09 6.05-3.36 12.46-9.06 11.93-16.65-.46-6.52-5.32-12.37-11.69-13.91-7.54-1.83-15.49 2.19-19.48 8.62l3.65.99c-.56-5.21-2.98-10.29-7.44-13.25-4.15-2.75-9.7-2.96-14.09-.64-10.3 5.44-6.68 20.16-1 27.61 3.52 4.61 8.2 8.12 13.5 10.44.88.39 1.89.25 2.43-.64.45-.75.24-2.04-.64-2.43ZM42.25 130.9c-6.27 2.41-13.39 2.54-19.75.36-3.23-1.11-6.34-2.86-8.41-5.56-2.08-2.7-2.96-6.48-1.65-9.63 1.38-3.31 4.92-5.35 8.49-5.78 3.56-.42 7.15.53 10.51 1.78-2.01-4.9-1.54-11.52 2.99-14.28 2.45-1.49 5.62-1.49 8.28-.44 5.58 2.22 8.68 8.66 8.33 14.66s-3.54 11.5-7.5 16.02c-1.03 1.18-2.14 2.34-2.78 3.76-.64 1.43-.74 3.22.21 4.47.95 1.24 3.12 1.5 4.04.24.77-1.06.64-2.87 1.88-3.3.99-.35 2.03.58 3.07.42 1.24-.2 1.69-1.96 1.02-3.02s-1.99-1.52-3.23-1.72-2.54-.23-3.68-.76"/><path d="M41.84 129.43c-3.75 1.29-7.47 1.49-11.41 1.26-3.65-.21-7.44-1.16-10.64-2.95-2.82-1.59-5.31-4.1-5.76-7.45s1.47-5.83 4.34-7.09c4.02-1.77 8.59-.46 12.49.98 1.46.54 3.24-1.17 2.65-2.65-1.76-4.45-1.65-12.08 4.58-12.7 6.17-.61 10.4 5.61 10.81 11.13.25 3.31-.61 6.63-2.07 9.59-1.61 3.27-3.89 5.87-6.16 8.67s-3.78 6.86-.96 9.74c1.11 1.13 2.85 1.62 4.39 1.31 1.62-.32 2.64-1.49 3.19-2.98.13-.36.29-.75.36-1.13.11-.59.11.04-.15-.11-.24-.14.16.1.22.13.2.1.47.16.69.22.5.13 1.03.21 1.55.18 1.91-.12 3.19-1.86 3.25-3.69.06-1.87-1.15-3.44-2.79-4.22-1.85-.88-3.93-.7-5.81-1.45-2.09-.84-3.64 2.78-1.55 3.67 1.65.7 3.31.68 5.02 1.12.54.14.82.44 1.27.67.06.03 0 .18.02.21 0 0 .17-.12.2-.12.17-.02-.29-.15-.29-.15-1.39-.75-3.31-.45-4.38.68-.48.51-.75 1.18-.99 1.83-.09.26-.21 1.1-.5 1.23-.87.39-1.11-1.13-1.07-1.6.16-1.56 1.4-2.8 2.38-3.92 2.34-2.65 4.48-5.53 5.99-8.74 2.83-6.01 3.45-12.9.22-18.89-3.05-5.67-9.97-9.55-16.3-6.9-6.67 2.8-7.67 11.31-5.27 17.35l2.65-2.65c-4.44-1.63-9.49-2.8-14.12-1.23-4.05 1.37-7.46 4.52-8.09 8.89-1.42 9.81 8.71 15.63 17.02 16.84 5.42.79 10.77-.07 15.83-2.13 1.78-.72 1.09-3.61-.81-2.95m75.69-97.06-.45-.99.13.32c-.24-.59-.44-1.19-.64-1.79l-.28-.86c-.05-.16-.1-.32-.15-.47-.17-.54-.47-.89-.93-1.2-.48-.32-1.18-.29-1.66 0-.25.15-.44.34-.59.59-.15.26-.22.53-.23.83-.07.69.38 1.25.73 1.79l.63.98c.43.68.79 1.4 1.15 2.13.3.62 1.24.84 1.81.47.28-.18.53-.45.61-.79.08-.37.02-.68-.13-1.02Zm18.07-1.6c0-.13 0-.25.01-.38 0-.08.02-.16.02-.24 0-.19-.05.29-.01.1.06-.26.1-.53.17-.79s.16-.52.25-.77c.02-.05.11-.26.01-.04s0 .01.02-.03c.06-.13.12-.26.18-.38.23-.47.51-.91.81-1.34.11-.16-.26.32-.05.06l.12-.15c.08-.1.17-.19.25-.29.25-.3.5-.59.74-.9.2-.27.23-.68.19-1s-.18-.67-.43-.9c-.5-.46-1.3-.63-1.89-.24-1.24.79-2.07 2.2-2.61 3.54-.47 1.18-.65 2.48-.65 3.74 0 .75.66 1.46 1.43 1.43.79-.04 1.42-.63 1.43-1.43Zm17.23 4.43c1.19-.74 2.28-1.67 3.16-2.77.15-.14.26-.31.32-.5.1-.18.14-.38.13-.6 0-.38-.17-.83-.45-1.09s-.68-.47-1.09-.45c-.38.02-.84.14-1.09.45-.57.72-1.23 1.36-1.95 1.92l.31-.24c-.29.22-.58.42-.89.62-.33.21-.6.53-.71.92s-.06.86.16 1.19.53.62.92.71.83.07 1.19-.16Zm14.85 10.91c.11-.11.22-.22.34-.31l-.34.26c.2-.15.41-.27.64-.37l-.4.17c.26-.11.52-.21.78-.32l-.4.17c.1-.04.2-.08.31-.11.21-.05.39-.15.55-.29.18-.11.31-.26.41-.45l.16-.38c.07-.21.08-.43.03-.64 0-.15-.04-.28-.11-.41-.06-.2-.18-.37-.33-.52-.31-.29-.7-.47-1.14-.47-.3 0-.61.04-.91.1-.14.03-.29.11-.42.16-.14.06-.29.12-.42.19-.15.08-.28.17-.41.26-.25.19-.49.37-.7.59-.16.15-.28.33-.35.54-.1.2-.15.41-.14.64 0 .23.04.44.14.64.07.21.18.39.35.54.32.29.74.51 1.18.49l.44-.06c.28-.08.53-.22.74-.43ZM69.59 99.22c2 1.21 1.55 4.03.98 5.93-.91 3-2.63 5.79-2.5 9.03.29 7.14 8.05 9.25 13.77 10.45 2.87.6 5.53 1.59 8.02 3.18 1.93 1.23 4.02 3.12 4.18 5.55.13 2.1-1.23 3.91-2.54 5.41-1.61 1.83-3.39 3.55-4.67 5.64-3.16 5.14-.73 12.94 5.32 14.57 1.38.37 2.25-1.6.98-2.33-2.08-1.19-3.83-3.44-3.97-5.89-.13-2.16 1.2-4.24 2.53-5.83 3.19-3.82 7.45-7.37 6.64-12.89-.43-2.92-2.26-5.45-4.58-7.2a16 16 0 0 0-3.46-2c-1.5-.63-2.98-.74-4.55-1.06-2.96-.6-6.12-1.33-8.88-2.59-2.54-1.17-4.98-3.05-4.59-6.14.41-3.28 2.35-6.08 2.37-9.45.02-2.67-1.02-5.64-3.63-6.78-1.61-.7-2.99 1.46-1.41 2.42Z"/><path d="M44.32 131.08c-.48 1.94.49 3.55 1.93 4.79s2.93 2.13 4.21 3.49c2.57 2.75 3.99 6.78 2.05 10.28-2.06 3.72-4.64 7.68-2.97 12.09.73 1.93 2.22 3.16 3.92 4.23 1.5.94 3.53 1.99 3.43 4.03-.08 1.73 2.78 2.17 3.07.42.35-2.11-.54-3.92-2.1-5.33-1.36-1.22-3.19-1.9-4.41-3.26-1.41-1.58-.73-3.79.13-5.49 1-1.98 2.13-3.83 2.93-5.91 1.49-3.9.85-8.03-1.49-11.46a16.7 16.7 0 0 0-4.25-4.29c-1.06-.74-3.63-1.63-3.54-3.2.1-1.67-2.51-2-2.9-.39Zm80.47-40.33c.05 2.29.09 4.63-.58 6.84-.63 2.07-2.06 3.54-3.66 4.92-3.28 2.82-7.48 6.06-7.05 10.93.32 3.66 3.03 6.02 5.57 8.34 1.1 1.01 2.3 2.07 2.95 3.45.81 1.71.27 3.54-.6 5.11-2.42 4.38-7.58 8.67-5.48 14.25.73 1.95 3.42 1.18 3.09-.85-.73-4.57 4.25-8.23 6.11-11.94 1.02-2.03 1.56-4.26 1.09-6.52-.36-1.69-1.32-3.16-2.44-4.45-1.87-2.15-4.96-3.83-6.05-6.57-1.62-4.06 3.74-7.27 6.17-9.54 1.82-1.7 3.26-3.71 3.94-6.13.71-2.54.65-5.23.52-7.85-.11-2.28-3.61-2.31-3.56 0Zm24.58 9.06c3.59 4.99 6.86 10.72 6.75 17.06-.1 5.44-3.02 10.69-8.63 11.9-1.13.24-2.35.25-3.48-.02-.92-.22-2.56-.66-2.84-1.7-.21-.77.49-1.67 1.08-2.07 1.01-.68 2.31-.41 3.34.08 4.87 2.29 7.1 8.92 6.29 13.94-1 6.16-5.93 10.28-11.76 11.72-1.89.47-1.55 3.71.47 3.48 6.98-.79 13.1-6.48 14.7-13.29 1.62-6.86-1.07-15.88-7.75-19.2-3.32-1.65-7.49-1.22-9.45 2.24-.84 1.48-1.06 3.28-.33 4.84.79 1.72 2.52 2.71 4.24 3.31 7.03 2.44 14.25-2.73 16.46-9.27 2.99-8.81-1.58-17.51-6.82-24.38-1.01-1.32-3.29-.06-2.28 1.33Z"/></svg>