<?xml version="1.0" encoding="UTF-8"?><svg xmlns="http://www.w3.org/2000/svg" viewBox="0 0 240 240"><path fill="#202020" d="M130.59 162.78s0 .04-.02.09c-.14.3-.54.88-1.25.27-.01-.01-.06-.07-.08-.1-.17-.79-.2-1.61-.17-2.42.1-1.72.66-3.36 1.39-4.83.72-1.48 1.57-2.84 2.3-4.22 1.52-2.69 2.22-5.79 2.32-8.86 0-1.52-.14-3.08-.77-4.36-.56-1.28-1.77-2.25-3.08-2.99-1.32-.73-2.82-1.28-4.3-1.87-1.48-.57-2.95-1.11-4.46-1.47-1.5-.37-3.03-.58-4.53-.47-.75.03-1.45.17-1.82.53-.38.35-.48.89-.3 1.53.34 1.31 1.47 2.38 2.67 3.35.6.48 1.23.92 1.88 1.32.33.2.66.39 1 .56l.52.25c.28.14.72.31 1.08.46.8.3 1.69.6 2.54.89l1.18.41s.13.03.09.04l-.2.02-.4.04-.94.1-1.82.18c-.43.1-.94.16-1.31.29l-.41.15-.25.11c-.17.07-.33.16-.49.24-1.3.69-2.4 1.75-3.21 3l-.15.24-.1.18-.04.07-.08.14-.15.28c-.1.18-.18.38-.27.57 0 0-.12.21-.3.59-.3.58-.73 1.68-1.02 2.57-.34 1.17-.5 1.54-.62 1.4s-.18-.79-.11-1.58c-.05.11.18-1.72.57-2.84.16-.51.31-.87.31-.87.1-.21.2-.42.31-.62l.17-.3.04-.08.09-.16.17-.26c.22-.35.47-.69.73-1.02 1.06-1.3 2.44-2.36 4.03-2.96s-.38-.19-.38-.19c-1.46-.73-2.82-1.65-4.04-2.73-1.18-1.05-2.49-2.45-2.56-4.45 0-.5.15-1.05.46-1.49.3-.44.76-.77 1.21-.95.93-.36 1.75-.35 2.57-.38 1.65-.02 3.27.28 4.83.7 1.55.42 3.04.99 4.51 1.56 1.45.58 2.96 1.14 4.38 2 .71.43 1.39.94 1.98 1.56.6.61 1.08 1.39 1.41 2.18.61 1.61.76 3.28.7 4.9-.06 1.63-.31 3.23-.73 4.79-.39 1.56-1.06 3.11-1.82 4.5-1.5 2.78-3.31 5.39-3.45 8.33-.01.7 0 1.4.15 2.09Z"/><path fill="#202020" d="M132.49 134.66s0 .04-.05.08c-.24.27-.8.63-1.27-.17 0-.01-.04-.08-.04-.11 0-.04.14-.86.33-2.07.99-6.23 2.14-13.46 3.36-21.19.17-1.04.33-2.1.5-3.15.08-.53.17-1.05.25-1.58.06-.46.04-.92-.07-1.35-.22-.85-.86-1.62-1.61-1.77-.77-.16-1.72.24-2.32.91-.63.69-.98 1.66-1.29 2.71-.32 1.06-.65 2.13-.97 3.2-.65 2.14-1.3 4.29-1.96 6.43-.65 2.15-1.31 4.29-1.96 6.43l-.95 3.12c-.16.67-.34.76-.47.84-.13.07-.22.08-.3.09-.22 0-.32-.02-.54-.19a.9.9 0 0 1-.17-.24c-.07-.09-.07-.43-.09-.69l-.1-1.65c-.14-2.45-.28-4.89-.42-7.29-.14-2.14-.22-4.32-.27-6.4-.06-2.09-.15-4.13-.41-6.09-.12-1.02-.28-1.85-.76-2.51-.45-.65-1.16-.94-1.92-.87-.75.06-1.48.5-1.95 1.08-.44.6-.75 1.44-.91 2.24-.33 1.65-.21 3.38-.27 5.1-.06 5.67-.09 9.44-.09 9.44s-.16 2.08-.38 3.53c-.31 2.47-.61 1.49-.76-.05-.03.16-.22-3.68-.22-3.68s.04-4.38.11-10.96c.02-1.64 0-3.5.79-5.33.09-.23.22-.45.33-.67.14-.23.29-.46.48-.66.36-.41.79-.74 1.28-.99.97-.5 2.21-.63 3.31-.11 1.12.54 1.74 1.64 2.03 2.67.16.55.2 1.05.27 1.54.07.5.12 1 .17 1.5.19 2.01.24 4.06.3 6.13.05 2.06.18 4.14.31 6.27.06 1.06.12 2.13.19 3.21l.08 1.31c.75-2.46 1.51-4.96 2.27-7.46.64-2.12 1.29-4.23 1.93-6.34.33-1.06.62-2.09.98-3.18.37-1.08.94-2.26 2.03-3.03.52-.38 1.13-.64 1.8-.73.66-.1 1.4.02 2 .38 1.2.73 1.79 1.99 1.89 3.24.06.62-.05 1.25-.14 1.74-.08.53-.17 1.05-.25 1.57-.17 1.04-.33 2.08-.49 3.11-1.19 7.51-2.31 14.54-3.27 20.6-.19 1.19-.32 2-.32 2.05Z"/><path fill="#202020" d="M108.89 125.25s-.03.03-.08.03c-.29.01-1.02.07-.89-.92 0-.02.03-.09.05-.12.64-.58 1.41-1.01 2.25-1.24.55-.15 1.1-.2 1.63-.22.52-.01 1.03-.02 1.58.03 1.13.1 2.23.62 3.05 1.36.36.31.67.67.95 1.05 0 0 .33.49.59 1.21.27.72.42 1.66.41 2.42 0 1.29-.23 1.65-.34 1.52-.13-.13-.23-.75-.42-1.47 0 .08-.17-.79-.53-1.58-.35-.8-.92-1.44-.92-1.44-.19-.25-.41-.49-.65-.7-.66-.58-1.43-.94-2.29-1.02-.88-.06-1.92-.06-2.7.15-.62.17-1.21.5-1.69.93Zm8.55 12.97s0-.03.05-.05c.13-.08.29-.21.53-.26.22-.04.51-.01.73.5 0 .02.03.11.02.15-.25.98-.96 1.71-1.75 2.13-.72.39-1.6.56-2.43.4-.81-.14-1.55-.52-2.15-1.02-1.22-1-1.93-2.43-2.27-3.86-.11-.44-.18-.89-.23-1.33 0 0-.03-.56.03-1.29.05-.73.19-1.63.38-2.35.59-2.44.76-1.39.75.13.03-.08-.02.83.03 1.74.03.91.2 1.8.2 1.8q.06.51.18.99c.29 1.23.88 2.37 1.81 3.12.92.76 2.11 1.02 3.08.47.53-.28.95-.75 1.07-1.25Z"/><path fill="#202020" d="M102.57 125.92s-.04.02-.09 0c-.31-.04-1.01-.19-.66-1.09 0-.02.05-.08.07-.11.72-.41 1.51-.7 2.33-.86 1.69-.34 3.63.02 5.01 1.2.37.3.7.66.98 1.04 0 0 .35.49.59 1.25.25.75.32 1.75.14 2.51-.29 1.3-.7 1.54-.74 1.38-.08-.17.03-.77-.01-1.48-.02.08 0-.79-.31-1.57-.28-.79-.86-1.41-.86-1.41-.19-.25-.42-.47-.66-.67-1.05-.89-2.5-1.17-3.89-.91-.67.13-1.32.37-1.91.7Zm7.19 6.46s0-.04.03-.09c.17-.3.64-.78 1.28-.09.01.01.05.07.06.11.04.77.06 1.55.04 2.32-.03 1.17-.09 2.26-.28 3.47-.1.61-.38 1.32-.85 1.84-.46.52-1.05.89-1.68 1.11-1.27.46-2.74.19-3.81-.49-1.09-.67-1.91-1.72-2.4-2.85-.19-.42-.34-.86-.45-1.29 0 0-.12-.55-.17-1.29-.05-.73-.03-1.67.14-2.42.28-1.28.66-1.55.71-1.39.08.17 0 .77.04 1.5.01-.07.01.79.19 1.68.15.89.45 1.73.45 1.73.05.19.12.38.19.57.08.19.13.34.27.63q.375.765.96 1.35c.76.78 1.83 1.25 2.82 1.13 1.02-.12 1.95-.78 2.17-1.73.14-.49.18-1.12.24-1.73.05-.61.08-1.22.09-1.84.01-.74 0-1.48-.04-2.22Z"/><path fill="#202020" d="M101.05 125.69s.04-.03.1-.02c.43-.03.95.24.69 1.08 0 .01-.03.08-.05.09-.55.35-1.01.83-1.39 1.4-1.45 2.27-1.6 5.31-1.86 8.18-.21 2.9-.17 5.81.35 8.62.26 1.41.65 2.78 1.18 4.1.54 1.33 1.2 2.63 1.87 3.92.68 1.3 1.38 2.6 2.03 3.94l.36.76.29.61s.75 2 .98 3.48c.42 2.49-.15 1.57-.73.19.01.08-.32-.76-.72-1.59-.39-.84-.84-1.67-.84-1.67l-.27-.59-.51-1.05-1.99-3.84c-.67-1.29-1.32-2.61-1.86-4-.54-1.4-.92-2.84-1.18-4.31-.52-2.93-.52-5.9-.31-8.82.12-1.46.24-2.9.5-4.38.28-1.46.69-2.97 1.57-4.31.46-.7 1.06-1.34 1.79-1.8Zm20.43 1.32s-.01 0-.03-.03c-.08-.19-.22-.69-.01-1.28 0-.01.02-.05.03-.06h.61c.36 0 .83.02 1.3.05.94.05 1.86.16 1.86.16s.59.21.98.48c.66.4.33.65-.12.75.04.03-1.06.12-1.06.12s-.88-.1-1.76-.15c-.44-.02-.89-.04-1.23-.04h-.58Z"/><path fill="#202020" d="M103.57 158.63s.05 0 .1.02c.36.16.78.63.15 1.27-.01.01-.06.06-.09.07-.69.08-1.38.25-2.03.5-.81.31-1.6.77-2.23 1.31-.62.52-.92 1.22-.72 1.78.09.25.25.4.59.54.32.12.77.18 1.2.21.86.07 1.75-.04 2.64-.22 1.78-.36 3.58-1.04 5.49-1.44 1.89-.42 3.81-.67 5.73-.78 3.85-.23 7.71.1 11.48.77 1.87.33 3.7.67 5.49.59l.53-.04.31-.04c.2-.03.41-.06.61-.1 0 0 .48-.05 1.12-.21.64-.15 1.42-.45 2.02-.8.99-.64 1.27-.94 1.31-.74.03.18-.28.79-.89 1.36.08-.04-.66.64-1.57 1.07-.9.46-1.91.69-1.91.69-.23.04-.46.08-.69.1l-.35.03-.39.03c-.25.01-.49.02-.74.02-1.96-.02-3.83-.42-5.65-.72-3.63-.61-7.32-.88-10.98-.63-1.83.12-3.64.39-5.42.79-1.77.39-3.51 1.05-5.43 1.43-.96.18-1.96.28-2.97.19-.5-.06-1.01-.1-1.57-.35-.56-.21-1.14-.78-1.3-1.43-.18-.64-.09-1.27.16-1.84.25-.55.63-.98 1.03-1.32.8-.67 1.67-1.16 2.6-1.53.76-.29 1.56-.49 2.37-.58"/><path fill="#212121" d="M103.29 159.99c-1.44.19-2.82.81-3.92 1.75-.45.39-.89.94-.77 1.52.08.38.39.67.72.86.64.35 1.4.4 2.12.38 1.34-.04 2.67-.27 3.93-.69-.11-.78-.3-1.54-.5-2.3-.19-.73-.41-1.53-1.02-1.98"/><path fill="#202020" d="M102.69 159.4s.05 0 .1.01c.38.13.82.57.25 1.26-.01.01-.06.06-.09.07-.67.13-1.33.37-1.93.7-.58.32-1.22.77-1.56 1.2-.17.22-.21.39-.18.49.01.09.15.27.38.4.47.27 1.14.32 1.85.29.72-.02 1.43-.11 2.14-.25l.59-.13.36-.1.03.02c.01 0 .02 0 .03-.01 0-.02.02-.02-.01-.24-.09-.67-.15-1.56-.28-2.24-.25-1.13-.65-1.35-.43-1.41.19-.06.85.41 1.16 1.21 0-.08.34.82.57 1.75.07.23.13.47.19.69.1.41.19.79.27 1.12-.23.17-.56.22-.74.3-.19.07-.31.11-.31.11l-.61.16-.56.12c-.78.16-1.57.25-2.36.28-.78.02-1.69 0-2.56-.46-.42-.24-.88-.62-1.05-1.28-.15-.66.14-1.26.42-1.62.3-.39.64-.66.96-.91a8.3 8.3 0 0 1 3.36-1.51Zm9.22-13.2h-.04a2.35 2.35 0 0 1-1.07-.71s-.03-.04-.03-.05c0 0 .12-.18.3-.42s.43-.55.71-.83c.54-.58 1.18-1.04 1.18-1.04s.5-.19.9-.19c.65-.05.58.34.39.65.02 0-.11.16-.24.32-.13.17-.26.33-.26.33s-.53.4-.99.88c-.23.24-.44.5-.59.7s-.25.35-.25.35Z"/><path fill="#202020" d="M97.28 163.79s0-.04.02-.09c.15-.32.59-.82 1.27-.19.01.01.06.07.07.1l.3 2.25.8 5.98c.08.46.12.52.46.75.34.2.79.39 1.22.51.87.25 1.81.29 2.75.21 3.8-.3 7.25-2.99 11.59-3.32 4.25-.3 8.2 1.09 12.09 1.33 1.95.15 3.87-.08 5.61-.81l.36-.16.14-.07.28-.14.56-.31s.45-.21 1.05-.55c.6-.33 1.35-.79 1.98-1.16 2.1-1.33 1.54-.48.43.62.07-.04-.6.59-1.35 1.2-.74.61-1.59 1.16-1.59 1.16l-.61.32-.31.15-.37.17c-.24.1-.49.2-.73.29-2 .73-4.14.77-6.16.6-4.04-.39-7.88-1.66-11.65-1.24-3.74.34-7.13 2.97-11.41 3.29-1.05.08-2.14 0-3.19-.32-.53-.18-1.01-.35-1.54-.71-.26-.18-.54-.45-.72-.8-.17-.34-.21-.66-.25-.92l-.79-5.9-.3-2.25Z"/><path fill="#212121" d="m99.12 172.74.72 6.07c.02.18.05.37.15.52.14.2.39.29.63.36 1.6.49 3.24.87 4.9 1.13 2.64.42 5.38.53 7.93-.26 1.21-.38 2.36-.95 3.54-1.4 2.96-1.14 6.21-1.52 9.36-1.11 1.47.19 2.97.55 4.42.2 1.19-.29 2.21-1.03 3.08-1.89 1.91-1.88 3.19-4.38 3.61-7.02a9.2 9.2 0 0 1-4.58 2.6c-1.19.27-2.42.31-3.64.34-2.48.07-4.97.13-7.41-.29-1.56-.27-3.1-.73-4.68-.72-4.29.03-8.04 3.52-12.33 3.35-1.56-.06-3.05-.6-4.52-1.14"/><path fill="#202020" d="M98.5 173.3s0-.05.02-.09c.16-.32.6-.81 1.27-.17.01.01.06.07.07.1l.27 2.25.24 2.03.12 1.01.06.46c.02.1 0 .03.01.05-.03 0 .39.14.69.23l.96.27q.975.255 1.95.45c2.62.52 5.3.82 7.85.33 1.27-.23 2.45-.73 3.72-1.28 1.26-.55 2.63-1 4-1.3 1.38-.29 2.79-.44 4.2-.44 1.4-.01 2.85.2 4.15.4 1.32.19 2.51.18 3.57-.42 1.07-.57 2.01-1.51 2.79-2.52.78-1.02 1.4-2.17 1.83-3.39l.03-.09-.31.2c-.16.09-.31.19-.48.27-.32.17-.65.33-.99.47-.68.28-1.39.47-2.1.59-1.44.24-2.81.21-4.17.26-1.37.03-2.75.04-4.14-.05-1.39-.08-2.81-.33-4.13-.62-1.01-.21-1.99-.39-2.93-.36-.95.02-1.91.23-2.86.54-1.9.61-3.75 1.61-5.82 2.26-.52.16-1.05.3-1.6.4l-.25.05h-.05l-.1.02-.4.04c-.26.04-.53.04-.8.04 0 0-.57 0-1.31-.18-.73-.16-1.6-.49-2.26-.83-2.26-1.11-1.19-1.04.28-.7-.07-.04.81.2 1.69.31.89.14 1.76.03 1.76.03.21 0 .42-.02.63-.04l.32-.03h.04l.32-.07c.22-.04.45-.08.67-.15.45-.11.89-.26 1.34-.42 1.78-.63 3.53-1.55 5.49-2.14.98-.29 2.01-.49 3.07-.5 1.06 0 2.07.19 3.04.39 2.63.65 5.24.72 7.96.64 1.36-.04 2.72-.03 3.97-.24.63-.1 1.23-.27 1.82-.51.29-.12.58-.25.85-.4l.41-.24c.15-.1.2-.11.54-.37.28-.19.56-.45.84-.69l.95-.94.49-.49.24-.24.12-.12.06-.06v.04l-.14.79c-.12.63-.2 1.18-.33 1.79-.06.3-.12.6-.22.92l-.13.48a13.4 13.4 0 0 1-2.17 4.17c-.88 1.12-1.89 2.17-3.24 2.9-.66.36-1.44.6-2.2.66-.76.07-1.49 0-2.19-.09-1.39-.21-2.64-.4-3.97-.39-1.31 0-2.63.14-3.91.41-1.29.28-2.52.68-3.75 1.22-1.23.53-2.57 1.11-3.99 1.36-2.83.54-5.67.2-8.37-.33-.68-.14-1.36-.29-2.03-.47l-1-.28-.5-.15c-.19-.06-.42-.13-.7-.35-.26-.2-.43-.59-.46-.83-.04-.25-.05-.38-.07-.56l-.12-1.01-.24-2.03zm.8 7.24s0-.02.03-.04c.19-.13.69-.29 1.28 0 .01 0 .05.03.06.04 0 .02 0 .33.02.8.02.46.06 1.08.15 1.68.15 1.21.46 2.39.46 2.39s.07.8.05 1.4c.04 1-.37.76-.72.22 0 .04-.18-.29-.35-.64s-.32-.71-.32-.71-.33-1.24-.49-2.52c-.08-.64-.13-1.28-.15-1.77s-.02-.82-.02-.84Z"/><path fill="#202020" d="M101.65 188.24s-.05 0-.08-.05c-.28-.23-.63-.79.16-1.27.01 0 .08-.04.11-.04.74.1 1.49.2 2.23.27 2.72.27 5.48.29 8.03-.46 1.28-.36 2.45-.97 3.73-1.6 1.27-.63 2.71-1.13 4.17-1.32 1.45-.21 2.97-.13 4.38.17 1.41.29 2.7.66 3.99.67 1.3.02 2.61-.22 3.87-.65l.73-.27.59-.25s.47-.17 1.11-.43c.63-.26 1.43-.63 2.09-.93 2.19-1.14 1.58-.34.37.66.08-.03-.67.53-1.48 1.05s-1.7.97-1.7.97l-.63.26c-.25.08-.24.11-1.13.39-1.37.42-2.83.65-4.3.54-1.48-.08-2.83-.51-4.12-.74-1.28-.24-2.58-.26-3.86-.05-1.29.2-2.48.64-3.69 1.25-1.2.6-2.5 1.26-3.89 1.64-2.78.77-5.65.74-8.41.47-.76-.07-1.52-.17-2.28-.27Z"/><path fill="#212121" d="M100.95 187.34c-.07 2.1.24 4.62.32 6.72 5.04 1.42 10.09.74 15.28.03 5.18-.71 10.32-1.86 15.54-2.18 1.14-.07 2.35-.12 3.29-.77 1.27-.88 1.64-2.59 1.59-4.14-.05-1.54-.42-3.08-.23-4.61-1.82 2.22-4.65 3.57-7.52 3.58-3.39 0-6.81-1.74-10.05-.76-1.67.51-3.04 1.68-4.59 2.47-3.99 2.04-8.76 1.4-13.19.72"/><path fill="#202020" d="M100.25 187.81s0-.05.03-.09c.2-.32.71-.72 1.28 0 .01.01.05.07.05.1 0 .73.03 1.47.07 2.22l.23 3.47.12.03c.16.04.32.09.48.12.32.06.65.14.97.19.65.11 1.31.2 1.97.25 2.65.22 5.35.01 8.04-.31 5.41-.6 10.73-1.79 16.24-2.38 1.35-.17 2.83-.16 4.02-.37 1.21-.2 1.99-.97 2.31-2.15.34-1.16.2-2.44.04-3.81l-.09-.96v-.05l-.27.22c-.14.12-.29.22-.44.33a10.9 10.9 0 0 1-2.92 1.48c-1.38.46-2.89.62-4.32.47-2.84-.27-5.46-1.31-7.94-.9-1.78.23-3.27 1.53-5.12 2.52-1.88.98-3.98 1.42-6.03 1.51l-.77.02h-1.18l-.73-.05s-.53-.06-1.23-.2c-.7-.13-1.58-.33-2.29-.54-2.41-.65-1.38-.8.15-.74-.08-.03.84.04 1.76.08.93.04 1.87.04 1.87.04l.65.03h.32l.75.01c.45 0 .9-.03 1.35-.06 1.78-.16 3.52-.6 5.05-1.48.78-.44 1.54-.97 2.39-1.45.84-.48 1.82-.89 2.83-1.05 3.02-.45 5.7.69 8.28.89 1.29.14 2.55 0 3.77-.4a9.4 9.4 0 0 0 2.54-1.3c.13-.09.26-.18.38-.29s.21-.15.51-.46c.49-.46 1.03-1.1 1.53-1.68l.37-.42.18-.21.09-.11.04-.05v.06l-.13 1.22c-.1.87-.17 1.68-.12 2.27l.02.34.02.25.05.5c.14 1.32.35 2.84-.09 4.33-.21.74-.59 1.49-1.19 2.06-.61.59-1.42.91-2.16 1.05-.75.15-1.46.17-2.13.22-.67.04-1.35.1-2.02.17-5.37.57-10.75 1.77-16.21 2.38-2.73.33-5.52.55-8.32.32-.7-.06-1.4-.15-2.09-.27-.35-.05-.69-.14-1.04-.2-.17-.03-.34-.08-.51-.12l-.87-.22c-.08-.03-.18-.03-.24-.07v-.26l-.03-.51-.03-.62-.07-1.01-.14-2.05c-.05-.76-.08-1.53-.08-2.31Zm20.7-92.01s.04 0 .08.05c.27.24.64.79-.15 1.27-.01 0-.08.04-.11.04-.04 0-.87-.13-2.08-.31-6-.88-12.47-1.84-19.3-2.85-1.02-.15-2.06-.3-3.09-.46-1.03-.15-2.11-.29-3.18-.54-1.07-.26-2.17-.61-3.18-1.25-1.01-.62-1.88-1.6-2.34-2.73-.47-1.13-.59-2.32-.62-3.45-.02-1.14.02-2.24.1-3.37.16-2.24.46-4.47.76-6.7.33-2.24.54-4.45.84-6.76.32-2.28.7-4.55 1.11-6.84.42-2.28.84-4.57 1.27-6.87.1-.57.21-1.15.39-1.76.15-.6.3-1.21.6-1.77l.39-.86c.15-.28.34-.53.52-.79s.35-.53.55-.77l.66-.68c1.8-1.8 4.2-2.81 6.58-3.33 2.4-.53 4.84-.66 7.25-.63 2.42.03 4.82.24 7.2.48l7.14.73c9.53 1 19 2.43 28.29 3.76 2.33.32 4.64.64 6.95.95 2.29.33 4.61.5 6.93 1.04 2.3.52 4.66 1.58 6.27 3.45.22.22.38.47.57.71.19.22.36.51.51.82.16.3.24.59.36.88l.23.87c.26 1.16.37 2.3.44 3.44.15 2.27.11 4.51.06 6.71-.06 2.18-.08 4.38-.24 6.54-.27 4.33-.85 8.52-1.54 12.58-.35 2.03-.76 4.03-1.28 5.98-.27.97-.55 1.94-.92 2.88-.39.94-.73 1.88-1.49 2.76-.74.84-1.75 1.38-2.74 1.65-.99.29-1.98.38-2.94.42-1.92.04-3.7-.04-5.51-.08-3.58-.1-7.02-.34-10.27-.72-1.62-.19-3.2-.39-4.73-.6-.87-.12-1.71-.23-2.53-.35-.24-.03-.45-.06-.62-.09-.35-.05-.54-.07-.54-.07s-2.04-.42-3.46-.81c-2.42-.6-1.4-.78.14-.74-.15-.06 3.68.23 3.68.23s.2.03.54.07c.66.09 1.45.2 2.37.32 2.83.39 5.83.79 9.01 1.04 3.18.27 6.52.37 10.05.43 1.73.03 3.51.03 5.04-.57.75-.3 1.38-.79 1.82-1.45.44-.7.8-1.55 1.11-2.41 1.2-3.5 1.87-7.38 2.47-11.34.6-3.98 1.03-8.07 1.16-12.28.04-2.1.13-4.27.13-6.4 0-2.14-.05-4.32-.43-6.4-.1-.51-.22-1.03-.39-1.48-.08-.24-.19-.44-.3-.64-.1-.2-.29-.41-.44-.61-.64-.81-1.42-1.5-2.31-2.03-1.79-1.08-3.97-1.54-6.17-1.85-4.49-.56-9.06-1.19-13.65-1.85-9.18-1.34-18.48-2.68-27.86-3.62-4.69-.44-9.38-1.09-14-.96-2.3.07-4.6.35-6.73 1.05-2.12.7-4.04 1.94-5.25 3.72-1.26 1.77-1.57 3.98-2.01 6.28-.41 2.27-.82 4.52-1.23 6.76-.38 2.24-.75 4.48-1.02 6.69-.23 2.23-.54 4.48-.84 6.67-.29 2.19-.56 4.36-.64 6.51-.08 2.14-.12 4.32.97 5.85 1.08 1.53 3.11 2.17 5.09 2.51 2.06.31 4.1.61 6.11.91 6.5.96 12.66 1.87 18.37 2.71 1.19.18 2 .3 2.05.3Z"/><path fill="#202020" d="M122.62 99.3s0 .01-.03.03c-.16.13-.6.4-1.22.4h-.06c-.01-.04-.91-3.2-.91-3.2s-.01-.55.09-.96c.11-.68.47-.5.74-.17.02-.04.5.82.5.82s.87 3.04.88 3.08Zm9.41 1.34h-.04c-.2-.04-.67-.23-1.08-.69 0 0-.03-.04-.03-.05 0 0 .11-.17.26-.41s.34-.57.52-.9c.36-.66.65-1.35.65-1.35s.32-.39.64-.64c.48-.45.69-.14.7.28.05-.03-.11.95-.11.95s-.31.73-.69 1.43c-.19.35-.39.7-.55.95-.16.26-.27.43-.28.44Zm-66.74 71.6s0 .04-.03.08c-.19.22-.65.8-1.28.04a.3.3 0 0 1-.05-.12c0-.87.23-1.71.57-2.47.65-1.45 1.78-2.6 2.97-3.49q.525-.405 1.08-.75s.47-.27 1.11-.58 1.44-.69 2.12-.97c2.28-1.02 1.58-.25.35.67.08-.03-.68.5-1.45 1.03-.78.53-1.52 1.08-1.52 1.08-.29.19-.58.39-.85.6-1.09.82-2.02 1.8-2.55 2.98-.28.61-.45 1.27-.45 1.91Z"/><path fill="#202020" d="M82.22 172.23s0 .05-.03.1c-.21.38-.73.67-1.28 0a1 1 0 0 1-.06-.09c0-.65-.17-1.3-.45-1.92-.53-1.18-1.46-2.16-2.54-2.98-.32-.24-.65-.47-1-.7 0 0-.38-.28-.97-.72-.56-.41-1.29-.94-1.86-1.4-1.98-1.52-.97-1.27.43-.62-.06-.05.76.36 1.6.79.84.42 1.7.92 1.7.92.31.21.62.42.92.65 1.19.9 2.31 2.05 2.97 3.5.35.76.57 1.6.57 2.47"/><path fill="#202020" d="M73.62 163.52s0 .05-.03.09c-.19.3-.69.74-1.28.02a.5.5 0 0 1-.06-.11v-4.05s.14-2.08.35-3.54c.29-2.48.59-1.49.76.05.03-.16.26 3.67.26 3.67v3.86Zm-8.63 11.53.03-.01c.19-.03.69-.08 1.28 0 .01 0 .05 0 .06.01v1.46s-.14.23-.35.4c-.29.28-.59.17-.76 0-.03.02-.26-.41-.26-.41v-1.44Zm3.23 0 .03-.01c.19-.03.69-.08 1.28 0 .01 0 .05 0 .06.01v1.46s-.14.23-.35.4c-.29.28-.59.17-.76 0-.03.02-.26-.41-.26-.41v-1.44Zm3.24 0 .03-.01c.19-.03.69-.08 1.28 0 .01 0 .05 0 .06.01v1.46s-.14.23-.35.4c-.29.28-.59.17-.76 0-.03.02-.26-.41-.26-.41v-1.44Zm3.23 0 .03-.01c.19-.03.69-.08 1.28 0 .01 0 .05 0 .06.01v1.46s-.14.23-.35.4c-.29.28-.59.17-.76 0-.03.02-.26-.41-.26-.41v-1.44Zm3.23 0 .03-.01c.19-.03.69-.08 1.28 0 .01 0 .05 0 .06.01v1.46s-.14.23-.35.4c-.29.28-.59.17-.76 0-.03.02-.26-.41-.26-.41v-1.44Zm3.24 0 .03-.01c.19-.03.69-.08 1.28 0 .01 0 .05 0 .06.01v1.46s-.14.23-.35.4c-.29.28-.59.17-.76 0-.03.02-.26-.41-.26-.41v-1.44Zm.56-2.25-.01-.03c-.04-.2-.12-.7.04-1.28 0-.01.02-.05.02-.05s.17 0 .41.02.55.05.86.09c.62.08 1.22.24 1.22.24s.36.24.56.52c.36.42.07.65-.23.72.02.03-.69.08-.69.08s-.53-.13-1.07-.2c-.27-.04-.54-.06-.75-.08-.21-.01-.35-.02-.36-.02Zm3.8.82s0-.01.04-.02c.2-.06.7-.14 1.28.09.01 0 .05.02.05.03a46 46 0 0 1-.18 1.72c-.1.85-.24 1.68-.24 1.68s-.23.52-.5.86c-.41.58-.66.27-.74-.15-.03.03-.09-.97-.09-.97s.13-.8.23-1.6c.04-.4.08-.81.12-1.12.03-.31.04-.52.04-.53Z"/><path fill="#202020" d="M86.09 178.81v-.03c-.03-.19-.12-.69-.05-1.28 0-.01 0-.05.01-.06h.3c.18 0 .41.03.63.07.45.08.87.27.87.27s.22.25.28.53c.13.42-.17.59-.38.65 0 .02-.45.06-.45.07 0 0-.28-.12-.59-.17-.3-.06-.62-.05-.62-.05"/><path fill="#202020" d="M85.89 178.82v-.04c0-.21.06-.71.39-1.22 0 0 .03-.04.04-.05.04.01 2.76.9 2.76.9s.4.28.65.58c.44.45.13.67-.24.72.02.04-.86 0-.86 0s-2.68-.87-2.72-.88Zm6.16.39s-.01 0-.03-.03a2 2 0 0 1-.28-1.25c0-.01 0-.05.02-.06.01 0 .24-.05.57-.11s.77-.12 1.21-.16c.88-.08 1.76-.04 1.76-.04s.57.17.93.42c.62.37.3.64-.1.75.02.02-.22.05-.46.1-.25.05-.48.09-.48.09s-.78-.03-1.57.04c-.39.03-.78.09-1.08.14-.29.06-.49.1-.5.1Zm-17.81 7.19s-.05 0-.09-.03c-.3-.2-.73-.7 0-1.28.01-.01.08-.05.11-.05l2.27.02 2.48.02h1.26s.48.05 1.22.12c.7.06 1.63.17 2.36.41 1.26.4 1.48.82 1.31.85-.18.06-.76-.08-1.49-.11.07.02-.79-.05-1.71 0l-1.89.1h-1.09l-2.48-.03-2.27-.02Zm11.51 1.51s-.04-.02-.07-.07c-.2-.31-.37-.94.52-1.17.02 0 .09-.01.12 0 .66.3 1.31.54 1.91.56.48.03.99-.14 1.33-.42.11-.09.2-.19.26-.3.07-.13.08-.17.16-.45 0 .02.05-.27.34-.58.15-.15.38-.27.66-.31.21-.03.33-.04.53-.06.72-.07 1.78-.05 2.51.41.62.36.84.81.9 1.05.06.25 0 .33-.09.3-.16-.07-.52-.51-1.16-.67.06.03-.66-.21-1.52-.02-.21.04-.43.09-.64.14-.09.02-.24.06-.25.07v.02c0 .02.01.01.01.04l-.03.15c-.12.48-.43.94-.79 1.24-.66.55-1.47.78-2.27.75-.91-.04-1.71-.36-2.42-.68Zm10.07 4.37-.01-.03c-.04-.19-.09-.69 0-1.28 0-.01 0-.05.01-.06h1.6s.26.14.44.35c.31.29.18.59 0 .76.02.03-.45.26-.45.26h-1.58Zm-21.92-5.55s0-.01.03-.02c.2-.08.7-.17 1.28.03.01 0 .05.02.05.03v.53c0 .31.01.71.05 1.11.06.8.22 1.59.22 1.59s-.04.54-.14.95c-.11.69-.47.54-.74.18 0 .02-.13-.2-.25-.43-.12-.24-.22-.48-.22-.48s-.17-.85-.24-1.71c-.04-.43-.05-.87-.05-1.2v-.57Zm.28 5.4s.02 0 .03.03c.12.19.29.68.06 1.28 0 .01-.02.05-.04.06-.02 0-.31.02-.75.04s-1.01.06-1.58.12c-1.14.1-2.27.26-2.27.26s-.75-.03-1.3-.15c-.93-.14-.63-.49-.11-.75-.07-.02 1.29-.46 1.29-.46s1.14-.16 2.3-.27c.58-.05 1.16-.09 1.6-.12.44-.02.74-.04.76-.04Zm-6.34-2.41-.03-.03a2.8 2.8 0 0 1-.41-1.21v-.06l2.18-.73s.4.01.71.13c.51.14.44.48.23.72.04.02-.54.45-.54.45l-2.15.73Zm72.37-14.66-.01-.03c-.03-.19-.08-.69 0-1.28 0-.01 0-.05.01-.06h1.46s.23.14.4.35c.28.29.17.59 0 .76.02.03-.41.26-.41.26h-1.44Zm2.11 2.29s-.01 0-.01-.04c-.02-.21.09-.69.4-1.22 0 0 .03-.04.03-.05 0 0 .48.16.98.09.5-.05.94-.3.94-.3l.67-.05c.51-.1.65.19.5.57.08.01-.52.72-.55.7 0 0-.67.38-1.43.45-.38.04-.76.02-1.05-.03s-.48-.12-.49-.12Z"/><path fill="#202020" d="M146.61 176.25s0 .04-.04.08c-.23.28-.78.65-1.27-.14 0-.01-.04-.08-.04-.11l.28-2.25 1.66-13.53.15-1.26s.1-.49.25-1.21c.15-.7.38-1.58.65-2.28.43-1.2.73-1.49.8-1.33.09.17 0 .79-.07 1.54.03-.07-.1.81-.17 1.74l-.12 1.88-1.79 14.61-.28 2.25Zm8.2-.16s0 .04-.02.09c-.16.32-.6.82-1.27.17a.4.4 0 0 1-.07-.1l-.28-2.25-1.66-13.53-.15-1.26s-.08-2.07-.19-3.51c-.13-1.21-.15-1.61.03-1.53.16.08.48.66.72 1.41 0-.08.26.82.45 1.76l.36 1.88 1.79 14.61.28 2.25Zm-6.38-22.63v-.03c0-.2 0-.7.16-1.27 0-.01.01-.05.02-.05.02 0 1.45.19 1.45.19s.22.17.35.4c.24.32.09.61-.1.75.01.03-.44.2-.44.2s-1.41-.18-1.43-.18Zm-3.88 32.59-.03-.03c-.1-.18-.3-.65-.24-1.26 0-.01 0-.05.01-.06.01 0 .2-.04.48-.08.28-.05.66-.1 1.03-.14.75-.09 1.49-.11 1.49-.11s.49.12.83.33c.57.3.33.6-.01.76.03.03-.8.27-.8.27s-.69.03-1.37.11c-.34.04-.69.09-.95.13-.26.05-.44.08-.44.08m3.92.37.02-.03c.15-.13.38-.62.95-.86.01 0 .05-.01.07 0 0 0 .23.23.35.62.14.4.13.87.08 1.26s-.12.73-.16.97c-.03.24-.04.38-.04.38s-.04.08-.1.21c-.06.12-.13.27-.19.42-.07.24-.15.4-.28.44-.12.04-.32-.05-.45-.24 0 .03-.15-.2-.22-.46-.08-.25-.11-.5-.11-.5s.01-.21.06-.48c.04-.28.11-.62.15-.91.08-.65-.1-.8-.12-.81Z"/><path fill="#202020" d="M149.81 190.43s-.05 0-.09-.03c-.31-.17-.78-.64-.1-1.28.01-.01.07-.05.1-.06l2.26-.14 1.07-.07c.34-.02.76-.04 1.01-.07.15-.02.26-.07.28-.09s.02 0 .04-.1c.1.27-.07-1.92-.04-3.37-.03-2.49.4-1.55.76-.05 0-.08.19.82.36 1.74.09.48.18.9.24 1.31.03.21.03.43 0 .59-.02.17-.06.27-.06.27-.1.31-.35.62-.63.77-.28.16-.54.22-.76.26-.46.06-.76.06-1.13.09l-1.07.07-2.26.14Zm4.94-7.77-.02-.03c-.09-.17-.3-.62-.48-1.19 0-.01-.01-.05-.01-.05.01 0 .73-.29.73-.29s.17.08.33.24c.25.21.31.52.28.7.02.02-.11.32-.11.32s-.71.28-.72.29Zm.24-5.97s-.02.04-.07.06c-.31.18-.95.35-1.15-.56 0-.02-.01-.09 0-.12.34-.69.7-1.36 1.07-2.03.92-1.64 1.91-3.23 3-4.76l.75-1.04s1.37-1.61 2.5-2.58c1.86-1.68 1.41-.73.55.53.06-.05-.48.68-1.01 1.45-.53.76-1.04 1.56-1.04 1.56l-.63.87a54 54 0 0 0-2.92 4.64q-.54.975-1.05 1.98"/><path fill="#202020" d="M162.95 165.33s-.04 0-.09-.02c-.32-.15-.84-.57-.21-1.26a.4.4 0 0 1 .1-.07l2.26-.31.75-.09 1.27-.14s2.1-.07 3.58.05c2.5.16 1.51.51 0 .76.08 0-.83.13-1.75.27-.94.15-1.86.29-1.86.29l-1.07.12-.74.09-2.23.31Zm9.34 0s0-.05.03-.09c.19-.3.67-.75 1.28-.05.01.01.05.07.06.11l.03 2.28c.02 2.75-.04 5.5-.18 8.24l-.07 1.27s-.27 2.08-.6 3.52c-.51 2.45-.72 1.43-.75-.11-.02.08 0-.84 0-1.78v-1.89l.06-1.08c.14-2.72.19-5.44.18-8.16l-.03-2.26Zm-.05 18.66-.03-.03c-.11-.17-.41-.59-.39-1.22 0-.01 0-.05.02-.06.01 0 .26-.09.68-.14.41-.04 1.01-.03 1.58.31.54.32.91.91.97 1.45.03.59-.09.75-.08.77 0 .02-.32.54-.49.7-.15.14-.03.36-.14.46-.05.04-.14.08-.27.03-.13-.04-.27-.19-.34-.36-.03.03-.12-.38-.09-.67.01-.3.01-.52.01-.52.02-.09.16-.39-.3-.69-.18-.11-.48-.14-.72-.11s-.42.09-.42.09Zm1.69 4.18.02-.03c.13-.16.53-.46 1.09-.67.01 0 .05-.02.06-.02 0 0 .25.41.61.7.36.3.79.47.79.47s.22.24.41.49c.34.35.18.64-.16.74.03.06-.79.05-.79.02 0 0-.62-.25-1.13-.68-.26-.21-.49-.46-.64-.66-.16-.2-.25-.35-.25-.36Zm-14.02-14.97h.03c.18.08.61.33 1.04.75 0 0 .03.04.04.04-.22.27-.32.54-.3.57v.01c.01 0-.1.13-.06.34.05.15.23.21.29.33.07.11.03.31-.18.42.03.02-.23.12-.48.08-.25-.03-.47-.15-.47-.15-.25-.22-.43-.55-.46-.9-.03-.76.33-1.18.55-1.51Zm2.82 0h.03c.18.08.61.33 1.04.75 0 0 .03.04.04.04-.22.27-.32.54-.3.57v.01s-.1.13-.06.34c.05.15.23.21.29.33.07.11.03.31-.18.42.03.02-.23.12-.48.08-.25-.03-.47-.15-.47-.15-.25-.22-.43-.55-.46-.9-.03-.76.33-1.18.55-1.51Zm2.82 0h.03c.18.08.61.33 1.04.75 0 0 .03.04.04.04-.22.27-.32.54-.3.57v.01c.01 0-.1.13-.06.34.05.15.23.21.29.33.07.11.03.31-.18.42.03.02-.23.12-.48.08-.25-.03-.47-.15-.47-.15-.25-.22-.43-.55-.46-.9-.03-.76.33-1.18.55-1.51Zm2.81 0h.03c.18.08.61.33 1.04.75 0 0 .03.04.04.04-.22.27-.32.54-.3.57v.01c.01 0-.1.13-.06.34.05.15.23.21.29.33.07.11.03.31-.18.42.03.02-.23.12-.48.08-.25-.03-.47-.15-.47-.15-.25-.22-.43-.55-.46-.9-.03-.76.33-1.18.55-1.51Zm-8.45 5.01.03.01c.18.08.61.33 1.04.75 0 0 .03.04.04.04-.22.27-.32.54-.3.57v.01c.01 0-.1.13-.06.34.05.15.23.21.29.33.07.11.03.31-.18.42.03.02-.23.12-.48.08-.25-.03-.47-.15-.47-.15-.25-.22-.43-.55-.46-.9-.03-.76.33-1.18.55-1.51Zm2.82 0 .03.01c.18.08.61.33 1.04.75 0 0 .03.04.04.04-.22.27-.32.54-.3.57v.01s-.1.13-.06.34c.05.15.23.21.29.33.07.11.03.31-.18.42.03.02-.23.12-.48.08-.25-.03-.47-.15-.47-.15-.25-.22-.43-.55-.46-.9-.03-.76.33-1.18.55-1.51Zm2.82 0 .03.01c.18.08.61.33 1.04.75 0 0 .03.04.04.04-.22.27-.32.54-.3.57v.01c.01 0-.1.13-.06.34.05.15.23.21.29.33.07.11.03.31-.18.42.03.02-.23.12-.48.08-.25-.03-.47-.15-.47-.15-.25-.22-.43-.55-.46-.9-.03-.76.33-1.18.55-1.51Zm2.81 0 .03.01c.18.08.61.33 1.04.75 0 0 .03.04.04.04-.22.27-.32.54-.3.57v.01c.01 0-.1.13-.06.34.05.15.23.21.29.33.07.11.03.31-.18.42.03.02-.23.12-.48.08-.25-.03-.47-.15-.47-.15-.25-.22-.43-.55-.46-.9-.03-.76.33-1.18.55-1.51Zm-8.45 5.01h.03c.18.08.61.33 1.04.75 0 0 .03.04.04.04-.22.27-.32.54-.3.57v.01c.01 0-.1.13-.06.34.05.15.23.21.29.33.07.11.03.31-.18.42.03.02-.23.12-.48.08-.25-.03-.47-.15-.47-.15-.25-.22-.43-.55-.46-.9-.03-.76.33-1.18.55-1.51Zm2.82 0h.03c.18.08.61.33 1.04.75 0 0 .03.04.04.04-.22.27-.32.54-.3.57v.01s-.1.13-.06.34c.05.15.23.21.29.33.07.11.03.31-.18.42.03.02-.23.12-.48.08-.25-.03-.47-.15-.47-.15-.25-.22-.43-.55-.46-.9-.03-.76.33-1.18.55-1.51Zm2.82 0h.03c.18.08.61.33 1.04.75 0 0 .03.04.04.04-.22.27-.32.54-.3.57v.01c.01 0-.1.13-.06.34.05.15.23.21.29.33.07.11.03.31-.18.42.03.02-.23.12-.48.08-.25-.03-.47-.15-.47-.15-.25-.22-.43-.55-.46-.9-.03-.76.33-1.18.55-1.51Zm2.81 0h.03c.18.08.61.33 1.04.75 0 0 .03.04.04.04-.22.27-.32.54-.3.57v.01c.01 0-.1.13-.06.34.05.15.23.21.29.33.07.11.03.31-.18.42.03.02-.23.12-.48.08-.25-.03-.47-.15-.47-.15-.25-.22-.43-.55-.46-.9-.03-.76.33-1.18.55-1.51Zm-8.45 5.01h.03c.18.08.61.33 1.04.75 0 0 .03.04.04.04-.22.27-.32.54-.3.57v.01c.01 0-.1.13-.06.34.05.15.23.21.29.33.07.11.03.31-.18.42.03.02-.23.12-.48.08-.25-.03-.47-.15-.47-.15-.25-.22-.43-.55-.46-.9-.03-.76.33-1.18.55-1.51Zm2.82 0h.03c.18.08.61.33 1.04.75 0 0 .03.04.04.04-.22.27-.32.54-.3.57v.01s-.1.13-.06.34c.05.15.23.21.29.33.07.11.03.31-.18.42.03.02-.23.12-.48.08-.25-.03-.47-.15-.47-.15-.25-.22-.43-.55-.46-.9-.03-.76.33-1.18.55-1.51Zm2.82 0h.03c.18.08.61.33 1.04.75 0 0 .03.04.04.04-.22.27-.32.54-.3.57v.01c.01 0-.1.13-.06.34.05.15.23.21.29.33.07.11.03.31-.18.42.03.02-.23.12-.48.08-.25-.03-.47-.15-.47-.15-.25-.22-.43-.55-.46-.9-.03-.76.33-1.18.55-1.51Zm2.81 0h.03c.18.08.61.33 1.04.75 0 0 .03.04.04.04-.22.27-.32.54-.3.57v.01c.01 0-.1.13-.06.34.05.15.23.21.29.33.07.11.03.31-.18.42.03.02-.23.12-.48.08-.25-.03-.47-.15-.47-.15-.25-.22-.43-.55-.46-.9-.03-.76.33-1.18.55-1.51Zm-86.48 4.68v-.03c-.02-.19-.04-.69 0-1.28v-.06h.73s.12.14.2.35c.14.29.08.59 0 .76 0 .03-.21.26-.21.26zm1.46 1.65v-.03c-.02-.19-.05-.69 0-1.28v-.06h.87s.14.14.24.35c.17.29.1.59 0 .76.01.03-.25.26-.25.26zm2.39-2.15-.02-.03a6 6 0 0 1-.57-1.15c0-.01-.02-.05-.02-.05.01 0 .88-.43.88-.43s.2.06.39.19c.3.18.36.48.33.68.02.02-.13.35-.13.35s-.85.42-.86.43Zm5.83-55.04s.05.01.08.06c.27.28.5.87-.32 1.24-.01 0-.08.03-.11.03-.68-.18-1.38-.28-2.06-.27-1.31.01-2.57.47-3.29 1.47-.18.24-.34.51-.44.79-.03.07-.05.14-.07.21-.05.12-.09.33-.08.55-.11.29.26 1.31-.14 1.16l-.66.29-.26.11c-.06.1-.14-.08-.22-.22l-.23-.4c-.16-.31-.29-.42-.43-.59l-.4-.47c-.51-.52-1.12-.95-1.77-1.28-1.57-.79-3.51-.92-5.03-.11-1.54.78-2.71 2.37-2.96 4.07-.05.21-.04.42-.06.64.04.4.1.99.18 1.47l.13.76.03.19c0 .05.05.16-.04.08l-.36-.23c-.52-.32-1.05-.68-1.5-.86a3 3 0 0 1-.17-.06l-.08-.02s-.1-.02-.15-.04c-.1-.03-.2-.04-.3-.05-.2-.03-.4-.03-.61-.02-.4.02-.8.12-1.16.29-.35.17-.68.42-.95.72l-.16.2-.11.15c-.13.2-.25.41-.34.63 0 0-.04.08-.1.23-.01.04-.03.08-.05.12-.02.05-.06.21-.08.33-.04.25-.09.53-.14.84-.34-.07-.71-.17-1.07-.24a5.7 5.7 0 0 0-1.77-.05c-1.15.21-1.52.42-1.49.21.04-.18.54-.65 1.33-.95-.05.01.27-.13.79-.23.26-.05.56-.08.87-.09h.28c.02 0 .03-.01.04-.02 0-.03-.01-.05-.02-.07s.02-.13.02-.13c.02-.08.04-.15.06-.22.08-.26.14-.42.14-.42.13-.3.31-.59.5-.85.05-.07.1-.13.15-.2l.08-.1.14-.15a4.16 4.16 0 0 1 1.76-1.12c.54-.18 1.1-.25 1.66-.22.5 0 1.33.26 1.09.19s.02-.42.02-.42c0-.27.07-.53.11-.79a7.05 7.05 0 0 1 3.78-4.82c1.95-.95 4.27-.76 6.11.18.79.39 1.51.91 2.13 1.54l.13.14v-.03c.03-.1.06-.21.11-.3.15-.4.36-.77.62-1.11.5-.68 1.21-1.23 1.98-1.55s1.59-.47 2.39-.47c.83 0 1.65.11 2.43.32Zm52.3 4.75s-.03 0-.06-.04c-.09-.11-.24-.28-.31-.5-.06-.21-.06-.51.43-.78.02-.01.1-.04.14-.04.49.07.94.26 1.33.53.2.13.38.3.54.47.11.13.09.1.09.1l.04-.04.61-.64c.45-.45.93-.88 1.46-1.27 1.04-.78 2.42-1.35 3.83-1.27.7.04 1.41.19 2.05.55.16.08.32.2.46.3l.05.04v-.02l.26-.35c.21-.28.46-.55.72-.77.53-.46 1.14-.8 1.79-1.03 1.19-.43 2.5-.5 3.74-.15 1.23.35 2.28 1.09 3.11 1.99.84.9 1.45 1.97 1.87 3.1.42 1.12.65 2.34.58 3.58a6 6 0 0 1-.22 1.39v.03h-.02l.13-.05q.24-.075.48-.12c.64-.14 1.45-.05 2.06.26.63.3 1.23.83 1.47 1.62.12.39.09.84.05 1.11-.04.28-.07.58-.06.69s.35-.15.35-.15l.03-.01c.03 0 .58-.22 1.33-.32.75-.11 1.69-.07 2.42.14 1.27.35 1.52.72 1.36.77-.17.08-.78-.03-1.5-.02.06.02-.56-.02-1.28.09-.72.1-1.48.42-1.79.59-.11.06-.17.09-.17.09l-.24.1c-.11.04-.27.09-.41.11-.24.04-.48.01-.69-.08a1.5 1.5 0 0 1-.32-.19c-.03-.02-.05-.04-.07-.06-.04-.04 0 0-.12-.14-.17-.21-.24-.49-.27-.76-.02-.83.17-1.31.06-1.55-.08-.3-.38-.6-.75-.78-.4-.18-.76-.24-1.22-.15-.11.02-.22.05-.34.08l-.08.03s-.13.04-.18.07l-.4.18c-.27.14-.55.3-.85.5l-.48.32c-.11.09-.1.02-.12 0l-.06-.08-.24-.33c-.05-.06-.07-.09-.05-.07l-.13-.18-.23-.31-.04-.05-.02-.03.11-.1c.2-.17.17-.2.25-.3l.34-.5c.14-.18.15-.29.21-.42l.15-.39c.03-.12.06-.24.08-.36.04-.24.08-.49.09-.74.09-2.02-.72-4.17-2.09-5.68-.69-.75-1.55-1.34-2.49-1.61-.92-.27-1.97-.22-2.89.12-.5.18-.97.45-1.36.78-.2.17-.37.36-.52.56l-.11.16-.05.08s-.06.13-.09.19c-.12.29-.26.57-.37.87l-.17.45-.09.23-.04.11s-.02.11-.05.04l-.63-.83c-.23-.33-.42-.47-.62-.69-.11-.07-.19-.14-.31-.2-.42-.24-.93-.35-1.45-.38-1.05-.05-2.06.35-2.97 1.01-.45.33-.88.71-1.29 1.13-.22.23-.37.38-.65.69l-1.19 1.32-.11.13s-.05-.12-.08-.17l-.17-.43c-.09-.21-.17-.46-.27-.62l-.15-.26-.1-.12c-.09-.1-.19-.2-.31-.27-.23-.16-.49-.27-.75-.3Zm-43.18-38.17s-.01-.02 0-.05c.08-.22.35-.68 1.01-.79h.07c.01.02.24.31.56.76s.71 1.05 1.07 1.68c.73 1.24 1.28 2.57 1.28 2.57s.23.92.24 1.59c.06 1.13-.36.79-.72.23 0 .04-.19-.31-.39-.66-.21-.35-.41-.7-.41-.7s-.52-1.23-1.2-2.38c-.34-.58-.7-1.14-1-1.55-.29-.41-.51-.69-.52-.7Zm-10.24 5.84s-.02 0-.02-.05c-.04-.23-.03-.77.53-1.17.01 0 .05-.03.07-.03s.38.17.9.44 1.2.64 1.85 1.05c1.32.81 2.51 1.77 2.51 1.77s.69.73 1.06 1.36c.66 1.01.1.9-.52.55.02.04-.34-.2-.7-.43l-.74-.45s-1.12-.89-2.35-1.65c-.61-.38-1.25-.73-1.73-.98-.49-.25-.83-.4-.85-.41Zm-2.69 10.51s-.01 0-.02-.04c-.03-.22.01-.73.43-1.21 0 0 .04-.04.05-.04s.26.09.63.21.86.26 1.36.37c.99.23 2 .34 2 .34s.64.21 1.11.43c.79.31.48.61-.05.76.03.02-.29.07-.61.11s-.66.06-.66.06-1.08-.11-2.13-.36c-.53-.12-1.05-.27-1.45-.4-.39-.13-.66-.22-.67-.23Zm2.86 9.39-.02-.03c-.1-.16-.35-.6-.57-1.14 0-.01-.02-.05-.02-.05.01 0 .76-.38.76-.38s.19.06.36.21c.28.19.35.49.34.68.02.02-.1.34-.1.34s-.74.37-.75.38Zm50.35 5.87s-.05 0-.1-.02c-.36-.16-.77-.61-.14-1.27.01-.01.06-.06.09-.07.7-.06 1.38-.24 2.04-.48 3.36-1.21 6.04-4.42 6.36-7.95.08-.86-.09-1.61-.63-2.08-.52-.48-1.37-.67-2.24-.69-.86-.02-1.85.08-2.64.28-.39.11-.73.29-.88.48-.15.2-.18.41-.07.67.21.56.92.83 1.75.79a5.1 5.1 0 0 0 2.4-.74c1.5-.88 2.57-2.4 2.98-4.11.43-1.72.3-3.58-.24-5.31l-.17-.51-.11-.29c-.07-.2-.16-.39-.24-.58 0 0-.16-.47-.45-1.08-.28-.61-.7-1.36-1.08-1.97-.69-1-.91-1.33-.71-1.35.18 0 .74.34 1.32.9-.04-.07.63.6 1.2 1.4.58.79 1.04 1.7 1.04 1.7.09.21.18.42.26.64l.12.33.12.37c.08.24.14.48.2.72.48 1.93.52 4.01-.11 5.96-.62 1.95-2.03 3.68-3.91 4.6-.94.47-1.98.72-3.08.67-.55-.04-1.15-.18-1.68-.53-.54-.38-.93-.93-1.04-1.63-.12-.71.25-1.49.78-1.87.52-.4 1.07-.56 1.57-.67 1.01-.19 1.96-.29 3-.23 1 .07 2.18.33 3.02 1.25.4.44.68 1.01.79 1.57s.1 1.11.05 1.62c-.48 4.08-3.47 7.53-7.24 8.92-.76.27-1.55.47-2.36.55Z"/><path fill="#212121" d="M147.96 69.77c-.68-2.99-2.5-5.6-4.67-7.76-5.34-5.32-15.54-7.35-22.65-4.5-4.45 1.79-8.24 5.36-10.26 9.71-2.83 6.06-1.51 13.9 3.41 18.43 4.43 4.07 10.87 5.11 16.89 4.94 10.33-.31 19.69-10.26 17.29-20.8Zm-33.27-1.09c1.38-2.95 3.81-5.42 6.71-6.9 1.8-.92 3.81-1.42 5.85-1.55-.3 4.1-.17 8.23-.01 12.36-.48.25-.92.64-1.53 1.05-3.42 2.29-6.85 4.57-10.27 6.86-2.17-3.46-2.49-8.09-.75-11.82m2.08 13.54c2.9-1.52 5.67-3.3 8.24-5.32.71-.56 1.51-1.15 2.34-1.52.13 3.7.21 7.4-.07 11.08-3.67-.25-7.31-1.25-9.98-3.71-.18-.17-.36-.35-.53-.53m13.42 4.3h-.09c.1-3.73.09-7.46 0-11.2.15.08.3.15.44.24 3.27 2.01 6.53 4.03 9.8 6.04-2.54 2.88-6.26 4.8-10.16 4.92Zm11.46-6.67c-.91-.69-1.61-1.01-3.05-1.85-1.79-1.04-5.74-3.74-7.53-4.78-.33-.19-.68-.39-1.03-.55-.12-4.14-.3-8.28-.49-12.42 3.85.28 7.63 1.83 10.27 4.45 1.66 1.65 3.05 3.65 3.57 5.93.75 3.31-.03 6.53-1.74 9.21Z"/><g fill="#202020"><path d="M141.65 79s.04.03.06.08c.16.35.18.99-.72 1.06-.02 0-.09 0-.11-.01-.58-.4-1.23-.75-1.9-1.13-1.9-1.07-3.66-2.28-5.45-3.43-.89-.58-1.79-1.16-2.68-1.69-.22-.13-.44-.24-.67-.36l-.61-.33-.18-.09-.03-.19-.02-.4-.07-1.7-.25-6.39-.13-3.19-.05-1.43v-.3h.1l.4.05.79.07c.32.03.41.05.55.07l.41.06.82.15c2.17.44 4.27 1.27 6.13 2.5 1.86 1.25 3.43 2.88 4.62 4.77.59.95 1.06 2 1.34 3.12.28 1.1.38 2.23.34 3.36l-.04.63c0 .12-.03.23-.04.35-.03.23-.06.47-.1.7 0 0-.12.54-.38 1.23s-.67 1.52-1.1 2.14c-.71 1.06-1.07 1.26-1.1 1.09-.05-.18.19-.76.45-1.47-.05.06.3-.76.52-1.63.23-.87.31-1.77.31-1.77.04-.2.05-.41.08-.61.02-.1.02-.21.03-.31l.02-.38c0-.25.02-.49 0-.74-.03-1.99-.67-3.88-1.82-5.52-1.14-1.64-2.61-3.08-4.31-4.11-1.71-1.05-3.63-1.75-5.62-2.1-.25-.05-.5-.08-.75-.12l-.22-.03s0-.22.02.54l.12 3.15.25 6.29.05 1.28-.01-.01.09.05.18.1c.24.13.49.26.72.4.92.55 1.8 1.12 2.68 1.7 1.77 1.13 3.5 2.32 5.29 3.32.65.37 1.33.73 2 1.19Zm-10.87 7.15s0 .05-.03.09c-.07.1-.17.22-.29.3l-.37-.37c.12.18.18.41.02.68s-.33-.33-.33-.33c-.1-.06-.2-.16-.31-.29a.5.5 0 0 1-.06-.11v-9.57c0-.6 0-1.24.02-1.8v-.44l.02-.11c.03 0 .06.03.1.05l.2.11.78.43c.25.13.51.29.77.45l.49.3.78.48 3.12 1.92 3.12 1.92 1.95 1.2.38.24c.1.08.36.15.15.27l-.62.67c-.49.54-.65.66-.88.9-.94.86-1.98 1.62-3.1 2.24l-.42.22c-.1.05-.21.11-.31.16l-.64.29s-.51.19-1.23.36-1.63.3-2.39.31c-1.28.02-1.65-.17-1.52-.29.13-.14.74-.28 1.46-.46-.08 0 .79-.19 1.64-.5s1.66-.73 1.66-.73l.57-.26c.21-.12.25-.11.88-.48.99-.58 1.91-1.28 2.72-2.09l.15-.15-1.43-.88-3.07-1.89-3.07-1.89-.91-.56v9.63Zm-13.27-3.55s-.04.02-.1.01c-.36-.03-.97-.27-.62-1.12 0-.02.04-.08.07-.1.66-.35 1.31-.72 1.95-1.1 2.12-1.25 4.13-2.63 6.07-4.17.57-.4.81-.68 2.1-1.33l.78-.36.1-.05s.07-.04.06.02l.02.21.04.43c.02.29.06.56.06.88l.02.74c.04 1.24.07 2.49.07 3.74s0 2.5-.06 3.75l-.04.94-.07 1.16-.06.93c-.29 0-.61-.05-.92-.07l-.46-.04-.24-.03-.48-.05c-1.27-.16-2.53-.41-3.76-.81l-.29-.09-.16-.06-.33-.12c-.22-.08-.43-.17-.65-.26 0 0-.49-.24-1.11-.64s-1.35-.97-1.86-1.53c-.89-.93-.97-1.35-.81-1.33.19 0 .69.37 1.32.77-.05-.06.67.46 1.48.85.8.41 1.67.7 1.67.7.19.08.39.15.58.23.22.08.25.1.97.32 1.13.33 2.29.55 3.47.67l.31.03v-.12l.09-1.81c.04-1.21.05-2.42.04-3.63s-.04-2.43-.08-3.64-.37.24-.37.24c-.24.17-.47.34-.71.53a55 55 0 0 1-6.11 4.19c-.66.39-1.33.76-2 1.13Zm-2-14.04s-.02.04-.07.06c-.29.16-.95.37-1.15-.56v-.13c.36-.71.78-1.38 1.25-2.02 1.8-2.47 4.32-4.41 7.22-5.46.72-.26 1.46-.46 2.21-.61.37-.08.75-.13 1.13-.19l.3-.04.54-.05c.34-.02.76-.09 1.05-.05l-.16 2.94c-.03.72-.05 1.45-.05 2.17-.02 1.45 0 2.91.04 4.36l.07 2.19.04 1.22.02.55c-.11.12-.31.19-.46.28l-.21.13-.1.07-.21.15c-2.44 1.71-4.87 3.27-7.3 4.91l-3.75 2.5-.44.29-.22.15s-.06 0-.08-.04l-.07-.11-.52-.9-.13-.22-.06-.13-.12-.25c-.08-.17-.17-.33-.24-.5-.3-.68-.53-1.38-.72-2.09-.17-.72-.31-1.44-.36-2.18l-.02-.24v-.11l-.01-.23c-.01-.3-.02-.61 0-.91 0 0 .04-.55.18-1.27.15-.72.43-1.61.75-2.29.55-1.16.89-1.4.94-1.24.07.18-.08.78-.23 1.51.04-.07-.17.8-.25 1.69-.1.89-.03 1.8-.03 1.8-.01.26.01.52.02.78v.19l.07.72c.09.62.2 1.24.39 1.84.17.6.4 1.19.67 1.76l.25.51 3.24-2.16c2.41-1.63 4.9-3.24 7.26-4.89l.39-.27-.04-.97-.07-2.2c-.04-1.47-.06-2.94-.04-4.41 0-.74.03-1.47.05-2.21l.07-1.43-.25.03c-.35.05-.69.1-1.04.17-.69.14-1.36.32-2.01.56-2.61.94-4.93 2.73-6.57 4.98-.42.58-.8 1.2-1.13 1.84Z"/><path d="M148.5 69.12s.01.05 0 .1c-.11.37-.49.87-1.23.34-.01 0-.07-.06-.08-.08-.02-.04-.19-.81-.68-1.87l-.05-.1-.04-.08-.29-.58c-.41-.76-.89-1.51-1.44-2.23-1.11-1.44-2.42-2.8-3.99-3.89-3.15-2.19-7.17-3.52-11.35-3.8-4.19-.29-8.61.62-12.17 3.22-3.54 2.51-6.4 6.34-7.27 10.64-.86 4.31.08 9 2.66 12.46a14.36 14.36 0 0 0 4.85 4.09c1.87 1 3.92 1.64 5.97 2.02 2.06.39 4.13.52 6.16.53 1.03.01 1.99-.1 2.96-.18.95-.2 1.9-.35 2.79-.68 1.8-.58 3.47-1.42 4.91-2.47.76-.48 1.38-1.1 2.05-1.64.3-.31.59-.62.89-.92l.44-.45.38-.49c.25-.33.51-.65.75-.97.21-.34.43-.68.64-1.01.46-.65.71-1.38 1.07-2.04.26-.7.53-1.38.71-2.06.09-.41.18-.8.27-1.18.06-.23.09-.43.1-.59.03-.33.05-.52.05-.52s.1-.49.2-1.16c.02-.34.05-.72.08-1.11.04-.39.07-.79.04-1.14-.1-2.44.34-1.6.76-.05 0-.04.06.17.13.51.03.35.08.83.13 1.31.02.24.05.49.06.72 0 .23-.02.45-.02.63-.02.37-.03.62-.03.62s-.02.2-.06.56c0 .09-.03.19-.05.29-.08.36-.17.75-.26 1.17-.12.71-.44 1.38-.67 2.1-.26.71-.65 1.39-.99 2.12-.83 1.36-1.76 2.78-3.01 4-.58.66-1.29 1.2-1.97 1.8-.35.29-.74.53-1.12.8s-.76.53-1.18.75c-1.61 1-3.46 1.68-5.41 2.17-.49.1-.99.2-1.49.3-.51.04-1.02.09-1.54.14-1.03.08-2.04.06-3.08.03-2.07-.07-4.19-.31-6.31-.82-2.11-.52-4.22-1.31-6.13-2.54-1.93-1.19-3.61-2.88-4.85-4.84-2.45-3.96-3.17-8.97-1.95-13.54 1.28-4.58 4.43-8.42 8.29-10.94 1.94-1.24 4.1-2.17 6.34-2.6 2.23-.45 4.48-.52 6.66-.32 4.35.42 8.49 1.86 11.78 4.27 1.65 1.22 3.01 2.67 4.14 4.21.57.77 1.07 1.58 1.49 2.42.09.18.17.36.26.54.53 1.15.72 2.01.74 2.05Z"/></g><path fill="#202020" d="m98.74 53.07-.02-.02c-.11-.12-.39-.34-.85-.83 0 0-.03-.04-.04-.05 0 0 .12-.17.29-.28.16-.11.36-.16.36-.16s.15.11.22.32c.13.29 0 .59.03.76v.26Zm2.89-1.56-.01-.03c-.06-.19-.18-.67-.25-1.25v-.06c.01 0 .8-.16.8-.16s.16.11.29.3c.21.25.21.56.15.74.02.03-.18.3-.18.3s-.78.16-.79.16Zm-.69 3.61v-.03c.01-.19.12-.68.25-1.25 0-.01.01-.05.01-.05 0 .01.21.01.21 0 0 0 .07.13.19.3.18.24.31.51.29.7.03.02-.12.32-.13.32 0 0-.2.06-.4.06-.21.01-.42-.03-.42-.03Zm3.39-1.75-.01-.03c-.06-.19-.18-.67-.26-1.25v-.06c.01 0 .73-.14.73-.14s.15.11.27.3c.2.26.2.57.15.74.02.03-.16.29-.16.29s-.71.14-.72.15m-3.87 6.03-.02-.02c-.12-.12-.46-.36-.91-.8 0 0-.03-.04-.04-.04 0 0 .12-.17.28-.28.16-.12.34-.17.34-.17s.16.1.24.3c.14.28.06.59.08.75 0 .03.02.26.03.26m3.5-1.77v-.03c-.02-.19-.01-.69.03-1.28v-.06c0 .02.35-.04.34-.05 0 0 .1.11.24.27.22.21.35.49.34.68.03.02-.1.33-.11.33 0 0-.2.08-.41.11-.21.04-.43.03-.43.03m4.34-3.65v-.03c-.04-.19-.11-.68-.14-1.27v-.06l.66-.07s.12.13.22.33c.16.28.14.58.08.75.01.03-.16.28-.16.28s-.64.07-.65.07Zm50.93 40.55-.01-.03c-.07-.18-.21-.66-.29-1.25v-.06c.02.02.78-.24.77-.26 0 0 .18.07.36.21.29.18.38.47.35.67.03.02-.16.36-.16.36.01.03-.99.37-1.01.34Zm3.88-1.69-.02-.03c-.09-.17-.36-.6-.54-1.16 0-.01-.01-.05-.01-.06 0 0 .37-.17.74-.21.38-.05.75.02.75.02s.22.18.29.43c.13.36-.11.59-.25.72 0 .02-.29.19-.28.2 0 0-.18-.03-.35 0-.18.02-.34.1-.34.1Zm-.43 3.8v-.03c0-.19-.02-.69 0-1.28v-.06h.36s.06.15.1.35c.07.29.04.59 0 .76 0 .03-.1.26-.1.26zm-4.73-5.61V91c-.01-.2.04-.69.16-1.27 0-.01 0-.05.01-.05 0 0 .13.02.26 0s.25-.08.25-.08l.32.22c.28.15.46.4.43.63.04.02-.16.4-.18.4 0 0-.29.14-.6.19-.31.06-.65.02-.65.02Zm-4.26 4.26v-.03c-.04-.19-.07-.69-.01-1.28v-.06c.02.04 1.01-.1 1-.14 0 0 .19.09.38.25.3.2.34.51.25.71.03.02-.28.36-.28.36s-.32.09-.65.13c-.33.05-.68.05-.68.05Zm9.17-7.27-.03-.02c-.15-.13-.51-.47-.91-.9 0 0-.03-.04-.04-.04l.37-.36s.16.04.35.15c.28.14.46.38.53.54.03.02.08.29.08.29l-.36.36Zm-7.72 2.81-.02-.03c-.11-.16-.37-.58-.64-1.11l-.02-.05.51-.29s.15.07.31.22c.24.2.35.48.37.66.02.02-.02.31-.02.31s-.5.28-.5.29Zm-6.23 3.42v-.03c-.03-.19-.04-.69 0-1.28v-.06c0 .02.64-.06.64-.08 0 0 .13.11.28.28.23.23.3.52.25.72.03.03-.19.33-.19.33 0 .03-.95.16-.97.13Zm11.82-8.46-.03-.02c-.13-.14-.46-.52-.79-1.01 0 0-.03-.04-.03-.05l.66-.51s.19.03.39.14c.3.13.44.41.46.6.03.02-.03.35-.03.35s-.64.5-.65.5ZM97.6 56.67l-.03-.02c-.17-.1-.61-.32-1.09-.67 0 0-.04-.03-.04-.04 0 0 .14-.22.31-.39s.38-.3.38-.3.21.03.39.18c.26.2.3.51.33.68 0 .03.01.29.02.29-.01-.02-.28.25-.26.27Zm-2.13 4.99v-.03c-.04-.19-.14-.68-.21-1.26v-.06l.44-.07s.09.13.18.32c.13.27.15.58.12.75.01.03-.08.28-.08.28s-.42.07-.43.07Zm14.47-11.28-.02-.03c-.11-.16-.45-.53-.76-1.03 0 0-.02-.04-.03-.05 0 0 .24-.18.51-.24.26-.08.54-.06.54-.06s.18.16.22.39c.08.33-.13.58-.19.73-.02.03-.12.24-.11.24 0-.02-.17.03-.16.04Zm-4.8-.86-.01-.03c-.05-.19-.17-.67-.23-1.26v-.06c.01 0 .8-.14.8-.14s.15.11.28.3c.21.26.2.57.13.74.02.03-.18.3-.18.3s-.78.14-.79.14Zm8.78 1.68v-.03c0-.19-.01-.69 0-1.28v-.06h.22s.04.15.06.35c.04.29.03.59 0 .76 0 .03-.06.26-.06.26z"/></svg>