<?xml version="1.0" encoding="UTF-8"?><svg xmlns="http://www.w3.org/2000/svg" viewBox="0 0 180 180"><path d="M85.96 35c-16.36 2.84-32.66 6.01-48.88 9.58-4.6 1.01-9.19 2.05-13.77 3.11-.86.2-1.58 1.14-1.55 2.03.28 6.28.57 12.57.88 18.85.03.72.37 1.5 1.05 1.84a571 571 0 0 1 58.75 33.36c1.13.73 2.26 1.46 3.38 2.2 1.17.76 2.34 1.6 3.77 1.73 1.37.12 2.52-.43 3.74-.99q1.95-.9 3.93-1.77c5.23-2.33 10.49-4.58 15.8-6.74 10.49-4.28 21.11-8.23 31.84-11.85 3.02-1.02 6.05-2.02 9.09-2.98 1.47-.47 2.97-.88 4.43-1.39 1.25-.44 2.44-1.06 3.08-2.28.62-1.19.55-2.58.52-3.88-.03-1.45-.1-2.89-.11-4.34-.02-2.81.15-5.68 1.45-8.22.46-.91.33-2.4-.75-2.86-15.85-6.76-31.68-13.56-47.48-20.44-4.46-1.94-8.92-3.88-13.38-5.83-.97-.42-2.11-.29-2.69.71-.49.84-.27 2.26.71 2.69 15.74 6.99 31.52 13.91 47.33 20.72 4.47 1.92 8.93 3.84 13.41 5.76l-.75-2.86c-2.37 4.6-2.03 9.66-1.88 14.67.02.66.24 1.7-.22 2.06-.35.27-1.14.37-1.55.5l-2.28.72q-3.87 1.23-7.74 2.52a561 561 0 0 0-31 11.37q-7.575 3.045-15.06 6.3a471 471 0 0 0-7.66 3.4c-.91.41-1.93 1.19-2.89.7-1.15-.58-2.22-1.46-3.3-2.18-9.1-6.02-18.43-11.7-27.88-17.14a576 576 0 0 0-32.43-17.31l1.05 1.84c-.3-6.28-.6-12.57-.92-18.85l-1.55 2.03c16.14-3.84 32.35-7.37 48.58-10.77 4.6-.96 9.21-1.9 13.82-2.82 2.08-.41 1.18-3.52-.87-3.16Z"/><path d="M28.7 73.38c.08 18.11-1.42 36.31-4.77 54.11-.39 2.09-.86 4.15.87 5.79 1.53 1.45 3.62 2.49 5.37 3.64 3.77 2.47 7.53 4.94 11.31 7.4 7.52 4.89 15.08 9.72 22.74 14.4 3.8 2.32 7.66 4.54 11.46 6.85 3.3 2 6.42 4.27 10.07 5.61 1.76.65 3.78 1.1 5.66.9 2.08-.22 4.09-1.2 6.03-1.94 4.04-1.54 8.04-3.2 11.99-4.95 15.54-6.9 30.72-15.14 44.75-24.76 1.78-1.22 2.85-2.75 2.88-4.96.03-2.04-.49-4.16-.73-6.19-.53-4.45-.88-8.93-1.03-13.41-.31-8.93-.05-17.86.27-26.79.08-2.23.17-4.45.26-6.68.1-2.51-3.77-2.49-3.89 0-.85 17.11-1.72 34.44.57 51.48.08.62.31 1.5.06 2.09-.22.54-1.2 1.01-1.74 1.37-1.66 1.09-3.34 2.17-5.02 3.24-3.5 2.21-7.03 4.36-10.61 6.43-7.09 4.11-14.34 7.96-21.74 11.48-3.65 1.74-7.33 3.4-11.05 4.97-1.89.8-3.78 1.59-5.68 2.36-1.76.71-3.7 1.76-5.6 2.01-3.3.44-6.89-1.95-9.53-3.6-3.38-2.11-6.8-4.15-10.22-6.2-7.42-4.45-14.75-9.03-22.04-13.68-3.6-2.3-7.19-4.62-10.78-6.94-1.82-1.18-3.64-2.36-5.46-3.55-.87-.57-1.75-1.14-2.62-1.71s-1.94-1.09-2.72-1.78c-.03-.02-.21-.25-.13-.06.1.22.03-.26.04-.3.09-.39.15-.78.22-1.17q.315-1.68.6-3.36c.37-2.17.72-4.34 1.04-6.51.63-4.29 1.16-8.59 1.57-12.9.82-8.65 1.28-17.39 1.02-26.08-.07-2.2-.13-4.39-.22-6.59-.09-2.04-3.2-2.06-3.19 0Z"/><path d="M22.49 52.47c8.36 5.16 17.23 9.58 25.96 14.09 8.66 4.47 17.34 8.9 25.85 13.65 3.95 2.21 7.97 4.4 11.74 6.9 1.88 1.25 3.55 2.26 5.9 1.58.95-.28 1.84-.76 2.71-1.22 1.1-.58 2.24-.99 3.41-1.42 9.96-3.68 19.94-7.32 29.93-10.91 10.62-3.82 21.11-8.18 32.29-10.11 2.5-.43 1.45-4.29-1.06-3.83-9.67 1.77-18.89 5.32-28.08 8.72-9.72 3.6-19.48 7.06-29.19 10.66-2.45.91-4.94 1.76-7.35 2.75-1.43.59-3.48 2.4-5.06 1.64-.87-.42-1.65-1.11-2.48-1.62-.95-.58-1.91-1.15-2.87-1.72-1.97-1.16-3.95-2.29-5.94-3.41-8.26-4.62-16.69-8.92-25.12-13.23-9.73-4.98-19.37-10.14-29.07-15.18-1.75-.91-3.25 1.61-1.55 2.66Z"/><path d="M89.58 87.04c-.21 2.98-.25 5.97-.32 8.96-.03 1.46-.07 2.93-.12 4.39-.05 1.32-.06 2.57-.39 3.85-.42 1.63 1.54 2.69 2.74 1.6s1.03-2.93 1.09-4.39q.105-2.37.15-4.74c.07-3.22.04-6.45-.3-9.66-.19-1.8-2.71-1.85-2.84 0Zm-.07-38.31c-5.98-2.4-11.71-5.78-16.49-10.12-2.36-2.14-4.53-4.52-6.27-7.19-1.64-2.52-3.85-6.08-3.22-9.21.44-2.19 2.29-3.54 4.42-3.87 2.42-.38 4.63.67 6.61 1.97 4.33 2.85 7.12 7.62 8.86 12.39 2.07 5.66 3.03 11.67 3.49 17.66.21 2.73 4.3 2.81 4.31 0 .03-9.42-1.95-19.78 2.59-28.52 1.69-3.25 4.4-6.47 8.02-7.57 2.88-.87 5.43.49 6.16 3.43 1.14 4.54-1.41 9.06-4.45 12.22-1.45 1.51.71 3.58 2.26 2.26 3.79-3.19 6.83-8.29 6.58-13.39-.23-4.52-3.09-8.48-7.76-9.03-4.6-.54-9.13 2.55-11.89 5.98-3.05 3.79-4.86 8.44-5.56 13.24-1.04 7.1-.11 14.24-.27 21.37h4.31c-.69-11.92-3.55-26.31-14.07-33.56-2.6-1.79-5.69-3.1-8.91-2.84-3.13.26-6.17 1.73-7.83 4.5-2.16 3.61-1.09 7.79.62 11.33 1.6 3.31 3.85 6.34 6.4 8.98C73.26 44.8 80.76 49.1 88.6 51.98c2.06.76 2.87-2.46.9-3.25Z"/><path d="M88.74 50.32c-2.31.9-4.68 1.62-6.98 2.59-2.15.91-4.29 1.81-6.44 2.72-4.36 1.84-8.72 3.7-13.05 5.64-2.17.97-4.5 1.81-6.55 3.02-1.74 1.02-2.53 2.28-2.83 4.24-.34 2.26-.45 4.54-.84 6.8-.41 2.4-.9 4.78-1.34 7.17-.37 2.03 2.75 2.89 3.1.86.75-4.33 1.47-8.6 2.55-12.87.21-.82.1-1.42.77-1.78.78-.42 1.77-.64 2.59-1 2.05-.91 4.08-1.84 6.12-2.77 4.08-1.84 8.11-3.78 12.15-5.7 1.94-.93 3.89-1.84 5.83-2.78 2.08-1.02 4.05-2.23 6.11-3.28 1.55-.79.46-3.5-1.2-2.86Z"/><path d="M88.49 54.16c7.49 1.04 15.04-1.08 22.41-2.24a228 228 0 0 1 16.85-2.01c.97-.08 1.95-.17 2.92-.24l1.22-.09q.3-.03.6-.03c.67.08.53-.14-.43-.66v-1.17c-.12.47.02.37.41-.31l.98-.27-.2-.03c-1.66-.22-2.4 2.17-1.33 3.2 1.73 1.66 4.37.25 4.46-2.01.1-2.67-2.64-3.32-4.73-3.2-4.79.28-9.58.77-14.34 1.39-4.8.62-9.59 1.34-14.34 2.29s-9.24 2-14.02 1.94c-1.91-.03-2.46 3.16-.47 3.44Z"/><path d="M90.29 54.19c7.45 2.73 14.9 5.4 22.15 8.63a234 234 0 0 1 13.22 6.37c.41.22.83.43 1.23.66.32.18 1.17.48 1.36.79.17.28-.14 1.47-.2 1.91-.15 1.08-.29 2.17-.43 3.26-.3 2.29-.35 4.59-.58 6.89-.24 2.46-.81 4.91-.96 7.38-.11 1.87 2.89 2.29 3.28.44.48-2.26.56-4.6.94-6.88s.93-4.34 1.24-6.54.9-4.38.75-6.5c-.17-2.46-1.93-3.28-3.9-4.26C120.74 62.5 113 58.93 105 55.87c-4.56-1.74-9.19-3.38-13.9-4.66-1.96-.53-2.68 2.32-.83 3Zm-.71 51.55c-.62 2.52-.46 5.29-.5 7.87-.05 2.5-.1 4.99-.13 7.49-.06 5.24-.09 10.48-.14 15.72-.04 5.16-.09 10.31-.13 15.47-.02 2.58-.05 5.16-.07 7.74-.01 1.33-.03 2.66-.04 3.99s-.14 2.68.19 3.97c.44 1.74 3.02 1.7 3.48 0 .35-1.28.24-2.65.24-3.97s.02-2.66.02-3.99c.02-2.5.03-4.99.05-7.49.04-5.24.08-10.48.11-15.72.04-5.16.08-10.31.11-15.47.01-2.58 0-5.16-.01-7.74 0-2.59.19-5.34-.39-7.87-.32-1.39-2.45-1.36-2.79 0m-33.3-18.7c.54 8.95-.46 18.02-1.66 26.88-1.25 9.27-2.8 18.49-3.88 27.78-.38 3.27-1.98 11.07 3.44 11.08 1.95 0 2.49-3.1.47-3.5-.53-.1-.12.05-.12.05-.14-.22-.19-.6-.23-.85-.14-.86 0-1.76.08-2.62.19-1.97.42-3.94.66-5.91.52-4.24 1.15-8.46 1.77-12.69 1.28-8.75 2.57-17.56 2.9-26.41.17-4.62.08-9.22-.48-13.81-.23-1.83-3.07-1.94-2.95 0"/><path d="M92.48 105.92c10.32-4.16 20.63-8.32 30.95-12.48.36 14.46-3 45.32-.75 59.61.71 4.49.02-3.49-.06 1.05 0 .45-1.94.6-2.19.98-.27.42-.9-1.1-1.35-.89-11.04 4.95-14.69 8.08-25.73 13.03 2.48-10.2-1.83-20.74-2.2-31.23-.1-2.73.08-5.47.25-8.19l1.23-19.37"/><path d="M92.88 107.37c10.37-3.98 20.63-8.28 31.06-12.09-.8-.61-1.61-1.22-2.41-1.83-.08 8.34-.49 16.66-.88 24.98-.43 9.15-.92 18.35-.47 27.5.1 1.99.24 3.97.49 5.95.21 1.63.13 4.27 2.31 4.45.61.05 1.32-.38 1.59-.91.57-1.12.33-3.42-.69-4.21-1.55-1.19-2.92.31-3.06 1.82-.02.19-.05.4-.04.59-.07.69.21.39.83-.93-.16.05-.33.1-.49.14-.32.09-.63.17-.94.28-.11.04-1.31.84-.79.43l1.44-.19c.66.14.73.56.31.04a4 4 0 0 0-.38-.41c-.47-.44-1.05-.7-1.69-.67-.78.03-1.58.53-2.28.85-.76.34-1.51.69-2.26 1.05-2.48 1.17-4.92 2.43-7.34 3.73-4.91 2.64-9.8 5.23-14.88 7.52 1 .77 2.01 1.54 3.01 2.31 2.26-9.63-.93-19.03-1.94-28.58-.52-4.96-.1-9.91.2-14.87.32-5.3.67-10.59 1.01-15.89.16-2.53-3.78-2.52-3.94 0-.32 5.13-.64 10.26-.97 15.39-.32 4.96-.81 9.94-.37 14.91.81 9.23 4.21 18.68 2.05 27.95-.43 1.86 1.4 3.04 3.01 2.31 8.77-3.96 16.89-9.17 25.65-13.17l-.95.26h.14c-.32-.1-.63-.18-.95-.27-.23-.1.05.02.15.15s.23.29.36.41c.37.35.8.58 1.31.63.69.08 1.12-.2 1.66-.59-.34.24-.51.22-.03.12.21-.04.43-.12.64-.18.91-.29 1.79-.74 2.05-1.75.11-.41.09-.94.09-1.37 0-.54 0 .16-.16.36l-1.11.85h.02l-1.8-.48c-.37-.77-.51-1-.42-.71 0 .02.01.04.02.06.03 0 .02.16.04.19.03.03.07.41.01.04-.05-.34 0 .01 0 .07 0 .15.01.31.04.45.09.48-.35.65.24-.52l1.59-.91c.53.3 1.06.61 1.59.91.34.49.12.4.07.03-.04-.29-.11-.59-.16-.88-.11-.7-.2-1.36-.27-2.07-.19-1.81-.29-3.62-.35-5.44-.14-4.17-.08-8.36.05-12.53.27-9.02.87-18.02 1.27-27.04.18-4.04.39-8.14.17-12.18-.09-1.54-1.53-2.23-2.86-1.64-10.16 4.49-20.52 8.51-30.75 12.83-1.55.65-.43 3.35 1.16 2.74Zm36.43-16.72c-.79 15.66-.56 31.86-1.36 47.52-.23 4.62-.46 9.31.51 13.84 7.42-4.97 14.84-9.94 22.25-14.91.42-.28.86-.59 1.08-1.05.26-.55.13-1.2-.01-1.79-.55-2.31-1.24-4.59-1.54-6.94-.48-3.74.03-7.53.32-11.3.44-5.72.37-11.47.29-17.22l-.18-13.81a65.9 65.9 0 0 1-20.43 6.43"/><path d="M127.99 90.29c-.62 3.94-.64 7.97-.76 11.95s-.21 8.11-.28 12.17c-.15 8.16-.28 16.33-.73 24.48-.25 4.56-.37 9.1.51 13.6.22 1.11 1.72 1.68 2.65 1.08 4.56-2.99 9.12-5.99 13.67-8.99 2.21-1.46 4.45-2.85 6.66-4.3 2.12-1.39 4.64-2.6 4.28-5.55-.3-2.53-1.3-4.95-1.65-7.48-.35-2.56-.17-5.2.04-7.77.44-5.41.66-10.79.62-16.23-.05-6.08-.16-12.16-.24-18.24-.02-1.65-1.73-2.5-3.13-1.79-6.31 3.16-12.98 5.07-19.92 6.25-2.25.38-1.75 4.3.54 4.02 7.49-.91 14.75-3.3 21.48-6.68-1.04-.6-2.09-1.2-3.13-1.79.14 10.23.65 20.56-.11 30.78-.38 5.14-.87 10.05.3 15.13.27 1.16.58 2.3.86 3.46.06.23.2.6.19.82-.02.26-.07.1.01-.02-.27.4-1.02.7-1.42.98-2.12 1.45-4.19 2.96-6.32 4.4-4.87 3.28-9.71 6.61-14.56 9.92l2.65 1.08c-1.08-5.02-.69-10.19-.46-15.28.22-5 .35-10.01.45-15.01.1-5.04.19-10.07.27-15.11.09-5.14.5-10.34.21-15.47-.08-1.44-2.43-1.97-2.69-.36Zm-55.72 56.32c-3.7-4.22-7.02-8.86-9-14.11-.61-1.61-1.09-3.34-.87-5.05s1.3-3.41 2.95-3.9c2.09-.63 4.34.87 5.32 2.82s.99 4.22.99 6.41c.63-1.85 1.08-3.77 1.88-5.55s2.01-3.47 3.74-4.36c1.74-.9 4.06-.82 5.45.55 1.33 1.31 1.52 3.45.98 5.24s-1.69 3.31-2.78 4.83a97 97 0 0 0-8.29 13.95m61.66-111.2c-4.66-2.28-9.49-6.3-11.09-11.42-.28-.88-.69-2.19-.15-3.05.42-.67 1.24-.62 1.91-.42 2.52.76 3.3 3.66 3.92 5.91.58 2.14 3.6 1.2 3.25-.9-.32-1.96-.7-4.3.16-6.18.55-1.2 3.37-3.59 4.29-1.63.43.91.45 2.07.49 3.05.06 1.33.02 2.66-.13 3.98-.3 2.7-.98 5.28-1.92 7.82-.55 1.49 1.77 2.41 2.53 1.07 1.75-3.12 2.72-6.64 2.93-10.21.17-2.89.29-7.14-2.32-9.06-2.83-2.08-7 .23-8.58 2.87s-1.2 6.17-.7 9.19l3.25-.9c-.75-2.71-1.74-5.6-4.11-7.31-2.02-1.46-5.02-1.97-7.04-.23-2.19 1.89-1.89 5.04-.97 7.51.97 2.61 2.61 4.87 4.6 6.79 2.39 2.3 5.32 4.04 8.28 5.49 1.58.78 2.98-1.6 1.39-2.37Zm-90.65 4.1c-5.11-1.73-17.85-9.09-21.69-12.89-1.32-1.3-2.57-2.76-3.16-4.52s-.43-3.87.83-5.23c1.85-2 5.25-1.59 7.49-.05s3.76 3.91 5.64 5.89c-.77-2.41-1.54-4.89-1.33-7.4s1.65-5.1 4.05-5.89c1.95-.64 4.16.05 5.7 1.41s2.46 3.29 3 5.26c1.05 3.87.73 7.97.41 11.97l-.93 11.45"/></svg>