<?xml version="1.0" encoding="UTF-8"?><svg xmlns="http://www.w3.org/2000/svg" viewBox="0 0 180 180"><path d="M88.76 141.27c-7.59-13.01-15.33-25.93-22.19-39.35C60.05 89.16 54.8 75.7 52.22 61.56c-1-5.49-1.63-11.09-1.85-16.67-.2-5.22-.01-10.51 1.25-15.59 1.2-4.82 3.42-9.35 7.18-12.69 3.46-3.07 8.02-4.19 12.56-3.63 4.88.6 9.83 3.13 12.78 7.13 1.88 2.56 2.72 5.65 3.27 8.73.74 4.06.77 8.23.84 12.35.05 2.77 4.36 2.78 4.32 0-.08-5.7.65-11.46 2.69-16.81 1.8-4.72 5.02-9.26 9.82-11.12s10.96-1.2 15.3 1.05c2.06 1.07 3.43 2.16 4.95 3.95.49.57 1.14 1.53 1.66 2.46.26.45.5.92.73 1.39.12.24.23.48.34.72.22.48.11.22.26.62 3.61 9.24 2.55 19.96.55 29.49-.99 4.71-2.31 9.37-4.02 13.87-2.91 7.68-7.08 14.86-11.29 21.88-9.16 15.24-19.89 30.58-22.7 48.55a50 50 0 0 0-.59 6.7c-.06 2.63 3.79 2.54 4.03 0 1.75-18.85 12.07-34.74 21.66-50.5 4.77-7.84 9.44-15.81 12.83-24.36 1.82-4.59 3.21-9.35 4.27-14.17 2.24-10.26 3.52-22.04-.25-32.11-1.74-4.66-4.71-8.81-8.97-11.48-4.96-3.11-11.49-4.14-17.19-3.01-12.9 2.56-17.57 16.98-18.3 28.49-.09 1.46-.13 2.93-.1 4.39h4.32c-.12-7.1-.1-15.09-3.6-21.51-2.55-4.66-7.06-7.97-11.99-9.75-4.85-1.75-10.5-1.97-15.33-.05-5.07 2.01-9.04 6.22-11.5 11.03C45.01 30.98 45.54 43.08 46.8 54c1.71 14.82 6.2 29.03 12.59 42.48 7.65 16.11 17.38 31.18 26.51 46.46 1.09 1.82 3.92.18 2.85-1.66Z"/><path d="M91 55.39c-6.07-1.38-12.82.77-16.98 5.4s-5.57 11.57-3.55 17.46c.45 1.31 1.05 2.57 1.9 3.66 1.78 2.29 4.5 3.68 7.3 4.45 6.21 1.71 13.24.54 18.3-3.45s7.86-10.8 6.66-17.13c-.4-2.11-1.22-4.16-2.53-5.86-3.1-4.06-8.61-5.72-13.69-5.27s-7.07 1.18-11.47 3.76"/><path d="M91.42 53.89c-2.07-.46-4.22-.83-6.34-.61s-4.32.78-6.36 1.67c-4.05 1.76-7.44 5.07-9.34 9.05s-2.51 8.77-1.51 13.2c1.08 4.83 4.15 8.49 8.7 10.4 8.45 3.55 19.32 1.55 25.38-5.53 5.82-6.8 7.4-18.3.43-24.99-3.47-3.33-8.49-4.82-13.24-4.59-2.33.11-4.75.41-6.98 1.14s-4.23 1.87-6.2 3.07c-2.15 1.31-.23 4.6 1.97 3.37 2.85-1.59 5.59-2.78 8.85-3.19 3.46-.43 7.01-.3 10.15 1.37 6.8 3.64 7.17 12.53 3.52 18.58-3.79 6.29-11.58 9.15-18.67 7.75-3.66-.72-7.16-2.38-8.79-5.93-1.46-3.2-1.6-6.98-.68-10.34 1.04-3.78 3.38-7.05 6.74-9.09 3.3-2.01 7.69-3.14 11.52-2.35 1.95.41 2.79-2.56.83-3Zm-4.93 97.44c-10.29-.85-20.71.07-30.7 2.69-2.41.63-4.9 1.43-6.62 3.23s-2.33 4.89-.68 6.76c.83.94 2.05 1.4 3.24 1.8 13.58 4.58 28.24 4.36 42.57 3.96 11.19-.32 22.45-.73 33.41-3.06 3.63-.77 7.38-1.84 10.04-4.42.84-.82 1.6-1.99 1.23-3.1-.24-.74-.91-1.24-1.57-1.66-6.41-4.14-14.29-5.18-21.89-5.78a261 261 0 0 0-46.7.5c-4.5.45-9.34 1.18-12.59 4.33"/><path d="M86.49 149.64c-8.27-.85-16.57-.56-24.76.86-6.06 1.05-16.93 2.76-16.44 11.11.24 4.13 3.68 5.71 7.16 6.79 3.73 1.17 7.57 1.99 11.43 2.55 8 1.17 16.08 1.32 24.16 1.16 8.33-.16 16.69-.38 24.99-1.13 4.23-.38 8.45-.91 12.62-1.69 3.58-.66 7.26-1.43 10.47-3.22 2.93-1.63 6.89-5.32 4.14-8.84-1.1-1.41-2.96-2.32-4.53-3.1-1.67-.82-3.41-1.51-5.19-2.07-7.32-2.29-15.27-2.62-22.88-3.02-8.52-.44-17.06-.46-25.59-.05-4.26.2-8.52.51-12.76.92-3.55.34-7.1.78-10.39 2.22-1.59.7-2.99 1.66-4.2 2.91-1.95 2.01.95 4.81 3.04 3.04 2.29-1.95 5.26-2.74 8.16-3.22 3.38-.56 6.84-.76 10.26-1.01 7.69-.57 15.41-.79 23.12-.69 7.24.1 14.55.35 21.74 1.26 3.24.41 6.48 1.06 9.58 2.14 1.48.52 2.91 1.15 4.29 1.91.61.34 1.18.73 1.77 1.09.16.1.33.53.31.18.02.38-.48.82-.72 1.06-2.08 2.09-5.16 2.95-7.95 3.59-3.52.81-7.1 1.38-10.68 1.8-7.58.9-15.22 1.16-22.84 1.37-14.17.39-28.86.75-42.46-3.92-1.07-.37-2.35-.78-2.54-2.04-.19-1.27.6-2.54 1.54-3.31 1.23-1 2.79-1.51 4.3-1.94 1.93-.55 3.89-1.02 5.85-1.44 8.2-1.76 16.65-2.38 25.02-1.9 2.2.13 2.12-3.16 0-3.38Zm57.86-92.2c1.49-.49 2.97-.99 4.46-1.48 1.48-.49 3-.93 4.44-1.53.75-.31 1.36-1.04 1.08-1.9-.26-.8-1.07-1.31-1.9-1.08-1.51.41-2.98.99-4.45 1.5s-2.96 1.03-4.44 1.55c-.75.26-1.33 1.05-1.06 1.87.24.75 1.06 1.33 1.87 1.06Zm-1.69 17.59c1.49.31 3.01.5 4.53.55s3.1.04 4.55-.32c.77-.19 1.24-.99 1.14-1.75s-.77-1.42-1.57-1.38c-.69.04-1.37.15-2.06.2s-1.33.06-1.99.05-1.33-.05-1.99-.11c-.16-.02-.32-.03-.47-.05-.37-.04.13.02-.21-.03-.37-.06-.73-.12-1.1-.19-.8-.15-1.73.22-1.93 1.1-.18.78.24 1.75 1.1 1.93m-3.62 15.88c.84.51 1.73.92 2.64 1.28.41.16.82.3 1.24.42.7.2 1.53.43 2.18-.05.3-.22.57-.47.66-.85s.05-.76-.14-1.1c-.3-.53-.79-.81-1.37-.95a14 14 0 0 1-2.32-.76l.38.16q-.87-.375-1.68-.84c-.71-.41-1.74-.19-2.14.56-.4.76-.19 1.68.56 2.14Zm-7.9 16.42c2.21 0 2.22-3.44 0-3.44s-2.22 3.44 0 3.44m14.53-66.68h.66c.21 0 .41-.03.63-.07l.38-.16c.19-.1.34-.24.45-.41.1-.1.17-.22.21-.35.1-.19.15-.4.14-.62l-.06-.43-.16-.38c-.1-.19-.24-.34-.41-.45-.15-.14-.34-.24-.54-.29-.22-.04-.42-.06-.63-.07h-.66c-.22 0-.43.04-.62.14-.2.07-.37.18-.52.33-.16.15-.27.32-.33.52-.1.19-.15.4-.14.62l.06.43c.08.27.22.51.42.71l.33.25c.25.15.52.22.82.22ZM32.63 77.72c-4.64 6.46-8.51 14.12-6.91 22.3 1.36 6.95 7.86 12.88 15.2 11.72 3.36-.53 6.41-2.59 8.27-5.42.93-1.41 1.77-3.26.96-4.91-.71-1.44-2.26-2.08-3.8-2.2-3.03-.22-6.06 1.92-7.88 4.18-2.03 2.51-3.15 5.6-3.38 8.81-.27 3.76 1.01 7.51 3.1 10.6 2.18 3.22 5.41 6.44 9.02 8 1.41.61 3.26-1.16 1.82-2.36-2.18-1.81-4.43-3.38-6.29-5.55s-3.08-4.5-3.69-7.16c-.98-4.25.58-9.52 4.41-11.89.79-.49 1.77-1.01 2.73-.91.18.02.49.02.63.14-.23-.19.03-.23-.13.06-.22.39-.39.8-.62 1.17-1.28 2.03-3.53 3.47-5.9 3.82-5.54.84-9.82-4.13-10.88-9.08-1.52-7.13 2.26-14 6.17-19.66 1.21-1.75-1.62-3.35-2.83-1.66"/></svg>