<?xml version="1.0" encoding="UTF-8"?><svg xmlns="http://www.w3.org/2000/svg" viewBox="0 0 180 180"><path d="M142.86 37.36c-17.04 3.99-34.23 7.34-51.44 10.47s-34.88 5.94-52.43 8.18c-4.23.54-8.46 1.04-12.7 1.51-1.9.21-4.12.16-5.7 1.4s-1.68 3.15-1.42 5.04c.5 3.61 1.03 7.21 1.54 10.82.58 4.07.57 8.8 4.68 11.06 1.66.91 3.36.81 5.16 1.09s3.53.87 5.1 1.77c2.83 1.62 4.92 4.19 5.64 7.39.65 2.84.17 5.97-1.33 8.46-1.9 3.16-5.29 4.34-8.72 5.1-2.06.46-4.09.98-4.99 3.11-.83 1.95-.46 4.41-.43 6.48.06 4.84.14 9.67.21 14.51.04 2.38.07 4.75.11 7.13.02 1.28 1.04 2.26 2.31 2.31 8.17.31 16.26-1.12 24.23-2.78 8.17-1.7 16.31-3.49 24.46-5.27 16.36-3.56 32.72-7.19 49.06-10.84 8.17-1.83 16.34-3.66 24.51-5.51 4.12-.93 8.25-1.87 12.37-2.8 2-.45 4.03-.83 6.01-1.36s3.32-2.02 3.22-4.12c-.09-1.99-1.01-4.06-1.57-5.95l-1.74-5.9c-1.03-3.5-1.74-7.26-5.42-8.89-1.45-.64-3.03-.64-4.54-1.09-1.35-.41-2.63-1.07-3.76-1.91-2.24-1.66-3.86-4.13-4.32-6.89-.43-2.54.16-5.24 1.39-7.48.66-1.19 1.47-2.23 2.48-3.15 1.09-.99 2.37-1.51 3.64-2.21 1.7-.94 2.76-2.58 2.59-4.56s-.83-3.98-1.29-5.92l-2.88-12.15-1.41-5.96c-.67-2.84-5.04-1.64-4.37 1.2.94 3.97 1.87 7.94 2.81 11.91l1.35 5.72c.22.95.45 1.91.67 2.86.11.48.23.95.34 1.43.05.23.39 1.05.26 1.3-.19.39-2.3 1.15-2.87 1.53-1.3.85-2.49 1.89-3.48 3.09-1.92 2.33-3.27 5.13-3.72 8.13-.96 6.33 1.94 12.34 7.38 15.71 1.28.79 2.69 1.41 4.13 1.84 1.24.36 2.75.26 3.89.88 1.26.68 1.52 1.97 1.9 3.24l1.8 6.14c.56 1.89 1.11 3.78 1.66 5.67.13.43.22.88.37 1.3l.08.36c-.01-.27.1-.49.35-.67-.01-.03-3.01.68-3.28.74l-11.65 2.61c-7.93 1.78-15.86 3.56-23.79 5.33-15.86 3.55-31.72 7.08-47.59 10.56-8.91 1.95-17.82 3.88-26.74 5.79s-17.53 3.76-26.53 3.45l2.31 2.31-.24-14.26c-.04-2.38-.08-4.75-.13-7.13l-.06-3.2c-.01-.58-.12-1.63.2-1.84.63-.42 1.8-.43 2.54-.61 1.03-.25 2.05-.53 3.05-.9 1.88-.7 3.63-1.63 5.15-2.97 2.44-2.17 4.02-5.33 4.54-8.53 1.17-7.25-2.51-14.19-9.21-17.28-1.76-.81-3.59-1.37-5.51-1.63-1.44-.2-3 0-4.15-1.04-.48-.43-.67-.93-.89-1.51-.24-.62 0 .2-.07-.26-.11-.67-.18-1.35-.27-2.02-.58-4.23-1.19-8.47-1.78-12.7l-.27-1.91c-.02-.11-.03-.23-.05-.34.03.26.04.17 0-.16-.11-.74 0-.11-.13-.08 1.83-.38 3.73-.48 5.59-.7 2.08-.24 4.16-.49 6.24-.76 17.35-2.18 34.62-4.99 51.81-8.18 16.98-3.15 33.82-6.88 50.65-10.72 2.02-.46 4.03-.93 6.04-1.4 2.21-.52 1.28-3.92-.94-3.41Z"/><path d="M22.42 76.34c-3.69.94-7.39 1.89-11.08 2.83-.42.11-.88.24-1.13.59-.26.36-.22.85-.17 1.29.44 3.97 1.17 7.9 2.21 11.75.11.43.25.88.58 1.17.35.31.84.39 1.3.45 2.74.38 5.5.8 8.05 1.88 2.54 1.08 4.88 2.88 6.06 5.38s.98 5.74-.92 7.75c-1.38 1.46-3.57 2.3-4.22 4.2-.45 1.31 0 2.75.44 4.06 1.53 4.56 3.07 9.11 4.6 13.67-.37-5.22-.73-10.45-1.1-15.67-.04-.52-.07-1.05.1-1.55.25-.74.92-1.25 1.57-1.69 3.33-2.22 9.28-3.38 10.86-7.06.87-2.04 1.88-5.16 1.99-7.37.11-2.13-1.73-4.83-2.59-6.78-1.19-2.68-4.95-3.09-7.79-3.82-1.21-.31-2.44-.57-3.59-1.07-3.09-1.34-5.33-4.46-5.61-7.82"/><path d="M22.05 75c-3.12.54-6.19 1.17-9.28 1.89-1.16.27-2.53.4-3.5 1.15-1.14.88-1.25 2.17-1.1 3.5.33 3.03.84 6.04 1.51 9.01.57 2.53.93 5.27 3.92 5.78 4.57.78 10.79 1.46 12.9 6.38.75 1.75.67 4.04-.72 5.45-1.56 1.58-3.64 2.45-4.48 4.65-1.14 2.97.65 6.4 1.6 9.19 1.12 3.3 2.24 6.59 3.43 9.87.67 1.84 3.88 1.75 3.67-.5-.28-3.02-.57-6.04-.83-9.06-.12-1.39-.19-2.78-.28-4.16-.08-1.18-.67-3.13.35-3.97 1.46-1.21 3.5-1.85 5.21-2.61 1.83-.82 3.69-1.73 5.13-3.16 1.56-1.54 2.24-3.71 2.88-5.75.69-2.19 1.3-4.53.69-6.81-.55-2.05-1.62-4.34-2.74-6.15-1.16-1.87-3.26-2.82-5.3-3.4-2.44-.7-5.24-.9-7.44-2.21-1.95-1.15-3.38-3.27-3.62-5.54-.12-1.11-.87-2.07-2.07-2.07-1.03 0-2.19.95-2.07 2.07.53 5.14 3.95 9.04 8.9 10.41 2.08.58 4.31.84 6.34 1.62s2.42 2.4 3.34 4.11c.47.88 1.03 1.84 1.17 2.85.15 1.09-.19 2.31-.45 3.36-.46 1.83-.96 4.01-2.43 5.3-2.99 2.64-7.61 2.93-10.34 5.91-1.08 1.18-1.16 2.54-1.05 4.06.12 1.63.25 3.26.37 4.9.25 3.42.36 6.86.52 10.28l3.67-.5c-.86-2.77-1.76-5.52-2.68-8.27-.45-1.34-.9-2.67-1.34-4.01-.39-1.16-1.06-2.5-1.02-3.74.04-1.72 2.52-2.72 3.6-3.76 1.63-1.58 2.46-3.81 2.47-6.06.03-4.66-3.37-8.44-7.44-10.28-2.46-1.11-5.07-1.67-7.73-2.05-.42-.06-1.25-.33-1.66-.25l-.17-.04c.26.27.33.28.22.04.07-.18-.24-.9-.29-1.09q-.54-2.085-.96-4.2c-.3-1.48-.55-2.97-.76-4.46-.02-.14-.2-1.98-.23-1.98l-.4.39.32-.1c.39.05 1.04-.29 1.44-.4 3.21-.89 6.36-1.85 9.51-2.93 1.71-.59 1.01-2.99-.74-2.68Zm16.3 65.94c38.6-1.61 79.4-2.64 117.91-5.72.06-5.19-.53-10.4-1.75-15.44-.12-.5-.28-1.05-.72-1.33-.42-.26-.96-.19-1.45-.09-2.69.51-5.33 1.23-7.99 1.88-18.85 4.62-38.36 5.98-57.32 10.16-8.59 1.89-17.03 4.36-25.47 6.83"/><path d="M38.35 142.57c15.31-.53 30.62-.71 45.93-1.28s30.9-1.19 46.34-2.08c8.55-.5 17.1-1.07 25.64-1.74 1.22-.09 2.24-.96 2.25-2.25.04-3.84-.29-7.63-.87-11.42-.46-3.05-.7-8.15-4.93-7.88-1.91.12-3.87.75-5.72 1.2s-3.74.93-5.62 1.37c-3.59.82-7.21 1.54-10.84 2.18-14.85 2.65-29.88 4.23-44.61 7.53-8.43 1.89-16.67 4.46-24.95 6.88-2.75.8-1.58 5.1 1.18 4.29 11.83-3.46 23.76-6.58 35.91-8.7 11.86-2.07 23.82-3.47 35.65-5.7 3.31-.62 6.6-1.31 9.88-2.09 1.72-.41 3.43-.86 5.15-1.28.78-.19 1.56-.38 2.35-.56.55-.12 1.59-.51 2.08-.3l-1.05-.61c.41.33.59 2.15.73 2.8.29 1.34.53 2.69.7 4.05.34 2.74.48 5.49.47 8.25l2.25-2.25c-30.68 2.51-61.47 3.62-92.22 4.93-8.57.36-17.12.99-25.69 1.41-2.09.1-2.11 3.34 0 3.27Zm6.03-83.76c.04.19.03.21 0 .06v.23c0 .16.03.31.05.47l.11 1.01c.08.76.16 1.51.27 2.26.1.65.19 1.31.29 1.96s.14 1.38.31 2.03c.23.89 1.14 1.44 2.02 1.32s1.67-.89 1.6-1.81c-.06-.79-.26-1.57-.41-2.35l-.39-2.01c-.13-.67-.29-1.33-.44-2s-.36-1.32-.49-1.99c-.15-.78-1.13-1.3-1.86-1.06-.86.28-1.18 1.02-1.06 1.86Zm2.88 16.1c-.11 1.26.28 2.56.56 3.78.13.59.27 1.18.4 1.77.18.78.29 1.62.9 2.2.92.87 2.33.45 2.72-.72.26-.79-.07-1.63-.28-2.4l-.45-1.62c-.15-.54-.29-1.08-.45-1.62-.09-.28-.18-.55-.25-.83-.03-.12-.05-.24-.08-.36-.03-.18-.03-.16 0 .05 0-.08-.01-.16-.01-.25-.03-.8-.68-1.57-1.53-1.53-.89.04-1.45.67-1.53 1.53m2.87 14.44c-.05.29-.12.57-.1.86s.06.59.12.88c.07.4.14.81.19 1.21l-.06-.43c.07.5.13 1 .2 1.49l-.06-.44c.06.42.1.84.14 1.27.05.64.02 1.32.39 1.87.32.48.79.79 1.38.79.54 0 1.13-.3 1.38-.79.23-.45.32-.89.28-1.39l-.09-.79c-.08-.61-.16-1.21-.27-1.81-.09-.49-.23-.96-.37-1.44-.1-.34-.21-.65-.35-.98s-.35-.6-.6-.87c-.62-.7-2.03-.38-2.19.58Zm2.34 14.32c-.21.62-.2 1.26-.19 1.91.01.56.03 1.11.07 1.67s.11 1.11.18 1.66c.11.85.13 1.74.82 2.35s1.85.59 2.33-.3c.31-.57.34-1.05.24-1.66-.04-.28-.1-.55-.15-.82s-.09-.55-.13-.83c-.02-.12-.03-.24-.05-.35-.03-.18-.02-.16 0 .08-.02-.16-.04-.33-.07-.49l-.12-.76-.03-.24q.045.33 0 .06c-.01-.12-.03-.24-.04-.36-.04-.37-.08-.74-.14-1.12-.02-.12-.03-.23-.05-.35a1 1 0 0 0-.17-.46c.07.17.07.17 0 .02-.22-.53-.65-1-1.27-.97s-1.08.4-1.27.97Zm1.22 15.09c.03.76.18 1.51.29 2.26.1.64.19 1.27.3 1.91l.33 1.9c.06.33.1.66.17.98.13.63.47 1.05.98 1.43.29.22.86.26 1.19.16.39-.13.7-.36.92-.71.55-.86.21-1.85.03-2.77l-.35-1.82c-.12-.61-.25-1.21-.38-1.81-.14-.65-.25-1.31-.47-1.93-.25-.73-.91-1.21-1.69-1.1-.73.1-1.36.74-1.33 1.51Z"/><path d="M55.52 132.9q-.075 1.395.09 2.79c.14 1.15.3 2.36.78 3.43.16.36.68.73 1.06.82s.78.07 1.16-.09c.34-.14.67-.39.85-.73.24-.45.26-.87.18-1.37-.07-.43-.23-.85-.33-1.28s-.17-.86-.23-1.3l.06.47c-.12-.91-.16-1.82-.12-2.74s-.83-1.79-1.75-1.75c-.99.04-1.7.77-1.75 1.75M97.4 60.55c-4.52-.41-8.05 2.41-10.44 5.98-1.98 2.96-4.66 9.4-2.99 13-1.5-3.23-3.67-6.14-6.34-8.49-2.62-2.31-5.87-4.12-9.35-4.19-4.53-.1-7.93 3.31-8.55 7.67-.75 5.21 1.33 10.86 3.97 15.27 5.4 9.04 18.38 16.03 26.21 23.06 7.04-9.69 14.62-21 16.71-33.02 1.32-7.61.49-18.41-9.22-19.28m-1.43 23.66a42.8 42.8 0 0 1-7.56 13.96c-.63.78-1.38 1.59-2.74 1.05-.6-.24-1.11-.68-1.51-1.19-3.51-4.5-12.61-14.94-1.97-16.52 3.9-.58 7.87-.68 11.8-.3 1.46.14 2.43 1.61 1.98 3"/><path d="M97.4 58.55c-5.48-.38-10 3.27-12.67 7.78-2.4 4.05-4.44 9.63-2.48 14.21 1.15-.67 2.3-1.35 3.45-2.02-2.66-5.61-7.39-10.88-13.37-12.95-5.7-1.97-11.66.44-13.92 6.12-2.36 5.93.18 13.17 3.14 18.4 2.81 4.95 7.11 8.83 11.53 12.32 5.08 4.01 10.57 7.54 15.4 11.85 1.03.92 2.36.67 3.14-.4 6.04-8.33 11.92-17.03 15.22-26.87 2.3-6.86 3.73-15.57.2-22.29-1.96-3.74-5.53-5.73-9.65-6.15-1.08-.11-2 1-2 2 0 1.17.92 1.89 2 2 6.36.65 7.85 7.22 7.69 12.61-.24 8.39-3.94 16.43-8.12 23.54-2.68 4.55-5.7 8.88-8.79 13.14l3.14-.4c-7.6-6.78-16.96-11.63-23.6-19.46-3.35-3.94-5.93-9.33-6.13-14.55-.09-2.23.23-4.53 1.7-6.31 1.44-1.74 3.58-2.49 5.8-2.22 6.02.71 10.75 6.53 13.17 11.65.46.98 1.86 1.23 2.74.72 1.03-.6 1.14-1.74.72-2.74-.62-1.46-.16-3.4.23-4.86.51-1.87 1.27-3.66 2.25-5.32 1.99-3.36 5.12-6.08 9.22-5.79 2.57.18 2.56-3.82 0-4Z"/><path d="M94.04 83.68c-1.4 4.32-3.5 8.36-6.21 12q-.405.555-.84 1.08c-.22.27-.52.7-.69.71.37 0-.07-.17-.12-.22-.29-.26-.54-.54-.78-.85-.79-1-1.54-1.94-2.09-2.67-.85-1.13-1.68-2.3-2.41-3.51-.32-.54-.63-1.09-.9-1.65-.08-.16-.16-.33-.23-.49-.24-.53.13.37-.07-.17-.12-.31-.23-.63-.32-.95-.07-.25-.11-.51-.18-.77-.12-.47-.02.41 0-.06 0-.09-.01-.2-.01-.29 0-.14.02-.28.01-.42-.02-.44-.08.32 0 .05.03-.11.06-.22.08-.33.11-.5-.12.08.05-.14.04-.06.11-.18.14-.23.16-.37-.29.24.03-.04.09-.08.66-.54.28-.28.24-.16.48-.3.74-.43.53-.26-.36.11.23-.09.23-.08.47-.15.71-.21 2.46-.64 5.17-.7 7.69-.71 1.39 0 2.78.07 4.17.16.34.02.33.04.63.08-.2-.03.24.21.08.07.12.1.1.16.04.37-.66 2.49 3.2 3.55 3.86 1.06.36-1.38.11-2.77-.77-3.89-.93-1.19-2.21-1.56-3.66-1.69-3.06-.26-6.15-.23-9.21.09-2.25.24-4.75.45-6.65 1.82-1.47 1.06-2.32 2.59-2.41 4.4-.17 3.3 1.98 6.55 3.81 9.11 1 1.41 2.08 2.76 3.15 4.11.62.79 1.23 1.56 2.13 2.07 1.31.74 2.91.87 4.22.05s2.13-2.2 2.97-3.36c.89-1.22 1.72-2.49 2.48-3.8 1.63-2.81 2.94-5.82 3.94-8.91.79-2.45-3.07-3.51-3.86-1.06Zm21.35-24.82c-.21 1.07-.32 2.26.22 3.26.66 1.22 2.05 1.56 3.32 1.22 2.51-.67 4.85-2.46 6.51-4.41h-2.2c-.16-.66-.24-.77-.23-.34l-.03.24c-.01.3-.02.6.05.89.15.64.57 1.21 1.12 1.57 1.38.91 2.91.33 4.35-.09s2.92-.81 4.4-1.1 3.15-.34 4.67-.7c1.84-.43 1.32-3.06-.43-3.16-1.25-.07-2.59.22-3.82.42-1.31.22-2.6.49-3.88.83-.61.16-1.22.33-1.82.53-.3.1-.6.2-.9.31-.18.06-.72.15-.81.25.03-.04.03.86.21.25.05-.17.02-.4 0-.58-.04-.6-.25-1.12-.7-1.52-.58-.52-1.64-.68-2.2 0-.96 1.17-2.06 2.16-3.36 2.93-.28.16-.56.32-.86.47-.15.08-.88.52-1.01.49.05.01-.02-.78.01-1.03.1-.74-.18-1.46-.95-1.68-.67-.19-1.54.23-1.68.95Zm1.43 13.87c3.7-.54 7.35-1.19 10.96-2.18 1.76-.48 3.49-1.04 5.22-1.6.88-.28 1.77-.56 2.69-.74s1.82-.1 2.69-.35c1.64-.48 1.37-2.5 0-3.07-1.64-.69-3.94.07-5.53.6-1.86.61-3.68 1.3-5.55 1.87-3.67 1.12-7.45 2.08-11.25 2.68-.78.12-1.19 1.08-1.01 1.78.22.83 1.01 1.12 1.78 1.01m1.78 9.72c6.78-1.83 13.63-3.42 20.43-5.15 2.25-.57 1.29-4.08-.96-3.48-6.79 1.8-13.52 3.81-20.3 5.64-1.93.52-1.11 3.52.83 3Zm7.6 12.89.2-.02c.23 0 .44-.04.64-.14.21-.07.39-.18.54-.35.16-.15.28-.33.35-.54.1-.2.15-.41.14-.64l-.06-.44c-.08-.28-.22-.53-.43-.74l-.34-.26c-.26-.15-.54-.23-.84-.23l-.2-.02c-.23 0-.45.04-.65.15-.21.07-.39.18-.54.35-.16.15-.28.33-.35.54-.11.2-.15.42-.15.65l.06.45c.08.29.22.53.43.74l.34.26c.26.15.55.23.85.23Zm6.57-1.65c2.09 0 2.09-3.25 0-3.25s-2.09 3.25 0 3.25m8.14-5.02-.07-.16q-.195-.33-.54-.54a1.5 1.5 0 0 0-1.5 0q-.33.195-.54.54l-.07.16c-.14.25-.21.51-.22.8 0 .28.07.55.22.8q.21.36.57.57c.25.14.51.21.8.22.28 0 .55-.07.8-.22q.36-.21.57-.57c.14-.25.21-.51.22-.8 0-.28-.07-.55-.22-.8Z"/></svg>